<?xml version="1.0" encoding="UTF-8" standalone="no"?>
<!-- Created with Inkscape (http://www.inkscape.org/) -->
<svg
   xmlns:dc="http://purl.org/dc/elements/1.1/"
   xmlns:cc="http://web.resource.org/cc/"
   xmlns:rdf="http://www.w3.org/1999/02/22-rdf-syntax-ns#"
   xmlns:svg="http://www.w3.org/2000/svg"
   xmlns="http://www.w3.org/2000/svg"
   xmlns:sodipodi="http://inkscape.sourceforge.net/DTD/sodipodi-0.dtd"
   xmlns:inkscape="http://www.inkscape.org/namespaces/inkscape"
   width="841.88977pt"
   height="595.27557pt"
   id="svg4527"
   sodipodi:version="0.32"
   inkscape:version="0.43"
   sodipodi:docbase="/home/fab/Desktop/alex"
   sodipodi:docname="flexures.svg"
   version="1.0">
  <defs
     id="defs4529" />
  <sodipodi:namedview
     id="base"
     pagecolor="#ffffff"
     bordercolor="#666666"
     borderopacity="1.0"
     inkscape:pageopacity="0.0"
     inkscape:pageshadow="2"
     inkscape:zoom="0.35"
     inkscape:cx="375"
     inkscape:cy="520"
     inkscape:document-units="px"
     inkscape:current-layer="layer1"
     inkscape:window-width="822"
     inkscape:window-height="555"
     inkscape:window-x="338"
     inkscape:window-y="50" />
  <metadata
     id="metadata4532">
    <rdf:RDF>
      <cc:Work
         rdf:about="">
        <dc:format>image/svg+xml</dc:format>
        <dc:type
           rdf:resource="http://purl.org/dc/dcmitype/StillImage" />
      </cc:Work>
    </rdf:RDF>
  </metadata>
  <g
     inkscape:label="Layer 1"
     inkscape:groupmode="layer"
     id="layer1">
    <g
       style="fill-rule:evenodd"
       id="g5326"
       transform="matrix(0,90,-90,0,289.313,340.1188)">
      <path
         class="fil0 str0"
         d="M -3.6901461,0.91939333 L -3.6901461,0.91939333 M -3.6901461,3.0847433 L -3.6901461,0.91939333"
         id="path1496"
         style="fill:none;stroke:#000000;stroke-width:0.01111111;stroke-linejoin:bevel;stroke-miterlimit:4;stroke-dasharray:none" />
      <path
         class="fil0 str0"
         d="M -3.2341821,3.0847433 L -3.2341821,3.0847433 M -3.6901471,3.0847433 L -3.2341821,3.0847433"
         id="path1498"
         style="fill:none;stroke:#000000;stroke-width:0.01111111;stroke-linejoin:bevel;stroke-miterlimit:4;stroke-dasharray:none" />
      <path
         class="fil0 str0"
         d="M -3.2341821,3.0847433 C -3.1906939,3.0847433 -3.1554419,3.0494913 -3.1554419,3.0060071"
         id="path1500"
         style="fill:none;stroke:#000000;stroke-width:0.01111111;stroke-linejoin:bevel;stroke-miterlimit:4;stroke-dasharray:none" />
      <path
         class="fil0 str0"
         d="M -3.1554421,2.6863233 L -3.1554421,2.6863233 M -3.1554421,3.0060083 L -3.1554421,2.6863233"
         id="path1502"
         style="fill:none;stroke:#000000;stroke-width:0.01111111;stroke-linejoin:bevel;stroke-miterlimit:4;stroke-dasharray:none" />
      <path
         class="fil0 str0"
         d="M -3.0767011,2.6075833 C -3.097583,2.6075833 -3.1176105,2.6158786 -3.1323783,2.6306463 C -3.1471421,2.6454101 -3.1554413,2.6654376 -3.1554413,2.6863235"
         id="path1504"
         style="fill:none;stroke:#000000;stroke-width:0.01111111;stroke-linejoin:bevel;stroke-miterlimit:4;stroke-dasharray:none" />
      <path
         class="fil0 str0"
         d="M -2.6596311,2.6075833 L -2.6596311,2.6075833 M -3.0767021,2.6075833 L -2.6596311,2.6075833"
         id="path1506"
         style="fill:none;stroke:#000000;stroke-width:0.01111111;stroke-linejoin:bevel;stroke-miterlimit:4;stroke-dasharray:none" />
      <path
         class="fil0 str0"
         d="M -2.6596311,2.6075833 C -2.6161468,2.6075833 -2.5808909,2.5723313 -2.5808909,2.5288431"
         id="path1508"
         style="fill:none;stroke:#000000;stroke-width:0.01111111;stroke-linejoin:bevel;stroke-miterlimit:4;stroke-dasharray:none" />
      <path
         class="fil0 str0"
         d="M -2.5808911,2.4769433 L -2.5808911,2.4769433 M -2.5808911,2.5288409 L -2.5808911,2.4769433"
         id="path1510"
         style="fill:none;stroke:#000000;stroke-width:0.01111111;stroke-linejoin:bevel;stroke-miterlimit:4;stroke-dasharray:none" />
      <path
         class="fil0 str0"
         d="M -2.5808911,2.4769433 C -2.5808911,2.4560575 -2.5891864,2.4360299 -2.6039541,2.4212622 C -2.6187218,2.4064984 -2.6387494,2.3982031 -2.6596313,2.3982031"
         id="path1512"
         style="fill:none;stroke:#000000;stroke-width:0.01111111;stroke-linejoin:bevel;stroke-miterlimit:4;stroke-dasharray:none" />
      <path
         class="fil0 str0"
         d="M -2.6596311,2.3982033 L -2.6596311,2.3982033 M -2.6596311,2.3982033 L -3.0767021,2.3982033"
         id="path1514"
         style="fill:none;stroke:#000000;stroke-width:0.01111111;stroke-linejoin:bevel;stroke-miterlimit:4;stroke-dasharray:none" />
      <path
         class="fil0 str0"
         d="M -3.1554421,2.3194633 C -3.1554421,2.3403452 -3.1471429,2.3603727 -3.1323791,2.3751405 C -3.1176114,2.3899043 -3.0975838,2.3982035 -3.0767019,2.3982035"
         id="path1516"
         style="fill:none;stroke:#000000;stroke-width:0.01111111;stroke-linejoin:bevel;stroke-miterlimit:4;stroke-dasharray:none" />
      <path
         class="fil0 str0"
         d="M -3.1554421,2.2776633 L -3.1554421,2.2776633 M -3.1554421,2.3194664 L -3.1554421,2.2776633"
         id="path1518"
         style="fill:none;stroke:#000000;stroke-width:0.01111111;stroke-linejoin:bevel;stroke-miterlimit:4;stroke-dasharray:none" />
      <path
         class="fil0 str0"
         d="M -3.0373311,2.1595533 C -3.0686539,2.1595533 -3.0986972,2.1719982 -3.1208468,2.1941478 C -3.1429964,2.2162974 -3.1554413,2.2463407 -3.1554413,2.2776635"
         id="path1520"
         style="fill:none;stroke:#000000;stroke-width:0.01111111;stroke-linejoin:bevel;stroke-miterlimit:4;stroke-dasharray:none" />
      <path
         class="fil0 str0"
         d="M -2.3318811,2.1595533 L -2.3318811,2.1595533 M -2.3318811,2.1595533 L -3.0373341,2.1595533"
         id="path1522"
         style="fill:none;stroke:#000000;stroke-width:0.01111111;stroke-linejoin:bevel;stroke-miterlimit:4;stroke-dasharray:none" />
      <path
         class="fil0 str0"
         d="M -1.9775511,2.1595533 L -1.9775511,2.1595533 M -1.9775511,2.1595533 L -2.3318821,2.1595533"
         id="path1524"
         style="fill:none;stroke:#000000;stroke-width:0.01111111;stroke-linejoin:bevel;stroke-miterlimit:4;stroke-dasharray:none" />
      <line
         class="fil0 str0"
         x1="-1.1901512"
         y1="2.1595533"
         x2="-1.9775512"
         y2="2.1595533"
         id="line1526"
         style="fill:none;stroke:#000000;stroke-width:0.01111111;stroke-linejoin:bevel;stroke-miterlimit:4;stroke-dasharray:none" />
      <line
         class="fil0 str0"
         x1="-1.1901512"
         y1="2.1004934"
         x2="-1.1901512"
         y2="2.1595533"
         id="line1528"
         style="fill:none;stroke:#000000;stroke-width:0.01111111;stroke-linejoin:bevel;stroke-miterlimit:4;stroke-dasharray:none" />
      <path
         class="fil0 str0"
         d="M -1.1901511,2.1004933 L -1.1901511,2.1004933 M -3.1783411,2.1004933 L -1.1901511,2.1004933"
         id="path1530"
         style="fill:none;stroke:#000000;stroke-width:0.01111111;stroke-linejoin:bevel;stroke-miterlimit:4;stroke-dasharray:none" />
      <path
         class="fil0 str0"
         d="M -3.2964461,1.9823833 C -3.2964461,2.0137101 -3.2840012,2.0437534 -3.2618516,2.065903 C -3.239702,2.0880526 -3.2096587,2.1004936 -3.1783359,2.1004936"
         id="path1532"
         style="fill:none;stroke:#000000;stroke-width:0.01111111;stroke-linejoin:bevel;stroke-miterlimit:4;stroke-dasharray:none" />
      <path
         class="fil0 str0"
         d="M -3.2964461,1.6388533 L -3.2964461,1.6388533 M -3.2964461,1.9823883 L -3.2964461,1.6388533"
         id="path1534"
         style="fill:none;stroke:#000000;stroke-width:0.01111111;stroke-linejoin:bevel;stroke-miterlimit:4;stroke-dasharray:none" />
      <path
         class="fil0 str0"
         d="M -3.2509811,1.5674833 C -3.2787173,1.5804164 -3.2964457,1.6082431 -3.2964457,1.6388455"
         id="path1536"
         style="fill:none;stroke:#000000;stroke-width:0.01111111;stroke-linejoin:bevel;stroke-miterlimit:4;stroke-dasharray:none" />
      <path
         class="fil0 str0"
         d="M -2.5090411,1.2215133 L -2.5090411,1.2215133 M -2.5090411,1.2215133 L -3.2509781,1.5674853"
         id="path1538"
         style="fill:none;stroke:#000000;stroke-width:0.01111111;stroke-linejoin:bevel;stroke-miterlimit:4;stroke-dasharray:none" />
      <path
         class="fil0 str0"
         d="M -2.5090411,0.91939333 L -2.5090411,0.91939333 M -2.5090411,1.2215153 L -2.5090411,0.91939333"
         id="path1540"
         style="fill:none;stroke:#000000;stroke-width:0.01111111;stroke-linejoin:bevel;stroke-miterlimit:4;stroke-dasharray:none" />
      <path
         class="fil0 str0"
         d="M -2.5090411,0.91939333 L -2.5090411,0.91939333 M -2.5090411,0.91939333 L -2.7846321,0.91939333"
         id="path1542"
         style="fill:none;stroke:#000000;stroke-width:0.01111111;stroke-linejoin:bevel;stroke-miterlimit:4;stroke-dasharray:none" />
      <path
         class="fil0 str0"
         d="M -2.7846311,0.91939333 L -2.7846311,0.91939333 M -2.7846311,0.91939333 L -3.3059031,0.91939333"
         id="path1544"
         style="fill:none;stroke:#000000;stroke-width:0.01111111;stroke-linejoin:bevel;stroke-miterlimit:4;stroke-dasharray:none" />
      <path
         class="fil0 str0"
         d="M -3.2341821,0.91939333 L -3.2341821,0.91939333 M -3.2341821,0.91939333 L -3.6901471,0.91939333"
         id="path1546"
         style="fill:none;stroke:#000000;stroke-width:0.01111111;stroke-linejoin:bevel;stroke-miterlimit:4;stroke-dasharray:none" />
      <path
         class="fil0 str0"
         d="M -1.5369311,0.64284533 L -1.5386752,0.64284533 C -1.5386752,0.64284533 -1.5386752,0.64284533 -1.5386752,0.64284533 C -1.5386752,0.64284533 -1.5386752,0.64284533 -1.5386752,0.64284533 L -1.5386752,0.64284533 C -1.5386752,0.64284533 -1.5386752,0.64284533 -1.5386752,0.64284533 C -1.5386752,0.64284533 -1.5386752,0.64284533 -1.5386752,0.64284533 L -1.5386752,0.64284533 C -1.5386752,0.64284533 -1.5386752,0.64284533 -1.5386752,0.64284533 C -1.5386752,0.64284533 -1.5386752,0.64284533 -1.5386752,0.64284533 L -1.5386752,0.64284533 C -1.5386752,0.64284533 -1.5386752,0.64284533 -1.5386752,0.64284533 C -1.5386752,0.64284533 -1.5386752,0.64284533 -1.5386752,0.64284533 L -1.5386752,0.64284533 C -1.5386752,0.64284533 -1.5386752,0.64284533 -1.5386752,0.64284533 C -1.5386752,0.64284533 -1.5386752,0.64284533 -1.5386752,0.64284533 L -1.5386752,0.64284533 C -1.5386752,0.64284533 -1.5386752,0.64284533 -1.5386752,0.64284533 C -1.5386752,0.64284533 -1.5386752,0.64284533 -1.5386752,0.64284533 L -1.5386752,0.64284533 L -1.5386752,0.64284533 L -1.5386752,0.64284533 L -1.5386752,0.64284533 L -1.5386752,0.64284533 C -1.5386752,0.64284533 -1.5386752,0.64284533 -1.5386752,0.64284533 C -1.5386752,0.64284533 -1.5386752,0.64284533 -1.5386752,0.64284533 L -1.5386752,0.64284533 C -1.5386752,0.64284533 -1.5386752,0.64284533 -1.5386752,0.64284533 L -1.5386752,0.64284533 L -1.5386752,0.64284533 L -1.5386752,0.64284533 L -1.5386752,0.64284533"
         id="path1548"
         style="fill:none;stroke:#000000;stroke-width:0.01111111;stroke-linejoin:bevel;stroke-miterlimit:4;stroke-dasharray:none" />
      <path
         class="fil0 str0"
         d="M -3.3326071,2.8878933 C -3.3326071,2.8552791 -3.3590441,2.8288382 -3.3916622,2.8288382 C -3.4242764,2.8288382 -3.4507173,2.8552791 -3.4507173,2.8878933 C -3.4507173,2.9205114 -3.4242764,2.9469484 -3.3916622,2.9469484 C -3.3590441,2.9469484 -3.3326071,2.9205114 -3.3326071,2.8878933 z "
         id="path1550"
         style="fill:none;stroke:#000000;stroke-width:0.01111111;stroke-linejoin:bevel;stroke-miterlimit:4;stroke-dasharray:none" />
      <path
         class="fil0 str0"
         d="M -3.4342411,1.1162433 C -3.4342411,1.0836291 -3.460682,1.0571882 -3.4932962,1.0571882 C -3.5259104,1.0571882 -3.5523513,1.0836291 -3.5523513,1.1162433 C -3.5523513,1.1488614 -3.5259104,1.1752984 -3.4932962,1.1752984 C -3.460682,1.1752984 -3.4342411,1.1488614 -3.4342411,1.1162433 z "
         id="path1552"
         style="fill:none;stroke:#000000;stroke-width:0.01111111;stroke-linejoin:bevel;stroke-miterlimit:4;stroke-dasharray:none" />
    </g>
    <g
       style="fill-rule:evenodd"
       transform="matrix(0,-90,-90,0,303.313,-41.10871)"
       id="g5357">
      <path
         style="fill:none;stroke:#000000;stroke-width:0.01111111;stroke-linejoin:bevel;stroke-miterlimit:4;stroke-dasharray:none"
         id="path5359"
         d="M -3.6901461,0.91939333 L -3.6901461,0.91939333 M -3.6901461,3.0847433 L -3.6901461,0.91939333"
         class="fil0 str0" />
      <path
         style="fill:none;stroke:#000000;stroke-width:0.01111111;stroke-linejoin:bevel;stroke-miterlimit:4;stroke-dasharray:none"
         id="path5361"
         d="M -3.2341821,3.0847433 L -3.2341821,3.0847433 M -3.6901471,3.0847433 L -3.2341821,3.0847433"
         class="fil0 str0" />
      <path
         style="fill:none;stroke:#000000;stroke-width:0.01111111;stroke-linejoin:bevel;stroke-miterlimit:4;stroke-dasharray:none"
         id="path5363"
         d="M -3.2341821,3.0847433 C -3.1906939,3.0847433 -3.1554419,3.0494913 -3.1554419,3.0060071"
         class="fil0 str0" />
      <path
         style="fill:none;stroke:#000000;stroke-width:0.01111111;stroke-linejoin:bevel;stroke-miterlimit:4;stroke-dasharray:none"
         id="path5365"
         d="M -3.1554421,2.6863233 L -3.1554421,2.6863233 M -3.1554421,3.0060083 L -3.1554421,2.6863233"
         class="fil0 str0" />
      <path
         style="fill:none;stroke:#000000;stroke-width:0.01111111;stroke-linejoin:bevel;stroke-miterlimit:4;stroke-dasharray:none"
         id="path5367"
         d="M -3.0767011,2.6075833 C -3.097583,2.6075833 -3.1176105,2.6158786 -3.1323783,2.6306463 C -3.1471421,2.6454101 -3.1554413,2.6654376 -3.1554413,2.6863235"
         class="fil0 str0" />
      <path
         style="fill:none;stroke:#000000;stroke-width:0.01111111;stroke-linejoin:bevel;stroke-miterlimit:4;stroke-dasharray:none"
         id="path5369"
         d="M -2.6596311,2.6075833 L -2.6596311,2.6075833 M -3.0767021,2.6075833 L -2.6596311,2.6075833"
         class="fil0 str0" />
      <path
         style="fill:none;stroke:#000000;stroke-width:0.01111111;stroke-linejoin:bevel;stroke-miterlimit:4;stroke-dasharray:none"
         id="path5371"
         d="M -2.6596311,2.6075833 C -2.6161468,2.6075833 -2.5808909,2.5723313 -2.5808909,2.5288431"
         class="fil0 str0" />
      <path
         style="fill:none;stroke:#000000;stroke-width:0.01111111;stroke-linejoin:bevel;stroke-miterlimit:4;stroke-dasharray:none"
         id="path5373"
         d="M -2.5808911,2.4769433 L -2.5808911,2.4769433 M -2.5808911,2.5288409 L -2.5808911,2.4769433"
         class="fil0 str0" />
      <path
         style="fill:none;stroke:#000000;stroke-width:0.01111111;stroke-linejoin:bevel;stroke-miterlimit:4;stroke-dasharray:none"
         id="path5375"
         d="M -2.5808911,2.4769433 C -2.5808911,2.4560575 -2.5891864,2.4360299 -2.6039541,2.4212622 C -2.6187218,2.4064984 -2.6387494,2.3982031 -2.6596313,2.3982031"
         class="fil0 str0" />
      <path
         style="fill:none;stroke:#000000;stroke-width:0.01111111;stroke-linejoin:bevel;stroke-miterlimit:4;stroke-dasharray:none"
         id="path5377"
         d="M -2.6596311,2.3982033 L -2.6596311,2.3982033 M -2.6596311,2.3982033 L -3.0767021,2.3982033"
         class="fil0 str0" />
      <path
         style="fill:none;stroke:#000000;stroke-width:0.01111111;stroke-linejoin:bevel;stroke-miterlimit:4;stroke-dasharray:none"
         id="path5379"
         d="M -3.1554421,2.3194633 C -3.1554421,2.3403452 -3.1471429,2.3603727 -3.1323791,2.3751405 C -3.1176114,2.3899043 -3.0975838,2.3982035 -3.0767019,2.3982035"
         class="fil0 str0" />
      <path
         style="fill:none;stroke:#000000;stroke-width:0.01111111;stroke-linejoin:bevel;stroke-miterlimit:4;stroke-dasharray:none"
         id="path5381"
         d="M -3.1554421,2.2776633 L -3.1554421,2.2776633 M -3.1554421,2.3194664 L -3.1554421,2.2776633"
         class="fil0 str0" />
      <path
         style="fill:none;stroke:#000000;stroke-width:0.01111111;stroke-linejoin:bevel;stroke-miterlimit:4;stroke-dasharray:none"
         id="path5383"
         d="M -3.0373311,2.1595533 C -3.0686539,2.1595533 -3.0986972,2.1719982 -3.1208468,2.1941478 C -3.1429964,2.2162974 -3.1554413,2.2463407 -3.1554413,2.2776635"
         class="fil0 str0" />
      <path
         style="fill:none;stroke:#000000;stroke-width:0.01111111;stroke-linejoin:bevel;stroke-miterlimit:4;stroke-dasharray:none"
         id="path5385"
         d="M -2.3318811,2.1595533 L -2.3318811,2.1595533 M -2.3318811,2.1595533 L -3.0373341,2.1595533"
         class="fil0 str0" />
      <path
         style="fill:none;stroke:#000000;stroke-width:0.01111111;stroke-linejoin:bevel;stroke-miterlimit:4;stroke-dasharray:none"
         id="path5387"
         d="M -1.9775511,2.1595533 L -1.9775511,2.1595533 M -1.9775511,2.1595533 L -2.3318821,2.1595533"
         class="fil0 str0" />
      <line
         style="fill:none;stroke:#000000;stroke-width:0.01111111;stroke-linejoin:bevel;stroke-miterlimit:4;stroke-dasharray:none"
         id="line5389"
         y2="2.1595533"
         x2="-1.9775512"
         y1="2.1595533"
         x1="-1.1901512"
         class="fil0 str0" />
      <line
         style="fill:none;stroke:#000000;stroke-width:0.01111111;stroke-linejoin:bevel;stroke-miterlimit:4;stroke-dasharray:none"
         id="line5391"
         y2="2.1595533"
         x2="-1.1901512"
         y1="2.1004934"
         x1="-1.1901512"
         class="fil0 str0" />
      <path
         style="fill:none;stroke:#000000;stroke-width:0.01111111;stroke-linejoin:bevel;stroke-miterlimit:4;stroke-dasharray:none"
         id="path5393"
         d="M -1.1901511,2.1004933 L -1.1901511,2.1004933 M -3.1783411,2.1004933 L -1.1901511,2.1004933"
         class="fil0 str0" />
      <path
         style="fill:none;stroke:#000000;stroke-width:0.01111111;stroke-linejoin:bevel;stroke-miterlimit:4;stroke-dasharray:none"
         id="path5395"
         d="M -3.2964461,1.9823833 C -3.2964461,2.0137101 -3.2840012,2.0437534 -3.2618516,2.065903 C -3.239702,2.0880526 -3.2096587,2.1004936 -3.1783359,2.1004936"
         class="fil0 str0" />
      <path
         style="fill:none;stroke:#000000;stroke-width:0.01111111;stroke-linejoin:bevel;stroke-miterlimit:4;stroke-dasharray:none"
         id="path5397"
         d="M -3.2964461,1.6388533 L -3.2964461,1.6388533 M -3.2964461,1.9823883 L -3.2964461,1.6388533"
         class="fil0 str0" />
      <path
         style="fill:none;stroke:#000000;stroke-width:0.01111111;stroke-linejoin:bevel;stroke-miterlimit:4;stroke-dasharray:none"
         id="path5399"
         d="M -3.2509811,1.5674833 C -3.2787173,1.5804164 -3.2964457,1.6082431 -3.2964457,1.6388455"
         class="fil0 str0" />
      <path
         style="fill:none;stroke:#000000;stroke-width:0.01111111;stroke-linejoin:bevel;stroke-miterlimit:4;stroke-dasharray:none"
         id="path5401"
         d="M -2.5090411,1.2215133 L -2.5090411,1.2215133 M -2.5090411,1.2215133 L -3.2509781,1.5674853"
         class="fil0 str0" />
      <path
         style="fill:none;stroke:#000000;stroke-width:0.01111111;stroke-linejoin:bevel;stroke-miterlimit:4;stroke-dasharray:none"
         id="path5403"
         d="M -2.5090411,0.91939333 L -2.5090411,0.91939333 M -2.5090411,1.2215153 L -2.5090411,0.91939333"
         class="fil0 str0" />
      <path
         style="fill:none;stroke:#000000;stroke-width:0.01111111;stroke-linejoin:bevel;stroke-miterlimit:4;stroke-dasharray:none"
         id="path5405"
         d="M -2.5090411,0.91939333 L -2.5090411,0.91939333 M -2.5090411,0.91939333 L -2.7846321,0.91939333"
         class="fil0 str0" />
      <path
         style="fill:none;stroke:#000000;stroke-width:0.01111111;stroke-linejoin:bevel;stroke-miterlimit:4;stroke-dasharray:none"
         id="path5407"
         d="M -2.7846311,0.91939333 L -2.7846311,0.91939333 M -2.7846311,0.91939333 L -3.3059031,0.91939333"
         class="fil0 str0" />
      <path
         style="fill:none;stroke:#000000;stroke-width:0.01111111;stroke-linejoin:bevel;stroke-miterlimit:4;stroke-dasharray:none"
         id="path5409"
         d="M -3.2341821,0.91939333 L -3.2341821,0.91939333 M -3.2341821,0.91939333 L -3.6901471,0.91939333"
         class="fil0 str0" />
      <path
         style="fill:none;stroke:#000000;stroke-width:0.01111111;stroke-linejoin:bevel;stroke-miterlimit:4;stroke-dasharray:none"
         id="path5411"
         d="M -1.5369311,0.64284533 L -1.5386752,0.64284533 C -1.5386752,0.64284533 -1.5386752,0.64284533 -1.5386752,0.64284533 C -1.5386752,0.64284533 -1.5386752,0.64284533 -1.5386752,0.64284533 L -1.5386752,0.64284533 C -1.5386752,0.64284533 -1.5386752,0.64284533 -1.5386752,0.64284533 C -1.5386752,0.64284533 -1.5386752,0.64284533 -1.5386752,0.64284533 L -1.5386752,0.64284533 C -1.5386752,0.64284533 -1.5386752,0.64284533 -1.5386752,0.64284533 C -1.5386752,0.64284533 -1.5386752,0.64284533 -1.5386752,0.64284533 L -1.5386752,0.64284533 C -1.5386752,0.64284533 -1.5386752,0.64284533 -1.5386752,0.64284533 C -1.5386752,0.64284533 -1.5386752,0.64284533 -1.5386752,0.64284533 L -1.5386752,0.64284533 C -1.5386752,0.64284533 -1.5386752,0.64284533 -1.5386752,0.64284533 C -1.5386752,0.64284533 -1.5386752,0.64284533 -1.5386752,0.64284533 L -1.5386752,0.64284533 C -1.5386752,0.64284533 -1.5386752,0.64284533 -1.5386752,0.64284533 C -1.5386752,0.64284533 -1.5386752,0.64284533 -1.5386752,0.64284533 L -1.5386752,0.64284533 L -1.5386752,0.64284533 L -1.5386752,0.64284533 L -1.5386752,0.64284533 L -1.5386752,0.64284533 C -1.5386752,0.64284533 -1.5386752,0.64284533 -1.5386752,0.64284533 C -1.5386752,0.64284533 -1.5386752,0.64284533 -1.5386752,0.64284533 L -1.5386752,0.64284533 C -1.5386752,0.64284533 -1.5386752,0.64284533 -1.5386752,0.64284533 L -1.5386752,0.64284533 L -1.5386752,0.64284533 L -1.5386752,0.64284533 L -1.5386752,0.64284533"
         class="fil0 str0" />
      <path
         style="fill:none;stroke:#000000;stroke-width:0.01111111;stroke-linejoin:bevel;stroke-miterlimit:4;stroke-dasharray:none"
         id="path5413"
         d="M -3.3326071,2.8878933 C -3.3326071,2.8552791 -3.3590441,2.8288382 -3.3916622,2.8288382 C -3.4242764,2.8288382 -3.4507173,2.8552791 -3.4507173,2.8878933 C -3.4507173,2.9205114 -3.4242764,2.9469484 -3.3916622,2.9469484 C -3.3590441,2.9469484 -3.3326071,2.9205114 -3.3326071,2.8878933 z "
         class="fil0 str0" />
      <path
         style="fill:none;stroke:#000000;stroke-width:0.01111111;stroke-linejoin:bevel;stroke-miterlimit:4;stroke-dasharray:none"
         id="path5415"
         d="M -3.4342411,1.1162433 C -3.4342411,1.0836291 -3.460682,1.0571882 -3.4932962,1.0571882 C -3.5259104,1.0571882 -3.5523513,1.0836291 -3.5523513,1.1162433 C -3.5523513,1.1488614 -3.5259104,1.1752984 -3.4932962,1.1752984 C -3.460682,1.1752984 -3.4342411,1.1488614 -3.4342411,1.1162433 z "
         class="fil0 str0" />
    </g>
  </g>
</svg>
