  0
SECTION
  2
HEADER
  9
$ACADVER
  1
AC1009
  9
$EXTMIN
 10
0.0
 20
0.0
 30
0.0
  9
$EXTMAX
 10
1000.0
 20
1000.0
 30
0.0
  9
$FILLMODE
 70
 0
  9
$SPLFRAME
 70
 1
  0
ENDSEC
  0
SECTION
  2
TABLES
  0
TABLE
  2
LAYER
 70
1
  0
LAYER
  2
0
 70
     0
 62
     7
  6
CONTINUOUS
  0
ENDTAB
  0
ENDSEC
  0
SECTION
  2
ENTITIES
  0
POLYLINE
  8
0
 62
     0
 66
     1
 10
0
 20
0
 30
0.0
 70
     1
 40
0.782644
 41
0.782644
  0
VERTEX
  8
0
 10
2.87603
 20
21.7235
 30
0.0
 40
0.0108701
 41
0.0108701
  0
VERTEX
  8
0
 10
2.87603
 20
21.9485
 30
0.0
 40
0.0108701
 41
0.0108701
  0
VERTEX
  8
0
 10
2.63167
 20
21.9485
 30
0.0
 40
0.0108701
 41
0.0108701
  0
VERTEX
  8
0
 10
2.63167
 20
21.7235
 30
0.0
 40
0.0108701
 41
0.0108701
  0
VERTEX
  8
0
 10
2.87603
 20
21.7235
 30
0.0
 40
0.0108701
 41
0.0108701
  0
SEQEND
 8
0
  0
POLYLINE
  8
0
 62
     0
 66
     1
 10
0
 20
0
 30
0.0
 70
     1
 40
0.782644
 41
0.782644
  0
VERTEX
  8
0
 10
2.35086
 20
21.7235
 30
0.0
 40
0.0108701
 41
0.0108701
  0
VERTEX
  8
0
 10
2.35086
 20
21.9485
 30
0.0
 40
0.0108701
 41
0.0108701
  0
VERTEX
  8
0
 10
2.10644
 20
21.9485
 30
0.0
 40
0.0108701
 41
0.0108701
  0
VERTEX
  8
0
 10
2.10644
 20
21.7235
 30
0.0
 40
0.0108701
 41
0.0108701
  0
VERTEX
  8
0
 10
2.35086
 20
21.7235
 30
0.0
 40
0.0108701
 41
0.0108701
  0
SEQEND
 8
0
  0
POLYLINE
  8
0
 62
     0
 66
     1
 10
0
 20
0
 30
0.0
 70
     1
 40
0.764762
 41
0.764762
  0
VERTEX
  8
0
 10
2.35086
 20
22.0533
 30
0.0
 40
0.0106217
 41
0.0106217
  0
VERTEX
  8
0
 10
2.10644
 20
22.0533
 30
0.0
 40
0.0106217
 41
0.0106217
  0
VERTEX
  8
0
 10
2.10644
 20
22.2732
 30
0.0
 40
0.0106217
 41
0.0106217
  0
VERTEX
  8
0
 10
2.35086
 20
22.2732
 30
0.0
 40
0.0106217
 41
0.0106217
  0
VERTEX
  8
0
 10
2.35086
 20
22.0533
 30
0.0
 40
0.0106217
 41
0.0106217
  0
SEQEND
 8
0
  0
POLYLINE
  8
0
 62
     0
 66
     1
 10
0
 20
0
 30
0.0
 70
     1
 40
0.764762
 41
0.764762
  0
VERTEX
  8
0
 10
2.63167
 20
22.0586
 30
0.0
 40
0.0106217
 41
0.0106217
  0
VERTEX
  8
0
 10
2.87603
 20
22.0586
 30
0.0
 40
0.0106217
 41
0.0106217
  0
VERTEX
  8
0
 10
2.87603
 20
22.2785
 30
0.0
 40
0.0106217
 41
0.0106217
  0
VERTEX
  8
0
 10
2.63167
 20
22.2785
 30
0.0
 40
0.0106217
 41
0.0106217
  0
VERTEX
  8
0
 10
2.63167
 20
22.0586
 30
0.0
 40
0.0106217
 41
0.0106217
  0
SEQEND
 8
0
  0
POLYLINE
  8
0
 62
     0
 66
     1
 10
0
 20
0
 30
0.0
 70
     1
 40
0.8
 41
0.8
  0
VERTEX
  8
0
 10
3.07264
 20
19.1122
 30
0.0
 40
0.0111111
 41
0.0111111
  0
VERTEX
  8
0
 10
3.02203
 20
19.1021
 30
0.0
 40
0.0111111
 41
0.0111111
  0
VERTEX
  8
0
 10
2.98068
 20
19.0742
 30
0.0
 40
0.0111111
 41
0.0111111
  0
VERTEX
  8
0
 10
2.95285
 20
19.0329
 30
0.0
 40
0.0111111
 41
0.0111111
  0
VERTEX
  8
0
 10
2.94265
 20
18.9822
 30
0.0
 40
0.0111111
 41
0.0111111
  0
VERTEX
  8
0
 10
2.95285
 20
18.9317
 30
0.0
 40
0.0111111
 41
0.0111111
  0
VERTEX
  8
0
 10
2.98068
 20
18.8904
 30
0.0
 40
0.0111111
 41
0.0111111
  0
VERTEX
  8
0
 10
3.02203
 20
18.8625
 30
0.0
 40
0.0111111
 41
0.0111111
  0
VERTEX
  8
0
 10
3.07264
 20
18.8522
 30
0.0
 40
0.0111111
 41
0.0111111
  0
VERTEX
  8
0
 10
3.12321
 20
18.8625
 30
0.0
 40
0.0111111
 41
0.0111111
  0
VERTEX
  8
0
 10
3.16456
 20
18.8904
 30
0.0
 40
0.0111111
 41
0.0111111
  0
VERTEX
  8
0
 10
3.19239
 20
18.9317
 30
0.0
 40
0.0111111
 41
0.0111111
  0
VERTEX
  8
0
 10
3.20264
 20
18.9822
 30
0.0
 40
0.0111111
 41
0.0111111
  0
VERTEX
  8
0
 10
3.19239
 20
19.0329
 30
0.0
 40
0.0111111
 41
0.0111111
  0
VERTEX
  8
0
 10
3.16456
 20
19.0742
 30
0.0
 40
0.0111111
 41
0.0111111
  0
VERTEX
  8
0
 10
3.12321
 20
19.1021
 30
0.0
 40
0.0111111
 41
0.0111111
  0
VERTEX
  8
0
 10
3.07264
 20
19.1122
 30
0.0
 40
0.0111111
 41
0.0111111
  0
VERTEX
  8
0
 10
3.07264
 20
19.1122
 30
0.0
 40
0.0111111
 41
0.0111111
  0
SEQEND
 8
0
  0
POLYLINE
  8
0
 62
     0
 66
     1
 10
0
 20
0
 30
0.0
 70
     1
 40
0.8
 41
0.8
  0
VERTEX
  8
0
 10
1.49783
 20
19.1122
 30
0.0
 40
0.0111111
 41
0.0111111
  0
VERTEX
  8
0
 10
1.44721
 20
19.1021
 30
0.0
 40
0.0111111
 41
0.0111111
  0
VERTEX
  8
0
 10
1.40588
 20
19.0742
 30
0.0
 40
0.0111111
 41
0.0111111
  0
VERTEX
  8
0
 10
1.37804
 20
19.0329
 30
0.0
 40
0.0111111
 41
0.0111111
  0
VERTEX
  8
0
 10
1.36784
 20
18.9822
 30
0.0
 40
0.0111111
 41
0.0111111
  0
VERTEX
  8
0
 10
1.37804
 20
18.9317
 30
0.0
 40
0.0111111
 41
0.0111111
  0
VERTEX
  8
0
 10
1.40588
 20
18.8904
 30
0.0
 40
0.0111111
 41
0.0111111
  0
VERTEX
  8
0
 10
1.44721
 20
18.8625
 30
0.0
 40
0.0111111
 41
0.0111111
  0
VERTEX
  8
0
 10
1.49783
 20
18.8522
 30
0.0
 40
0.0111111
 41
0.0111111
  0
VERTEX
  8
0
 10
1.54839
 20
18.8625
 30
0.0
 40
0.0111111
 41
0.0111111
  0
VERTEX
  8
0
 10
1.58974
 20
18.8904
 30
0.0
 40
0.0111111
 41
0.0111111
  0
VERTEX
  8
0
 10
1.61757
 20
18.9317
 30
0.0
 40
0.0111111
 41
0.0111111
  0
VERTEX
  8
0
 10
1.62782
 20
18.9822
 30
0.0
 40
0.0111111
 41
0.0111111
  0
VERTEX
  8
0
 10
1.61757
 20
19.0329
 30
0.0
 40
0.0111111
 41
0.0111111
  0
VERTEX
  8
0
 10
1.58974
 20
19.0742
 30
0.0
 40
0.0111111
 41
0.0111111
  0
VERTEX
  8
0
 10
1.54839
 20
19.1021
 30
0.0
 40
0.0111111
 41
0.0111111
  0
VERTEX
  8
0
 10
1.49783
 20
19.1122
 30
0.0
 40
0.0111111
 41
0.0111111
  0
SEQEND
 8
0
  0
POLYLINE
  8
0
 62
     0
 66
     1
 10
0
 20
0
 30
0.0
 70
     1
 40
0.8
 41
0.8
  0
VERTEX
  8
0
 10
1.49783
 20
23.5749
 30
0.0
 40
0.0111111
 41
0.0111111
  0
VERTEX
  8
0
 10
1.44721
 20
23.5647
 30
0.0
 40
0.0111111
 41
0.0111111
  0
VERTEX
  8
0
 10
1.40588
 20
23.5368
 30
0.0
 40
0.0111111
 41
0.0111111
  0
VERTEX
  8
0
 10
1.37804
 20
23.4956
 30
0.0
 40
0.0111111
 41
0.0111111
  0
VERTEX
  8
0
 10
1.36784
 20
23.4449
 30
0.0
 40
0.0111111
 41
0.0111111
  0
VERTEX
  8
0
 10
1.37804
 20
23.3943
 30
0.0
 40
0.0111111
 41
0.0111111
  0
VERTEX
  8
0
 10
1.40588
 20
23.3529
 30
0.0
 40
0.0111111
 41
0.0111111
  0
VERTEX
  8
0
 10
1.44721
 20
23.3251
 30
0.0
 40
0.0111111
 41
0.0111111
  0
VERTEX
  8
0
 10
1.49783
 20
23.3149
 30
0.0
 40
0.0111111
 41
0.0111111
  0
VERTEX
  8
0
 10
1.54839
 20
23.3251
 30
0.0
 40
0.0111111
 41
0.0111111
  0
VERTEX
  8
0
 10
1.58974
 20
23.3529
 30
0.0
 40
0.0111111
 41
0.0111111
  0
VERTEX
  8
0
 10
1.61757
 20
23.3943
 30
0.0
 40
0.0111111
 41
0.0111111
  0
VERTEX
  8
0
 10
1.62782
 20
23.4449
 30
0.0
 40
0.0111111
 41
0.0111111
  0
VERTEX
  8
0
 10
1.61757
 20
23.4956
 30
0.0
 40
0.0111111
 41
0.0111111
  0
VERTEX
  8
0
 10
1.58974
 20
23.5368
 30
0.0
 40
0.0111111
 41
0.0111111
  0
VERTEX
  8
0
 10
1.54839
 20
23.5647
 30
0.0
 40
0.0111111
 41
0.0111111
  0
VERTEX
  8
0
 10
1.49783
 20
23.5749
 30
0.0
 40
0.0111111
 41
0.0111111
  0
SEQEND
 8
0
  0
POLYLINE
  8
0
 62
     0
 66
     1
 10
0
 20
0
 30
0.0
 70
     1
 40
0.8
 41
0.8
  0
VERTEX
  8
0
 10
3.07264
 20
23.5749
 30
0.0
 40
0.0111111
 41
0.0111111
  0
VERTEX
  8
0
 10
3.02203
 20
23.5647
 30
0.0
 40
0.0111111
 41
0.0111111
  0
VERTEX
  8
0
 10
2.98068
 20
23.5368
 30
0.0
 40
0.0111111
 41
0.0111111
  0
VERTEX
  8
0
 10
2.95285
 20
23.4956
 30
0.0
 40
0.0111111
 41
0.0111111
  0
VERTEX
  8
0
 10
2.94265
 20
23.4449
 30
0.0
 40
0.0111111
 41
0.0111111
  0
VERTEX
  8
0
 10
2.95285
 20
23.3943
 30
0.0
 40
0.0111111
 41
0.0111111
  0
VERTEX
  8
0
 10
2.98068
 20
23.3529
 30
0.0
 40
0.0111111
 41
0.0111111
  0
VERTEX
  8
0
 10
3.02203
 20
23.3251
 30
0.0
 40
0.0111111
 41
0.0111111
  0
VERTEX
  8
0
 10
3.07264
 20
23.3149
 30
0.0
 40
0.0111111
 41
0.0111111
  0
VERTEX
  8
0
 10
3.12321
 20
23.3251
 30
0.0
 40
0.0111111
 41
0.0111111
  0
VERTEX
  8
0
 10
3.16456
 20
23.3529
 30
0.0
 40
0.0111111
 41
0.0111111
  0
VERTEX
  8
0
 10
3.19239
 20
23.3943
 30
0.0
 40
0.0111111
 41
0.0111111
  0
VERTEX
  8
0
 10
3.20264
 20
23.4449
 30
0.0
 40
0.0111111
 41
0.0111111
  0
VERTEX
  8
0
 10
3.19239
 20
23.4956
 30
0.0
 40
0.0111111
 41
0.0111111
  0
VERTEX
  8
0
 10
3.16456
 20
23.5368
 30
0.0
 40
0.0111111
 41
0.0111111
  0
VERTEX
  8
0
 10
3.12321
 20
23.5647
 30
0.0
 40
0.0111111
 41
0.0111111
  0
VERTEX
  8
0
 10
3.07264
 20
23.5749
 30
0.0
 40
0.0111111
 41
0.0111111
  0
VERTEX
  8
0
 10
3.07264
 20
23.5749
 30
0.0
 40
0.0111111
 41
0.0111111
  0
SEQEND
 8
0
  0
POLYLINE
  8
0
 62
     0
 66
     1
 10
0
 20
0
 30
0.0
 70
     1
 40
1.29577
 41
1.29577
  0
VERTEX
  8
0
 10
2.47358
 20
20.9208
 30
0.0
 40
0.0179968
 41
0.0179968
  0
VERTEX
  8
0
 10
2.47358
 20
21.5062
 30
0.0
 40
0.0179968
 41
0.0179968
  0
VERTEX
  8
0
 10
5.62125
 20
21.5062
 30
0.0
 40
0.0179968
 41
0.0179968
  0
VERTEX
  8
0
 10
5.62125
 20
20.9208
 30
0.0
 40
0.0179968
 41
0.0179968
  0
VERTEX
  8
0
 10
2.47358
 20
20.9208
 30
0.0
 40
0.0179968
 41
0.0179968
  0
SEQEND
 8
0
  0
POLYLINE
  8
0
 62
     0
 66
     1
 10
0
 20
0
 30
0.0
 70
     1
 40
0.8
 41
0.8
  0
VERTEX
  8
0
 10
0.139432
 20
19.6025
 30
0.0
 40
0.0111111
 41
0.0111111
  0
VERTEX
  8
0
 10
0.139432
 20
22.8529
 30
0.0
 40
0.0111111
 41
0.0111111
  0
VERTEX
  8
0
 10
0.159668
 20
23.055
 30
0.0
 40
0.0111111
 41
0.0111111
  0
VERTEX
  8
0
 10
0.217774
 20
23.2429
 30
0.0
 40
0.0111111
 41
0.0111111
  0
VERTEX
  8
0
 10
0.309733
 20
23.4129
 30
0.0
 40
0.0111111
 41
0.0111111
  0
VERTEX
  8
0
 10
0.43164
 20
23.5608
 30
0.0
 40
0.0111111
 41
0.0111111
  0
VERTEX
  8
0
 10
0.579536
 20
23.6826
 30
0.0
 40
0.0111111
 41
0.0111111
  0
VERTEX
  8
0
 10
0.749457
 20
23.7746
 30
0.0
 40
0.0111111
 41
0.0111111
  0
VERTEX
  8
0
 10
0.937392
 20
23.8328
 30
0.0
 40
0.0111111
 41
0.0111111
  0
VERTEX
  8
0
 10
1.13943
 20
23.8529
 30
0.0
 40
0.0111111
 41
0.0111111
  0
VERTEX
  8
0
 10
6.98747
 20
23.8529
 30
0.0
 40
0.0111111
 41
0.0111111
  0
VERTEX
  8
0
 10
7.18946
 20
23.8328
 30
0.0
 40
0.0111111
 41
0.0111111
  0
VERTEX
  8
0
 10
7.37739
 20
23.7746
 30
0.0
 40
0.0111111
 41
0.0111111
  0
VERTEX
  8
0
 10
7.54731
 20
23.6826
 30
0.0
 40
0.0111111
 41
0.0111111
  0
VERTEX
  8
0
 10
7.69521
 20
23.5608
 30
0.0
 40
0.0111111
 41
0.0111111
  0
VERTEX
  8
0
 10
7.81711
 20
23.4129
 30
0.0
 40
0.0111111
 41
0.0111111
  0
VERTEX
  8
0
 10
7.90907
 20
23.2429
 30
0.0
 40
0.0111111
 41
0.0111111
  0
VERTEX
  8
0
 10
7.96718
 20
23.055
 30
0.0
 40
0.0111111
 41
0.0111111
  0
VERTEX
  8
0
 10
7.98747
 20
22.8529
 30
0.0
 40
0.0111111
 41
0.0111111
  0
VERTEX
  8
0
 10
7.98747
 20
19.6025
 30
0.0
 40
0.0111111
 41
0.0111111
  0
VERTEX
  8
0
 10
7.96718
 20
19.4006
 30
0.0
 40
0.0111111
 41
0.0111111
  0
VERTEX
  8
0
 10
7.90907
 20
19.2126
 30
0.0
 40
0.0111111
 41
0.0111111
  0
VERTEX
  8
0
 10
7.81711
 20
19.0426
 30
0.0
 40
0.0111111
 41
0.0111111
  0
VERTEX
  8
0
 10
7.69521
 20
18.8949
 30
0.0
 40
0.0111111
 41
0.0111111
  0
VERTEX
  8
0
 10
7.54731
 20
18.7729
 30
0.0
 40
0.0111111
 41
0.0111111
  0
VERTEX
  8
0
 10
7.37739
 20
18.681
 30
0.0
 40
0.0111111
 41
0.0111111
  0
VERTEX
  8
0
 10
7.18946
 20
18.6228
 30
0.0
 40
0.0111111
 41
0.0111111
  0
VERTEX
  8
0
 10
6.98747
 20
18.6025
 30
0.0
 40
0.0111111
 41
0.0111111
  0
VERTEX
  8
0
 10
1.13943
 20
18.6025
 30
0.0
 40
0.0111111
 41
0.0111111
  0
VERTEX
  8
0
 10
0.937392
 20
18.6228
 30
0.0
 40
0.0111111
 41
0.0111111
  0
VERTEX
  8
0
 10
0.749457
 20
18.681
 30
0.0
 40
0.0111111
 41
0.0111111
  0
VERTEX
  8
0
 10
0.579536
 20
18.7729
 30
0.0
 40
0.0111111
 41
0.0111111
  0
VERTEX
  8
0
 10
0.43164
 20
18.8949
 30
0.0
 40
0.0111111
 41
0.0111111
  0
VERTEX
  8
0
 10
0.309733
 20
19.0426
 30
0.0
 40
0.0111111
 41
0.0111111
  0
VERTEX
  8
0
 10
0.217774
 20
19.2126
 30
0.0
 40
0.0111111
 41
0.0111111
  0
VERTEX
  8
0
 10
0.159668
 20
19.4006
 30
0.0
 40
0.0111111
 41
0.0111111
  0
VERTEX
  8
0
 10
0.139432
 20
19.6025
 30
0.0
 40
0.0111111
 41
0.0111111
  0
SEQEND
 8
0
  0
POLYLINE
  8
0
 62
     0
 66
     1
 10
0
 20
0
 30
0.0
 70
     1
 40
0.782644
 41
0.782644
  0
VERTEX
  8
0
 10
2.81435
 20
16.3997
 30
0.0
 40
0.0108701
 41
0.0108701
  0
VERTEX
  8
0
 10
2.81435
 20
16.6247
 30
0.0
 40
0.0108701
 41
0.0108701
  0
VERTEX
  8
0
 10
2.56999
 20
16.6247
 30
0.0
 40
0.0108701
 41
0.0108701
  0
VERTEX
  8
0
 10
2.56999
 20
16.3997
 30
0.0
 40
0.0108701
 41
0.0108701
  0
VERTEX
  8
0
 10
2.81435
 20
16.3997
 30
0.0
 40
0.0108701
 41
0.0108701
  0
SEQEND
 8
0
  0
POLYLINE
  8
0
 62
     0
 66
     1
 10
0
 20
0
 30
0.0
 70
     1
 40
0.782644
 41
0.782644
  0
VERTEX
  8
0
 10
2.28917
 20
16.3997
 30
0.0
 40
0.0108701
 41
0.0108701
  0
VERTEX
  8
0
 10
2.28917
 20
16.6247
 30
0.0
 40
0.0108701
 41
0.0108701
  0
VERTEX
  8
0
 10
2.04476
 20
16.6247
 30
0.0
 40
0.0108701
 41
0.0108701
  0
VERTEX
  8
0
 10
2.04476
 20
16.3997
 30
0.0
 40
0.0108701
 41
0.0108701
  0
VERTEX
  8
0
 10
2.28917
 20
16.3997
 30
0.0
 40
0.0108701
 41
0.0108701
  0
SEQEND
 8
0
  0
POLYLINE
  8
0
 62
     0
 66
     1
 10
0
 20
0
 30
0.0
 70
     1
 40
0.764762
 41
0.764762
  0
VERTEX
  8
0
 10
2.28917
 20
16.7296
 30
0.0
 40
0.0106217
 41
0.0106217
  0
VERTEX
  8
0
 10
2.04476
 20
16.7296
 30
0.0
 40
0.0106217
 41
0.0106217
  0
VERTEX
  8
0
 10
2.04476
 20
16.9494
 30
0.0
 40
0.0106217
 41
0.0106217
  0
VERTEX
  8
0
 10
2.28917
 20
16.9494
 30
0.0
 40
0.0106217
 41
0.0106217
  0
VERTEX
  8
0
 10
2.28917
 20
16.7296
 30
0.0
 40
0.0106217
 41
0.0106217
  0
SEQEND
 8
0
  0
POLYLINE
  8
0
 62
     0
 66
     1
 10
0
 20
0
 30
0.0
 70
     1
 40
0.764762
 41
0.764762
  0
VERTEX
  8
0
 10
2.56999
 20
16.7349
 30
0.0
 40
0.0106217
 41
0.0106217
  0
VERTEX
  8
0
 10
2.81435
 20
16.7349
 30
0.0
 40
0.0106217
 41
0.0106217
  0
VERTEX
  8
0
 10
2.81435
 20
16.9547
 30
0.0
 40
0.0106217
 41
0.0106217
  0
VERTEX
  8
0
 10
2.56999
 20
16.9547
 30
0.0
 40
0.0106217
 41
0.0106217
  0
VERTEX
  8
0
 10
2.56999
 20
16.7349
 30
0.0
 40
0.0106217
 41
0.0106217
  0
SEQEND
 8
0
  0
POLYLINE
  8
0
 62
     0
 66
     1
 10
0
 20
0
 30
0.0
 70
     1
 40
0.8
 41
0.8
  0
VERTEX
  8
0
 10
3.01096
 20
13.7885
 30
0.0
 40
0.0111111
 41
0.0111111
  0
VERTEX
  8
0
 10
2.96035
 20
13.7783
 30
0.0
 40
0.0111111
 41
0.0111111
  0
VERTEX
  8
0
 10
2.919
 20
13.7505
 30
0.0
 40
0.0111111
 41
0.0111111
  0
VERTEX
  8
0
 10
2.89117
 20
13.7092
 30
0.0
 40
0.0111111
 41
0.0111111
  0
VERTEX
  8
0
 10
2.88097
 20
13.6585
 30
0.0
 40
0.0111111
 41
0.0111111
  0
VERTEX
  8
0
 10
2.89117
 20
13.608
 30
0.0
 40
0.0111111
 41
0.0111111
  0
VERTEX
  8
0
 10
2.919
 20
13.5666
 30
0.0
 40
0.0111111
 41
0.0111111
  0
VERTEX
  8
0
 10
2.96035
 20
13.5388
 30
0.0
 40
0.0111111
 41
0.0111111
  0
VERTEX
  8
0
 10
3.01096
 20
13.5285
 30
0.0
 40
0.0111111
 41
0.0111111
  0
VERTEX
  8
0
 10
3.06153
 20
13.5388
 30
0.0
 40
0.0111111
 41
0.0111111
  0
VERTEX
  8
0
 10
3.10286
 20
13.5666
 30
0.0
 40
0.0111111
 41
0.0111111
  0
VERTEX
  8
0
 10
3.13069
 20
13.608
 30
0.0
 40
0.0111111
 41
0.0111111
  0
VERTEX
  8
0
 10
3.14094
 20
13.6585
 30
0.0
 40
0.0111111
 41
0.0111111
  0
VERTEX
  8
0
 10
3.13069
 20
13.7092
 30
0.0
 40
0.0111111
 41
0.0111111
  0
VERTEX
  8
0
 10
3.10286
 20
13.7505
 30
0.0
 40
0.0111111
 41
0.0111111
  0
VERTEX
  8
0
 10
3.06153
 20
13.7783
 30
0.0
 40
0.0111111
 41
0.0111111
  0
VERTEX
  8
0
 10
3.01096
 20
13.7885
 30
0.0
 40
0.0111111
 41
0.0111111
  0
VERTEX
  8
0
 10
3.01096
 20
13.7885
 30
0.0
 40
0.0111111
 41
0.0111111
  0
SEQEND
 8
0
  0
POLYLINE
  8
0
 62
     0
 66
     1
 10
0
 20
0
 30
0.0
 70
     1
 40
0.8
 41
0.8
  0
VERTEX
  8
0
 10
1.43614
 20
13.7885
 30
0.0
 40
0.0111111
 41
0.0111111
  0
VERTEX
  8
0
 10
1.38552
 20
13.7783
 30
0.0
 40
0.0111111
 41
0.0111111
  0
VERTEX
  8
0
 10
1.34418
 20
13.7505
 30
0.0
 40
0.0111111
 41
0.0111111
  0
VERTEX
  8
0
 10
1.31635
 20
13.7092
 30
0.0
 40
0.0111111
 41
0.0111111
  0
VERTEX
  8
0
 10
1.30615
 20
13.6585
 30
0.0
 40
0.0111111
 41
0.0111111
  0
VERTEX
  8
0
 10
1.31635
 20
13.608
 30
0.0
 40
0.0111111
 41
0.0111111
  0
VERTEX
  8
0
 10
1.34418
 20
13.5666
 30
0.0
 40
0.0111111
 41
0.0111111
  0
VERTEX
  8
0
 10
1.38552
 20
13.5388
 30
0.0
 40
0.0111111
 41
0.0111111
  0
VERTEX
  8
0
 10
1.43614
 20
13.5285
 30
0.0
 40
0.0111111
 41
0.0111111
  0
VERTEX
  8
0
 10
1.48676
 20
13.5388
 30
0.0
 40
0.0111111
 41
0.0111111
  0
VERTEX
  8
0
 10
1.5281
 20
13.5666
 30
0.0
 40
0.0111111
 41
0.0111111
  0
VERTEX
  8
0
 10
1.55593
 20
13.608
 30
0.0
 40
0.0111111
 41
0.0111111
  0
VERTEX
  8
0
 10
1.56619
 20
13.6585
 30
0.0
 40
0.0111111
 41
0.0111111
  0
VERTEX
  8
0
 10
1.55593
 20
13.7092
 30
0.0
 40
0.0111111
 41
0.0111111
  0
VERTEX
  8
0
 10
1.5281
 20
13.7505
 30
0.0
 40
0.0111111
 41
0.0111111
  0
VERTEX
  8
0
 10
1.48676
 20
13.7783
 30
0.0
 40
0.0111111
 41
0.0111111
  0
VERTEX
  8
0
 10
1.43614
 20
13.7885
 30
0.0
 40
0.0111111
 41
0.0111111
  0
SEQEND
 8
0
  0
POLYLINE
  8
0
 62
     0
 66
     1
 10
0
 20
0
 30
0.0
 70
     1
 40
0.8
 41
0.8
  0
VERTEX
  8
0
 10
1.43614
 20
18.2511
 30
0.0
 40
0.0111111
 41
0.0111111
  0
VERTEX
  8
0
 10
1.38552
 20
18.241
 30
0.0
 40
0.0111111
 41
0.0111111
  0
VERTEX
  8
0
 10
1.34418
 20
18.2131
 30
0.0
 40
0.0111111
 41
0.0111111
  0
VERTEX
  8
0
 10
1.31635
 20
18.1718
 30
0.0
 40
0.0111111
 41
0.0111111
  0
VERTEX
  8
0
 10
1.30615
 20
18.1211
 30
0.0
 40
0.0111111
 41
0.0111111
  0
VERTEX
  8
0
 10
1.31635
 20
18.0706
 30
0.0
 40
0.0111111
 41
0.0111111
  0
VERTEX
  8
0
 10
1.34418
 20
18.0293
 30
0.0
 40
0.0111111
 41
0.0111111
  0
VERTEX
  8
0
 10
1.38552
 20
18.0014
 30
0.0
 40
0.0111111
 41
0.0111111
  0
VERTEX
  8
0
 10
1.43614
 20
17.9911
 30
0.0
 40
0.0111111
 41
0.0111111
  0
VERTEX
  8
0
 10
1.48676
 20
18.0014
 30
0.0
 40
0.0111111
 41
0.0111111
  0
VERTEX
  8
0
 10
1.5281
 20
18.0293
 30
0.0
 40
0.0111111
 41
0.0111111
  0
VERTEX
  8
0
 10
1.55593
 20
18.0706
 30
0.0
 40
0.0111111
 41
0.0111111
  0
VERTEX
  8
0
 10
1.56619
 20
18.1211
 30
0.0
 40
0.0111111
 41
0.0111111
  0
VERTEX
  8
0
 10
1.55593
 20
18.1718
 30
0.0
 40
0.0111111
 41
0.0111111
  0
VERTEX
  8
0
 10
1.5281
 20
18.2131
 30
0.0
 40
0.0111111
 41
0.0111111
  0
VERTEX
  8
0
 10
1.48676
 20
18.241
 30
0.0
 40
0.0111111
 41
0.0111111
  0
VERTEX
  8
0
 10
1.43614
 20
18.2511
 30
0.0
 40
0.0111111
 41
0.0111111
  0
SEQEND
 8
0
  0
POLYLINE
  8
0
 62
     0
 66
     1
 10
0
 20
0
 30
0.0
 70
     1
 40
0.8
 41
0.8
  0
VERTEX
  8
0
 10
3.01096
 20
18.2511
 30
0.0
 40
0.0111111
 41
0.0111111
  0
VERTEX
  8
0
 10
2.96035
 20
18.241
 30
0.0
 40
0.0111111
 41
0.0111111
  0
VERTEX
  8
0
 10
2.919
 20
18.2131
 30
0.0
 40
0.0111111
 41
0.0111111
  0
VERTEX
  8
0
 10
2.89117
 20
18.1718
 30
0.0
 40
0.0111111
 41
0.0111111
  0
VERTEX
  8
0
 10
2.88097
 20
18.1211
 30
0.0
 40
0.0111111
 41
0.0111111
  0
VERTEX
  8
0
 10
2.89117
 20
18.0706
 30
0.0
 40
0.0111111
 41
0.0111111
  0
VERTEX
  8
0
 10
2.919
 20
18.0293
 30
0.0
 40
0.0111111
 41
0.0111111
  0
VERTEX
  8
0
 10
2.96035
 20
18.0014
 30
0.0
 40
0.0111111
 41
0.0111111
  0
VERTEX
  8
0
 10
3.01096
 20
17.9911
 30
0.0
 40
0.0111111
 41
0.0111111
  0
VERTEX
  8
0
 10
3.06153
 20
18.0014
 30
0.0
 40
0.0111111
 41
0.0111111
  0
VERTEX
  8
0
 10
3.10286
 20
18.0293
 30
0.0
 40
0.0111111
 41
0.0111111
  0
VERTEX
  8
0
 10
3.13069
 20
18.0706
 30
0.0
 40
0.0111111
 41
0.0111111
  0
VERTEX
  8
0
 10
3.14094
 20
18.1211
 30
0.0
 40
0.0111111
 41
0.0111111
  0
VERTEX
  8
0
 10
3.13069
 20
18.1718
 30
0.0
 40
0.0111111
 41
0.0111111
  0
VERTEX
  8
0
 10
3.10286
 20
18.2131
 30
0.0
 40
0.0111111
 41
0.0111111
  0
VERTEX
  8
0
 10
3.06153
 20
18.241
 30
0.0
 40
0.0111111
 41
0.0111111
  0
VERTEX
  8
0
 10
3.01096
 20
18.2511
 30
0.0
 40
0.0111111
 41
0.0111111
  0
VERTEX
  8
0
 10
3.01096
 20
18.2511
 30
0.0
 40
0.0111111
 41
0.0111111
  0
SEQEND
 8
0
  0
POLYLINE
  8
0
 62
     0
 66
     1
 10
0
 20
0
 30
0.0
 70
     1
 40
1.29577
 41
1.29577
  0
VERTEX
  8
0
 10
2.41189
 20
15.5971
 30
0.0
 40
0.0179968
 41
0.0179968
  0
VERTEX
  8
0
 10
2.41189
 20
16.1826
 30
0.0
 40
0.0179968
 41
0.0179968
  0
VERTEX
  8
0
 10
5.55957
 20
16.1826
 30
0.0
 40
0.0179968
 41
0.0179968
  0
VERTEX
  8
0
 10
5.55957
 20
15.5971
 30
0.0
 40
0.0179968
 41
0.0179968
  0
VERTEX
  8
0
 10
2.41189
 20
15.5971
 30
0.0
 40
0.0179968
 41
0.0179968
  0
SEQEND
 8
0
  0
POLYLINE
  8
0
 62
     0
 66
     1
 10
0
 20
0
 30
0.0
 70
     1
 40
0.8
 41
0.8
  0
VERTEX
  8
0
 10
0.0777994
 20
14.2787
 30
0.0
 40
0.0111111
 41
0.0111111
  0
VERTEX
  8
0
 10
0.0777994
 20
17.5293
 30
0.0
 40
0.0111111
 41
0.0111111
  0
VERTEX
  8
0
 10
0.098036
 20
17.7313
 30
0.0
 40
0.0111111
 41
0.0111111
  0
VERTEX
  8
0
 10
0.156088
 20
17.9192
 30
0.0
 40
0.0111111
 41
0.0111111
  0
VERTEX
  8
0
 10
0.248101
 20
18.0892
 30
0.0
 40
0.0111111
 41
0.0111111
  0
VERTEX
  8
0
 10
0.370008
 20
18.2371
 30
0.0
 40
0.0111111
 41
0.0111111
  0
VERTEX
  8
0
 10
0.517904
 20
18.3589
 30
0.0
 40
0.0111111
 41
0.0111111
  0
VERTEX
  8
0
 10
0.687771
 20
18.4508
 30
0.0
 40
0.0111111
 41
0.0111111
  0
VERTEX
  8
0
 10
0.87576
 20
18.509
 30
0.0
 40
0.0111111
 41
0.0111111
  0
VERTEX
  8
0
 10
1.0778
 20
18.5293
 30
0.0
 40
0.0111111
 41
0.0111111
  0
VERTEX
  8
0
 10
6.92578
 20
18.5293
 30
0.0
 40
0.0111111
 41
0.0111111
  0
VERTEX
  8
0
 10
7.12776
 20
18.509
 30
0.0
 40
0.0111111
 41
0.0111111
  0
VERTEX
  8
0
 10
7.31575
 20
18.4508
 30
0.0
 40
0.0111111
 41
0.0111111
  0
VERTEX
  8
0
 10
7.48563
 20
18.3589
 30
0.0
 40
0.0111111
 41
0.0111111
  0
VERTEX
  8
0
 10
7.63351
 20
18.2371
 30
0.0
 40
0.0111111
 41
0.0111111
  0
VERTEX
  8
0
 10
7.75543
 20
18.0892
 30
0.0
 40
0.0111111
 41
0.0111111
  0
VERTEX
  8
0
 10
7.84744
 20
17.9192
 30
0.0
 40
0.0111111
 41
0.0111111
  0
VERTEX
  8
0
 10
7.90549
 20
17.7313
 30
0.0
 40
0.0111111
 41
0.0111111
  0
VERTEX
  8
0
 10
7.92578
 20
17.5293
 30
0.0
 40
0.0111111
 41
0.0111111
  0
VERTEX
  8
0
 10
7.92578
 20
14.2787
 30
0.0
 40
0.0111111
 41
0.0111111
  0
VERTEX
  8
0
 10
7.90549
 20
14.0768
 30
0.0
 40
0.0111111
 41
0.0111111
  0
VERTEX
  8
0
 10
7.84744
 20
13.8889
 30
0.0
 40
0.0111111
 41
0.0111111
  0
VERTEX
  8
0
 10
7.75543
 20
13.719
 30
0.0
 40
0.0111111
 41
0.0111111
  0
VERTEX
  8
0
 10
7.63351
 20
13.5711
 30
0.0
 40
0.0111111
 41
0.0111111
  0
VERTEX
  8
0
 10
7.48563
 20
13.4492
 30
0.0
 40
0.0111111
 41
0.0111111
  0
VERTEX
  8
0
 10
7.31575
 20
13.3572
 30
0.0
 40
0.0111111
 41
0.0111111
  0
VERTEX
  8
0
 10
7.12776
 20
13.2991
 30
0.0
 40
0.0111111
 41
0.0111111
  0
VERTEX
  8
0
 10
6.92578
 20
13.2788
 30
0.0
 40
0.0111111
 41
0.0111111
  0
VERTEX
  8
0
 10
1.0778
 20
13.2788
 30
0.0
 40
0.0111111
 41
0.0111111
  0
VERTEX
  8
0
 10
0.87576
 20
13.2991
 30
0.0
 40
0.0111111
 41
0.0111111
  0
VERTEX
  8
0
 10
0.687771
 20
13.3572
 30
0.0
 40
0.0111111
 41
0.0111111
  0
VERTEX
  8
0
 10
0.517904
 20
13.4492
 30
0.0
 40
0.0111111
 41
0.0111111
  0
VERTEX
  8
0
 10
0.370008
 20
13.5711
 30
0.0
 40
0.0111111
 41
0.0111111
  0
VERTEX
  8
0
 10
0.248101
 20
13.719
 30
0.0
 40
0.0111111
 41
0.0111111
  0
VERTEX
  8
0
 10
0.156088
 20
13.8889
 30
0.0
 40
0.0111111
 41
0.0111111
  0
VERTEX
  8
0
 10
0.098036
 20
14.0768
 30
0.0
 40
0.0111111
 41
0.0111111
  0
VERTEX
  8
0
 10
0.0777994
 20
14.2787
 30
0.0
 40
0.0111111
 41
0.0111111
  0
SEQEND
 8
0
  0
ENDSEC
  0
EOF
