  0
SECTION
  2
HEADER
  9
$ACADVER
  1
AC1009
  9
$EXTMIN
 10
0.0
 20
0.0
 30
0.0
  9
$EXTMAX
 10
1000.0
 20
1000.0
 30
0.0
  9
$FILLMODE
 70
 0
  9
$SPLFRAME
 70
 1
  0
ENDSEC
  0
SECTION
  2
TABLES
  0
TABLE
  2
LAYER
 70
1
  0
LAYER
  2
0
 70
     0
 62
     7
  6
CONTINUOUS
  0
ENDTAB
  0
ENDSEC
  0
SECTION
  2
ENTITIES
  0
POLYLINE
  8
0
 62
     0
 66
     1
 10
0
 20
0
 30
0.0
 70
     1
 40
0.8
 41
0.8
  0
VERTEX
  8
0
 10
0.229601
 20
5.57557
 30
0.0
 40
0.0111111
 41
0.0111111
  0
VERTEX
  8
0
 10
5.4796
 20
5.57557
 30
0.0
 40
0.0111111
 41
0.0111111
  0
VERTEX
  8
0
 10
5.4796
 20
0.325575
 30
0.0
 40
0.0111111
 41
0.0111111
  0
VERTEX
  8
0
 10
0.229601
 20
0.325575
 30
0.0
 40
0.0111111
 41
0.0111111
  0
VERTEX
  8
0
 10
0.229601
 20
2.65056
 30
0.0
 40
0.0111111
 41
0.0111111
  0
VERTEX
  8
0
 10
1.4796
 20
2.65056
 30
0.0
 40
0.0111111
 41
0.0111111
  0
VERTEX
  8
0
 10
1.4796
 20
2.95057
 30
0.0
 40
0.0111111
 41
0.0111111
  0
VERTEX
  8
0
 10
1.4796
 20
3.25054
 30
0.0
 40
0.0111111
 41
0.0111111
  0
VERTEX
  8
0
 10
0.229601
 20
3.25054
 30
0.0
 40
0.0111111
 41
0.0111111
  0
VERTEX
  8
0
 10
0.229601
 20
5.57557
 30
0.0
 40
0.0111111
 41
0.0111111
  0
SEQEND
 8
0
  0
POLYLINE
  8
0
 62
     0
 66
     1
 10
0
 20
0
 30
0.0
 70
     1
 40
0.8
 41
0.8
  0
VERTEX
  8
0
 10
4.87961
 20
1.2506
 30
0.0
 40
0.0111111
 41
0.0111111
  0
VERTEX
  8
0
 10
4.87961
 20
1.45057
 30
0.0
 40
0.0111111
 41
0.0111111
  0
VERTEX
  8
0
 10
5.07958
 20
1.45057
 30
0.0
 40
0.0111111
 41
0.0111111
  0
VERTEX
  8
0
 10
5.07958
 20
4.45057
 30
0.0
 40
0.0111111
 41
0.0111111
  0
VERTEX
  8
0
 10
4.87961
 20
4.45057
 30
0.0
 40
0.0111111
 41
0.0111111
  0
VERTEX
  8
0
 10
4.87961
 20
4.65056
 30
0.0
 40
0.0111111
 41
0.0111111
  0
VERTEX
  8
0
 10
2.07958
 20
4.65056
 30
0.0
 40
0.0111111
 41
0.0111111
  0
VERTEX
  8
0
 10
2.07958
 20
4.45057
 30
0.0
 40
0.0111111
 41
0.0111111
  0
VERTEX
  8
0
 10
1.87961
 20
4.45057
 30
0.0
 40
0.0111111
 41
0.0111111
  0
VERTEX
  8
0
 10
1.87961
 20
1.45057
 30
0.0
 40
0.0111111
 41
0.0111111
  0
VERTEX
  8
0
 10
2.07958
 20
1.45057
 30
0.0
 40
0.0111111
 41
0.0111111
  0
VERTEX
  8
0
 10
2.07958
 20
1.2506
 30
0.0
 40
0.0111111
 41
0.0111111
  0
VERTEX
  8
0
 10
4.87961
 20
1.2506
 30
0.0
 40
0.0111111
 41
0.0111111
  0
SEQEND
 8
0
  0
POLYLINE
  8
0
 62
     0
 66
     1
 10
0
 20
0
 30
0.0
 70
     1
 40
0.782644
 41
0.782644
  0
VERTEX
  8
0
 10
1.70535
 20
4.83669
 30
0.0
 40
0.0108701
 41
0.0108701
  0
VERTEX
  8
0
 10
1.46099
 20
4.83669
 30
0.0
 40
0.0108701
 41
0.0108701
  0
VERTEX
  8
0
 10
1.46099
 20
4.61165
 30
0.0
 40
0.0108701
 41
0.0108701
  0
VERTEX
  8
0
 10
1.70535
 20
4.61165
 30
0.0
 40
0.0108701
 41
0.0108701
  0
VERTEX
  8
0
 10
1.70535
 20
4.83669
 30
0.0
 40
0.0108701
 41
0.0108701
  0
SEQEND
 8
0
  0
POLYLINE
  8
0
 62
     0
 66
     1
 10
0
 20
0
 30
0.0
 70
     1
 40
0.782644
 41
0.782644
  0
VERTEX
  8
0
 10
1.18018
 20
4.83669
 30
0.0
 40
0.0108701
 41
0.0108701
  0
VERTEX
  8
0
 10
0.935764
 20
4.83669
 30
0.0
 40
0.0108701
 41
0.0108701
  0
VERTEX
  8
0
 10
0.935764
 20
4.61165
 30
0.0
 40
0.0108701
 41
0.0108701
  0
VERTEX
  8
0
 10
1.18018
 20
4.61165
 30
0.0
 40
0.0108701
 41
0.0108701
  0
VERTEX
  8
0
 10
1.18018
 20
4.83669
 30
0.0
 40
0.0108701
 41
0.0108701
  0
SEQEND
 8
0
  0
POLYLINE
  8
0
 62
     0
 66
     1
 10
0
 20
0
 30
0.0
 70
     1
 40
0.782644
 41
0.782644
  0
VERTEX
  8
0
 10
1.70535
 20
1.2844
 30
0.0
 40
0.0108701
 41
0.0108701
  0
VERTEX
  8
0
 10
1.46099
 20
1.2844
 30
0.0
 40
0.0108701
 41
0.0108701
  0
VERTEX
  8
0
 10
1.46099
 20
1.05935
 30
0.0
 40
0.0108701
 41
0.0108701
  0
VERTEX
  8
0
 10
1.70535
 20
1.05935
 30
0.0
 40
0.0108701
 41
0.0108701
  0
VERTEX
  8
0
 10
1.70535
 20
1.2844
 30
0.0
 40
0.0108701
 41
0.0108701
  0
SEQEND
 8
0
  0
POLYLINE
  8
0
 62
     0
 66
     1
 10
0
 20
0
 30
0.0
 70
     1
 40
0.782644
 41
0.782644
  0
VERTEX
  8
0
 10
1.18018
 20
1.2844
 30
0.0
 40
0.0108701
 41
0.0108701
  0
VERTEX
  8
0
 10
0.935764
 20
1.2844
 30
0.0
 40
0.0108701
 41
0.0108701
  0
VERTEX
  8
0
 10
0.935764
 20
1.05935
 30
0.0
 40
0.0108701
 41
0.0108701
  0
VERTEX
  8
0
 10
1.18018
 20
1.05935
 30
0.0
 40
0.0108701
 41
0.0108701
  0
VERTEX
  8
0
 10
1.18018
 20
1.2844
 30
0.0
 40
0.0108701
 41
0.0108701
  0
SEQEND
 8
0
  0
POLYLINE
  8
0
 62
     0
 66
     1
 10
0
 20
0
 30
0.0
 70
     1
 40
0.8
 41
0.8
  0
VERTEX
  8
0
 10
5.24333
 20
5.13678
 30
0.0
 40
0.0111111
 41
0.0111111
  0
VERTEX
  8
0
 10
5.26079
 20
5.14035
 30
0.0
 40
0.0111111
 41
0.0111111
  0
VERTEX
  8
0
 10
5.27512
 20
5.15001
 30
0.0
 40
0.0111111
 41
0.0111111
  0
VERTEX
  8
0
 10
5.28472
 20
5.16433
 30
0.0
 40
0.0111111
 41
0.0111111
  0
VERTEX
  8
0
 10
5.28831
 20
5.18181
 30
0.0
 40
0.0111111
 41
0.0111111
  0
VERTEX
  8
0
 10
5.28472
 20
5.19933
 30
0.0
 40
0.0111111
 41
0.0111111
  0
VERTEX
  8
0
 10
5.27512
 20
5.21365
 30
0.0
 40
0.0111111
 41
0.0111111
  0
VERTEX
  8
0
 10
5.26079
 20
5.22325
 30
0.0
 40
0.0111111
 41
0.0111111
  0
VERTEX
  8
0
 10
5.24333
 20
5.22678
 30
0.0
 40
0.0111111
 41
0.0111111
  0
VERTEX
  8
0
 10
5.22581
 20
5.22325
 30
0.0
 40
0.0111111
 41
0.0111111
  0
VERTEX
  8
0
 10
5.21149
 20
5.21365
 30
0.0
 40
0.0111111
 41
0.0111111
  0
VERTEX
  8
0
 10
5.20182
 20
5.19933
 30
0.0
 40
0.0111111
 41
0.0111111
  0
VERTEX
  8
0
 10
5.19829
 20
5.18181
 30
0.0
 40
0.0111111
 41
0.0111111
  0
VERTEX
  8
0
 10
5.20182
 20
5.16433
 30
0.0
 40
0.0111111
 41
0.0111111
  0
VERTEX
  8
0
 10
5.21149
 20
5.15001
 30
0.0
 40
0.0111111
 41
0.0111111
  0
VERTEX
  8
0
 10
5.22581
 20
5.14035
 30
0.0
 40
0.0111111
 41
0.0111111
  0
VERTEX
  8
0
 10
5.24333
 20
5.13678
 30
0.0
 40
0.0111111
 41
0.0111111
  0
SEQEND
 8
0
  0
POLYLINE
  8
0
 62
     0
 66
     1
 10
0
 20
0
 30
0.0
 70
     1
 40
0.8
 41
0.8
  0
VERTEX
  8
0
 10
5.24333
 20
0.674208
 30
0.0
 40
0.0111111
 41
0.0111111
  0
VERTEX
  8
0
 10
5.26079
 20
0.677789
 30
0.0
 40
0.0111111
 41
0.0111111
  0
VERTEX
  8
0
 10
5.27512
 20
0.687392
 30
0.0
 40
0.0111111
 41
0.0111111
  0
VERTEX
  8
0
 10
5.28472
 20
0.701714
 30
0.0
 40
0.0111111
 41
0.0111111
  0
VERTEX
  8
0
 10
5.28831
 20
0.719183
 30
0.0
 40
0.0111111
 41
0.0111111
  0
VERTEX
  8
0
 10
5.28472
 20
0.736708
 30
0.0
 40
0.0111111
 41
0.0111111
  0
VERTEX
  8
0
 10
5.27512
 20
0.751031
 30
0.0
 40
0.0111111
 41
0.0111111
  0
VERTEX
  8
0
 10
5.26079
 20
0.760688
 30
0.0
 40
0.0111111
 41
0.0111111
  0
VERTEX
  8
0
 10
5.24333
 20
0.764214
 30
0.0
 40
0.0111111
 41
0.0111111
  0
VERTEX
  8
0
 10
5.22581
 20
0.760688
 30
0.0
 40
0.0111111
 41
0.0111111
  0
VERTEX
  8
0
 10
5.21149
 20
0.751031
 30
0.0
 40
0.0111111
 41
0.0111111
  0
VERTEX
  8
0
 10
5.20182
 20
0.736708
 30
0.0
 40
0.0111111
 41
0.0111111
  0
VERTEX
  8
0
 10
5.19829
 20
0.719183
 30
0.0
 40
0.0111111
 41
0.0111111
  0
VERTEX
  8
0
 10
5.20182
 20
0.701714
 30
0.0
 40
0.0111111
 41
0.0111111
  0
VERTEX
  8
0
 10
5.21149
 20
0.687392
 30
0.0
 40
0.0111111
 41
0.0111111
  0
VERTEX
  8
0
 10
5.22581
 20
0.677789
 30
0.0
 40
0.0111111
 41
0.0111111
  0
VERTEX
  8
0
 10
5.24333
 20
0.674208
 30
0.0
 40
0.0111111
 41
0.0111111
  0
SEQEND
 8
0
  0
POLYLINE
  8
0
 62
     0
 66
     1
 10
0
 20
0
 30
0.0
 70
     1
 40
0.8
 41
0.8
  0
VERTEX
  8
0
 10
2.19803
 20
5.09201
 30
0.0
 40
0.0111111
 41
0.0111111
  0
VERTEX
  8
0
 10
2.24858
 20
5.10226
 30
0.0
 40
0.0111111
 41
0.0111111
  0
VERTEX
  8
0
 10
2.28993
 20
5.1301
 30
0.0
 40
0.0111111
 41
0.0111111
  0
VERTEX
  8
0
 10
2.31776
 20
5.17144
 30
0.0
 40
0.0111111
 41
0.0111111
  0
VERTEX
  8
0
 10
2.32801
 20
5.222
 30
0.0
 40
0.0111111
 41
0.0111111
  0
VERTEX
  8
0
 10
2.31782
 20
5.27263
 30
0.0
 40
0.0111111
 41
0.0111111
  0
VERTEX
  8
0
 10
2.28993
 20
5.31396
 30
0.0
 40
0.0111111
 41
0.0111111
  0
VERTEX
  8
0
 10
2.24864
 20
5.34179
 30
0.0
 40
0.0111111
 41
0.0111111
  0
VERTEX
  8
0
 10
2.19803
 20
5.352
 30
0.0
 40
0.0111111
 41
0.0111111
  0
VERTEX
  8
0
 10
2.1474
 20
5.34179
 30
0.0
 40
0.0111111
 41
0.0111111
  0
VERTEX
  8
0
 10
2.10607
 20
5.31396
 30
0.0
 40
0.0111111
 41
0.0111111
  0
VERTEX
  8
0
 10
2.07824
 20
5.27263
 30
0.0
 40
0.0111111
 41
0.0111111
  0
VERTEX
  8
0
 10
2.06803
 20
5.222
 30
0.0
 40
0.0111111
 41
0.0111111
  0
VERTEX
  8
0
 10
2.07824
 20
5.17144
 30
0.0
 40
0.0111111
 41
0.0111111
  0
VERTEX
  8
0
 10
2.10607
 20
5.1301
 30
0.0
 40
0.0111111
 41
0.0111111
  0
VERTEX
  8
0
 10
2.1474
 20
5.10226
 30
0.0
 40
0.0111111
 41
0.0111111
  0
VERTEX
  8
0
 10
2.19803
 20
5.09201
 30
0.0
 40
0.0111111
 41
0.0111111
  0
SEQEND
 8
0
  0
POLYLINE
  8
0
 62
     0
 66
     1
 10
0
 20
0
 30
0.0
 70
     1
 40
0.8
 41
0.8
  0
VERTEX
  8
0
 10
3.77285
 20
5.09201
 30
0.0
 40
0.0111111
 41
0.0111111
  0
VERTEX
  8
0
 10
3.8234
 20
5.10226
 30
0.0
 40
0.0111111
 41
0.0111111
  0
VERTEX
  8
0
 10
3.86475
 20
5.1301
 30
0.0
 40
0.0111111
 41
0.0111111
  0
VERTEX
  8
0
 10
3.89258
 20
5.17144
 30
0.0
 40
0.0111111
 41
0.0111111
  0
VERTEX
  8
0
 10
3.90283
 20
5.222
 30
0.0
 40
0.0111111
 41
0.0111111
  0
VERTEX
  8
0
 10
3.89258
 20
5.27263
 30
0.0
 40
0.0111111
 41
0.0111111
  0
VERTEX
  8
0
 10
3.86475
 20
5.31396
 30
0.0
 40
0.0111111
 41
0.0111111
  0
VERTEX
  8
0
 10
3.8234
 20
5.34179
 30
0.0
 40
0.0111111
 41
0.0111111
  0
VERTEX
  8
0
 10
3.77285
 20
5.352
 30
0.0
 40
0.0111111
 41
0.0111111
  0
VERTEX
  8
0
 10
3.72222
 20
5.34179
 30
0.0
 40
0.0111111
 41
0.0111111
  0
VERTEX
  8
0
 10
3.68088
 20
5.31396
 30
0.0
 40
0.0111111
 41
0.0111111
  0
VERTEX
  8
0
 10
3.65306
 20
5.27263
 30
0.0
 40
0.0111111
 41
0.0111111
  0
VERTEX
  8
0
 10
3.64285
 20
5.222
 30
0.0
 40
0.0111111
 41
0.0111111
  0
VERTEX
  8
0
 10
3.65306
 20
5.17144
 30
0.0
 40
0.0111111
 41
0.0111111
  0
VERTEX
  8
0
 10
3.68088
 20
5.1301
 30
0.0
 40
0.0111111
 41
0.0111111
  0
VERTEX
  8
0
 10
3.72222
 20
5.10226
 30
0.0
 40
0.0111111
 41
0.0111111
  0
VERTEX
  8
0
 10
3.77285
 20
5.09201
 30
0.0
 40
0.0111111
 41
0.0111111
  0
VERTEX
  8
0
 10
3.77285
 20
5.09201
 30
0.0
 40
0.0111111
 41
0.0111111
  0
SEQEND
 8
0
  0
POLYLINE
  8
0
 62
     0
 66
     1
 10
0
 20
0
 30
0.0
 70
     1
 40
0.8
 41
0.8
  0
VERTEX
  8
0
 10
3.77285
 20
0.54899
 30
0.0
 40
0.0111111
 41
0.0111111
  0
VERTEX
  8
0
 10
3.8234
 20
0.559244
 30
0.0
 40
0.0111111
 41
0.0111111
  0
VERTEX
  8
0
 10
3.86475
 20
0.587076
 30
0.0
 40
0.0111111
 41
0.0111111
  0
VERTEX
  8
0
 10
3.89258
 20
0.628418
 30
0.0
 40
0.0111111
 41
0.0111111
  0
VERTEX
  8
0
 10
3.90283
 20
0.678982
 30
0.0
 40
0.0111111
 41
0.0111111
  0
VERTEX
  8
0
 10
3.89258
 20
0.7296
 30
0.0
 40
0.0111111
 41
0.0111111
  0
VERTEX
  8
0
 10
3.86475
 20
0.770942
 30
0.0
 40
0.0111111
 41
0.0111111
  0
VERTEX
  8
0
 10
3.8234
 20
0.798774
 30
0.0
 40
0.0111111
 41
0.0111111
  0
VERTEX
  8
0
 10
3.77285
 20
0.808974
 30
0.0
 40
0.0111111
 41
0.0111111
  0
VERTEX
  8
0
 10
3.72222
 20
0.798774
 30
0.0
 40
0.0111111
 41
0.0111111
  0
VERTEX
  8
0
 10
3.68088
 20
0.770942
 30
0.0
 40
0.0111111
 41
0.0111111
  0
VERTEX
  8
0
 10
3.65306
 20
0.7296
 30
0.0
 40
0.0111111
 41
0.0111111
  0
VERTEX
  8
0
 10
3.64285
 20
0.678982
 30
0.0
 40
0.0111111
 41
0.0111111
  0
VERTEX
  8
0
 10
3.65306
 20
0.628418
 30
0.0
 40
0.0111111
 41
0.0111111
  0
VERTEX
  8
0
 10
3.68088
 20
0.587076
 30
0.0
 40
0.0111111
 41
0.0111111
  0
VERTEX
  8
0
 10
3.72222
 20
0.559244
 30
0.0
 40
0.0111111
 41
0.0111111
  0
VERTEX
  8
0
 10
3.77285
 20
0.54899
 30
0.0
 40
0.0111111
 41
0.0111111
  0
VERTEX
  8
0
 10
3.77285
 20
0.54899
 30
0.0
 40
0.0111111
 41
0.0111111
  0
SEQEND
 8
0
  0
POLYLINE
  8
0
 62
     0
 66
     1
 10
0
 20
0
 30
0.0
 70
     1
 40
0.8
 41
0.8
  0
VERTEX
  8
0
 10
2.19803
 20
0.54899
 30
0.0
 40
0.0111111
 41
0.0111111
  0
VERTEX
  8
0
 10
2.24858
 20
0.559244
 30
0.0
 40
0.0111111
 41
0.0111111
  0
VERTEX
  8
0
 10
2.28993
 20
0.587076
 30
0.0
 40
0.0111111
 41
0.0111111
  0
VERTEX
  8
0
 10
2.31776
 20
0.628418
 30
0.0
 40
0.0111111
 41
0.0111111
  0
VERTEX
  8
0
 10
2.32801
 20
0.678982
 30
0.0
 40
0.0111111
 41
0.0111111
  0
VERTEX
  8
0
 10
2.31782
 20
0.7296
 30
0.0
 40
0.0111111
 41
0.0111111
  0
VERTEX
  8
0
 10
2.28993
 20
0.770942
 30
0.0
 40
0.0111111
 41
0.0111111
  0
VERTEX
  8
0
 10
2.24864
 20
0.798774
 30
0.0
 40
0.0111111
 41
0.0111111
  0
VERTEX
  8
0
 10
2.19803
 20
0.808974
 30
0.0
 40
0.0111111
 41
0.0111111
  0
VERTEX
  8
0
 10
2.1474
 20
0.798774
 30
0.0
 40
0.0111111
 41
0.0111111
  0
VERTEX
  8
0
 10
2.10607
 20
0.770942
 30
0.0
 40
0.0111111
 41
0.0111111
  0
VERTEX
  8
0
 10
2.07824
 20
0.7296
 30
0.0
 40
0.0111111
 41
0.0111111
  0
VERTEX
  8
0
 10
2.06803
 20
0.678982
 30
0.0
 40
0.0111111
 41
0.0111111
  0
VERTEX
  8
0
 10
2.07824
 20
0.628418
 30
0.0
 40
0.0111111
 41
0.0111111
  0
VERTEX
  8
0
 10
2.10607
 20
0.587076
 30
0.0
 40
0.0111111
 41
0.0111111
  0
VERTEX
  8
0
 10
2.1474
 20
0.559244
 30
0.0
 40
0.0111111
 41
0.0111111
  0
VERTEX
  8
0
 10
2.19803
 20
0.54899
 30
0.0
 40
0.0111111
 41
0.0111111
  0
SEQEND
 8
0
  0
POLYLINE
  8
0
 62
     0
 66
     1
 10
0
 20
0
 30
0.0
 70
     1
 40
0.8
 41
0.8
  0
VERTEX
  8
0
 10
1.97954
 20
4.50549
 30
0.0
 40
0.0111111
 41
0.0111111
  0
VERTEX
  8
0
 10
1.99701
 20
4.50906
 30
0.0
 40
0.0111111
 41
0.0111111
  0
VERTEX
  8
0
 10
2.01133
 20
4.51867
 30
0.0
 40
0.0111111
 41
0.0111111
  0
VERTEX
  8
0
 10
2.02094
 20
4.53299
 30
0.0
 40
0.0111111
 41
0.0111111
  0
VERTEX
  8
0
 10
2.02453
 20
4.55051
 30
0.0
 40
0.0111111
 41
0.0111111
  0
VERTEX
  8
0
 10
2.02094
 20
4.56803
 30
0.0
 40
0.0111111
 41
0.0111111
  0
VERTEX
  8
0
 10
2.01133
 20
4.58236
 30
0.0
 40
0.0111111
 41
0.0111111
  0
VERTEX
  8
0
 10
1.99701
 20
4.59196
 30
0.0
 40
0.0111111
 41
0.0111111
  0
VERTEX
  8
0
 10
1.97954
 20
4.59549
 30
0.0
 40
0.0111111
 41
0.0111111
  0
VERTEX
  8
0
 10
1.96203
 20
4.59196
 30
0.0
 40
0.0111111
 41
0.0111111
  0
VERTEX
  8
0
 10
1.94769
 20
4.58236
 30
0.0
 40
0.0111111
 41
0.0111111
  0
VERTEX
  8
0
 10
1.93804
 20
4.56803
 30
0.0
 40
0.0111111
 41
0.0111111
  0
VERTEX
  8
0
 10
1.93451
 20
4.55051
 30
0.0
 40
0.0111111
 41
0.0111111
  0
VERTEX
  8
0
 10
1.93804
 20
4.53299
 30
0.0
 40
0.0111111
 41
0.0111111
  0
VERTEX
  8
0
 10
1.94769
 20
4.51867
 30
0.0
 40
0.0111111
 41
0.0111111
  0
VERTEX
  8
0
 10
1.96203
 20
4.50906
 30
0.0
 40
0.0111111
 41
0.0111111
  0
VERTEX
  8
0
 10
1.97954
 20
4.50549
 30
0.0
 40
0.0111111
 41
0.0111111
  0
VERTEX
  8
0
 10
1.97954
 20
4.50549
 30
0.0
 40
0.0111111
 41
0.0111111
  0
SEQEND
 8
0
  0
POLYLINE
  8
0
 62
     0
 66
     1
 10
0
 20
0
 30
0.0
 70
     1
 40
0.8
 41
0.8
  0
VERTEX
  8
0
 10
4.97954
 20
4.50549
 30
0.0
 40
0.0111111
 41
0.0111111
  0
VERTEX
  8
0
 10
4.99701
 20
4.50906
 30
0.0
 40
0.0111111
 41
0.0111111
  0
VERTEX
  8
0
 10
5.01133
 20
4.51867
 30
0.0
 40
0.0111111
 41
0.0111111
  0
VERTEX
  8
0
 10
5.02094
 20
4.53299
 30
0.0
 40
0.0111111
 41
0.0111111
  0
VERTEX
  8
0
 10
5.02453
 20
4.55051
 30
0.0
 40
0.0111111
 41
0.0111111
  0
VERTEX
  8
0
 10
5.02094
 20
4.56803
 30
0.0
 40
0.0111111
 41
0.0111111
  0
VERTEX
  8
0
 10
5.01133
 20
4.58236
 30
0.0
 40
0.0111111
 41
0.0111111
  0
VERTEX
  8
0
 10
4.99701
 20
4.59196
 30
0.0
 40
0.0111111
 41
0.0111111
  0
VERTEX
  8
0
 10
4.97954
 20
4.59549
 30
0.0
 40
0.0111111
 41
0.0111111
  0
VERTEX
  8
0
 10
4.96203
 20
4.59196
 30
0.0
 40
0.0111111
 41
0.0111111
  0
VERTEX
  8
0
 10
4.94769
 20
4.58236
 30
0.0
 40
0.0111111
 41
0.0111111
  0
VERTEX
  8
0
 10
4.93804
 20
4.56803
 30
0.0
 40
0.0111111
 41
0.0111111
  0
VERTEX
  8
0
 10
4.93451
 20
4.55051
 30
0.0
 40
0.0111111
 41
0.0111111
  0
VERTEX
  8
0
 10
4.93804
 20
4.53299
 30
0.0
 40
0.0111111
 41
0.0111111
  0
VERTEX
  8
0
 10
4.94769
 20
4.51867
 30
0.0
 40
0.0111111
 41
0.0111111
  0
VERTEX
  8
0
 10
4.96203
 20
4.50906
 30
0.0
 40
0.0111111
 41
0.0111111
  0
VERTEX
  8
0
 10
4.97954
 20
4.50549
 30
0.0
 40
0.0111111
 41
0.0111111
  0
VERTEX
  8
0
 10
4.97954
 20
4.50549
 30
0.0
 40
0.0111111
 41
0.0111111
  0
SEQEND
 8
0
  0
POLYLINE
  8
0
 62
     0
 66
     1
 10
0
 20
0
 30
0.0
 70
     1
 40
0.8
 41
0.8
  0
VERTEX
  8
0
 10
1.97954
 20
1.3055
 30
0.0
 40
0.0111111
 41
0.0111111
  0
VERTEX
  8
0
 10
1.99701
 20
1.30908
 30
0.0
 40
0.0111111
 41
0.0111111
  0
VERTEX
  8
0
 10
2.01133
 20
1.31868
 30
0.0
 40
0.0111111
 41
0.0111111
  0
VERTEX
  8
0
 10
2.02094
 20
1.33301
 30
0.0
 40
0.0111111
 41
0.0111111
  0
VERTEX
  8
0
 10
2.02453
 20
1.35048
 30
0.0
 40
0.0111111
 41
0.0111111
  0
VERTEX
  8
0
 10
2.02094
 20
1.368
 30
0.0
 40
0.0111111
 41
0.0111111
  0
VERTEX
  8
0
 10
2.01133
 20
1.38232
 30
0.0
 40
0.0111111
 41
0.0111111
  0
VERTEX
  8
0
 10
1.99701
 20
1.39199
 30
0.0
 40
0.0111111
 41
0.0111111
  0
VERTEX
  8
0
 10
1.97954
 20
1.39551
 30
0.0
 40
0.0111111
 41
0.0111111
  0
VERTEX
  8
0
 10
1.96203
 20
1.39199
 30
0.0
 40
0.0111111
 41
0.0111111
  0
VERTEX
  8
0
 10
1.94769
 20
1.38232
 30
0.0
 40
0.0111111
 41
0.0111111
  0
VERTEX
  8
0
 10
1.93804
 20
1.368
 30
0.0
 40
0.0111111
 41
0.0111111
  0
VERTEX
  8
0
 10
1.93451
 20
1.35048
 30
0.0
 40
0.0111111
 41
0.0111111
  0
VERTEX
  8
0
 10
1.93804
 20
1.33301
 30
0.0
 40
0.0111111
 41
0.0111111
  0
VERTEX
  8
0
 10
1.94769
 20
1.31868
 30
0.0
 40
0.0111111
 41
0.0111111
  0
VERTEX
  8
0
 10
1.96203
 20
1.30908
 30
0.0
 40
0.0111111
 41
0.0111111
  0
VERTEX
  8
0
 10
1.97954
 20
1.3055
 30
0.0
 40
0.0111111
 41
0.0111111
  0
VERTEX
  8
0
 10
1.97954
 20
1.3055
 30
0.0
 40
0.0111111
 41
0.0111111
  0
SEQEND
 8
0
  0
POLYLINE
  8
0
 62
     0
 66
     1
 10
0
 20
0
 30
0.0
 70
     1
 40
0.8
 41
0.8
  0
VERTEX
  8
0
 10
4.97954
 20
1.3055
 30
0.0
 40
0.0111111
 41
0.0111111
  0
VERTEX
  8
0
 10
4.99701
 20
1.30908
 30
0.0
 40
0.0111111
 41
0.0111111
  0
VERTEX
  8
0
 10
5.01133
 20
1.31868
 30
0.0
 40
0.0111111
 41
0.0111111
  0
VERTEX
  8
0
 10
5.02094
 20
1.33301
 30
0.0
 40
0.0111111
 41
0.0111111
  0
VERTEX
  8
0
 10
5.02453
 20
1.35048
 30
0.0
 40
0.0111111
 41
0.0111111
  0
VERTEX
  8
0
 10
5.02094
 20
1.368
 30
0.0
 40
0.0111111
 41
0.0111111
  0
VERTEX
  8
0
 10
5.01133
 20
1.38232
 30
0.0
 40
0.0111111
 41
0.0111111
  0
VERTEX
  8
0
 10
4.99701
 20
1.39199
 30
0.0
 40
0.0111111
 41
0.0111111
  0
VERTEX
  8
0
 10
4.97954
 20
1.39551
 30
0.0
 40
0.0111111
 41
0.0111111
  0
VERTEX
  8
0
 10
4.96203
 20
1.39199
 30
0.0
 40
0.0111111
 41
0.0111111
  0
VERTEX
  8
0
 10
4.94769
 20
1.38232
 30
0.0
 40
0.0111111
 41
0.0111111
  0
VERTEX
  8
0
 10
4.93804
 20
1.368
 30
0.0
 40
0.0111111
 41
0.0111111
  0
VERTEX
  8
0
 10
4.93451
 20
1.35048
 30
0.0
 40
0.0111111
 41
0.0111111
  0
VERTEX
  8
0
 10
4.93804
 20
1.33301
 30
0.0
 40
0.0111111
 41
0.0111111
  0
VERTEX
  8
0
 10
4.94769
 20
1.31868
 30
0.0
 40
0.0111111
 41
0.0111111
  0
VERTEX
  8
0
 10
4.96203
 20
1.30908
 30
0.0
 40
0.0111111
 41
0.0111111
  0
VERTEX
  8
0
 10
4.97954
 20
1.3055
 30
0.0
 40
0.0111111
 41
0.0111111
  0
VERTEX
  8
0
 10
4.97954
 20
1.3055
 30
0.0
 40
0.0111111
 41
0.0111111
  0
SEQEND
 8
0
  0
POLYLINE
  8
0
 62
     0
 66
     1
 10
0
 20
0
 30
0.0
 70
     1
 40
0.8
 41
0.8
  0
VERTEX
  8
0
 10
2.17524
 20
2.71192
 30
0.0
 40
0.0111111
 41
0.0111111
  0
VERTEX
  8
0
 10
2.43787
 20
2.71192
 30
0.0
 40
0.0111111
 41
0.0111111
  0
VERTEX
  8
0
 10
2.43787
 20
2.94694
 30
0.0
 40
0.0111111
 41
0.0111111
  0
VERTEX
  8
0
 10
2.70047
 20
2.94694
 30
0.0
 40
0.0111111
 41
0.0111111
  0
VERTEX
  8
0
 10
2.70047
 20
2.71192
 30
0.0
 40
0.0111111
 41
0.0111111
  0
VERTEX
  8
0
 10
2.96306
 20
2.71192
 30
0.0
 40
0.0111111
 41
0.0111111
  0
VERTEX
  8
0
 10
2.96306
 20
3.82243
 30
0.0
 40
0.0111111
 41
0.0111111
  0
VERTEX
  8
0
 10
2.96306
 20
4.35786
 30
0.0
 40
0.0111111
 41
0.0111111
  0
VERTEX
  8
0
 10
2.61837
 20
4.35786
 30
0.0
 40
0.0111111
 41
0.0111111
  0
VERTEX
  8
0
 10
2.61837
 20
4.22006
 30
0.0
 40
0.0111111
 41
0.0111111
  0
VERTEX
  8
0
 10
2.51997
 20
4.22006
 30
0.0
 40
0.0111111
 41
0.0111111
  0
VERTEX
  8
0
 10
2.51997
 20
4.35786
 30
0.0
 40
0.0111111
 41
0.0111111
  0
VERTEX
  8
0
 10
2.17524
 20
4.35786
 30
0.0
 40
0.0111111
 41
0.0111111
  0
VERTEX
  8
0
 10
2.17524
 20
3.82243
 30
0.0
 40
0.0111111
 41
0.0111111
  0
VERTEX
  8
0
 10
2.17524
 20
2.71192
 30
0.0
 40
0.0111111
 41
0.0111111
  0
SEQEND
 8
0
  0
POLYLINE
  8
0
 62
     0
 66
     1
 10
0
 20
0
 30
0.0
 70
     1
 40
0.8
 41
0.8
  0
VERTEX
  8
0
 10
3.04036
 20
2.70671
 30
0.0
 40
0.0111111
 41
0.0111111
  0
VERTEX
  8
0
 10
3.30296
 20
2.70671
 30
0.0
 40
0.0111111
 41
0.0111111
  0
VERTEX
  8
0
 10
3.30296
 20
2.94174
 30
0.0
 40
0.0111111
 41
0.0111111
  0
VERTEX
  8
0
 10
3.56554
 20
2.94174
 30
0.0
 40
0.0111111
 41
0.0111111
  0
VERTEX
  8
0
 10
3.56554
 20
2.70671
 30
0.0
 40
0.0111111
 41
0.0111111
  0
VERTEX
  8
0
 10
3.82818
 20
2.70671
 30
0.0
 40
0.0111111
 41
0.0111111
  0
VERTEX
  8
0
 10
3.82818
 20
3.81722
 30
0.0
 40
0.0111111
 41
0.0111111
  0
VERTEX
  8
0
 10
3.82818
 20
4.35265
 30
0.0
 40
0.0111111
 41
0.0111111
  0
VERTEX
  8
0
 10
3.48346
 20
4.35265
 30
0.0
 40
0.0111111
 41
0.0111111
  0
VERTEX
  8
0
 10
3.48346
 20
4.21485
 30
0.0
 40
0.0111111
 41
0.0111111
  0
VERTEX
  8
0
 10
3.38504
 20
4.21485
 30
0.0
 40
0.0111111
 41
0.0111111
  0
VERTEX
  8
0
 10
3.38504
 20
4.35265
 30
0.0
 40
0.0111111
 41
0.0111111
  0
VERTEX
  8
0
 10
3.04036
 20
4.35265
 30
0.0
 40
0.0111111
 41
0.0111111
  0
VERTEX
  8
0
 10
3.04036
 20
3.81722
 30
0.0
 40
0.0111111
 41
0.0111111
  0
VERTEX
  8
0
 10
3.04036
 20
2.70671
 30
0.0
 40
0.0111111
 41
0.0111111
  0
SEQEND
 8
0
  0
POLYLINE
  8
0
 62
     0
 66
     1
 10
0
 20
0
 30
0.0
 70
     1
 40
0.8
 41
0.8
  0
VERTEX
  8
0
 10
2.44417
 20
4.20031
 30
0.0
 40
0.0111111
 41
0.0111111
  0
VERTEX
  8
0
 10
2.43728
 20
4.23438
 30
0.0
 40
0.0111111
 41
0.0111111
  0
VERTEX
  8
0
 10
2.41851
 20
4.26221
 30
0.0
 40
0.0111111
 41
0.0111111
  0
VERTEX
  8
0
 10
2.39068
 20
4.28097
 30
0.0
 40
0.0111111
 41
0.0111111
  0
VERTEX
  8
0
 10
2.35667
 20
4.28782
 30
0.0
 40
0.0111111
 41
0.0111111
  0
VERTEX
  8
0
 10
2.3226
 20
4.28097
 30
0.0
 40
0.0111111
 41
0.0111111
  0
VERTEX
  8
0
 10
2.29476
 20
4.26221
 30
0.0
 40
0.0111111
 41
0.0111111
  0
VERTEX
  8
0
 10
2.27599
 20
4.23438
 30
0.0
 40
0.0111111
 41
0.0111111
  0
VERTEX
  8
0
 10
2.26915
 20
4.20031
 30
0.0
 40
0.0111111
 41
0.0111111
  0
VERTEX
  8
0
 10
2.27599
 20
4.16629
 30
0.0
 40
0.0111111
 41
0.0111111
  0
VERTEX
  8
0
 10
2.29476
 20
4.13846
 30
0.0
 40
0.0111111
 41
0.0111111
  0
VERTEX
  8
0
 10
2.3226
 20
4.11968
 30
0.0
 40
0.0111111
 41
0.0111111
  0
VERTEX
  8
0
 10
2.35667
 20
4.11279
 30
0.0
 40
0.0111111
 41
0.0111111
  0
VERTEX
  8
0
 10
2.39068
 20
4.11968
 30
0.0
 40
0.0111111
 41
0.0111111
  0
VERTEX
  8
0
 10
2.41851
 20
4.13846
 30
0.0
 40
0.0111111
 41
0.0111111
  0
VERTEX
  8
0
 10
2.43728
 20
4.16629
 30
0.0
 40
0.0111111
 41
0.0111111
  0
VERTEX
  8
0
 10
2.44417
 20
4.20031
 30
0.0
 40
0.0111111
 41
0.0111111
  0
SEQEND
 8
0
  0
POLYLINE
  8
0
 62
     0
 66
     1
 10
0
 20
0
 30
0.0
 70
     1
 40
0.8
 41
0.8
  0
VERTEX
  8
0
 10
2.86914
 20
4.20031
 30
0.0
 40
0.0111111
 41
0.0111111
  0
VERTEX
  8
0
 10
2.86225
 20
4.23438
 30
0.0
 40
0.0111111
 41
0.0111111
  0
VERTEX
  8
0
 10
2.84347
 20
4.26221
 30
0.0
 40
0.0111111
 41
0.0111111
  0
VERTEX
  8
0
 10
2.81565
 20
4.28097
 30
0.0
 40
0.0111111
 41
0.0111111
  0
VERTEX
  8
0
 10
2.78162
 20
4.28782
 30
0.0
 40
0.0111111
 41
0.0111111
  0
VERTEX
  8
0
 10
2.74756
 20
4.28097
 30
0.0
 40
0.0111111
 41
0.0111111
  0
VERTEX
  8
0
 10
2.71978
 20
4.26221
 30
0.0
 40
0.0111111
 41
0.0111111
  0
VERTEX
  8
0
 10
2.70101
 20
4.23438
 30
0.0
 40
0.0111111
 41
0.0111111
  0
VERTEX
  8
0
 10
2.69417
 20
4.20031
 30
0.0
 40
0.0111111
 41
0.0111111
  0
VERTEX
  8
0
 10
2.70101
 20
4.16629
 30
0.0
 40
0.0111111
 41
0.0111111
  0
VERTEX
  8
0
 10
2.71978
 20
4.13846
 30
0.0
 40
0.0111111
 41
0.0111111
  0
VERTEX
  8
0
 10
2.74756
 20
4.11968
 30
0.0
 40
0.0111111
 41
0.0111111
  0
VERTEX
  8
0
 10
2.78162
 20
4.11279
 30
0.0
 40
0.0111111
 41
0.0111111
  0
VERTEX
  8
0
 10
2.81565
 20
4.11968
 30
0.0
 40
0.0111111
 41
0.0111111
  0
VERTEX
  8
0
 10
2.84347
 20
4.13846
 30
0.0
 40
0.0111111
 41
0.0111111
  0
VERTEX
  8
0
 10
2.86225
 20
4.16629
 30
0.0
 40
0.0111111
 41
0.0111111
  0
VERTEX
  8
0
 10
2.86914
 20
4.20031
 30
0.0
 40
0.0111111
 41
0.0111111
  0
SEQEND
 8
0
  0
POLYLINE
  8
0
 62
     0
 66
     1
 10
0
 20
0
 30
0.0
 70
     1
 40
0.8
 41
0.8
  0
VERTEX
  8
0
 10
2.78006
 20
3.72786
 30
0.0
 40
0.0111111
 41
0.0111111
  0
VERTEX
  8
0
 10
2.77556
 20
3.75006
 30
0.0
 40
0.0111111
 41
0.0111111
  0
VERTEX
  8
0
 10
2.76335
 20
3.76818
 30
0.0
 40
0.0111111
 41
0.0111111
  0
VERTEX
  8
0
 10
2.74522
 20
3.78043
 30
0.0
 40
0.0111111
 41
0.0111111
  0
VERTEX
  8
0
 10
2.72304
 20
3.78489
 30
0.0
 40
0.0111111
 41
0.0111111
  0
VERTEX
  8
0
 10
2.70085
 20
3.78043
 30
0.0
 40
0.0111111
 41
0.0111111
  0
VERTEX
  8
0
 10
2.68272
 20
3.76818
 30
0.0
 40
0.0111111
 41
0.0111111
  0
VERTEX
  8
0
 10
2.67051
 20
3.75006
 30
0.0
 40
0.0111111
 41
0.0111111
  0
VERTEX
  8
0
 10
2.66607
 20
3.72786
 30
0.0
 40
0.0111111
 41
0.0111111
  0
VERTEX
  8
0
 10
2.67051
 20
3.70572
 30
0.0
 40
0.0111111
 41
0.0111111
  0
VERTEX
  8
0
 10
2.68272
 20
3.68761
 30
0.0
 40
0.0111111
 41
0.0111111
  0
VERTEX
  8
0
 10
2.70085
 20
3.6754
 30
0.0
 40
0.0111111
 41
0.0111111
  0
VERTEX
  8
0
 10
2.72304
 20
3.6709
 30
0.0
 40
0.0111111
 41
0.0111111
  0
VERTEX
  8
0
 10
2.74522
 20
3.6754
 30
0.0
 40
0.0111111
 41
0.0111111
  0
VERTEX
  8
0
 10
2.76335
 20
3.68761
 30
0.0
 40
0.0111111
 41
0.0111111
  0
VERTEX
  8
0
 10
2.77556
 20
3.70572
 30
0.0
 40
0.0111111
 41
0.0111111
  0
VERTEX
  8
0
 10
2.78006
 20
3.72786
 30
0.0
 40
0.0111111
 41
0.0111111
  0
SEQEND
 8
0
  0
POLYLINE
  8
0
 62
     0
 66
     1
 10
0
 20
0
 30
0.0
 70
     1
 40
0.8
 41
0.8
  0
VERTEX
  8
0
 10
3.64513
 20
3.72265
 30
0.0
 40
0.0111111
 41
0.0111111
  0
VERTEX
  8
0
 10
3.64063
 20
3.74485
 30
0.0
 40
0.0111111
 41
0.0111111
  0
VERTEX
  8
0
 10
3.62842
 20
3.76297
 30
0.0
 40
0.0111111
 41
0.0111111
  0
VERTEX
  8
0
 10
3.61029
 20
3.77522
 30
0.0
 40
0.0111111
 41
0.0111111
  0
VERTEX
  8
0
 10
3.58817
 20
3.77968
 30
0.0
 40
0.0111111
 41
0.0111111
  0
VERTEX
  8
0
 10
3.56597
 20
3.77522
 30
0.0
 40
0.0111111
 41
0.0111111
  0
VERTEX
  8
0
 10
3.54785
 20
3.76297
 30
0.0
 40
0.0111111
 41
0.0111111
  0
VERTEX
  8
0
 10
3.53558
 20
3.74485
 30
0.0
 40
0.0111111
 41
0.0111111
  0
VERTEX
  8
0
 10
3.53114
 20
3.72265
 30
0.0
 40
0.0111111
 41
0.0111111
  0
VERTEX
  8
0
 10
3.53558
 20
3.70053
 30
0.0
 40
0.0111111
 41
0.0111111
  0
VERTEX
  8
0
 10
3.54785
 20
3.68235
 30
0.0
 40
0.0111111
 41
0.0111111
  0
VERTEX
  8
0
 10
3.56597
 20
3.67014
 30
0.0
 40
0.0111111
 41
0.0111111
  0
VERTEX
  8
0
 10
3.58817
 20
3.66564
 30
0.0
 40
0.0111111
 41
0.0111111
  0
VERTEX
  8
0
 10
3.61029
 20
3.67014
 30
0.0
 40
0.0111111
 41
0.0111111
  0
VERTEX
  8
0
 10
3.62842
 20
3.68235
 30
0.0
 40
0.0111111
 41
0.0111111
  0
VERTEX
  8
0
 10
3.64063
 20
3.70053
 30
0.0
 40
0.0111111
 41
0.0111111
  0
VERTEX
  8
0
 10
3.64513
 20
3.72265
 30
0.0
 40
0.0111111
 41
0.0111111
  0
VERTEX
  8
0
 10
3.64513
 20
3.72265
 30
0.0
 40
0.0111111
 41
0.0111111
  0
SEQEND
 8
0
  0
POLYLINE
  8
0
 62
     0
 66
     1
 10
0
 20
0
 30
0.0
 70
     1
 40
0.8
 41
0.8
  0
VERTEX
  8
0
 10
2.17085
 20
1.51417
 30
0.0
 40
0.0111111
 41
0.0111111
  0
VERTEX
  8
0
 10
2.43349
 20
1.51417
 30
0.0
 40
0.0111111
 41
0.0111111
  0
VERTEX
  8
0
 10
2.43349
 20
1.74914
 30
0.0
 40
0.0111111
 41
0.0111111
  0
VERTEX
  8
0
 10
2.69607
 20
1.74914
 30
0.0
 40
0.0111111
 41
0.0111111
  0
VERTEX
  8
0
 10
2.69607
 20
1.51417
 30
0.0
 40
0.0111111
 41
0.0111111
  0
VERTEX
  8
0
 10
2.95865
 20
1.51417
 30
0.0
 40
0.0111111
 41
0.0111111
  0
VERTEX
  8
0
 10
2.95865
 20
2.62463
 30
0.0
 40
0.0111111
 41
0.0111111
  0
VERTEX
  8
0
 10
2.17085
 20
2.62463
 30
0.0
 40
0.0111111
 41
0.0111111
  0
VERTEX
  8
0
 10
2.17085
 20
1.51417
 30
0.0
 40
0.0111111
 41
0.0111111
  0
SEQEND
 8
0
  0
POLYLINE
  8
0
 62
     0
 66
     1
 10
0
 20
0
 30
0.0
 70
     1
 40
0.8
 41
0.8
  0
VERTEX
  8
0
 10
2.77567
 20
2.53011
 30
0.0
 40
0.0111111
 41
0.0111111
  0
VERTEX
  8
0
 10
2.77115
 20
2.55231
 30
0.0
 40
0.0111111
 41
0.0111111
  0
VERTEX
  8
0
 10
2.75896
 20
2.57042
 30
0.0
 40
0.0111111
 41
0.0111111
  0
VERTEX
  8
0
 10
2.74083
 20
2.58263
 30
0.0
 40
0.0111111
 41
0.0111111
  0
VERTEX
  8
0
 10
2.71864
 20
2.58708
 30
0.0
 40
0.0111111
 41
0.0111111
  0
VERTEX
  8
0
 10
2.69646
 20
2.58263
 30
0.0
 40
0.0111111
 41
0.0111111
  0
VERTEX
  8
0
 10
2.67833
 20
2.57042
 30
0.0
 40
0.0111111
 41
0.0111111
  0
VERTEX
  8
0
 10
2.66612
 20
2.55231
 30
0.0
 40
0.0111111
 41
0.0111111
  0
VERTEX
  8
0
 10
2.66168
 20
2.53011
 30
0.0
 40
0.0111111
 41
0.0111111
  0
VERTEX
  8
0
 10
2.66612
 20
2.50792
 30
0.0
 40
0.0111111
 41
0.0111111
  0
VERTEX
  8
0
 10
2.67833
 20
2.48981
 30
0.0
 40
0.0111111
 41
0.0111111
  0
VERTEX
  8
0
 10
2.69646
 20
2.4776
 30
0.0
 40
0.0111111
 41
0.0111111
  0
VERTEX
  8
0
 10
2.71864
 20
2.47308
 30
0.0
 40
0.0111111
 41
0.0111111
  0
VERTEX
  8
0
 10
2.74083
 20
2.4776
 30
0.0
 40
0.0111111
 41
0.0111111
  0
VERTEX
  8
0
 10
2.75896
 20
2.48981
 30
0.0
 40
0.0111111
 41
0.0111111
  0
VERTEX
  8
0
 10
2.77115
 20
2.50792
 30
0.0
 40
0.0111111
 41
0.0111111
  0
VERTEX
  8
0
 10
2.77567
 20
2.53011
 30
0.0
 40
0.0111111
 41
0.0111111
  0
SEQEND
 8
0
  0
POLYLINE
  8
0
 62
     0
 66
     1
 10
0
 20
0
 30
0.0
 70
     1
 40
0.8
 41
0.8
  0
VERTEX
  8
0
 10
3.83658
 20
2.60206
 30
0.0
 40
0.0111111
 41
0.0111111
  0
VERTEX
  8
0
 10
3.57394
 20
2.60206
 30
0.0
 40
0.0111111
 41
0.0111111
  0
VERTEX
  8
0
 10
3.57394
 20
2.36708
 30
0.0
 40
0.0111111
 41
0.0111111
  0
VERTEX
  8
0
 10
3.31136
 20
2.36708
 30
0.0
 40
0.0111111
 41
0.0111111
  0
VERTEX
  8
0
 10
3.31136
 20
2.60206
 30
0.0
 40
0.0111111
 41
0.0111111
  0
VERTEX
  8
0
 10
3.04878
 20
2.60206
 30
0.0
 40
0.0111111
 41
0.0111111
  0
VERTEX
  8
0
 10
3.04878
 20
1.4916
 30
0.0
 40
0.0111111
 41
0.0111111
  0
VERTEX
  8
0
 10
3.83658
 20
1.4916
 30
0.0
 40
0.0111111
 41
0.0111111
  0
VERTEX
  8
0
 10
3.83658
 20
2.60206
 30
0.0
 40
0.0111111
 41
0.0111111
  0
SEQEND
 8
0
  0
POLYLINE
  8
0
 62
     0
 66
     1
 10
0
 20
0
 30
0.0
 70
     1
 40
0.8
 41
0.8
  0
VERTEX
  8
0
 10
3.23178
 20
1.58599
 30
0.0
 40
0.0111111
 41
0.0111111
  0
VERTEX
  8
0
 10
3.23622
 20
1.56386
 30
0.0
 40
0.0111111
 41
0.0111111
  0
VERTEX
  8
0
 10
3.24843
 20
1.54574
 30
0.0
 40
0.0111111
 41
0.0111111
  0
VERTEX
  8
0
 10
3.26654
 20
1.53353
 30
0.0
 40
0.0111111
 41
0.0111111
  0
VERTEX
  8
0
 10
3.28874
 20
1.52903
 30
0.0
 40
0.0111111
 41
0.0111111
  0
VERTEX
  8
0
 10
3.31087
 20
1.53353
 30
0.0
 40
0.0111111
 41
0.0111111
  0
VERTEX
  8
0
 10
3.32904
 20
1.54574
 30
0.0
 40
0.0111111
 41
0.0111111
  0
VERTEX
  8
0
 10
3.34125
 20
1.56386
 30
0.0
 40
0.0111111
 41
0.0111111
  0
VERTEX
  8
0
 10
3.34576
 20
1.58599
 30
0.0
 40
0.0111111
 41
0.0111111
  0
VERTEX
  8
0
 10
3.34125
 20
1.60824
 30
0.0
 40
0.0111111
 41
0.0111111
  0
VERTEX
  8
0
 10
3.32904
 20
1.62636
 30
0.0
 40
0.0111111
 41
0.0111111
  0
VERTEX
  8
0
 10
3.31087
 20
1.63857
 30
0.0
 40
0.0111111
 41
0.0111111
  0
VERTEX
  8
0
 10
3.28874
 20
1.64301
 30
0.0
 40
0.0111111
 41
0.0111111
  0
VERTEX
  8
0
 10
3.26654
 20
1.63857
 30
0.0
 40
0.0111111
 41
0.0111111
  0
VERTEX
  8
0
 10
3.24843
 20
1.62636
 30
0.0
 40
0.0111111
 41
0.0111111
  0
VERTEX
  8
0
 10
3.23622
 20
1.60824
 30
0.0
 40
0.0111111
 41
0.0111111
  0
VERTEX
  8
0
 10
3.23178
 20
1.58599
 30
0.0
 40
0.0111111
 41
0.0111111
  0
SEQEND
 8
0
  0
POLYLINE
  8
0
 62
     0
 66
     1
 10
0
 20
0
 30
0.0
 70
     1
 40
0.8
 41
0.8
  0
VERTEX
  8
0
 10
5.51764
 20
5.59517
 30
0.0
 40
0.0111111
 41
0.0111111
  0
VERTEX
  8
0
 10
9.45464
 20
5.59517
 30
0.0
 40
0.0111111
 41
0.0111111
  0
VERTEX
  8
0
 10
9.45464
 20
0.345161
 30
0.0
 40
0.0111111
 41
0.0111111
  0
VERTEX
  8
0
 10
5.51764
 20
0.345161
 30
0.0
 40
0.0111111
 41
0.0111111
  0
VERTEX
  8
0
 10
5.51764
 20
2.67014
 30
0.0
 40
0.0111111
 41
0.0111111
  0
VERTEX
  8
0
 10
7.09239
 20
2.67014
 30
0.0
 40
0.0111111
 41
0.0111111
  0
VERTEX
  8
0
 10
7.09239
 20
2.97017
 30
0.0
 40
0.0111111
 41
0.0111111
  0
VERTEX
  8
0
 10
7.09239
 20
3.27018
 30
0.0
 40
0.0111111
 41
0.0111111
  0
VERTEX
  8
0
 10
5.51764
 20
3.27018
 30
0.0
 40
0.0111111
 41
0.0111111
  0
VERTEX
  8
0
 10
5.51764
 20
5.59517
 30
0.0
 40
0.0111111
 41
0.0111111
  0
SEQEND
 8
0
  0
POLYLINE
  8
0
 62
     0
 66
     1
 10
0
 20
0
 30
0.0
 70
     1
 40
0.782644
 41
0.782644
  0
VERTEX
  8
0
 10
6.71712
 20
2.45514
 30
0.0
 40
0.0108701
 41
0.0108701
  0
VERTEX
  8
0
 10
6.71712
 20
2.23014
 30
0.0
 40
0.0108701
 41
0.0108701
  0
VERTEX
  8
0
 10
6.96153
 20
2.23014
 30
0.0
 40
0.0108701
 41
0.0108701
  0
VERTEX
  8
0
 10
6.96153
 20
2.45514
 30
0.0
 40
0.0108701
 41
0.0108701
  0
VERTEX
  8
0
 10
6.71712
 20
2.45514
 30
0.0
 40
0.0108701
 41
0.0108701
  0
SEQEND
 8
0
  0
POLYLINE
  8
0
 62
     0
 66
     1
 10
0
 20
0
 30
0.0
 70
     1
 40
0.782644
 41
0.782644
  0
VERTEX
  8
0
 10
7.24224
 20
2.45514
 30
0.0
 40
0.0108701
 41
0.0108701
  0
VERTEX
  8
0
 10
7.24224
 20
2.23014
 30
0.0
 40
0.0108701
 41
0.0108701
  0
VERTEX
  8
0
 10
7.48665
 20
2.23014
 30
0.0
 40
0.0108701
 41
0.0108701
  0
VERTEX
  8
0
 10
7.48665
 20
2.45514
 30
0.0
 40
0.0108701
 41
0.0108701
  0
VERTEX
  8
0
 10
7.24224
 20
2.45514
 30
0.0
 40
0.0108701
 41
0.0108701
  0
SEQEND
 8
0
  0
POLYLINE
  8
0
 62
     0
 66
     1
 10
0
 20
0
 30
0.0
 70
     1
 40
0.782644
 41
0.782644
  0
VERTEX
  8
0
 10
7.24224
 20
2.12517
 30
0.0
 40
0.0108701
 41
0.0108701
  0
VERTEX
  8
0
 10
7.48665
 20
2.12517
 30
0.0
 40
0.0108701
 41
0.0108701
  0
VERTEX
  8
0
 10
7.48665
 20
1.90013
 30
0.0
 40
0.0108701
 41
0.0108701
  0
VERTEX
  8
0
 10
7.24224
 20
1.90013
 30
0.0
 40
0.0108701
 41
0.0108701
  0
VERTEX
  8
0
 10
7.24224
 20
2.12517
 30
0.0
 40
0.0108701
 41
0.0108701
  0
SEQEND
 8
0
  0
POLYLINE
  8
0
 62
     0
 66
     1
 10
0
 20
0
 30
0.0
 70
     1
 40
0.78397
 41
0.78397
  0
VERTEX
  8
0
 10
6.96149
 20
2.12007
 30
0.0
 40
0.0108885
 41
0.0108885
  0
VERTEX
  8
0
 10
6.71724
 20
2.12007
 30
0.0
 40
0.0108885
 41
0.0108885
  0
VERTEX
  8
0
 10
6.71724
 20
1.89464
 30
0.0
 40
0.0108885
 41
0.0108885
  0
VERTEX
  8
0
 10
6.96149
 20
1.89464
 30
0.0
 40
0.0108885
 41
0.0108885
  0
VERTEX
  8
0
 10
6.96149
 20
2.12007
 30
0.0
 40
0.0108885
 41
0.0108885
  0
SEQEND
 8
0
  0
POLYLINE
  8
0
 62
     0
 66
     1
 10
0
 20
0
 30
0.0
 70
     1
 40
0.8
 41
0.8
  0
VERTEX
  8
0
 10
6.50185
 20
5.0714
 30
0.0
 40
0.0111111
 41
0.0111111
  0
VERTEX
  8
0
 10
6.5524
 20
5.08165
 30
0.0
 40
0.0111111
 41
0.0111111
  0
VERTEX
  8
0
 10
6.59375
 20
5.10949
 30
0.0
 40
0.0111111
 41
0.0111111
  0
VERTEX
  8
0
 10
6.62158
 20
5.15082
 30
0.0
 40
0.0111111
 41
0.0111111
  0
VERTEX
  8
0
 10
6.63183
 20
5.20139
 30
0.0
 40
0.0111111
 41
0.0111111
  0
VERTEX
  8
0
 10
6.62158
 20
5.25201
 30
0.0
 40
0.0111111
 41
0.0111111
  0
VERTEX
  8
0
 10
6.59375
 20
5.29335
 30
0.0
 40
0.0111111
 41
0.0111111
  0
VERTEX
  8
0
 10
6.5524
 20
5.32118
 30
0.0
 40
0.0111111
 41
0.0111111
  0
VERTEX
  8
0
 10
6.50185
 20
5.33138
 30
0.0
 40
0.0111111
 41
0.0111111
  0
VERTEX
  8
0
 10
6.45122
 20
5.32118
 30
0.0
 40
0.0111111
 41
0.0111111
  0
VERTEX
  8
0
 10
6.40989
 20
5.29335
 30
0.0
 40
0.0111111
 41
0.0111111
  0
VERTEX
  8
0
 10
6.38206
 20
5.25201
 30
0.0
 40
0.0111111
 41
0.0111111
  0
VERTEX
  8
0
 10
6.37185
 20
5.20139
 30
0.0
 40
0.0111111
 41
0.0111111
  0
VERTEX
  8
0
 10
6.38206
 20
5.15082
 30
0.0
 40
0.0111111
 41
0.0111111
  0
VERTEX
  8
0
 10
6.40989
 20
5.10949
 30
0.0
 40
0.0111111
 41
0.0111111
  0
VERTEX
  8
0
 10
6.45122
 20
5.08165
 30
0.0
 40
0.0111111
 41
0.0111111
  0
VERTEX
  8
0
 10
6.50185
 20
5.0714
 30
0.0
 40
0.0111111
 41
0.0111111
  0
VERTEX
  8
0
 10
6.50185
 20
5.0714
 30
0.0
 40
0.0111111
 41
0.0111111
  0
SEQEND
 8
0
  0
POLYLINE
  8
0
 62
     0
 66
     1
 10
0
 20
0
 30
0.0
 70
     1
 40
0.8
 41
0.8
  0
VERTEX
  8
0
 10
8.07661
 20
5.0714
 30
0.0
 40
0.0111111
 41
0.0111111
  0
VERTEX
  8
0
 10
8.12722
 20
5.08165
 30
0.0
 40
0.0111111
 41
0.0111111
  0
VERTEX
  8
0
 10
8.16857
 20
5.10949
 30
0.0
 40
0.0111111
 41
0.0111111
  0
VERTEX
  8
0
 10
8.1964
 20
5.15082
 30
0.0
 40
0.0111111
 41
0.0111111
  0
VERTEX
  8
0
 10
8.20665
 20
5.20139
 30
0.0
 40
0.0111111
 41
0.0111111
  0
VERTEX
  8
0
 10
8.1964
 20
5.25201
 30
0.0
 40
0.0111111
 41
0.0111111
  0
VERTEX
  8
0
 10
8.16857
 20
5.29335
 30
0.0
 40
0.0111111
 41
0.0111111
  0
VERTEX
  8
0
 10
8.12722
 20
5.32118
 30
0.0
 40
0.0111111
 41
0.0111111
  0
VERTEX
  8
0
 10
8.07661
 20
5.33138
 30
0.0
 40
0.0111111
 41
0.0111111
  0
VERTEX
  8
0
 10
8.02599
 20
5.32118
 30
0.0
 40
0.0111111
 41
0.0111111
  0
VERTEX
  8
0
 10
7.98465
 20
5.29335
 30
0.0
 40
0.0111111
 41
0.0111111
  0
VERTEX
  8
0
 10
7.95682
 20
5.25201
 30
0.0
 40
0.0111111
 41
0.0111111
  0
VERTEX
  8
0
 10
7.94661
 20
5.20139
 30
0.0
 40
0.0111111
 41
0.0111111
  0
VERTEX
  8
0
 10
7.95682
 20
5.15082
 30
0.0
 40
0.0111111
 41
0.0111111
  0
VERTEX
  8
0
 10
7.98465
 20
5.10949
 30
0.0
 40
0.0111111
 41
0.0111111
  0
VERTEX
  8
0
 10
8.02599
 20
5.08165
 30
0.0
 40
0.0111111
 41
0.0111111
  0
VERTEX
  8
0
 10
8.07661
 20
5.0714
 30
0.0
 40
0.0111111
 41
0.0111111
  0
SEQEND
 8
0
  0
POLYLINE
  8
0
 62
     0
 66
     1
 10
0
 20
0
 30
0.0
 70
     1
 40
0.8
 41
0.8
  0
VERTEX
  8
0
 10
8.07661
 20
0.608778
 30
0.0
 40
0.0111111
 41
0.0111111
  0
VERTEX
  8
0
 10
8.12722
 20
0.619032
 30
0.0
 40
0.0111111
 41
0.0111111
  0
VERTEX
  8
0
 10
8.16857
 20
0.646864
 30
0.0
 40
0.0111111
 41
0.0111111
  0
VERTEX
  8
0
 10
8.1964
 20
0.688206
 30
0.0
 40
0.0111111
 41
0.0111111
  0
VERTEX
  8
0
 10
8.20665
 20
0.738769
 30
0.0
 40
0.0111111
 41
0.0111111
  0
VERTEX
  8
0
 10
8.1964
 20
0.789442
 30
0.0
 40
0.0111111
 41
0.0111111
  0
VERTEX
  8
0
 10
8.16857
 20
0.830729
 30
0.0
 40
0.0111111
 41
0.0111111
  0
VERTEX
  8
0
 10
8.12722
 20
0.858615
 30
0.0
 40
0.0111111
 41
0.0111111
  0
VERTEX
  8
0
 10
8.07661
 20
0.868815
 30
0.0
 40
0.0111111
 41
0.0111111
  0
VERTEX
  8
0
 10
8.02599
 20
0.858615
 30
0.0
 40
0.0111111
 41
0.0111111
  0
VERTEX
  8
0
 10
7.98465
 20
0.830783
 30
0.0
 40
0.0111111
 41
0.0111111
  0
VERTEX
  8
0
 10
7.95682
 20
0.789442
 30
0.0
 40
0.0111111
 41
0.0111111
  0
VERTEX
  8
0
 10
7.94661
 20
0.738824
 30
0.0
 40
0.0111111
 41
0.0111111
  0
VERTEX
  8
0
 10
7.95682
 20
0.688206
 30
0.0
 40
0.0111111
 41
0.0111111
  0
VERTEX
  8
0
 10
7.98465
 20
0.646864
 30
0.0
 40
0.0111111
 41
0.0111111
  0
VERTEX
  8
0
 10
8.02599
 20
0.619032
 30
0.0
 40
0.0111111
 41
0.0111111
  0
VERTEX
  8
0
 10
8.07661
 20
0.608778
 30
0.0
 40
0.0111111
 41
0.0111111
  0
SEQEND
 8
0
  0
POLYLINE
  8
0
 62
     0
 66
     1
 10
0
 20
0
 30
0.0
 70
     1
 40
0.8
 41
0.8
  0
VERTEX
  8
0
 10
6.50185
 20
0.608778
 30
0.0
 40
0.0111111
 41
0.0111111
  0
VERTEX
  8
0
 10
6.5524
 20
0.619032
 30
0.0
 40
0.0111111
 41
0.0111111
  0
VERTEX
  8
0
 10
6.59375
 20
0.646864
 30
0.0
 40
0.0111111
 41
0.0111111
  0
VERTEX
  8
0
 10
6.62158
 20
0.688206
 30
0.0
 40
0.0111111
 41
0.0111111
  0
VERTEX
  8
0
 10
6.63183
 20
0.738769
 30
0.0
 40
0.0111111
 41
0.0111111
  0
VERTEX
  8
0
 10
6.62158
 20
0.789442
 30
0.0
 40
0.0111111
 41
0.0111111
  0
VERTEX
  8
0
 10
6.59375
 20
0.830729
 30
0.0
 40
0.0111111
 41
0.0111111
  0
VERTEX
  8
0
 10
6.5524
 20
0.858615
 30
0.0
 40
0.0111111
 41
0.0111111
  0
VERTEX
  8
0
 10
6.50185
 20
0.868815
 30
0.0
 40
0.0111111
 41
0.0111111
  0
VERTEX
  8
0
 10
6.45122
 20
0.858615
 30
0.0
 40
0.0111111
 41
0.0111111
  0
VERTEX
  8
0
 10
6.40989
 20
0.830783
 30
0.0
 40
0.0111111
 41
0.0111111
  0
VERTEX
  8
0
 10
6.38206
 20
0.789442
 30
0.0
 40
0.0111111
 41
0.0111111
  0
VERTEX
  8
0
 10
6.37185
 20
0.738824
 30
0.0
 40
0.0111111
 41
0.0111111
  0
VERTEX
  8
0
 10
6.38206
 20
0.688206
 30
0.0
 40
0.0111111
 41
0.0111111
  0
VERTEX
  8
0
 10
6.40989
 20
0.646864
 30
0.0
 40
0.0111111
 41
0.0111111
  0
VERTEX
  8
0
 10
6.45122
 20
0.619032
 30
0.0
 40
0.0111111
 41
0.0111111
  0
VERTEX
  8
0
 10
6.50185
 20
0.608778
 30
0.0
 40
0.0111111
 41
0.0111111
  0
VERTEX
  8
0
 10
6.50185
 20
0.608778
 30
0.0
 40
0.0111111
 41
0.0111111
  0
SEQEND
 8
0
  0
ENDSEC
  0
EOF
