<?xml version="1.0" encoding="UTF-8" standalone="no"?>
<!-- Creator: CorelDRAW -->
<svg
   xmlns:dc="http://purl.org/dc/elements/1.1/"
   xmlns:cc="http://web.resource.org/cc/"
   xmlns:rdf="http://www.w3.org/1999/02/22-rdf-syntax-ns#"
   xmlns:svg="http://www.w3.org/2000/svg"
   xmlns="http://www.w3.org/2000/svg"
   xmlns:sodipodi="http://inkscape.sourceforge.net/DTD/sodipodi-0.dtd"
   xmlns:inkscape="http://www.inkscape.org/namespaces/inkscape"
   xml:space="preserve"
   width="24in"
   height="12in"
   style="shape-rendering:geometricPrecision; text-rendering:geometricPrecision; image-rendering:optimizeQuality; fill-rule:evenodd; clip-rule:evenodd"
   viewBox="0 0 24 12"
   id="svg1764"
   sodipodi:version="0.32"
   inkscape:version="0.43"
   sodipodi:docname="logobot.svg"
   sodipodi:docbase="/home/fab/Desktop/alex"><metadata
   id="metadata2201"><rdf:RDF><cc:Work
       rdf:about=""><dc:format>image/svg+xml</dc:format><dc:type
         rdf:resource="http://purl.org/dc/dcmitype/StillImage" /></cc:Work></rdf:RDF></metadata><sodipodi:namedview
   inkscape:window-height="943"
   inkscape:window-width="1278"
   inkscape:pageshadow="2"
   inkscape:pageopacity="0.0"
   borderopacity="1.0"
   bordercolor="#666666"
   pagecolor="#ffffff"
   id="base"
   inkscape:zoom="0.54814815"
   inkscape:cx="1080"
   inkscape:cy="540"
   inkscape:window-x="136"
   inkscape:window-y="27"
   inkscape:current-layer="svg1764" />
 <defs
   id="defs1766">
  <style
   type="text/css"
   id="style1768">
   
    .str0 {stroke:#DA251D;stroke-width:0.003;stroke-linejoin:bevel}
    .str1 {stroke:#1F1A17;stroke-width:0.00694488}
    .fil0 {fill:none}
   
  </style>
 
  <metadata
   id="CorelCorpID_0Corel-Layer" />
  
  
  
  
  
  
  
  
  
  
  
  
  
  
  
  
  
  
  
  
  
  
  
  
  
  
  
  
  
  
  
  
  
  
  
  
  
  
  
  
  
  
  
  
  
  
  
  
  
  
  
  
  
  
  
  
  
  
  
  
  
  
  
  
  
  
  
  
  
  
  
  
  
  
  
  
  
  
  
  
  
  
  
  
  
  
  
  
  
  
  
  
  
  
  
  
  
  
  
  
  
  
  
  
  
  
  
  
  
  
  
  
  
  
  
  
  
  
  
  
  
  
  
  
  
  
  
  
  
  
  
  
  
  
  
  
  
  
  
  
  
  
  
  
  
  
  
  
  
  
  
  
  
  
  
  
  
  
  
  
  
  
  
  
  
  
  
  
  
  
  
  
  
  
  
  
  
  
  
  
  
  
  
  
  
  
  
  
  
  
  
  
  
  
 
  <metadata
   id="CorelCorpID_1Corel-Layer" />
  
  
  
  
  
  
  
  
  
  
  
  
  
  
  
  
  
  
  
 </defs>
 <polygon
   style="fill:none;stroke:#000000;stroke-width:0.01111111;stroke-linejoin:bevel;stroke-opacity:1;stroke-miterlimit:4;stroke-dasharray:none"
   id="polygon1772"
   points="0.269508,5.46694 0.269508,0.216945 5.5195,0.216945 5.5195,5.46694 3.19451,5.46694 3.19451,4.21694 2.89451,4.21694 2.59451,4.21694 2.59451,5.46694 0.269508,5.46694 "
   class="fil0 str0" /><polygon
   style="fill:none;stroke:#000000;stroke-width:0.01111111;stroke-linejoin:bevel;stroke-opacity:1;stroke-miterlimit:4;stroke-dasharray:none"
   id="polygon1776"
   points="4.5945,0.816945 4.3945,0.816945 4.3945,0.616945 1.39451,0.616945 1.39451,0.816945 1.19451,0.816945 1.19451,3.61694 1.39451,3.61694 1.39451,3.81694 4.3945,3.81694 4.3945,3.61694 4.5945,3.61694 4.5945,0.816945 "
   class="fil0 str0" /><polygon
   style="fill:none;stroke:#000000;stroke-width:0.01111111;stroke-linejoin:bevel;stroke-miterlimit:4;stroke-dasharray:none;stroke-opacity:1"
   id="polygon1780"
   points="1.00337,3.99135 1.00337,4.25395 1.23337,4.25395 1.23337,3.99135 1.00337,3.99135 "
   class="fil0 str0"
   transform="matrix(0.979962,0,0,0.930257,2.005155e-2,0.296882)" /><polygon
   style="fill:none;stroke:#000000;stroke-width:0.01111111;stroke-linejoin:bevel;stroke-miterlimit:4;stroke-dasharray:none;stroke-opacity:1"
   id="polygon1784"
   points="1.00337,4.51655 1.00337,4.77915 1.23337,4.77915 1.23337,4.51655 1.00337,4.51655 "
   class="fil0 str0"
   transform="matrix(0.979962,0,0,0.930257,2.005155e-2,0.333512)" /><polygon
   style="fill:none;stroke:#000000;stroke-width:0.01111111;stroke-linejoin:bevel;stroke-miterlimit:4;stroke-dasharray:none;stroke-opacity:1"
   id="polygon1788"
   points="4.55565,3.99135 4.55565,4.25395 4.78565,4.25395 4.78565,3.99135 4.55565,3.99135 "
   class="fil0 str0"
   transform="matrix(0.978305,0,0,0.930257,9.877562e-2,0.296882)" /><polygon
   style="fill:none;stroke:#000000;stroke-width:0.01111111;stroke-linejoin:bevel;stroke-miterlimit:4;stroke-dasharray:none;stroke-opacity:1"
   id="polygon1792"
   points="4.55565,4.51655 4.55565,4.77915 4.78565,4.77915 4.78565,4.51655 4.55565,4.51655 "
   class="fil0 str0"
   transform="matrix(0.978305,0,0,0.930257,9.877562e-2,0.333512)" /><path
   style="fill:none;stroke:#000000;stroke-width:0.01111111;stroke-linejoin:bevel;stroke-opacity:1;stroke-miterlimit:4;stroke-dasharray:none"
   id="path1796"
   d="M 0.708209,0.453165 C 0.708209,0.4283107 0.6880594,0.408165 0.663209,0.408165 C 0.6383547,0.40816106 0.618209,0.4283107 0.618209,0.4531611 C 0.618209,0.4780154 0.6383547,0.4981611 0.663209,0.498165 C 0.6880594,0.498165 0.708209,0.4780154 0.708209,0.453165 z "
   class="fil0 str0" /><path
   style="fill:none;stroke:#000000;stroke-width:0.01111111;stroke-linejoin:bevel;stroke-opacity:1;stroke-miterlimit:4;stroke-dasharray:none"
   id="path1800"
   d="M 5.1708,0.453165 C 5.1708,0.4283107 5.1506504,0.408165 5.1258,0.408165 C 5.1009457,0.40816106 5.0808,0.4283107 5.0808,0.4531611 C 5.0808,0.4780154 5.1009457,0.4981611 5.1258,0.498165 C 5.1506504,0.498165 5.1708,0.4780154 5.1708,0.453165 z "
   class="fil0 str0" /><path
   style="fill:none;stroke:#000000;stroke-width:0.01111111;stroke-linejoin:bevel;stroke-opacity:1;stroke-miterlimit:4;stroke-dasharray:none"
   id="path1804"
   d="M 0.752996,3.49844 C 0.752996,3.4266408 0.6947952,3.36844 0.622996,3.36844 C 0.5512007,3.3684361 0.492996,3.4266408 0.492996,3.498436 C 0.492996,3.5702352 0.5512007,3.628436 0.622996,3.62844 C 0.6947952,3.62844 0.752996,3.5702353 0.752996,3.49844 z "
   class="fil0 str0" /><path
   style="fill:none;stroke:#000000;stroke-width:0.01111111;stroke-linejoin:bevel;stroke-opacity:1;stroke-miterlimit:4;stroke-dasharray:none"
   id="path1808"
   d="M 0.752996,1.92364 C 0.752996,1.8518408 0.6947952,1.79364 0.622996,1.79364 C 0.5512007,1.7936361 0.492996,1.8518408 0.492996,1.923636 C 0.492996,1.9954352 0.5512007,2.053636 0.622996,2.05364 C 0.6947952,2.05364 0.752996,1.9954353 0.752996,1.92364 L 0.752996,1.92364 z "
   class="fil0 str0" /><path
   style="fill:none;stroke:#000000;stroke-width:0.01111111;stroke-linejoin:bevel;stroke-opacity:1;stroke-miterlimit:4;stroke-dasharray:none"
   id="path1812"
   d="M 5.29601,1.92364 C 5.29601,1.8518408 5.2378053,1.79364 5.16601,1.79364 C 5.0942108,1.7936361 5.03601,1.8518408 5.03601,1.923636 C 5.03601,1.9954352 5.0942108,2.053636 5.16601,2.05364 C 5.2378053,2.05364 5.29601,1.9954353 5.29601,1.92364 L 5.29601,1.92364 z "
   class="fil0 str0" /><path
   style="fill:none;stroke:#000000;stroke-width:0.01111111;stroke-linejoin:bevel;stroke-opacity:1;stroke-miterlimit:4;stroke-dasharray:none"
   id="path1816"
   d="M 5.29601,3.49844 C 5.29601,3.4266408 5.2378053,3.36844 5.16601,3.36844 C 5.0942108,3.3684361 5.03601,3.4266408 5.03601,3.498436 C 5.03601,3.5702352 5.0942108,3.628436 5.16601,3.62844 C 5.2378053,3.62844 5.29601,3.5702353 5.29601,3.49844 z "
   class="fil0 str0" /><path
   style="fill:none;stroke:#000000;stroke-width:0.01111111;stroke-linejoin:bevel;stroke-opacity:1;stroke-miterlimit:4;stroke-dasharray:none"
   id="path1820"
   d="M 1.33951,3.71694 C 1.33951,3.6920857 1.3193604,3.67194 1.29451,3.67194 C 1.2696557,3.6719361 1.24951,3.6920857 1.24951,3.7169361 C 1.24951,3.7417904 1.2696557,3.7619361 1.29451,3.76194 C 1.3193604,3.76194 1.33951,3.7417904 1.33951,3.71694 L 1.33951,3.71694 z "
   class="fil0 str0" /><path
   style="fill:none;stroke:#000000;stroke-width:0.01111111;stroke-linejoin:bevel;stroke-opacity:1;stroke-miterlimit:4;stroke-dasharray:none"
   id="path1824"
   d="M 1.33951,0.716945 C 1.33951,0.6920907 1.3193604,0.671945 1.29451,0.671945 C 1.2696557,0.67194106 1.24951,0.6920907 1.24951,0.7169411 C 1.24951,0.7417954 1.2696557,0.7619411 1.29451,0.761945 C 1.3193604,0.761945 1.33951,0.7417954 1.33951,0.716945 L 1.33951,0.716945 z "
   class="fil0 str0" /><path
   style="fill:none;stroke:#000000;stroke-width:0.01111111;stroke-linejoin:bevel;stroke-opacity:1;stroke-miterlimit:4;stroke-dasharray:none"
   id="path1828"
   d="M 4.5395,3.71694 C 4.5395,3.6920857 4.5193504,3.67194 4.4945,3.67194 C 4.4696457,3.6719361 4.4495,3.6920857 4.4495,3.7169361 C 4.4495,3.7417904 4.4696457,3.7619361 4.4945,3.76194 C 4.5193504,3.76194 4.5395,3.7417904 4.5395,3.71694 L 4.5395,3.71694 z "
   class="fil0 str0" /><path
   style="fill:none;stroke:#000000;stroke-width:0.01111111;stroke-linejoin:bevel;stroke-opacity:1;stroke-miterlimit:4;stroke-dasharray:none"
   id="path1832"
   d="M 4.5395,0.716945 C 4.5395,0.6920907 4.5193504,0.671945 4.4945,0.671945 C 4.4696457,0.67194106 4.4495,0.6920907 4.4495,0.7169411 C 4.4495,0.7417954 4.4696457,0.7619411 4.4945,0.761945 C 4.5193504,0.761945 4.5395,0.7417954 4.5395,0.716945 L 4.5395,0.716945 z "
   class="fil0 str0" /><polygon
   style="fill:none;stroke:#000000;stroke-width:0.01111111;stroke-linejoin:bevel;stroke-miterlimit:4;stroke-dasharray:none;stroke-opacity:1"
   id="polygon1836"
   points="1.98693,11.4049 1.98693,11.1423 1.75193,11.1423 1.75193,10.8797 1.98693,10.8797 1.98693,10.6171 0.876441,10.6171 0.341008,10.6171 0.341008,10.9618 0.478803,10.9618 0.478803,11.0602 0.341008,11.0602 0.341008,11.4049 0.876441,11.4049 1.98693,11.4049 "
   class="fil0 str0"
   transform="translate(1.092749,-8.822934)" /><path
   style="fill:none;stroke:#000000;stroke-width:0.01111111;stroke-linejoin:bevel;stroke-miterlimit:4;stroke-opacity:1"
   d="M 1.99215,10.5398 L 1.99215,10.2772 L 1.75715,10.2772 L 1.75715,10.0146 L 1.99215,10.0146 L 1.99215,9.752 L 0.881661,9.752 L 0.346228,9.752 L 0.346228,10.0967 L 0.484024,10.0967 L 0.484024,10.1951 L 0.346228,10.1951 L 0.346228,10.5398 L 0.881661,10.5398 L 1.99215,10.5398 z "
   id="polygon1850"
   transform="translate(1.092749,-8.822934)" /><path
   style="fill:none;stroke:#000000;stroke-width:0.01111111;stroke-linejoin:bevel;stroke-miterlimit:4;stroke-dasharray:none;stroke-opacity:1"
   id="path1864"
   d="M 1.5912367,2.3130658 C 1.5429099,2.3130658 1.5037367,2.3522388 1.5037367,2.4005658 C 1.5037367,2.4488888 1.5429099,2.4880658 1.5912367,2.4880658 C 1.6395595,2.4880658 1.6787367,2.4488888 1.6787367,2.4005658 C 1.6787367,2.3522388 1.6395595,2.3130658 1.5912367,2.3130658 z "
   class="fil0 str0" /><path
   style="fill:none;stroke:#000000;stroke-width:0.01111111;stroke-linejoin:bevel;stroke-miterlimit:4;stroke-dasharray:none;stroke-opacity:1"
   id="path1878"
   d="M 1.5912367,1.8880658 C 1.5429099,1.8880658 1.5037367,1.9272388 1.5037367,1.9755658 C 1.5037367,2.0238888 1.5429099,2.0630658 1.5912367,2.0630658 C 1.6395595,2.0630658 1.6787367,2.0238888 1.6787367,1.9755658 C 1.6787367,1.9272388 1.6395595,1.8880658 1.5912367,1.8880658 z "
   class="fil0 str0" /><path
   style="fill:none;stroke:#000000;stroke-width:0.01111111;stroke-linejoin:bevel;stroke-miterlimit:4;stroke-dasharray:none;stroke-opacity:1"
   id="path1892"
   d="M 2.0636777,1.9771658 C 2.0321974,1.9771658 2.0066777,2.0026858 2.0066777,2.0341658 C 2.0066777,2.0656458 2.0321974,2.0911658 2.0636777,2.0911658 C 2.095158,2.0911658 2.1206777,2.0656458 2.1206777,2.0341658 C 2.1206777,2.0026858 2.095158,1.9771658 2.0636777,1.9771658 z "
   class="fil0 str0" /><path
   style="fill:none;stroke:#000000;stroke-width:0.01111111;stroke-linejoin:bevel;stroke-miterlimit:4;stroke-dasharray:none;stroke-opacity:1"
   id="path1906"
   d="M 2.0688987,1.1120658 C 2.0374184,1.1120658 2.0118987,1.1375855 2.0118987,1.1690658 C 2.0118987,1.2005458 2.0374184,1.2260658 2.0688987,1.2260658 C 2.100379,1.2260658 2.1258987,1.2005458 2.1258987,1.1690658 C 2.1258987,1.1375855 2.100379,1.1120658 2.0688987,1.1120658 L 2.0688987,1.1120658 z "
   class="fil0 str0" /><polygon
   style="fill:none;stroke:#000000;stroke-width:0.01111111;stroke-linejoin:bevel;stroke-miterlimit:4;stroke-dasharray:none;stroke-opacity:1"
   id="polygon1920"
   points="3.18471,11.4093 3.18471,11.1467 2.94971,11.1467 2.94971,10.8841 3.18471,10.8841 3.18471,10.6215 2.07422,10.6215 2.07422,11.4093 3.18471,11.4093 "
   class="fil0 str0"
   transform="translate(1.092749,-8.822934)" /><path
   style="fill:none;stroke:#000000;stroke-width:0.01111111;stroke-linejoin:bevel;stroke-miterlimit:4;stroke-dasharray:none;stroke-opacity:1"
   id="path1934"
   d="M 3.2614587,1.9815658 C 3.2299784,1.9815658 3.2044587,2.0070818 3.2044587,2.0385618 C 3.2044587,2.0700418 3.2299784,2.0955618 3.2614587,2.0955618 C 3.292939,2.0955618 3.3184587,2.0700418 3.3184587,2.0385618 C 3.3184587,2.0070818 3.292939,1.9815658 3.2614587,1.9815658 z "
   class="fil0 str0" /><polygon
   style="fill:none;stroke:#000000;stroke-width:0.01111111;stroke-linejoin:bevel;stroke-miterlimit:4;stroke-dasharray:none;stroke-opacity:1"
   id="polygon2028"
   points="2.0968,9.74357 2.0968,10.0062 2.3318,10.0062 2.3318,10.2688 2.0968,10.2688 2.0968,10.5314 3.20729,10.5314 3.20729,9.74357 2.0968,9.74357 "
   class="fil0 str0"
   transform="translate(1.092749,-8.822934)" /><path
   style="fill:none;stroke:#000000;stroke-width:0.01111111;stroke-linejoin:bevel;stroke-miterlimit:4;stroke-dasharray:none;stroke-opacity:1"
   id="path2036"
   d="M 4.2055487,1.5254658 C 4.237029,1.5254658 4.2625487,1.4999498 4.2625487,1.4684698 C 4.2625487,1.4369898 4.237029,1.4114698 4.2055487,1.4114698 C 4.1740684,1.4114698 4.1485487,1.4369898 4.1485487,1.4684698 C 4.1485487,1.4999498 4.1740684,1.5254658 4.2055487,1.5254658 z "
   class="fil0 str0" />
 <polygon
   style="fill:none;stroke:#000000;stroke-width:0.01111111;stroke-linejoin:bevel;stroke-opacity:1;stroke-miterlimit:4;stroke-dasharray:none"
   id="polygon2162"
   points="0.31339,9.48653 0.31339,5.54953 5.56339,5.54953 5.56339,9.48653 3.23839,9.48653 3.23839,7.91173 2.93839,7.91173 2.63839,7.91173 2.63839,9.48653 0.31339,9.48653 "
   class="fil0 str0" /><polygon
   style="fill:none;stroke:#000000;stroke-width:0.01111111;stroke-linejoin:bevel;stroke-miterlimit:4;stroke-dasharray:none;stroke-opacity:1"
   id="polygon2166"
   points="3.44835,8.30543 3.67835,8.30543 3.67835,8.04283 3.44835,8.04283 3.44835,8.30543 "
   class="fil0 str0"
   transform="matrix(0.978305,0,0,0.930693,7.475241e-2,0.575822)" /><polygon
   style="fill:none;stroke:#000000;stroke-width:0.01111111;stroke-linejoin:bevel;stroke-miterlimit:4;stroke-dasharray:none;stroke-opacity:1"
   id="polygon2170"
   points="3.44835,7.78023 3.67835,7.78023 3.67835,7.51764 3.44835,7.51764 3.44835,7.78023 "
   class="fil0 str0"
   transform="matrix(0.978305,0,0,0.930727,7.475241e-2,0.539152)" /><polygon
   style="fill:none;stroke:#000000;stroke-width:0.01111111;stroke-linejoin:bevel;stroke-miterlimit:4;stroke-dasharray:none;stroke-opacity:1"
   id="polygon2174"
   points="3.77835,7.78023 3.77835,7.51764 4.00835,7.51764 4.00835,7.78023 3.77835,7.78023 "
   class="fil0 str0"
   transform="matrix(0.955952,0,0,0.930727,0.166303,0.539152)" /><polygon
   style="fill:none;stroke:#000000;stroke-width:0.01111111;stroke-linejoin:bevel;stroke-miterlimit:4;stroke-dasharray:none;stroke-opacity:1"
   id="polygon2178"
   points="3.78386,8.04283 3.78386,8.30543 4.01386,8.30543 4.01386,8.04283 3.78386,8.04283 "
   class="fil0 str0"
   transform="matrix(0.955952,0,0,0.930693,0.166303,0.575822)" /><path
   style="fill:none;stroke:#000000;stroke-width:0.01111111;stroke-linejoin:bevel;stroke-opacity:1;stroke-miterlimit:4;stroke-dasharray:none"
   id="path2182"
   d="M 0.837091,8.50228 C 0.837091,8.4304808 0.7788902,8.37228 0.707095,8.37228 C 0.6352958,8.3722761 0.577095,8.4304808 0.577091,8.502276 C 0.577091,8.5740752 0.6352957,8.632276 0.707091,8.63228 C 0.7788902,8.63228 0.837091,8.5740753 0.837091,8.50228 L 0.837091,8.50228 z "
   class="fil0 str0" /><path
   style="fill:none;stroke:#000000;stroke-width:0.01111111;stroke-linejoin:bevel;stroke-opacity:1;stroke-miterlimit:4;stroke-dasharray:none"
   id="path2186"
   d="M 0.837091,6.92748 C 0.837091,6.8556808 0.7788902,6.79748 0.707095,6.79748 C 0.6352958,6.7974761 0.577095,6.8556808 0.577091,6.927476 C 0.577091,6.9992752 0.6352957,7.057476 0.707091,7.05748 C 0.7788902,7.05748 0.837091,6.9992753 0.837091,6.92748 z "
   class="fil0 str0" /><path
   style="fill:none;stroke:#000000;stroke-width:0.01111111;stroke-linejoin:bevel;stroke-opacity:1;stroke-miterlimit:4;stroke-dasharray:none"
   id="path2190"
   d="M 5.29969,6.92748 C 5.29969,6.8556808 5.2414892,6.79748 5.169694,6.79748 C 5.0978948,6.7974761 5.039694,6.8556808 5.03969,6.927476 C 5.03969,6.9992752 5.0978947,7.057476 5.16969,7.05748 C 5.2414892,7.05748 5.29969,6.9992753 5.29969,6.92748 z "
   class="fil0 str0" /><path
   style="fill:none;stroke:#000000;stroke-width:0.01111111;stroke-linejoin:bevel;stroke-opacity:1;stroke-miterlimit:4;stroke-dasharray:none"
   id="path2194"
   d="M 5.29969,8.50228 C 5.29969,8.4304808 5.2414892,8.37228 5.169694,8.37228 C 5.0978948,8.3722761 5.039694,8.4304808 5.03969,8.502276 C 5.03969,8.5740752 5.0978947,8.632276 5.16969,8.63228 C 5.2414892,8.63228 5.29969,8.5740753 5.29969,8.50228 L 5.29969,8.50228 z "
   class="fil0 str0" />
<rect
   style="fill:#0000ff;fill-opacity:0.75;fill-rule:evenodd;stroke:#000000;stroke-width:0.02058076px;stroke-linecap:butt;stroke-linejoin:miter;stroke-opacity:1"
   id="rect2432"
   width="4.5191995e-05"
   height="0.76522666"
   x="1.938601"
   y="0.94016826" /></svg>