  0
SECTION
  2
HEADER
  9
$ACADVER
  1
AC1009
  9
$EXTMIN
 10
0.0
 20
0.0
 30
0.0
  9
$EXTMAX
 10
1000.0
 20
1000.0
 30
0.0
  9
$FILLMODE
 70
 0
  9
$SPLFRAME
 70
 1
  0
ENDSEC
  0
SECTION
  2
TABLES
  0
TABLE
  2
LAYER
 70
1
  0
LAYER
  2
0
 70
     0
 62
     7
  6
CONTINUOUS
  0
ENDTAB
  0
ENDSEC
  0
SECTION
  2
ENTITIES
  0
POLYLINE
  8
0
 62
     0
 66
     1
 10
0
 20
0
 30
0.0
 70
     1
 40
0.828
 41
0.828
  0
VERTEX
  8
0
 10
0.134711
 20
12.2665
 30
0.0
 40
0.0115
 41
0.0115
  0
VERTEX
  8
0
 10
0.134711
 20
14.8915
 30
0.0
 40
0.0115
 41
0.0115
  0
VERTEX
  8
0
 10
2.75971
 20
14.8915
 30
0.0
 40
0.0115
 41
0.0115
  0
VERTEX
  8
0
 10
2.75971
 20
12.2665
 30
0.0
 40
0.0115
 41
0.0115
  0
VERTEX
  8
0
 10
1.59722
 20
12.2665
 30
0.0
 40
0.0115
 41
0.0115
  0
VERTEX
  8
0
 10
1.59722
 20
12.8915
 30
0.0
 40
0.0115
 41
0.0115
  0
VERTEX
  8
0
 10
1.44721
 20
12.8915
 30
0.0
 40
0.0115
 41
0.0115
  0
VERTEX
  8
0
 10
1.29725
 20
12.8915
 30
0.0
 40
0.0115
 41
0.0115
  0
VERTEX
  8
0
 10
1.29725
 20
12.2665
 30
0.0
 40
0.0115
 41
0.0115
  0
VERTEX
  8
0
 10
0.134711
 20
12.2665
 30
0.0
 40
0.0115
 41
0.0115
  0
SEQEND
 8
0
  0
POLYLINE
  8
0
 62
     0
 66
     1
 10
0
 20
0
 30
0.0
 70
     1
 40
0.828
 41
0.828
  0
VERTEX
  8
0
 10
5.54308
 20
12.2616
 30
0.0
 40
0.0115
 41
0.0115
  0
VERTEX
  8
0
 10
5.54308
 20
14.8865
 30
0.0
 40
0.0115
 41
0.0115
  0
VERTEX
  8
0
 10
8.16808
 20
14.8865
 30
0.0
 40
0.0115
 41
0.0115
  0
VERTEX
  8
0
 10
8.16808
 20
12.2616
 30
0.0
 40
0.0115
 41
0.0115
  0
VERTEX
  8
0
 10
7.00558
 20
12.2616
 30
0.0
 40
0.0115
 41
0.0115
  0
VERTEX
  8
0
 10
7.00558
 20
12.8866
 30
0.0
 40
0.0115
 41
0.0115
  0
VERTEX
  8
0
 10
6.85558
 20
12.8866
 30
0.0
 40
0.0115
 41
0.0115
  0
VERTEX
  8
0
 10
6.70557
 20
12.8866
 30
0.0
 40
0.0115
 41
0.0115
  0
VERTEX
  8
0
 10
6.70557
 20
12.2616
 30
0.0
 40
0.0115
 41
0.0115
  0
VERTEX
  8
0
 10
5.54308
 20
12.2616
 30
0.0
 40
0.0115
 41
0.0115
  0
SEQEND
 8
0
  0
POLYLINE
  8
0
 62
     0
 66
     1
 10
0
 20
0
 30
0.0
 70
     1
 40
0.828
 41
0.828
  0
VERTEX
  8
0
 10
2.29719
 20
14.5915
 30
0.0
 40
0.0115
 41
0.0115
  0
VERTEX
  8
0
 10
2.19721
 20
14.5915
 30
0.0
 40
0.0115
 41
0.0115
  0
VERTEX
  8
0
 10
2.19721
 20
14.6915
 30
0.0
 40
0.0115
 41
0.0115
  0
VERTEX
  8
0
 10
0.697211
 20
14.6915
 30
0.0
 40
0.0115
 41
0.0115
  0
VERTEX
  8
0
 10
0.697211
 20
14.5915
 30
0.0
 40
0.0115
 41
0.0115
  0
VERTEX
  8
0
 10
0.597222
 20
14.5915
 30
0.0
 40
0.0115
 41
0.0115
  0
VERTEX
  8
0
 10
0.597222
 20
13.1916
 30
0.0
 40
0.0115
 41
0.0115
  0
VERTEX
  8
0
 10
0.697211
 20
13.1916
 30
0.0
 40
0.0115
 41
0.0115
  0
VERTEX
  8
0
 10
0.697211
 20
13.0916
 30
0.0
 40
0.0115
 41
0.0115
  0
VERTEX
  8
0
 10
2.19721
 20
13.0916
 30
0.0
 40
0.0115
 41
0.0115
  0
VERTEX
  8
0
 10
2.19721
 20
13.1916
 30
0.0
 40
0.0115
 41
0.0115
  0
VERTEX
  8
0
 10
2.29719
 20
13.1916
 30
0.0
 40
0.0115
 41
0.0115
  0
VERTEX
  8
0
 10
2.29719
 20
14.5915
 30
0.0
 40
0.0115
 41
0.0115
  0
SEQEND
 8
0
  0
POLYLINE
  8
0
 62
     0
 66
     1
 10
0
 20
0
 30
0.0
 70
     1
 40
0.828
 41
0.828
  0
VERTEX
  8
0
 10
7.70557
 20
14.5865
 30
0.0
 40
0.0115
 41
0.0115
  0
VERTEX
  8
0
 10
7.60558
 20
14.5865
 30
0.0
 40
0.0115
 41
0.0115
  0
VERTEX
  8
0
 10
7.60558
 20
14.6865
 30
0.0
 40
0.0115
 41
0.0115
  0
VERTEX
  8
0
 10
6.10558
 20
14.6865
 30
0.0
 40
0.0115
 41
0.0115
  0
VERTEX
  8
0
 10
6.10558
 20
14.5865
 30
0.0
 40
0.0115
 41
0.0115
  0
VERTEX
  8
0
 10
6.00558
 20
14.5865
 30
0.0
 40
0.0115
 41
0.0115
  0
VERTEX
  8
0
 10
6.00558
 20
13.1866
 30
0.0
 40
0.0115
 41
0.0115
  0
VERTEX
  8
0
 10
6.10558
 20
13.1866
 30
0.0
 40
0.0115
 41
0.0115
  0
VERTEX
  8
0
 10
6.10558
 20
13.0865
 30
0.0
 40
0.0115
 41
0.0115
  0
VERTEX
  8
0
 10
7.60558
 20
13.0865
 30
0.0
 40
0.0115
 41
0.0115
  0
VERTEX
  8
0
 10
7.60558
 20
13.1866
 30
0.0
 40
0.0115
 41
0.0115
  0
VERTEX
  8
0
 10
7.70557
 20
13.1866
 30
0.0
 40
0.0115
 41
0.0115
  0
VERTEX
  8
0
 10
7.70557
 20
14.5865
 30
0.0
 40
0.0115
 41
0.0115
  0
SEQEND
 8
0
  0
POLYLINE
  8
0
 62
     0
 66
     1
 10
0
 20
0
 30
0.0
 70
     1
 40
0.828
 41
0.828
  0
VERTEX
  8
0
 10
0.501682
 20
13.0043
 30
0.0
 40
0.0115
 41
0.0115
  0
VERTEX
  8
0
 10
0.501682
 20
12.873
 30
0.0
 40
0.0115
 41
0.0115
  0
VERTEX
  8
0
 10
0.616644
 20
12.873
 30
0.0
 40
0.0115
 41
0.0115
  0
VERTEX
  8
0
 10
0.616644
 20
13.0043
 30
0.0
 40
0.0115
 41
0.0115
  0
VERTEX
  8
0
 10
0.501682
 20
13.0043
 30
0.0
 40
0.0115
 41
0.0115
  0
SEQEND
 8
0
  0
POLYLINE
  8
0
 62
     0
 66
     1
 10
0
 20
0
 30
0.0
 70
     1
 40
0.828
 41
0.828
  0
VERTEX
  8
0
 10
5.91
 20
12.9993
 30
0.0
 40
0.0115
 41
0.0115
  0
VERTEX
  8
0
 10
5.91
 20
12.8681
 30
0.0
 40
0.0115
 41
0.0115
  0
VERTEX
  8
0
 10
6.02496
 20
12.8681
 30
0.0
 40
0.0115
 41
0.0115
  0
VERTEX
  8
0
 10
6.02496
 20
12.9993
 30
0.0
 40
0.0115
 41
0.0115
  0
VERTEX
  8
0
 10
5.91
 20
12.9993
 30
0.0
 40
0.0115
 41
0.0115
  0
SEQEND
 8
0
  0
POLYLINE
  8
0
 62
     0
 66
     1
 10
0
 20
0
 30
0.0
 70
     1
 40
0.828
 41
0.828
  0
VERTEX
  8
0
 10
0.501682
 20
12.7418
 30
0.0
 40
0.0115
 41
0.0115
  0
VERTEX
  8
0
 10
0.501682
 20
12.6105
 30
0.0
 40
0.0115
 41
0.0115
  0
VERTEX
  8
0
 10
0.616644
 20
12.6105
 30
0.0
 40
0.0115
 41
0.0115
  0
VERTEX
  8
0
 10
0.616644
 20
12.7418
 30
0.0
 40
0.0115
 41
0.0115
  0
VERTEX
  8
0
 10
0.501682
 20
12.7418
 30
0.0
 40
0.0115
 41
0.0115
  0
SEQEND
 8
0
  0
POLYLINE
  8
0
 62
     0
 66
     1
 10
0
 20
0
 30
0.0
 70
     1
 40
0.828
 41
0.828
  0
VERTEX
  8
0
 10
5.91
 20
12.7368
 30
0.0
 40
0.0115
 41
0.0115
  0
VERTEX
  8
0
 10
5.91
 20
12.6055
 30
0.0
 40
0.0115
 41
0.0115
  0
VERTEX
  8
0
 10
6.02496
 20
12.6055
 30
0.0
 40
0.0115
 41
0.0115
  0
VERTEX
  8
0
 10
6.02496
 20
12.7368
 30
0.0
 40
0.0115
 41
0.0115
  0
VERTEX
  8
0
 10
5.91
 20
12.7368
 30
0.0
 40
0.0115
 41
0.0115
  0
SEQEND
 8
0
  0
POLYLINE
  8
0
 62
     0
 66
     1
 10
0
 20
0
 30
0.0
 70
     1
 40
0.828
 41
0.828
  0
VERTEX
  8
0
 10
2.27778
 20
13.0043
 30
0.0
 40
0.0115
 41
0.0115
  0
VERTEX
  8
0
 10
2.27778
 20
12.873
 30
0.0
 40
0.0115
 41
0.0115
  0
VERTEX
  8
0
 10
2.39279
 20
12.873
 30
0.0
 40
0.0115
 41
0.0115
  0
VERTEX
  8
0
 10
2.39279
 20
13.0043
 30
0.0
 40
0.0115
 41
0.0115
  0
VERTEX
  8
0
 10
2.27778
 20
13.0043
 30
0.0
 40
0.0115
 41
0.0115
  0
SEQEND
 8
0
  0
POLYLINE
  8
0
 62
     0
 66
     1
 10
0
 20
0
 30
0.0
 70
     1
 40
0.828
 41
0.828
  0
VERTEX
  8
0
 10
7.68614
 20
12.9993
 30
0.0
 40
0.0115
 41
0.0115
  0
VERTEX
  8
0
 10
7.68614
 20
12.8681
 30
0.0
 40
0.0115
 41
0.0115
  0
VERTEX
  8
0
 10
7.80111
 20
12.8681
 30
0.0
 40
0.0115
 41
0.0115
  0
VERTEX
  8
0
 10
7.80111
 20
12.9993
 30
0.0
 40
0.0115
 41
0.0115
  0
VERTEX
  8
0
 10
7.68614
 20
12.9993
 30
0.0
 40
0.0115
 41
0.0115
  0
SEQEND
 8
0
  0
POLYLINE
  8
0
 62
     0
 66
     1
 10
0
 20
0
 30
0.0
 70
     1
 40
0.828
 41
0.828
  0
VERTEX
  8
0
 10
2.27778
 20
12.7418
 30
0.0
 40
0.0115
 41
0.0115
  0
VERTEX
  8
0
 10
2.27778
 20
12.6105
 30
0.0
 40
0.0115
 41
0.0115
  0
VERTEX
  8
0
 10
2.39279
 20
12.6105
 30
0.0
 40
0.0115
 41
0.0115
  0
VERTEX
  8
0
 10
2.39279
 20
12.7418
 30
0.0
 40
0.0115
 41
0.0115
  0
VERTEX
  8
0
 10
2.27778
 20
12.7418
 30
0.0
 40
0.0115
 41
0.0115
  0
SEQEND
 8
0
  0
POLYLINE
  8
0
 62
     0
 66
     1
 10
0
 20
0
 30
0.0
 70
     1
 40
0.828
 41
0.828
  0
VERTEX
  8
0
 10
7.68614
 20
12.7368
 30
0.0
 40
0.0115
 41
0.0115
  0
VERTEX
  8
0
 10
7.68614
 20
12.6055
 30
0.0
 40
0.0115
 41
0.0115
  0
VERTEX
  8
0
 10
7.80111
 20
12.6055
 30
0.0
 40
0.0115
 41
0.0115
  0
VERTEX
  8
0
 10
7.80111
 20
12.7368
 30
0.0
 40
0.0115
 41
0.0115
  0
VERTEX
  8
0
 10
7.68614
 20
12.7368
 30
0.0
 40
0.0115
 41
0.0115
  0
SEQEND
 8
0
  0
POLYLINE
  8
0
 62
     0
 66
     1
 10
0
 20
0
 30
0.0
 70
     1
 40
0.828
 41
0.828
  0
VERTEX
  8
0
 10
0.354058
 20
14.7735
 30
0.0
 40
0.0115
 41
0.0115
  0
VERTEX
  8
0
 10
0.347439
 20
14.7894
 30
0.0
 40
0.0115
 41
0.0115
  0
VERTEX
  8
0
 10
0.331597
 20
14.796
 30
0.0
 40
0.0115
 41
0.0115
  0
VERTEX
  8
0
 10
0.315647
 20
14.7894
 30
0.0
 40
0.0115
 41
0.0115
  0
VERTEX
  8
0
 10
0.309082
 20
14.7735
 30
0.0
 40
0.0115
 41
0.0115
  0
VERTEX
  8
0
 10
0.315647
 20
14.7575
 30
0.0
 40
0.0115
 41
0.0115
  0
VERTEX
  8
0
 10
0.331597
 20
14.751
 30
0.0
 40
0.0115
 41
0.0115
  0
VERTEX
  8
0
 10
0.347439
 20
14.7575
 30
0.0
 40
0.0115
 41
0.0115
  0
VERTEX
  8
0
 10
0.354058
 20
14.7735
 30
0.0
 40
0.0115
 41
0.0115
  0
SEQEND
 8
0
  0
POLYLINE
  8
0
 62
     0
 66
     1
 10
0
 20
0
 30
0.0
 70
     1
 40
0.828
 41
0.828
  0
VERTEX
  8
0
 10
5.76243
 20
14.7685
 30
0.0
 40
0.0115
 41
0.0115
  0
VERTEX
  8
0
 10
5.75581
 20
14.7844
 30
0.0
 40
0.0115
 41
0.0115
  0
VERTEX
  8
0
 10
5.7399
 20
14.791
 30
0.0
 40
0.0115
 41
0.0115
  0
VERTEX
  8
0
 10
5.72401
 20
14.7844
 30
0.0
 40
0.0115
 41
0.0115
  0
VERTEX
  8
0
 10
5.71744
 20
14.7685
 30
0.0
 40
0.0115
 41
0.0115
  0
VERTEX
  8
0
 10
5.72401
 20
14.7525
 30
0.0
 40
0.0115
 41
0.0115
  0
VERTEX
  8
0
 10
5.7399
 20
14.746
 30
0.0
 40
0.0115
 41
0.0115
  0
VERTEX
  8
0
 10
5.75581
 20
14.7525
 30
0.0
 40
0.0115
 41
0.0115
  0
VERTEX
  8
0
 10
5.76243
 20
14.7685
 30
0.0
 40
0.0115
 41
0.0115
  0
VERTEX
  8
0
 10
5.76243
 20
14.7685
 30
0.0
 40
0.0115
 41
0.0115
  0
SEQEND
 8
0
  0
POLYLINE
  8
0
 62
     0
 66
     1
 10
0
 20
0
 30
0.0
 70
     1
 40
0.828
 41
0.828
  0
VERTEX
  8
0
 10
2.58539
 20
14.7735
 30
0.0
 40
0.0115
 41
0.0115
  0
VERTEX
  8
0
 10
2.57878
 20
14.7894
 30
0.0
 40
0.0115
 41
0.0115
  0
VERTEX
  8
0
 10
2.56287
 20
14.796
 30
0.0
 40
0.0115
 41
0.0115
  0
VERTEX
  8
0
 10
2.54693
 20
14.7894
 30
0.0
 40
0.0115
 41
0.0115
  0
VERTEX
  8
0
 10
2.54036
 20
14.7735
 30
0.0
 40
0.0115
 41
0.0115
  0
VERTEX
  8
0
 10
2.54693
 20
14.7575
 30
0.0
 40
0.0115
 41
0.0115
  0
VERTEX
  8
0
 10
2.56287
 20
14.751
 30
0.0
 40
0.0115
 41
0.0115
  0
VERTEX
  8
0
 10
2.57878
 20
14.7575
 30
0.0
 40
0.0115
 41
0.0115
  0
VERTEX
  8
0
 10
2.58539
 20
14.7735
 30
0.0
 40
0.0115
 41
0.0115
  0
SEQEND
 8
0
  0
POLYLINE
  8
0
 62
     0
 66
     1
 10
0
 20
0
 30
0.0
 70
     1
 40
0.828
 41
0.828
  0
VERTEX
  8
0
 10
7.99371
 20
14.7685
 30
0.0
 40
0.0115
 41
0.0115
  0
VERTEX
  8
0
 10
7.98708
 20
14.7844
 30
0.0
 40
0.0115
 41
0.0115
  0
VERTEX
  8
0
 10
7.97125
 20
14.791
 30
0.0
 40
0.0115
 41
0.0115
  0
VERTEX
  8
0
 10
7.95529
 20
14.7844
 30
0.0
 40
0.0115
 41
0.0115
  0
VERTEX
  8
0
 10
7.94874
 20
14.7685
 30
0.0
 40
0.0115
 41
0.0115
  0
VERTEX
  8
0
 10
7.95529
 20
14.7525
 30
0.0
 40
0.0115
 41
0.0115
  0
VERTEX
  8
0
 10
7.97125
 20
14.746
 30
0.0
 40
0.0115
 41
0.0115
  0
VERTEX
  8
0
 10
7.98708
 20
14.7525
 30
0.0
 40
0.0115
 41
0.0115
  0
VERTEX
  8
0
 10
7.99371
 20
14.7685
 30
0.0
 40
0.0115
 41
0.0115
  0
VERTEX
  8
0
 10
7.99371
 20
14.7685
 30
0.0
 40
0.0115
 41
0.0115
  0
SEQEND
 8
0
  0
POLYLINE
  8
0
 62
     0
 66
     1
 10
0
 20
0
 30
0.0
 70
     1
 40
0.828
 41
0.828
  0
VERTEX
  8
0
 10
0.376465
 20
13.2508
 30
0.0
 40
0.0115
 41
0.0115
  0
VERTEX
  8
0
 10
0.371311
 20
13.2762
 30
0.0
 40
0.0115
 41
0.0115
  0
VERTEX
  8
0
 10
0.357422
 20
13.2968
 30
0.0
 40
0.0115
 41
0.0115
  0
VERTEX
  8
0
 10
0.336751
 20
13.3107
 30
0.0
 40
0.0115
 41
0.0115
  0
VERTEX
  8
0
 10
0.311469
 20
13.3158
 30
0.0
 40
0.0115
 41
0.0115
  0
VERTEX
  8
0
 10
0.286133
 20
13.3107
 30
0.0
 40
0.0115
 41
0.0115
  0
VERTEX
  8
0
 10
0.265463
 20
13.2968
 30
0.0
 40
0.0115
 41
0.0115
  0
VERTEX
  8
0
 10
0.251574
 20
13.2762
 30
0.0
 40
0.0115
 41
0.0115
  0
VERTEX
  8
0
 10
0.246474
 20
13.2508
 30
0.0
 40
0.0115
 41
0.0115
  0
VERTEX
  8
0
 10
0.251574
 20
13.2255
 30
0.0
 40
0.0115
 41
0.0115
  0
VERTEX
  8
0
 10
0.265463
 20
13.2049
 30
0.0
 40
0.0115
 41
0.0115
  0
VERTEX
  8
0
 10
0.286133
 20
13.191
 30
0.0
 40
0.0115
 41
0.0115
  0
VERTEX
  8
0
 10
0.311469
 20
13.1858
 30
0.0
 40
0.0115
 41
0.0115
  0
VERTEX
  8
0
 10
0.336751
 20
13.191
 30
0.0
 40
0.0115
 41
0.0115
  0
VERTEX
  8
0
 10
0.357422
 20
13.2049
 30
0.0
 40
0.0115
 41
0.0115
  0
VERTEX
  8
0
 10
0.371311
 20
13.2255
 30
0.0
 40
0.0115
 41
0.0115
  0
VERTEX
  8
0
 10
0.376465
 20
13.2508
 30
0.0
 40
0.0115
 41
0.0115
  0
SEQEND
 8
0
  0
POLYLINE
  8
0
 62
     0
 66
     1
 10
0
 20
0
 30
0.0
 70
     1
 40
0.828
 41
0.828
  0
VERTEX
  8
0
 10
5.78483
 20
13.2458
 30
0.0
 40
0.0115
 41
0.0115
  0
VERTEX
  8
0
 10
5.77968
 20
13.2712
 30
0.0
 40
0.0115
 41
0.0115
  0
VERTEX
  8
0
 10
5.76574
 20
13.2918
 30
0.0
 40
0.0115
 41
0.0115
  0
VERTEX
  8
0
 10
5.74511
 20
13.3057
 30
0.0
 40
0.0115
 41
0.0115
  0
VERTEX
  8
0
 10
5.71983
 20
13.3108
 30
0.0
 40
0.0115
 41
0.0115
  0
VERTEX
  8
0
 10
5.6945
 20
13.3057
 30
0.0
 40
0.0115
 41
0.0115
  0
VERTEX
  8
0
 10
5.67383
 20
13.2918
 30
0.0
 40
0.0115
 41
0.0115
  0
VERTEX
  8
0
 10
5.65994
 20
13.2712
 30
0.0
 40
0.0115
 41
0.0115
  0
VERTEX
  8
0
 10
5.65483
 20
13.2458
 30
0.0
 40
0.0115
 41
0.0115
  0
VERTEX
  8
0
 10
5.65994
 20
13.2205
 30
0.0
 40
0.0115
 41
0.0115
  0
VERTEX
  8
0
 10
5.67383
 20
13.1999
 30
0.0
 40
0.0115
 41
0.0115
  0
VERTEX
  8
0
 10
5.6945
 20
13.186
 30
0.0
 40
0.0115
 41
0.0115
  0
VERTEX
  8
0
 10
5.71983
 20
13.1808
 30
0.0
 40
0.0115
 41
0.0115
  0
VERTEX
  8
0
 10
5.74511
 20
13.186
 30
0.0
 40
0.0115
 41
0.0115
  0
VERTEX
  8
0
 10
5.76574
 20
13.1999
 30
0.0
 40
0.0115
 41
0.0115
  0
VERTEX
  8
0
 10
5.77968
 20
13.2205
 30
0.0
 40
0.0115
 41
0.0115
  0
VERTEX
  8
0
 10
5.78483
 20
13.2458
 30
0.0
 40
0.0115
 41
0.0115
  0
VERTEX
  8
0
 10
5.78483
 20
13.2458
 30
0.0
 40
0.0115
 41
0.0115
  0
SEQEND
 8
0
  0
POLYLINE
  8
0
 62
     0
 66
     1
 10
0
 20
0
 30
0.0
 70
     1
 40
0.828
 41
0.828
  0
VERTEX
  8
0
 10
0.376465
 20
14.0382
 30
0.0
 40
0.0115
 41
0.0115
  0
VERTEX
  8
0
 10
0.371311
 20
14.0635
 30
0.0
 40
0.0115
 41
0.0115
  0
VERTEX
  8
0
 10
0.357422
 20
14.0842
 30
0.0
 40
0.0115
 41
0.0115
  0
VERTEX
  8
0
 10
0.336751
 20
14.0981
 30
0.0
 40
0.0115
 41
0.0115
  0
VERTEX
  8
0
 10
0.311469
 20
14.1032
 30
0.0
 40
0.0115
 41
0.0115
  0
VERTEX
  8
0
 10
0.286133
 20
14.0981
 30
0.0
 40
0.0115
 41
0.0115
  0
VERTEX
  8
0
 10
0.265463
 20
14.0842
 30
0.0
 40
0.0115
 41
0.0115
  0
VERTEX
  8
0
 10
0.251574
 20
14.0635
 30
0.0
 40
0.0115
 41
0.0115
  0
VERTEX
  8
0
 10
0.246474
 20
14.0382
 30
0.0
 40
0.0115
 41
0.0115
  0
VERTEX
  8
0
 10
0.251574
 20
14.0129
 30
0.0
 40
0.0115
 41
0.0115
  0
VERTEX
  8
0
 10
0.265463
 20
13.9924
 30
0.0
 40
0.0115
 41
0.0115
  0
VERTEX
  8
0
 10
0.286133
 20
13.9783
 30
0.0
 40
0.0115
 41
0.0115
  0
VERTEX
  8
0
 10
0.311469
 20
13.9732
 30
0.0
 40
0.0115
 41
0.0115
  0
VERTEX
  8
0
 10
0.336751
 20
13.9783
 30
0.0
 40
0.0115
 41
0.0115
  0
VERTEX
  8
0
 10
0.357422
 20
13.9924
 30
0.0
 40
0.0115
 41
0.0115
  0
VERTEX
  8
0
 10
0.371311
 20
14.0129
 30
0.0
 40
0.0115
 41
0.0115
  0
VERTEX
  8
0
 10
0.376465
 20
14.0382
 30
0.0
 40
0.0115
 41
0.0115
  0
VERTEX
  8
0
 10
0.376465
 20
14.0382
 30
0.0
 40
0.0115
 41
0.0115
  0
SEQEND
 8
0
  0
POLYLINE
  8
0
 62
     0
 66
     1
 10
0
 20
0
 30
0.0
 70
     1
 40
0.828
 41
0.828
  0
VERTEX
  8
0
 10
5.78483
 20
14.0332
 30
0.0
 40
0.0115
 41
0.0115
  0
VERTEX
  8
0
 10
5.77968
 20
14.0585
 30
0.0
 40
0.0115
 41
0.0115
  0
VERTEX
  8
0
 10
5.76574
 20
14.0792
 30
0.0
 40
0.0115
 41
0.0115
  0
VERTEX
  8
0
 10
5.74511
 20
14.0931
 30
0.0
 40
0.0115
 41
0.0115
  0
VERTEX
  8
0
 10
5.71983
 20
14.0982
 30
0.0
 40
0.0115
 41
0.0115
  0
VERTEX
  8
0
 10
5.6945
 20
14.0931
 30
0.0
 40
0.0115
 41
0.0115
  0
VERTEX
  8
0
 10
5.67383
 20
14.0792
 30
0.0
 40
0.0115
 41
0.0115
  0
VERTEX
  8
0
 10
5.65994
 20
14.0585
 30
0.0
 40
0.0115
 41
0.0115
  0
VERTEX
  8
0
 10
5.65483
 20
14.0332
 30
0.0
 40
0.0115
 41
0.0115
  0
VERTEX
  8
0
 10
5.65994
 20
14.0079
 30
0.0
 40
0.0115
 41
0.0115
  0
VERTEX
  8
0
 10
5.67383
 20
13.9872
 30
0.0
 40
0.0115
 41
0.0115
  0
VERTEX
  8
0
 10
5.6945
 20
13.9733
 30
0.0
 40
0.0115
 41
0.0115
  0
VERTEX
  8
0
 10
5.71983
 20
13.9682
 30
0.0
 40
0.0115
 41
0.0115
  0
VERTEX
  8
0
 10
5.74511
 20
13.9733
 30
0.0
 40
0.0115
 41
0.0115
  0
VERTEX
  8
0
 10
5.76574
 20
13.9872
 30
0.0
 40
0.0115
 41
0.0115
  0
VERTEX
  8
0
 10
5.77968
 20
14.0079
 30
0.0
 40
0.0115
 41
0.0115
  0
VERTEX
  8
0
 10
5.78483
 20
14.0332
 30
0.0
 40
0.0115
 41
0.0115
  0
VERTEX
  8
0
 10
5.78483
 20
14.0332
 30
0.0
 40
0.0115
 41
0.0115
  0
SEQEND
 8
0
  0
POLYLINE
  8
0
 62
     0
 66
     1
 10
0
 20
0
 30
0.0
 70
     1
 40
0.828
 41
0.828
  0
VERTEX
  8
0
 10
2.648
 20
14.0382
 30
0.0
 40
0.0115
 41
0.0115
  0
VERTEX
  8
0
 10
2.64285
 20
14.0635
 30
0.0
 40
0.0115
 41
0.0115
  0
VERTEX
  8
0
 10
2.6289
 20
14.0842
 30
0.0
 40
0.0115
 41
0.0115
  0
VERTEX
  8
0
 10
2.60824
 20
14.0981
 30
0.0
 40
0.0115
 41
0.0115
  0
VERTEX
  8
0
 10
2.58296
 20
14.1032
 30
0.0
 40
0.0115
 41
0.0115
  0
VERTEX
  8
0
 10
2.55761
 20
14.0981
 30
0.0
 40
0.0115
 41
0.0115
  0
VERTEX
  8
0
 10
2.537
 20
14.0842
 30
0.0
 40
0.0115
 41
0.0115
  0
VERTEX
  8
0
 10
2.52306
 20
14.0635
 30
0.0
 40
0.0115
 41
0.0115
  0
VERTEX
  8
0
 10
2.51796
 20
14.0382
 30
0.0
 40
0.0115
 41
0.0115
  0
VERTEX
  8
0
 10
2.52306
 20
14.0129
 30
0.0
 40
0.0115
 41
0.0115
  0
VERTEX
  8
0
 10
2.537
 20
13.9924
 30
0.0
 40
0.0115
 41
0.0115
  0
VERTEX
  8
0
 10
2.55761
 20
13.9783
 30
0.0
 40
0.0115
 41
0.0115
  0
VERTEX
  8
0
 10
2.58296
 20
13.9732
 30
0.0
 40
0.0115
 41
0.0115
  0
VERTEX
  8
0
 10
2.60824
 20
13.9783
 30
0.0
 40
0.0115
 41
0.0115
  0
VERTEX
  8
0
 10
2.6289
 20
13.9924
 30
0.0
 40
0.0115
 41
0.0115
  0
VERTEX
  8
0
 10
2.64285
 20
14.0129
 30
0.0
 40
0.0115
 41
0.0115
  0
VERTEX
  8
0
 10
2.648
 20
14.0382
 30
0.0
 40
0.0115
 41
0.0115
  0
VERTEX
  8
0
 10
2.648
 20
14.0382
 30
0.0
 40
0.0115
 41
0.0115
  0
SEQEND
 8
0
  0
POLYLINE
  8
0
 62
     0
 66
     1
 10
0
 20
0
 30
0.0
 70
     1
 40
0.828
 41
0.828
  0
VERTEX
  8
0
 10
8.05632
 20
14.0332
 30
0.0
 40
0.0115
 41
0.0115
  0
VERTEX
  8
0
 10
8.05117
 20
14.0585
 30
0.0
 40
0.0115
 41
0.0115
  0
VERTEX
  8
0
 10
8.03728
 20
14.0792
 30
0.0
 40
0.0115
 41
0.0115
  0
VERTEX
  8
0
 10
8.0166
 20
14.0931
 30
0.0
 40
0.0115
 41
0.0115
  0
VERTEX
  8
0
 10
7.99132
 20
14.0982
 30
0.0
 40
0.0115
 41
0.0115
  0
VERTEX
  8
0
 10
7.96599
 20
14.0931
 30
0.0
 40
0.0115
 41
0.0115
  0
VERTEX
  8
0
 10
7.94531
 20
14.0792
 30
0.0
 40
0.0115
 41
0.0115
  0
VERTEX
  8
0
 10
7.93142
 20
14.0585
 30
0.0
 40
0.0115
 41
0.0115
  0
VERTEX
  8
0
 10
7.92632
 20
14.0332
 30
0.0
 40
0.0115
 41
0.0115
  0
VERTEX
  8
0
 10
7.93142
 20
14.0079
 30
0.0
 40
0.0115
 41
0.0115
  0
VERTEX
  8
0
 10
7.94531
 20
13.9872
 30
0.0
 40
0.0115
 41
0.0115
  0
VERTEX
  8
0
 10
7.96599
 20
13.9733
 30
0.0
 40
0.0115
 41
0.0115
  0
VERTEX
  8
0
 10
7.99132
 20
13.9682
 30
0.0
 40
0.0115
 41
0.0115
  0
VERTEX
  8
0
 10
8.0166
 20
13.9733
 30
0.0
 40
0.0115
 41
0.0115
  0
VERTEX
  8
0
 10
8.03728
 20
13.9872
 30
0.0
 40
0.0115
 41
0.0115
  0
VERTEX
  8
0
 10
8.05117
 20
14.0079
 30
0.0
 40
0.0115
 41
0.0115
  0
VERTEX
  8
0
 10
8.05632
 20
14.0332
 30
0.0
 40
0.0115
 41
0.0115
  0
VERTEX
  8
0
 10
8.05632
 20
14.0332
 30
0.0
 40
0.0115
 41
0.0115
  0
SEQEND
 8
0
  0
POLYLINE
  8
0
 62
     0
 66
     1
 10
0
 20
0
 30
0.0
 70
     1
 40
0.828
 41
0.828
  0
VERTEX
  8
0
 10
2.648
 20
13.2508
 30
0.0
 40
0.0115
 41
0.0115
  0
VERTEX
  8
0
 10
2.64285
 20
13.2762
 30
0.0
 40
0.0115
 41
0.0115
  0
VERTEX
  8
0
 10
2.6289
 20
13.2968
 30
0.0
 40
0.0115
 41
0.0115
  0
VERTEX
  8
0
 10
2.60824
 20
13.3107
 30
0.0
 40
0.0115
 41
0.0115
  0
VERTEX
  8
0
 10
2.58296
 20
13.3158
 30
0.0
 40
0.0115
 41
0.0115
  0
VERTEX
  8
0
 10
2.55761
 20
13.3107
 30
0.0
 40
0.0115
 41
0.0115
  0
VERTEX
  8
0
 10
2.537
 20
13.2968
 30
0.0
 40
0.0115
 41
0.0115
  0
VERTEX
  8
0
 10
2.52306
 20
13.2762
 30
0.0
 40
0.0115
 41
0.0115
  0
VERTEX
  8
0
 10
2.51796
 20
13.2508
 30
0.0
 40
0.0115
 41
0.0115
  0
VERTEX
  8
0
 10
2.52306
 20
13.2255
 30
0.0
 40
0.0115
 41
0.0115
  0
VERTEX
  8
0
 10
2.537
 20
13.2049
 30
0.0
 40
0.0115
 41
0.0115
  0
VERTEX
  8
0
 10
2.55761
 20
13.191
 30
0.0
 40
0.0115
 41
0.0115
  0
VERTEX
  8
0
 10
2.58296
 20
13.1858
 30
0.0
 40
0.0115
 41
0.0115
  0
VERTEX
  8
0
 10
2.60824
 20
13.191
 30
0.0
 40
0.0115
 41
0.0115
  0
VERTEX
  8
0
 10
2.6289
 20
13.2049
 30
0.0
 40
0.0115
 41
0.0115
  0
VERTEX
  8
0
 10
2.64285
 20
13.2255
 30
0.0
 40
0.0115
 41
0.0115
  0
VERTEX
  8
0
 10
2.648
 20
13.2508
 30
0.0
 40
0.0115
 41
0.0115
  0
SEQEND
 8
0
  0
POLYLINE
  8
0
 62
     0
 66
     1
 10
0
 20
0
 30
0.0
 70
     1
 40
0.828
 41
0.828
  0
VERTEX
  8
0
 10
8.05632
 20
13.2458
 30
0.0
 40
0.0115
 41
0.0115
  0
VERTEX
  8
0
 10
8.05117
 20
13.2712
 30
0.0
 40
0.0115
 41
0.0115
  0
VERTEX
  8
0
 10
8.03728
 20
13.2918
 30
0.0
 40
0.0115
 41
0.0115
  0
VERTEX
  8
0
 10
8.0166
 20
13.3057
 30
0.0
 40
0.0115
 41
0.0115
  0
VERTEX
  8
0
 10
7.99132
 20
13.3108
 30
0.0
 40
0.0115
 41
0.0115
  0
VERTEX
  8
0
 10
7.96599
 20
13.3057
 30
0.0
 40
0.0115
 41
0.0115
  0
VERTEX
  8
0
 10
7.94531
 20
13.2918
 30
0.0
 40
0.0115
 41
0.0115
  0
VERTEX
  8
0
 10
7.93142
 20
13.2712
 30
0.0
 40
0.0115
 41
0.0115
  0
VERTEX
  8
0
 10
7.92632
 20
13.2458
 30
0.0
 40
0.0115
 41
0.0115
  0
VERTEX
  8
0
 10
7.93142
 20
13.2205
 30
0.0
 40
0.0115
 41
0.0115
  0
VERTEX
  8
0
 10
7.94531
 20
13.1999
 30
0.0
 40
0.0115
 41
0.0115
  0
VERTEX
  8
0
 10
7.96599
 20
13.186
 30
0.0
 40
0.0115
 41
0.0115
  0
VERTEX
  8
0
 10
7.99132
 20
13.1808
 30
0.0
 40
0.0115
 41
0.0115
  0
VERTEX
  8
0
 10
8.0166
 20
13.186
 30
0.0
 40
0.0115
 41
0.0115
  0
VERTEX
  8
0
 10
8.03728
 20
13.1999
 30
0.0
 40
0.0115
 41
0.0115
  0
VERTEX
  8
0
 10
8.05117
 20
13.2205
 30
0.0
 40
0.0115
 41
0.0115
  0
VERTEX
  8
0
 10
8.05632
 20
13.2458
 30
0.0
 40
0.0115
 41
0.0115
  0
VERTEX
  8
0
 10
8.05632
 20
13.2458
 30
0.0
 40
0.0115
 41
0.0115
  0
SEQEND
 8
0
  0
POLYLINE
  8
0
 62
     0
 66
     1
 10
0
 20
0
 30
0.0
 70
     1
 40
0.828
 41
0.828
  0
VERTEX
  8
0
 10
0.669706
 20
13.1415
 30
0.0
 40
0.0115
 41
0.0115
  0
VERTEX
  8
0
 10
0.663086
 20
13.1575
 30
0.0
 40
0.0115
 41
0.0115
  0
VERTEX
  8
0
 10
0.647244
 20
13.1641
 30
0.0
 40
0.0115
 41
0.0115
  0
VERTEX
  8
0
 10
0.631293
 20
13.1575
 30
0.0
 40
0.0115
 41
0.0115
  0
VERTEX
  8
0
 10
0.624729
 20
13.1415
 30
0.0
 40
0.0115
 41
0.0115
  0
VERTEX
  8
0
 10
0.631293
 20
13.1257
 30
0.0
 40
0.0115
 41
0.0115
  0
VERTEX
  8
0
 10
0.647244
 20
13.119
 30
0.0
 40
0.0115
 41
0.0115
  0
VERTEX
  8
0
 10
0.663086
 20
13.1257
 30
0.0
 40
0.0115
 41
0.0115
  0
VERTEX
  8
0
 10
0.669706
 20
13.1415
 30
0.0
 40
0.0115
 41
0.0115
  0
VERTEX
  8
0
 10
0.669706
 20
13.1415
 30
0.0
 40
0.0115
 41
0.0115
  0
SEQEND
 8
0
  0
POLYLINE
  8
0
 62
     0
 66
     1
 10
0
 20
0
 30
0.0
 70
     1
 40
0.828
 41
0.828
  0
VERTEX
  8
0
 10
6.07807
 20
13.1366
 30
0.0
 40
0.0115
 41
0.0115
  0
VERTEX
  8
0
 10
6.07146
 20
13.1525
 30
0.0
 40
0.0115
 41
0.0115
  0
VERTEX
  8
0
 10
6.05556
 20
13.1591
 30
0.0
 40
0.0115
 41
0.0115
  0
VERTEX
  8
0
 10
6.03965
 20
13.1525
 30
0.0
 40
0.0115
 41
0.0115
  0
VERTEX
  8
0
 10
6.0331
 20
13.1366
 30
0.0
 40
0.0115
 41
0.0115
  0
VERTEX
  8
0
 10
6.03965
 20
13.1207
 30
0.0
 40
0.0115
 41
0.0115
  0
VERTEX
  8
0
 10
6.05556
 20
13.114
 30
0.0
 40
0.0115
 41
0.0115
  0
VERTEX
  8
0
 10
6.07146
 20
13.1207
 30
0.0
 40
0.0115
 41
0.0115
  0
VERTEX
  8
0
 10
6.07807
 20
13.1366
 30
0.0
 40
0.0115
 41
0.0115
  0
VERTEX
  8
0
 10
6.07807
 20
13.1366
 30
0.0
 40
0.0115
 41
0.0115
  0
SEQEND
 8
0
  0
POLYLINE
  8
0
 62
     0
 66
     1
 10
0
 20
0
 30
0.0
 70
     1
 40
0.828
 41
0.828
  0
VERTEX
  8
0
 10
0.669706
 20
14.6415
 30
0.0
 40
0.0115
 41
0.0115
  0
VERTEX
  8
0
 10
0.663086
 20
14.6575
 30
0.0
 40
0.0115
 41
0.0115
  0
VERTEX
  8
0
 10
0.647244
 20
14.664
 30
0.0
 40
0.0115
 41
0.0115
  0
VERTEX
  8
0
 10
0.631293
 20
14.6575
 30
0.0
 40
0.0115
 41
0.0115
  0
VERTEX
  8
0
 10
0.624729
 20
14.6415
 30
0.0
 40
0.0115
 41
0.0115
  0
VERTEX
  8
0
 10
0.631293
 20
14.6257
 30
0.0
 40
0.0115
 41
0.0115
  0
VERTEX
  8
0
 10
0.647244
 20
14.619
 30
0.0
 40
0.0115
 41
0.0115
  0
VERTEX
  8
0
 10
0.663086
 20
14.6257
 30
0.0
 40
0.0115
 41
0.0115
  0
VERTEX
  8
0
 10
0.669706
 20
14.6415
 30
0.0
 40
0.0115
 41
0.0115
  0
VERTEX
  8
0
 10
0.669706
 20
14.6415
 30
0.0
 40
0.0115
 41
0.0115
  0
SEQEND
 8
0
  0
POLYLINE
  8
0
 62
     0
 66
     1
 10
0
 20
0
 30
0.0
 70
     1
 40
0.828
 41
0.828
  0
VERTEX
  8
0
 10
6.07807
 20
14.6365
 30
0.0
 40
0.0115
 41
0.0115
  0
VERTEX
  8
0
 10
6.07146
 20
14.6525
 30
0.0
 40
0.0115
 41
0.0115
  0
VERTEX
  8
0
 10
6.05556
 20
14.659
 30
0.0
 40
0.0115
 41
0.0115
  0
VERTEX
  8
0
 10
6.03965
 20
14.6525
 30
0.0
 40
0.0115
 41
0.0115
  0
VERTEX
  8
0
 10
6.0331
 20
14.6365
 30
0.0
 40
0.0115
 41
0.0115
  0
VERTEX
  8
0
 10
6.03965
 20
14.6207
 30
0.0
 40
0.0115
 41
0.0115
  0
VERTEX
  8
0
 10
6.05556
 20
14.614
 30
0.0
 40
0.0115
 41
0.0115
  0
VERTEX
  8
0
 10
6.07146
 20
14.6207
 30
0.0
 40
0.0115
 41
0.0115
  0
VERTEX
  8
0
 10
6.07807
 20
14.6365
 30
0.0
 40
0.0115
 41
0.0115
  0
VERTEX
  8
0
 10
6.07807
 20
14.6365
 30
0.0
 40
0.0115
 41
0.0115
  0
SEQEND
 8
0
  0
POLYLINE
  8
0
 62
     0
 66
     1
 10
0
 20
0
 30
0.0
 70
     1
 40
0.828
 41
0.828
  0
VERTEX
  8
0
 10
2.26975
 20
13.1415
 30
0.0
 40
0.0115
 41
0.0115
  0
VERTEX
  8
0
 10
2.26313
 20
13.1575
 30
0.0
 40
0.0115
 41
0.0115
  0
VERTEX
  8
0
 10
2.24724
 20
13.1641
 30
0.0
 40
0.0115
 41
0.0115
  0
VERTEX
  8
0
 10
2.23128
 20
13.1575
 30
0.0
 40
0.0115
 41
0.0115
  0
VERTEX
  8
0
 10
2.22472
 20
13.1415
 30
0.0
 40
0.0115
 41
0.0115
  0
VERTEX
  8
0
 10
2.23128
 20
13.1257
 30
0.0
 40
0.0115
 41
0.0115
  0
VERTEX
  8
0
 10
2.24724
 20
13.119
 30
0.0
 40
0.0115
 41
0.0115
  0
VERTEX
  8
0
 10
2.26313
 20
13.1257
 30
0.0
 40
0.0115
 41
0.0115
  0
VERTEX
  8
0
 10
2.26975
 20
13.1415
 30
0.0
 40
0.0115
 41
0.0115
  0
VERTEX
  8
0
 10
2.26975
 20
13.1415
 30
0.0
 40
0.0115
 41
0.0115
  0
SEQEND
 8
0
  0
POLYLINE
  8
0
 62
     0
 66
     1
 10
0
 20
0
 30
0.0
 70
     1
 40
0.828
 41
0.828
  0
VERTEX
  8
0
 10
7.67806
 20
13.1366
 30
0.0
 40
0.0115
 41
0.0115
  0
VERTEX
  8
0
 10
7.67144
 20
13.1525
 30
0.0
 40
0.0115
 41
0.0115
  0
VERTEX
  8
0
 10
7.6556
 20
13.1591
 30
0.0
 40
0.0115
 41
0.0115
  0
VERTEX
  8
0
 10
7.63965
 20
13.1525
 30
0.0
 40
0.0115
 41
0.0115
  0
VERTEX
  8
0
 10
7.63308
 20
13.1366
 30
0.0
 40
0.0115
 41
0.0115
  0
VERTEX
  8
0
 10
7.63965
 20
13.1207
 30
0.0
 40
0.0115
 41
0.0115
  0
VERTEX
  8
0
 10
7.6556
 20
13.114
 30
0.0
 40
0.0115
 41
0.0115
  0
VERTEX
  8
0
 10
7.67144
 20
13.1207
 30
0.0
 40
0.0115
 41
0.0115
  0
VERTEX
  8
0
 10
7.67806
 20
13.1366
 30
0.0
 40
0.0115
 41
0.0115
  0
VERTEX
  8
0
 10
7.67806
 20
13.1366
 30
0.0
 40
0.0115
 41
0.0115
  0
SEQEND
 8
0
  0
POLYLINE
  8
0
 62
     0
 66
     1
 10
0
 20
0
 30
0.0
 70
     1
 40
0.828
 41
0.828
  0
VERTEX
  8
0
 10
2.26975
 20
14.6415
 30
0.0
 40
0.0115
 41
0.0115
  0
VERTEX
  8
0
 10
2.26313
 20
14.6575
 30
0.0
 40
0.0115
 41
0.0115
  0
VERTEX
  8
0
 10
2.24724
 20
14.664
 30
0.0
 40
0.0115
 41
0.0115
  0
VERTEX
  8
0
 10
2.23128
 20
14.6575
 30
0.0
 40
0.0115
 41
0.0115
  0
VERTEX
  8
0
 10
2.22472
 20
14.6415
 30
0.0
 40
0.0115
 41
0.0115
  0
VERTEX
  8
0
 10
2.23128
 20
14.6257
 30
0.0
 40
0.0115
 41
0.0115
  0
VERTEX
  8
0
 10
2.24724
 20
14.619
 30
0.0
 40
0.0115
 41
0.0115
  0
VERTEX
  8
0
 10
2.26313
 20
14.6257
 30
0.0
 40
0.0115
 41
0.0115
  0
VERTEX
  8
0
 10
2.26975
 20
14.6415
 30
0.0
 40
0.0115
 41
0.0115
  0
VERTEX
  8
0
 10
2.26975
 20
14.6415
 30
0.0
 40
0.0115
 41
0.0115
  0
SEQEND
 8
0
  0
POLYLINE
  8
0
 62
     0
 66
     1
 10
0
 20
0
 30
0.0
 70
     1
 40
0.828
 41
0.828
  0
VERTEX
  8
0
 10
7.67806
 20
14.6365
 30
0.0
 40
0.0115
 41
0.0115
  0
VERTEX
  8
0
 10
7.67144
 20
14.6525
 30
0.0
 40
0.0115
 41
0.0115
  0
VERTEX
  8
0
 10
7.6556
 20
14.659
 30
0.0
 40
0.0115
 41
0.0115
  0
VERTEX
  8
0
 10
7.63965
 20
14.6525
 30
0.0
 40
0.0115
 41
0.0115
  0
VERTEX
  8
0
 10
7.63308
 20
14.6365
 30
0.0
 40
0.0115
 41
0.0115
  0
VERTEX
  8
0
 10
7.63965
 20
14.6207
 30
0.0
 40
0.0115
 41
0.0115
  0
VERTEX
  8
0
 10
7.6556
 20
14.614
 30
0.0
 40
0.0115
 41
0.0115
  0
VERTEX
  8
0
 10
7.67144
 20
14.6207
 30
0.0
 40
0.0115
 41
0.0115
  0
VERTEX
  8
0
 10
7.67806
 20
14.6365
 30
0.0
 40
0.0115
 41
0.0115
  0
VERTEX
  8
0
 10
7.67806
 20
14.6365
 30
0.0
 40
0.0115
 41
0.0115
  0
SEQEND
 8
0
  0
POLYLINE
  8
0
 62
     0
 66
     1
 10
0
 20
0
 30
0.0
 70
     1
 40
0.828
 41
0.828
  0
VERTEX
  8
0
 10
0.993435
 20
9.29758
 30
0.0
 40
0.0115
 41
0.0115
  0
VERTEX
  8
0
 10
0.993435
 20
9.42888
 30
0.0
 40
0.0115
 41
0.0115
  0
VERTEX
  8
0
 10
0.875922
 20
9.42888
 30
0.0
 40
0.0115
 41
0.0115
  0
VERTEX
  8
0
 10
0.875922
 20
9.56017
 30
0.0
 40
0.0115
 41
0.0115
  0
VERTEX
  8
0
 10
0.993435
 20
9.56017
 30
0.0
 40
0.0115
 41
0.0115
  0
VERTEX
  8
0
 10
0.993435
 20
9.69146
 30
0.0
 40
0.0115
 41
0.0115
  0
VERTEX
  8
0
 10
0.438206
 20
9.69146
 30
0.0
 40
0.0115
 41
0.0115
  0
VERTEX
  8
0
 10
0.170464
 20
9.69146
 30
0.0
 40
0.0115
 41
0.0115
  0
VERTEX
  8
0
 10
0.170464
 20
9.51915
 30
0.0
 40
0.0115
 41
0.0115
  0
VERTEX
  8
0
 10
0.239367
 20
9.51915
 30
0.0
 40
0.0115
 41
0.0115
  0
VERTEX
  8
0
 10
0.239367
 20
9.46994
 30
0.0
 40
0.0115
 41
0.0115
  0
VERTEX
  8
0
 10
0.170464
 20
9.46994
 30
0.0
 40
0.0115
 41
0.0115
  0
VERTEX
  8
0
 10
0.170464
 20
9.29758
 30
0.0
 40
0.0115
 41
0.0115
  0
VERTEX
  8
0
 10
0.438206
 20
9.29758
 30
0.0
 40
0.0115
 41
0.0115
  0
VERTEX
  8
0
 10
0.993435
 20
9.29758
 30
0.0
 40
0.0115
 41
0.0115
  0
SEQEND
 8
0
  0
POLYLINE
  8
0
 62
     0
 66
     1
 10
0
 20
0
 30
0.0
 70
     1
 40
0.828
 41
0.828
  0
VERTEX
  8
0
 10
5.65392
 20
9.30186
 30
0.0
 40
0.0115
 41
0.0115
  0
VERTEX
  8
0
 10
5.65392
 20
9.43317
 30
0.0
 40
0.0115
 41
0.0115
  0
VERTEX
  8
0
 10
5.5364
 20
9.43317
 30
0.0
 40
0.0115
 41
0.0115
  0
VERTEX
  8
0
 10
5.5364
 20
9.56446
 30
0.0
 40
0.0115
 41
0.0115
  0
VERTEX
  8
0
 10
5.65392
 20
9.56446
 30
0.0
 40
0.0115
 41
0.0115
  0
VERTEX
  8
0
 10
5.65392
 20
9.69581
 30
0.0
 40
0.0115
 41
0.0115
  0
VERTEX
  8
0
 10
5.09868
 20
9.69581
 30
0.0
 40
0.0115
 41
0.0115
  0
VERTEX
  8
0
 10
4.831
 20
9.69581
 30
0.0
 40
0.0115
 41
0.0115
  0
VERTEX
  8
0
 10
4.831
 20
9.52344
 30
0.0
 40
0.0115
 41
0.0115
  0
VERTEX
  8
0
 10
4.8999
 20
9.52344
 30
0.0
 40
0.0115
 41
0.0115
  0
VERTEX
  8
0
 10
4.8999
 20
9.47424
 30
0.0
 40
0.0115
 41
0.0115
  0
VERTEX
  8
0
 10
4.831
 20
9.47424
 30
0.0
 40
0.0115
 41
0.0115
  0
VERTEX
  8
0
 10
4.831
 20
9.30186
 30
0.0
 40
0.0115
 41
0.0115
  0
VERTEX
  8
0
 10
5.09868
 20
9.30186
 30
0.0
 40
0.0115
 41
0.0115
  0
VERTEX
  8
0
 10
5.65392
 20
9.30186
 30
0.0
 40
0.0115
 41
0.0115
  0
SEQEND
 8
0
  0
POLYLINE
  8
0
 62
     0
 66
     1
 10
0
 20
0
 30
0.0
 70
     1
 40
0.828
 41
0.828
  0
VERTEX
  8
0
 10
10.3144
 20
9.30615
 30
0.0
 40
0.0115
 41
0.0115
  0
VERTEX
  8
0
 10
10.3144
 20
9.4375
 30
0.0
 40
0.0115
 41
0.0115
  0
VERTEX
  8
0
 10
10.1969
 20
9.4375
 30
0.0
 40
0.0115
 41
0.0115
  0
VERTEX
  8
0
 10
10.1969
 20
9.56879
 30
0.0
 40
0.0115
 41
0.0115
  0
VERTEX
  8
0
 10
10.3144
 20
9.56879
 30
0.0
 40
0.0115
 41
0.0115
  0
VERTEX
  8
0
 10
10.3144
 20
9.70008
 30
0.0
 40
0.0115
 41
0.0115
  0
VERTEX
  8
0
 10
9.75922
 20
9.70008
 30
0.0
 40
0.0115
 41
0.0115
  0
VERTEX
  8
0
 10
9.49149
 20
9.70008
 30
0.0
 40
0.0115
 41
0.0115
  0
VERTEX
  8
0
 10
9.49149
 20
9.52778
 30
0.0
 40
0.0115
 41
0.0115
  0
VERTEX
  8
0
 10
9.56039
 20
9.52778
 30
0.0
 40
0.0115
 41
0.0115
  0
VERTEX
  8
0
 10
9.56039
 20
9.47851
 30
0.0
 40
0.0115
 41
0.0115
  0
VERTEX
  8
0
 10
9.49149
 20
9.47851
 30
0.0
 40
0.0115
 41
0.0115
  0
VERTEX
  8
0
 10
9.49149
 20
9.30615
 30
0.0
 40
0.0115
 41
0.0115
  0
VERTEX
  8
0
 10
9.75922
 20
9.30615
 30
0.0
 40
0.0115
 41
0.0115
  0
VERTEX
  8
0
 10
10.3144
 20
9.30615
 30
0.0
 40
0.0115
 41
0.0115
  0
SEQEND
 8
0
  0
POLYLINE
  8
0
 62
     0
 66
     1
 10
0
 20
0
 30
0.0
 70
     1
 40
0.828
 41
0.828
  0
VERTEX
  8
0
 10
10.9977
 20
11.6976
 30
0.0
 40
0.0115
 41
0.0115
  0
VERTEX
  8
0
 10
11.129
 20
11.6976
 30
0.0
 40
0.0115
 41
0.0115
  0
VERTEX
  8
0
 10
11.129
 20
11.8152
 30
0.0
 40
0.0115
 41
0.0115
  0
VERTEX
  8
0
 10
11.2603
 20
11.8152
 30
0.0
 40
0.0115
 41
0.0115
  0
VERTEX
  8
0
 10
11.2603
 20
11.6976
 30
0.0
 40
0.0115
 41
0.0115
  0
VERTEX
  8
0
 10
11.3916
 20
11.6976
 30
0.0
 40
0.0115
 41
0.0115
  0
VERTEX
  8
0
 10
11.3916
 20
12.2529
 30
0.0
 40
0.0115
 41
0.0115
  0
VERTEX
  8
0
 10
11.3916
 20
12.5206
 30
0.0
 40
0.0115
 41
0.0115
  0
VERTEX
  8
0
 10
11.2193
 20
12.5206
 30
0.0
 40
0.0115
 41
0.0115
  0
VERTEX
  8
0
 10
11.2193
 20
12.4517
 30
0.0
 40
0.0115
 41
0.0115
  0
VERTEX
  8
0
 10
11.1701
 20
12.4517
 30
0.0
 40
0.0115
 41
0.0115
  0
VERTEX
  8
0
 10
11.1701
 20
12.5206
 30
0.0
 40
0.0115
 41
0.0115
  0
VERTEX
  8
0
 10
10.9977
 20
12.5206
 30
0.0
 40
0.0115
 41
0.0115
  0
VERTEX
  8
0
 10
10.9977
 20
12.2529
 30
0.0
 40
0.0115
 41
0.0115
  0
VERTEX
  8
0
 10
10.9977
 20
11.6976
 30
0.0
 40
0.0115
 41
0.0115
  0
SEQEND
 8
0
  0
POLYLINE
  8
0
 62
     0
 66
     1
 10
0
 20
0
 30
0.0
 70
     1
 40
0.828
 41
0.828
  0
VERTEX
  8
0
 10
3.33263
 20
9.29818
 30
0.0
 40
0.0115
 41
0.0115
  0
VERTEX
  8
0
 10
3.33263
 20
9.42947
 30
0.0
 40
0.0115
 41
0.0115
  0
VERTEX
  8
0
 10
3.21511
 20
9.42947
 30
0.0
 40
0.0115
 41
0.0115
  0
VERTEX
  8
0
 10
3.21511
 20
9.56076
 30
0.0
 40
0.0115
 41
0.0115
  0
VERTEX
  8
0
 10
3.33263
 20
9.56076
 30
0.0
 40
0.0115
 41
0.0115
  0
VERTEX
  8
0
 10
3.33263
 20
9.69206
 30
0.0
 40
0.0115
 41
0.0115
  0
VERTEX
  8
0
 10
2.77735
 20
9.69206
 30
0.0
 40
0.0115
 41
0.0115
  0
VERTEX
  8
0
 10
2.50965
 20
9.69206
 30
0.0
 40
0.0115
 41
0.0115
  0
VERTEX
  8
0
 10
2.50965
 20
9.51975
 30
0.0
 40
0.0115
 41
0.0115
  0
VERTEX
  8
0
 10
2.57856
 20
9.51975
 30
0.0
 40
0.0115
 41
0.0115
  0
VERTEX
  8
0
 10
2.57856
 20
9.47054
 30
0.0
 40
0.0115
 41
0.0115
  0
VERTEX
  8
0
 10
2.50965
 20
9.47054
 30
0.0
 40
0.0115
 41
0.0115
  0
VERTEX
  8
0
 10
2.50965
 20
9.29818
 30
0.0
 40
0.0115
 41
0.0115
  0
VERTEX
  8
0
 10
2.77735
 20
9.29818
 30
0.0
 40
0.0115
 41
0.0115
  0
VERTEX
  8
0
 10
3.33263
 20
9.29818
 30
0.0
 40
0.0115
 41
0.0115
  0
SEQEND
 8
0
  0
POLYLINE
  8
0
 62
     0
 66
     1
 10
0
 20
0
 30
0.0
 70
     1
 40
0.828
 41
0.828
  0
VERTEX
  8
0
 10
7.99311
 20
9.30246
 30
0.0
 40
0.0115
 41
0.0115
  0
VERTEX
  8
0
 10
7.99311
 20
9.43375
 30
0.0
 40
0.0115
 41
0.0115
  0
VERTEX
  8
0
 10
7.8756
 20
9.43375
 30
0.0
 40
0.0115
 41
0.0115
  0
VERTEX
  8
0
 10
7.8756
 20
9.56511
 30
0.0
 40
0.0115
 41
0.0115
  0
VERTEX
  8
0
 10
7.99311
 20
9.56511
 30
0.0
 40
0.0115
 41
0.0115
  0
VERTEX
  8
0
 10
7.99311
 20
9.6964
 30
0.0
 40
0.0115
 41
0.0115
  0
VERTEX
  8
0
 10
7.43787
 20
9.6964
 30
0.0
 40
0.0115
 41
0.0115
  0
VERTEX
  8
0
 10
7.17019
 20
9.6964
 30
0.0
 40
0.0115
 41
0.0115
  0
VERTEX
  8
0
 10
7.17019
 20
9.52403
 30
0.0
 40
0.0115
 41
0.0115
  0
VERTEX
  8
0
 10
7.23904
 20
9.52403
 30
0.0
 40
0.0115
 41
0.0115
  0
VERTEX
  8
0
 10
7.23904
 20
9.47483
 30
0.0
 40
0.0115
 41
0.0115
  0
VERTEX
  8
0
 10
7.17019
 20
9.47483
 30
0.0
 40
0.0115
 41
0.0115
  0
VERTEX
  8
0
 10
7.17019
 20
9.30246
 30
0.0
 40
0.0115
 41
0.0115
  0
VERTEX
  8
0
 10
7.43787
 20
9.30246
 30
0.0
 40
0.0115
 41
0.0115
  0
VERTEX
  8
0
 10
7.99311
 20
9.30246
 30
0.0
 40
0.0115
 41
0.0115
  0
SEQEND
 8
0
  0
POLYLINE
  8
0
 62
     0
 66
     1
 10
0
 20
0
 30
0.0
 70
     1
 40
0.828
 41
0.828
  0
VERTEX
  8
0
 10
10.994
 20
14.019
 30
0.0
 40
0.0115
 41
0.0115
  0
VERTEX
  8
0
 10
11.1253
 20
14.019
 30
0.0
 40
0.0115
 41
0.0115
  0
VERTEX
  8
0
 10
11.1253
 20
14.1365
 30
0.0
 40
0.0115
 41
0.0115
  0
VERTEX
  8
0
 10
11.2566
 20
14.1365
 30
0.0
 40
0.0115
 41
0.0115
  0
VERTEX
  8
0
 10
11.2566
 20
14.019
 30
0.0
 40
0.0115
 41
0.0115
  0
VERTEX
  8
0
 10
11.3879
 20
14.019
 30
0.0
 40
0.0115
 41
0.0115
  0
VERTEX
  8
0
 10
11.3879
 20
14.5742
 30
0.0
 40
0.0115
 41
0.0115
  0
VERTEX
  8
0
 10
11.3879
 20
14.8419
 30
0.0
 40
0.0115
 41
0.0115
  0
VERTEX
  8
0
 10
11.2156
 20
14.8419
 30
0.0
 40
0.0115
 41
0.0115
  0
VERTEX
  8
0
 10
11.2156
 20
14.7731
 30
0.0
 40
0.0115
 41
0.0115
  0
VERTEX
  8
0
 10
11.1663
 20
14.7731
 30
0.0
 40
0.0115
 41
0.0115
  0
VERTEX
  8
0
 10
11.1663
 20
14.8419
 30
0.0
 40
0.0115
 41
0.0115
  0
VERTEX
  8
0
 10
10.994
 20
14.8419
 30
0.0
 40
0.0115
 41
0.0115
  0
VERTEX
  8
0
 10
10.994
 20
14.5742
 30
0.0
 40
0.0115
 41
0.0115
  0
VERTEX
  8
0
 10
10.994
 20
14.019
 30
0.0
 40
0.0115
 41
0.0115
  0
SEQEND
 8
0
  0
POLYLINE
  8
0
 62
     0
 66
     1
 10
0
 20
0
 30
0.0
 70
     1
 40
0.828
 41
0.828
  0
VERTEX
  8
0
 10
0.996039
 20
9.73014
 30
0.0
 40
0.0115
 41
0.0115
  0
VERTEX
  8
0
 10
0.996039
 20
9.86143
 30
0.0
 40
0.0115
 41
0.0115
  0
VERTEX
  8
0
 10
0.878526
 20
9.86143
 30
0.0
 40
0.0115
 41
0.0115
  0
VERTEX
  8
0
 10
0.878526
 20
9.99274
 30
0.0
 40
0.0115
 41
0.0115
  0
VERTEX
  8
0
 10
0.996039
 20
9.99274
 30
0.0
 40
0.0115
 41
0.0115
  0
VERTEX
  8
0
 10
0.996039
 20
10.124
 30
0.0
 40
0.0115
 41
0.0115
  0
VERTEX
  8
0
 10
0.44081
 20
10.124
 30
0.0
 40
0.0115
 41
0.0115
  0
VERTEX
  8
0
 10
0.173068
 20
10.124
 30
0.0
 40
0.0115
 41
0.0115
  0
VERTEX
  8
0
 10
0.173068
 20
9.95167
 30
0.0
 40
0.0115
 41
0.0115
  0
VERTEX
  8
0
 10
0.241971
 20
9.95167
 30
0.0
 40
0.0115
 41
0.0115
  0
VERTEX
  8
0
 10
0.241971
 20
9.90246
 30
0.0
 40
0.0115
 41
0.0115
  0
VERTEX
  8
0
 10
0.173068
 20
9.90246
 30
0.0
 40
0.0115
 41
0.0115
  0
VERTEX
  8
0
 10
0.173068
 20
9.73014
 30
0.0
 40
0.0115
 41
0.0115
  0
VERTEX
  8
0
 10
0.44081
 20
9.73014
 30
0.0
 40
0.0115
 41
0.0115
  0
VERTEX
  8
0
 10
0.996039
 20
9.73014
 30
0.0
 40
0.0115
 41
0.0115
  0
SEQEND
 8
0
  0
POLYLINE
  8
0
 62
     0
 66
     1
 10
0
 20
0
 30
0.0
 70
     1
 40
0.828
 41
0.828
  0
VERTEX
  8
0
 10
5.65657
 20
9.73443
 30
0.0
 40
0.0115
 41
0.0115
  0
VERTEX
  8
0
 10
5.65657
 20
9.86572
 30
0.0
 40
0.0115
 41
0.0115
  0
VERTEX
  8
0
 10
5.53906
 20
9.86572
 30
0.0
 40
0.0115
 41
0.0115
  0
VERTEX
  8
0
 10
5.53906
 20
9.99701
 30
0.0
 40
0.0115
 41
0.0115
  0
VERTEX
  8
0
 10
5.65657
 20
9.99701
 30
0.0
 40
0.0115
 41
0.0115
  0
VERTEX
  8
0
 10
5.65657
 20
10.1284
 30
0.0
 40
0.0115
 41
0.0115
  0
VERTEX
  8
0
 10
5.10135
 20
10.1284
 30
0.0
 40
0.0115
 41
0.0115
  0
VERTEX
  8
0
 10
4.83361
 20
10.1284
 30
0.0
 40
0.0115
 41
0.0115
  0
VERTEX
  8
0
 10
4.83361
 20
9.956
 30
0.0
 40
0.0115
 41
0.0115
  0
VERTEX
  8
0
 10
4.9025
 20
9.956
 30
0.0
 40
0.0115
 41
0.0115
  0
VERTEX
  8
0
 10
4.9025
 20
9.90679
 30
0.0
 40
0.0115
 41
0.0115
  0
VERTEX
  8
0
 10
4.83361
 20
9.90679
 30
0.0
 40
0.0115
 41
0.0115
  0
VERTEX
  8
0
 10
4.83361
 20
9.73443
 30
0.0
 40
0.0115
 41
0.0115
  0
VERTEX
  8
0
 10
5.10135
 20
9.73443
 30
0.0
 40
0.0115
 41
0.0115
  0
VERTEX
  8
0
 10
5.65657
 20
9.73443
 30
0.0
 40
0.0115
 41
0.0115
  0
SEQEND
 8
0
  0
POLYLINE
  8
0
 62
     0
 66
     1
 10
0
 20
0
 30
0.0
 70
     1
 40
0.828
 41
0.828
  0
VERTEX
  8
0
 10
10.3171
 20
9.73876
 30
0.0
 40
0.0115
 41
0.0115
  0
VERTEX
  8
0
 10
10.3171
 20
9.87007
 30
0.0
 40
0.0115
 41
0.0115
  0
VERTEX
  8
0
 10
10.1996
 20
9.87007
 30
0.0
 40
0.0115
 41
0.0115
  0
VERTEX
  8
0
 10
10.1996
 20
10.0014
 30
0.0
 40
0.0115
 41
0.0115
  0
VERTEX
  8
0
 10
10.3171
 20
10.0014
 30
0.0
 40
0.0115
 41
0.0115
  0
VERTEX
  8
0
 10
10.3171
 20
10.1327
 30
0.0
 40
0.0115
 41
0.0115
  0
VERTEX
  8
0
 10
9.76183
 20
10.1327
 30
0.0
 40
0.0115
 41
0.0115
  0
VERTEX
  8
0
 10
9.49408
 20
10.1327
 30
0.0
 40
0.0115
 41
0.0115
  0
VERTEX
  8
0
 10
9.49408
 20
9.96035
 30
0.0
 40
0.0115
 41
0.0115
  0
VERTEX
  8
0
 10
9.56299
 20
9.96035
 30
0.0
 40
0.0115
 41
0.0115
  0
VERTEX
  8
0
 10
9.56299
 20
9.91108
 30
0.0
 40
0.0115
 41
0.0115
  0
VERTEX
  8
0
 10
9.49408
 20
9.91108
 30
0.0
 40
0.0115
 41
0.0115
  0
VERTEX
  8
0
 10
9.49408
 20
9.73876
 30
0.0
 40
0.0115
 41
0.0115
  0
VERTEX
  8
0
 10
9.76183
 20
9.73876
 30
0.0
 40
0.0115
 41
0.0115
  0
VERTEX
  8
0
 10
10.3171
 20
9.73876
 30
0.0
 40
0.0115
 41
0.0115
  0
SEQEND
 8
0
  0
POLYLINE
  8
0
 62
     0
 66
     1
 10
0
 20
0
 30
0.0
 70
     1
 40
0.828
 41
0.828
  0
VERTEX
  8
0
 10
11.4303
 20
11.695
 30
0.0
 40
0.0115
 41
0.0115
  0
VERTEX
  8
0
 10
11.5616
 20
11.695
 30
0.0
 40
0.0115
 41
0.0115
  0
VERTEX
  8
0
 10
11.5616
 20
11.8126
 30
0.0
 40
0.0115
 41
0.0115
  0
VERTEX
  8
0
 10
11.6929
 20
11.8126
 30
0.0
 40
0.0115
 41
0.0115
  0
VERTEX
  8
0
 10
11.6929
 20
11.695
 30
0.0
 40
0.0115
 41
0.0115
  0
VERTEX
  8
0
 10
11.8242
 20
11.695
 30
0.0
 40
0.0115
 41
0.0115
  0
VERTEX
  8
0
 10
11.8242
 20
12.2503
 30
0.0
 40
0.0115
 41
0.0115
  0
VERTEX
  8
0
 10
11.8242
 20
12.518
 30
0.0
 40
0.0115
 41
0.0115
  0
VERTEX
  8
0
 10
11.6518
 20
12.518
 30
0.0
 40
0.0115
 41
0.0115
  0
VERTEX
  8
0
 10
11.6518
 20
12.4491
 30
0.0
 40
0.0115
 41
0.0115
  0
VERTEX
  8
0
 10
11.6027
 20
12.4491
 30
0.0
 40
0.0115
 41
0.0115
  0
VERTEX
  8
0
 10
11.6027
 20
12.518
 30
0.0
 40
0.0115
 41
0.0115
  0
VERTEX
  8
0
 10
11.4303
 20
12.518
 30
0.0
 40
0.0115
 41
0.0115
  0
VERTEX
  8
0
 10
11.4303
 20
12.2503
 30
0.0
 40
0.0115
 41
0.0115
  0
VERTEX
  8
0
 10
11.4303
 20
11.695
 30
0.0
 40
0.0115
 41
0.0115
  0
SEQEND
 8
0
  0
POLYLINE
  8
0
 62
     0
 66
     1
 10
0
 20
0
 30
0.0
 70
     1
 40
0.828
 41
0.828
  0
VERTEX
  8
0
 10
3.33524
 20
9.73074
 30
0.0
 40
0.0115
 41
0.0115
  0
VERTEX
  8
0
 10
3.33524
 20
9.86203
 30
0.0
 40
0.0115
 41
0.0115
  0
VERTEX
  8
0
 10
3.21772
 20
9.86203
 30
0.0
 40
0.0115
 41
0.0115
  0
VERTEX
  8
0
 10
3.21772
 20
9.99333
 30
0.0
 40
0.0115
 41
0.0115
  0
VERTEX
  8
0
 10
3.33524
 20
9.99333
 30
0.0
 40
0.0115
 41
0.0115
  0
VERTEX
  8
0
 10
3.33524
 20
10.1246
 30
0.0
 40
0.0115
 41
0.0115
  0
VERTEX
  8
0
 10
2.77994
 20
10.1246
 30
0.0
 40
0.0115
 41
0.0115
  0
VERTEX
  8
0
 10
2.51226
 20
10.1246
 30
0.0
 40
0.0115
 41
0.0115
  0
VERTEX
  8
0
 10
2.51226
 20
9.95225
 30
0.0
 40
0.0115
 41
0.0115
  0
VERTEX
  8
0
 10
2.58117
 20
9.95225
 30
0.0
 40
0.0115
 41
0.0115
  0
VERTEX
  8
0
 10
2.58117
 20
9.9031
 30
0.0
 40
0.0115
 41
0.0115
  0
VERTEX
  8
0
 10
2.51226
 20
9.9031
 30
0.0
 40
0.0115
 41
0.0115
  0
VERTEX
  8
0
 10
2.51226
 20
9.73074
 30
0.0
 40
0.0115
 41
0.0115
  0
VERTEX
  8
0
 10
2.77994
 20
9.73074
 30
0.0
 40
0.0115
 41
0.0115
  0
VERTEX
  8
0
 10
3.33524
 20
9.73074
 30
0.0
 40
0.0115
 41
0.0115
  0
SEQEND
 8
0
  0
POLYLINE
  8
0
 62
     0
 66
     1
 10
0
 20
0
 30
0.0
 70
     1
 40
0.828
 41
0.828
  0
VERTEX
  8
0
 10
7.99571
 20
9.73503
 30
0.0
 40
0.0115
 41
0.0115
  0
VERTEX
  8
0
 10
7.99571
 20
9.86632
 30
0.0
 40
0.0115
 41
0.0115
  0
VERTEX
  8
0
 10
7.87819
 20
9.86632
 30
0.0
 40
0.0115
 41
0.0115
  0
VERTEX
  8
0
 10
7.87819
 20
9.99761
 30
0.0
 40
0.0115
 41
0.0115
  0
VERTEX
  8
0
 10
7.99571
 20
9.99761
 30
0.0
 40
0.0115
 41
0.0115
  0
VERTEX
  8
0
 10
7.99571
 20
10.1289
 30
0.0
 40
0.0115
 41
0.0115
  0
VERTEX
  8
0
 10
7.44049
 20
10.1289
 30
0.0
 40
0.0115
 41
0.0115
  0
VERTEX
  8
0
 10
7.17279
 20
10.1289
 30
0.0
 40
0.0115
 41
0.0115
  0
VERTEX
  8
0
 10
7.17279
 20
9.9566
 30
0.0
 40
0.0115
 41
0.0115
  0
VERTEX
  8
0
 10
7.24169
 20
9.9566
 30
0.0
 40
0.0115
 41
0.0115
  0
VERTEX
  8
0
 10
7.24169
 20
9.90739
 30
0.0
 40
0.0115
 41
0.0115
  0
VERTEX
  8
0
 10
7.17279
 20
9.90739
 30
0.0
 40
0.0115
 41
0.0115
  0
VERTEX
  8
0
 10
7.17279
 20
9.73503
 30
0.0
 40
0.0115
 41
0.0115
  0
VERTEX
  8
0
 10
7.44049
 20
9.73503
 30
0.0
 40
0.0115
 41
0.0115
  0
VERTEX
  8
0
 10
7.99571
 20
9.73503
 30
0.0
 40
0.0115
 41
0.0115
  0
SEQEND
 8
0
  0
POLYLINE
  8
0
 62
     0
 66
     1
 10
0
 20
0
 30
0.0
 70
     1
 40
0.828
 41
0.828
  0
VERTEX
  8
0
 10
11.4265
 20
14.0164
 30
0.0
 40
0.0115
 41
0.0115
  0
VERTEX
  8
0
 10
11.5578
 20
14.0164
 30
0.0
 40
0.0115
 41
0.0115
  0
VERTEX
  8
0
 10
11.5578
 20
14.1339
 30
0.0
 40
0.0115
 41
0.0115
  0
VERTEX
  8
0
 10
11.6891
 20
14.1339
 30
0.0
 40
0.0115
 41
0.0115
  0
VERTEX
  8
0
 10
11.6891
 20
14.0164
 30
0.0
 40
0.0115
 41
0.0115
  0
VERTEX
  8
0
 10
11.8204
 20
14.0164
 30
0.0
 40
0.0115
 41
0.0115
  0
VERTEX
  8
0
 10
11.8204
 20
14.5717
 30
0.0
 40
0.0115
 41
0.0115
  0
VERTEX
  8
0
 10
11.8204
 20
14.8393
 30
0.0
 40
0.0115
 41
0.0115
  0
VERTEX
  8
0
 10
11.6481
 20
14.8393
 30
0.0
 40
0.0115
 41
0.0115
  0
VERTEX
  8
0
 10
11.6481
 20
14.7704
 30
0.0
 40
0.0115
 41
0.0115
  0
VERTEX
  8
0
 10
11.5988
 20
14.7704
 30
0.0
 40
0.0115
 41
0.0115
  0
VERTEX
  8
0
 10
11.5988
 20
14.8393
 30
0.0
 40
0.0115
 41
0.0115
  0
VERTEX
  8
0
 10
11.4265
 20
14.8393
 30
0.0
 40
0.0115
 41
0.0115
  0
VERTEX
  8
0
 10
11.4265
 20
14.5717
 30
0.0
 40
0.0115
 41
0.0115
  0
VERTEX
  8
0
 10
11.4265
 20
14.0164
 30
0.0
 40
0.0115
 41
0.0115
  0
SEQEND
 8
0
  0
POLYLINE
  8
0
 62
     0
 66
     1
 10
0
 20
0
 30
0.0
 70
     1
 40
0.828
 41
0.828
  0
VERTEX
  8
0
 10
0.24924
 20
9.43201
 30
0.0
 40
0.0115
 41
0.0115
  0
VERTEX
  8
0
 10
0.23215
 20
9.4286
 30
0.0
 40
0.0115
 41
0.0115
  0
VERTEX
  8
0
 10
0.218261
 20
9.41922
 30
0.0
 40
0.0115
 41
0.0115
  0
VERTEX
  8
0
 10
0.208876
 20
9.40533
 30
0.0
 40
0.0115
 41
0.0115
  0
VERTEX
  8
0
 10
0.205458
 20
9.38829
 30
0.0
 40
0.0115
 41
0.0115
  0
VERTEX
  8
0
 10
0.208876
 20
9.37125
 30
0.0
 40
0.0115
 41
0.0115
  0
VERTEX
  8
0
 10
0.218261
 20
9.35736
 30
0.0
 40
0.0115
 41
0.0115
  0
VERTEX
  8
0
 10
0.23215
 20
9.34799
 30
0.0
 40
0.0115
 41
0.0115
  0
VERTEX
  8
0
 10
0.24924
 20
9.34451
 30
0.0
 40
0.0115
 41
0.0115
  0
VERTEX
  8
0
 10
0.266222
 20
9.34799
 30
0.0
 40
0.0115
 41
0.0115
  0
VERTEX
  8
0
 10
0.280111
 20
9.35736
 30
0.0
 40
0.0115
 41
0.0115
  0
VERTEX
  8
0
 10
0.289497
 20
9.37125
 30
0.0
 40
0.0115
 41
0.0115
  0
VERTEX
  8
0
 10
0.292969
 20
9.38829
 30
0.0
 40
0.0115
 41
0.0115
  0
VERTEX
  8
0
 10
0.289497
 20
9.40533
 30
0.0
 40
0.0115
 41
0.0115
  0
VERTEX
  8
0
 10
0.280111
 20
9.41922
 30
0.0
 40
0.0115
 41
0.0115
  0
VERTEX
  8
0
 10
0.266222
 20
9.4286
 30
0.0
 40
0.0115
 41
0.0115
  0
VERTEX
  8
0
 10
0.24924
 20
9.43201
 30
0.0
 40
0.0115
 41
0.0115
  0
SEQEND
 8
0
  0
POLYLINE
  8
0
 62
     0
 66
     1
 10
0
 20
0
 30
0.0
 70
     1
 40
0.828
 41
0.828
  0
VERTEX
  8
0
 10
4.90972
 20
9.43631
 30
0.0
 40
0.0115
 41
0.0115
  0
VERTEX
  8
0
 10
4.89268
 20
9.43289
 30
0.0
 40
0.0115
 41
0.0115
  0
VERTEX
  8
0
 10
4.87879
 20
9.4235
 30
0.0
 40
0.0115
 41
0.0115
  0
VERTEX
  8
0
 10
4.86942
 20
9.40961
 30
0.0
 40
0.0115
 41
0.0115
  0
VERTEX
  8
0
 10
4.866
 20
9.39258
 30
0.0
 40
0.0115
 41
0.0115
  0
VERTEX
  8
0
 10
4.86942
 20
9.3756
 30
0.0
 40
0.0115
 41
0.0115
  0
VERTEX
  8
0
 10
4.87879
 20
9.36171
 30
0.0
 40
0.0115
 41
0.0115
  0
VERTEX
  8
0
 10
4.89268
 20
9.35232
 30
0.0
 40
0.0115
 41
0.0115
  0
VERTEX
  8
0
 10
4.90972
 20
9.34885
 30
0.0
 40
0.0115
 41
0.0115
  0
VERTEX
  8
0
 10
4.92671
 20
9.35232
 30
0.0
 40
0.0115
 41
0.0115
  0
VERTEX
  8
0
 10
4.9406
 20
9.36171
 30
0.0
 40
0.0115
 41
0.0115
  0
VERTEX
  8
0
 10
4.94997
 20
9.3756
 30
0.0
 40
0.0115
 41
0.0115
  0
VERTEX
  8
0
 10
4.95344
 20
9.39258
 30
0.0
 40
0.0115
 41
0.0115
  0
VERTEX
  8
0
 10
4.94997
 20
9.40961
 30
0.0
 40
0.0115
 41
0.0115
  0
VERTEX
  8
0
 10
4.9406
 20
9.4235
 30
0.0
 40
0.0115
 41
0.0115
  0
VERTEX
  8
0
 10
4.92671
 20
9.43289
 30
0.0
 40
0.0115
 41
0.0115
  0
VERTEX
  8
0
 10
4.90972
 20
9.43631
 30
0.0
 40
0.0115
 41
0.0115
  0
SEQEND
 8
0
  0
POLYLINE
  8
0
 62
     0
 66
     1
 10
0
 20
0
 30
0.0
 70
     1
 40
0.828
 41
0.828
  0
VERTEX
  8
0
 10
9.57021
 20
9.44065
 30
0.0
 40
0.0115
 41
0.0115
  0
VERTEX
  8
0
 10
9.55317
 20
9.43722
 30
0.0
 40
0.0115
 41
0.0115
  0
VERTEX
  8
0
 10
9.53928
 20
9.42785
 30
0.0
 40
0.0115
 41
0.0115
  0
VERTEX
  8
0
 10
9.52989
 20
9.41396
 30
0.0
 40
0.0115
 41
0.0115
  0
VERTEX
  8
0
 10
9.52647
 20
9.39686
 30
0.0
 40
0.0115
 41
0.0115
  0
VERTEX
  8
0
 10
9.52989
 20
9.37989
 30
0.0
 40
0.0115
 41
0.0115
  0
VERTEX
  8
0
 10
9.53928
 20
9.366
 30
0.0
 40
0.0115
 41
0.0115
  0
VERTEX
  8
0
 10
9.55317
 20
9.35661
 30
0.0
 40
0.0115
 41
0.0115
  0
VERTEX
  8
0
 10
9.57021
 20
9.35314
 30
0.0
 40
0.0115
 41
0.0115
  0
VERTEX
  8
0
 10
9.58724
 20
9.35661
 30
0.0
 40
0.0115
 41
0.0115
  0
VERTEX
  8
0
 10
9.60113
 20
9.366
 30
0.0
 40
0.0115
 41
0.0115
  0
VERTEX
  8
0
 10
9.61051
 20
9.37989
 30
0.0
 40
0.0115
 41
0.0115
  0
VERTEX
  8
0
 10
9.61399
 20
9.39686
 30
0.0
 40
0.0115
 41
0.0115
  0
VERTEX
  8
0
 10
9.61051
 20
9.41396
 30
0.0
 40
0.0115
 41
0.0115
  0
VERTEX
  8
0
 10
9.60113
 20
9.42785
 30
0.0
 40
0.0115
 41
0.0115
  0
VERTEX
  8
0
 10
9.58724
 20
9.43722
 30
0.0
 40
0.0115
 41
0.0115
  0
VERTEX
  8
0
 10
9.57021
 20
9.44065
 30
0.0
 40
0.0115
 41
0.0115
  0
SEQEND
 8
0
  0
POLYLINE
  8
0
 62
     0
 66
     1
 10
0
 20
0
 30
0.0
 70
     1
 40
0.828
 41
0.828
  0
VERTEX
  8
0
 10
11.1321
 20
12.4419
 30
0.0
 40
0.0115
 41
0.0115
  0
VERTEX
  8
0
 10
11.1286
 20
12.4589
 30
0.0
 40
0.0115
 41
0.0115
  0
VERTEX
  8
0
 10
11.1193
 20
12.4728
 30
0.0
 40
0.0115
 41
0.0115
  0
VERTEX
  8
0
 10
11.1054
 20
12.4822
 30
0.0
 40
0.0115
 41
0.0115
  0
VERTEX
  8
0
 10
11.0884
 20
12.4856
 30
0.0
 40
0.0115
 41
0.0115
  0
VERTEX
  8
0
 10
11.0713
 20
12.4822
 30
0.0
 40
0.0115
 41
0.0115
  0
VERTEX
  8
0
 10
11.0574
 20
12.4728
 30
0.0
 40
0.0115
 41
0.0115
  0
VERTEX
  8
0
 10
11.048
 20
12.4589
 30
0.0
 40
0.0115
 41
0.0115
  0
VERTEX
  8
0
 10
11.0446
 20
12.4419
 30
0.0
 40
0.0115
 41
0.0115
  0
VERTEX
  8
0
 10
11.048
 20
12.4249
 30
0.0
 40
0.0115
 41
0.0115
  0
VERTEX
  8
0
 10
11.0574
 20
12.411
 30
0.0
 40
0.0115
 41
0.0115
  0
VERTEX
  8
0
 10
11.0713
 20
12.4016
 30
0.0
 40
0.0115
 41
0.0115
  0
VERTEX
  8
0
 10
11.0884
 20
12.3981
 30
0.0
 40
0.0115
 41
0.0115
  0
VERTEX
  8
0
 10
11.1054
 20
12.4016
 30
0.0
 40
0.0115
 41
0.0115
  0
VERTEX
  8
0
 10
11.1193
 20
12.411
 30
0.0
 40
0.0115
 41
0.0115
  0
VERTEX
  8
0
 10
11.1286
 20
12.4249
 30
0.0
 40
0.0115
 41
0.0115
  0
VERTEX
  8
0
 10
11.1321
 20
12.4419
 30
0.0
 40
0.0115
 41
0.0115
  0
SEQEND
 8
0
  0
POLYLINE
  8
0
 62
     0
 66
     1
 10
0
 20
0
 30
0.0
 70
     1
 40
0.828
 41
0.828
  0
VERTEX
  8
0
 10
2.58838
 20
9.43257
 30
0.0
 40
0.0115
 41
0.0115
  0
VERTEX
  8
0
 10
2.57135
 20
9.42914
 30
0.0
 40
0.0115
 41
0.0115
  0
VERTEX
  8
0
 10
2.55746
 20
9.41976
 30
0.0
 40
0.0115
 41
0.0115
  0
VERTEX
  8
0
 10
2.54807
 20
9.40588
 30
0.0
 40
0.0115
 41
0.0115
  0
VERTEX
  8
0
 10
2.54465
 20
9.38883
 30
0.0
 40
0.0115
 41
0.0115
  0
VERTEX
  8
0
 10
2.54807
 20
9.37185
 30
0.0
 40
0.0115
 41
0.0115
  0
VERTEX
  8
0
 10
2.55746
 20
9.35792
 30
0.0
 40
0.0115
 41
0.0115
  0
VERTEX
  8
0
 10
2.57135
 20
9.34853
 30
0.0
 40
0.0115
 41
0.0115
  0
VERTEX
  8
0
 10
2.58838
 20
9.34506
 30
0.0
 40
0.0115
 41
0.0115
  0
VERTEX
  8
0
 10
2.60536
 20
9.34853
 30
0.0
 40
0.0115
 41
0.0115
  0
VERTEX
  8
0
 10
2.61925
 20
9.35792
 30
0.0
 40
0.0115
 41
0.0115
  0
VERTEX
  8
0
 10
2.62864
 20
9.37185
 30
0.0
 40
0.0115
 41
0.0115
  0
VERTEX
  8
0
 10
2.63211
 20
9.38883
 30
0.0
 40
0.0115
 41
0.0115
  0
VERTEX
  8
0
 10
2.62864
 20
9.40588
 30
0.0
 40
0.0115
 41
0.0115
  0
VERTEX
  8
0
 10
2.61925
 20
9.41976
 30
0.0
 40
0.0115
 41
0.0115
  0
VERTEX
  8
0
 10
2.60536
 20
9.42914
 30
0.0
 40
0.0115
 41
0.0115
  0
VERTEX
  8
0
 10
2.58838
 20
9.43257
 30
0.0
 40
0.0115
 41
0.0115
  0
SEQEND
 8
0
  0
POLYLINE
  8
0
 62
     0
 66
     1
 10
0
 20
0
 30
0.0
 70
     1
 40
0.828
 41
0.828
  0
VERTEX
  8
0
 10
7.24886
 20
9.4369
 30
0.0
 40
0.0115
 41
0.0115
  0
VERTEX
  8
0
 10
7.23182
 20
9.43349
 30
0.0
 40
0.0115
 41
0.0115
  0
VERTEX
  8
0
 10
7.21793
 20
9.4241
 30
0.0
 40
0.0115
 41
0.0115
  0
VERTEX
  8
0
 10
7.20856
 20
9.41021
 30
0.0
 40
0.0115
 41
0.0115
  0
VERTEX
  8
0
 10
7.20514
 20
9.39318
 30
0.0
 40
0.0115
 41
0.0115
  0
VERTEX
  8
0
 10
7.20856
 20
9.37619
 30
0.0
 40
0.0115
 41
0.0115
  0
VERTEX
  8
0
 10
7.21793
 20
9.36231
 30
0.0
 40
0.0115
 41
0.0115
  0
VERTEX
  8
0
 10
7.23182
 20
9.35292
 30
0.0
 40
0.0115
 41
0.0115
  0
VERTEX
  8
0
 10
7.24886
 20
9.34944
 30
0.0
 40
0.0115
 41
0.0115
  0
VERTEX
  8
0
 10
7.2659
 20
9.35292
 30
0.0
 40
0.0115
 41
0.0115
  0
VERTEX
  8
0
 10
7.27979
 20
9.36231
 30
0.0
 40
0.0115
 41
0.0115
  0
VERTEX
  8
0
 10
7.28917
 20
9.37619
 30
0.0
 40
0.0115
 41
0.0115
  0
VERTEX
  8
0
 10
7.29264
 20
9.39318
 30
0.0
 40
0.0115
 41
0.0115
  0
VERTEX
  8
0
 10
7.28917
 20
9.41021
 30
0.0
 40
0.0115
 41
0.0115
  0
VERTEX
  8
0
 10
7.27979
 20
9.4241
 30
0.0
 40
0.0115
 41
0.0115
  0
VERTEX
  8
0
 10
7.2659
 20
9.43349
 30
0.0
 40
0.0115
 41
0.0115
  0
VERTEX
  8
0
 10
7.24886
 20
9.4369
 30
0.0
 40
0.0115
 41
0.0115
  0
SEQEND
 8
0
  0
POLYLINE
  8
0
 62
     0
 66
     1
 10
0
 20
0
 30
0.0
 70
     1
 40
0.828
 41
0.828
  0
VERTEX
  8
0
 10
11.1284
 20
14.7632
 30
0.0
 40
0.0115
 41
0.0115
  0
VERTEX
  8
0
 10
11.1249
 20
14.7803
 30
0.0
 40
0.0115
 41
0.0115
  0
VERTEX
  8
0
 10
11.1156
 20
14.7942
 30
0.0
 40
0.0115
 41
0.0115
  0
VERTEX
  8
0
 10
11.1017
 20
14.8036
 30
0.0
 40
0.0115
 41
0.0115
  0
VERTEX
  8
0
 10
11.0847
 20
14.8069
 30
0.0
 40
0.0115
 41
0.0115
  0
VERTEX
  8
0
 10
11.0676
 20
14.8036
 30
0.0
 40
0.0115
 41
0.0115
  0
VERTEX
  8
0
 10
11.0537
 20
14.7942
 30
0.0
 40
0.0115
 41
0.0115
  0
VERTEX
  8
0
 10
11.0443
 20
14.7803
 30
0.0
 40
0.0115
 41
0.0115
  0
VERTEX
  8
0
 10
11.0409
 20
14.7632
 30
0.0
 40
0.0115
 41
0.0115
  0
VERTEX
  8
0
 10
11.0443
 20
14.7462
 30
0.0
 40
0.0115
 41
0.0115
  0
VERTEX
  8
0
 10
11.0537
 20
14.7324
 30
0.0
 40
0.0115
 41
0.0115
  0
VERTEX
  8
0
 10
11.0676
 20
14.7229
 30
0.0
 40
0.0115
 41
0.0115
  0
VERTEX
  8
0
 10
11.0847
 20
14.7194
 30
0.0
 40
0.0115
 41
0.0115
  0
VERTEX
  8
0
 10
11.1017
 20
14.7229
 30
0.0
 40
0.0115
 41
0.0115
  0
VERTEX
  8
0
 10
11.1156
 20
14.7324
 30
0.0
 40
0.0115
 41
0.0115
  0
VERTEX
  8
0
 10
11.1249
 20
14.7462
 30
0.0
 40
0.0115
 41
0.0115
  0
VERTEX
  8
0
 10
11.1284
 20
14.7632
 30
0.0
 40
0.0115
 41
0.0115
  0
VERTEX
  8
0
 10
11.1284
 20
14.7632
 30
0.0
 40
0.0115
 41
0.0115
  0
SEQEND
 8
0
  0
POLYLINE
  8
0
 62
     0
 66
     1
 10
0
 20
0
 30
0.0
 70
     1
 40
0.828
 41
0.828
  0
VERTEX
  8
0
 10
0.24924
 20
9.64453
 30
0.0
 40
0.0115
 41
0.0115
  0
VERTEX
  8
0
 10
0.23215
 20
9.64111
 30
0.0
 40
0.0115
 41
0.0115
  0
VERTEX
  8
0
 10
0.218261
 20
9.63172
 30
0.0
 40
0.0115
 41
0.0115
  0
VERTEX
  8
0
 10
0.208876
 20
9.61783
 30
0.0
 40
0.0115
 41
0.0115
  0
VERTEX
  8
0
 10
0.205458
 20
9.60081
 30
0.0
 40
0.0115
 41
0.0115
  0
VERTEX
  8
0
 10
0.208876
 20
9.58376
 30
0.0
 40
0.0115
 41
0.0115
  0
VERTEX
  8
0
 10
0.218261
 20
9.56988
 30
0.0
 40
0.0115
 41
0.0115
  0
VERTEX
  8
0
 10
0.23215
 20
9.56049
 30
0.0
 40
0.0115
 41
0.0115
  0
VERTEX
  8
0
 10
0.24924
 20
9.55701
 30
0.0
 40
0.0115
 41
0.0115
  0
VERTEX
  8
0
 10
0.266222
 20
9.56049
 30
0.0
 40
0.0115
 41
0.0115
  0
VERTEX
  8
0
 10
0.280111
 20
9.56988
 30
0.0
 40
0.0115
 41
0.0115
  0
VERTEX
  8
0
 10
0.289497
 20
9.58376
 30
0.0
 40
0.0115
 41
0.0115
  0
VERTEX
  8
0
 10
0.292969
 20
9.60081
 30
0.0
 40
0.0115
 41
0.0115
  0
VERTEX
  8
0
 10
0.289497
 20
9.61783
 30
0.0
 40
0.0115
 41
0.0115
  0
VERTEX
  8
0
 10
0.280111
 20
9.63172
 30
0.0
 40
0.0115
 41
0.0115
  0
VERTEX
  8
0
 10
0.266222
 20
9.64111
 30
0.0
 40
0.0115
 41
0.0115
  0
VERTEX
  8
0
 10
0.24924
 20
9.64453
 30
0.0
 40
0.0115
 41
0.0115
  0
SEQEND
 8
0
  0
POLYLINE
  8
0
 62
     0
 66
     1
 10
0
 20
0
 30
0.0
 70
     1
 40
0.828
 41
0.828
  0
VERTEX
  8
0
 10
4.90972
 20
9.64882
 30
0.0
 40
0.0115
 41
0.0115
  0
VERTEX
  8
0
 10
4.89268
 20
9.6454
 30
0.0
 40
0.0115
 41
0.0115
  0
VERTEX
  8
0
 10
4.87879
 20
9.63601
 30
0.0
 40
0.0115
 41
0.0115
  0
VERTEX
  8
0
 10
4.86942
 20
9.62213
 30
0.0
 40
0.0115
 41
0.0115
  0
VERTEX
  8
0
 10
4.866
 20
9.60508
 30
0.0
 40
0.0115
 41
0.0115
  0
VERTEX
  8
0
 10
4.86942
 20
9.58806
 30
0.0
 40
0.0115
 41
0.0115
  0
VERTEX
  8
0
 10
4.87879
 20
9.57417
 30
0.0
 40
0.0115
 41
0.0115
  0
VERTEX
  8
0
 10
4.89268
 20
9.56478
 30
0.0
 40
0.0115
 41
0.0115
  0
VERTEX
  8
0
 10
4.90972
 20
9.56131
 30
0.0
 40
0.0115
 41
0.0115
  0
VERTEX
  8
0
 10
4.92671
 20
9.56478
 30
0.0
 40
0.0115
 41
0.0115
  0
VERTEX
  8
0
 10
4.9406
 20
9.57417
 30
0.0
 40
0.0115
 41
0.0115
  0
VERTEX
  8
0
 10
4.94997
 20
9.58806
 30
0.0
 40
0.0115
 41
0.0115
  0
VERTEX
  8
0
 10
4.95344
 20
9.60508
 30
0.0
 40
0.0115
 41
0.0115
  0
VERTEX
  8
0
 10
4.94997
 20
9.62213
 30
0.0
 40
0.0115
 41
0.0115
  0
VERTEX
  8
0
 10
4.9406
 20
9.63601
 30
0.0
 40
0.0115
 41
0.0115
  0
VERTEX
  8
0
 10
4.92671
 20
9.6454
 30
0.0
 40
0.0115
 41
0.0115
  0
VERTEX
  8
0
 10
4.90972
 20
9.64882
 30
0.0
 40
0.0115
 41
0.0115
  0
SEQEND
 8
0
  0
POLYLINE
  8
0
 62
     0
 66
     1
 10
0
 20
0
 30
0.0
 70
     1
 40
0.828
 41
0.828
  0
VERTEX
  8
0
 10
9.57021
 20
9.65315
 30
0.0
 40
0.0115
 41
0.0115
  0
VERTEX
  8
0
 10
9.55317
 20
9.64974
 30
0.0
 40
0.0115
 41
0.0115
  0
VERTEX
  8
0
 10
9.53928
 20
9.64035
 30
0.0
 40
0.0115
 41
0.0115
  0
VERTEX
  8
0
 10
9.52989
 20
9.62646
 30
0.0
 40
0.0115
 41
0.0115
  0
VERTEX
  8
0
 10
9.52647
 20
9.60943
 30
0.0
 40
0.0115
 41
0.0115
  0
VERTEX
  8
0
 10
9.52989
 20
9.59244
 30
0.0
 40
0.0115
 41
0.0115
  0
VERTEX
  8
0
 10
9.53928
 20
9.57856
 30
0.0
 40
0.0115
 41
0.0115
  0
VERTEX
  8
0
 10
9.55317
 20
9.56917
 30
0.0
 40
0.0115
 41
0.0115
  0
VERTEX
  8
0
 10
9.57021
 20
9.56569
 30
0.0
 40
0.0115
 41
0.0115
  0
VERTEX
  8
0
 10
9.58724
 20
9.56917
 30
0.0
 40
0.0115
 41
0.0115
  0
VERTEX
  8
0
 10
9.60113
 20
9.57856
 30
0.0
 40
0.0115
 41
0.0115
  0
VERTEX
  8
0
 10
9.61051
 20
9.59244
 30
0.0
 40
0.0115
 41
0.0115
  0
VERTEX
  8
0
 10
9.61399
 20
9.60943
 30
0.0
 40
0.0115
 41
0.0115
  0
VERTEX
  8
0
 10
9.61051
 20
9.62646
 30
0.0
 40
0.0115
 41
0.0115
  0
VERTEX
  8
0
 10
9.60113
 20
9.64035
 30
0.0
 40
0.0115
 41
0.0115
  0
VERTEX
  8
0
 10
9.58724
 20
9.64974
 30
0.0
 40
0.0115
 41
0.0115
  0
VERTEX
  8
0
 10
9.57021
 20
9.65315
 30
0.0
 40
0.0115
 41
0.0115
  0
SEQEND
 8
0
  0
POLYLINE
  8
0
 62
     0
 66
     1
 10
0
 20
0
 30
0.0
 70
     1
 40
0.828
 41
0.828
  0
VERTEX
  8
0
 10
11.3447
 20
12.4419
 30
0.0
 40
0.0115
 41
0.0115
  0
VERTEX
  8
0
 10
11.3412
 20
12.4589
 30
0.0
 40
0.0115
 41
0.0115
  0
VERTEX
  8
0
 10
11.3318
 20
12.4728
 30
0.0
 40
0.0115
 41
0.0115
  0
VERTEX
  8
0
 10
11.3179
 20
12.4822
 30
0.0
 40
0.0115
 41
0.0115
  0
VERTEX
  8
0
 10
11.3009
 20
12.4856
 30
0.0
 40
0.0115
 41
0.0115
  0
VERTEX
  8
0
 10
11.2839
 20
12.4822
 30
0.0
 40
0.0115
 41
0.0115
  0
VERTEX
  8
0
 10
11.27
 20
12.4728
 30
0.0
 40
0.0115
 41
0.0115
  0
VERTEX
  8
0
 10
11.2606
 20
12.4589
 30
0.0
 40
0.0115
 41
0.0115
  0
VERTEX
  8
0
 10
11.2572
 20
12.4419
 30
0.0
 40
0.0115
 41
0.0115
  0
VERTEX
  8
0
 10
11.2606
 20
12.4249
 30
0.0
 40
0.0115
 41
0.0115
  0
VERTEX
  8
0
 10
11.27
 20
12.411
 30
0.0
 40
0.0115
 41
0.0115
  0
VERTEX
  8
0
 10
11.2839
 20
12.4016
 30
0.0
 40
0.0115
 41
0.0115
  0
VERTEX
  8
0
 10
11.3009
 20
12.3981
 30
0.0
 40
0.0115
 41
0.0115
  0
VERTEX
  8
0
 10
11.3179
 20
12.4016
 30
0.0
 40
0.0115
 41
0.0115
  0
VERTEX
  8
0
 10
11.3318
 20
12.411
 30
0.0
 40
0.0115
 41
0.0115
  0
VERTEX
  8
0
 10
11.3412
 20
12.4249
 30
0.0
 40
0.0115
 41
0.0115
  0
VERTEX
  8
0
 10
11.3447
 20
12.4419
 30
0.0
 40
0.0115
 41
0.0115
  0
SEQEND
 8
0
  0
POLYLINE
  8
0
 62
     0
 66
     1
 10
0
 20
0
 30
0.0
 70
     1
 40
0.828
 41
0.828
  0
VERTEX
  8
0
 10
2.58838
 20
9.64512
 30
0.0
 40
0.0115
 41
0.0115
  0
VERTEX
  8
0
 10
2.57135
 20
9.64171
 30
0.0
 40
0.0115
 41
0.0115
  0
VERTEX
  8
0
 10
2.55746
 20
9.63232
 30
0.0
 40
0.0115
 41
0.0115
  0
VERTEX
  8
0
 10
2.54807
 20
9.61843
 30
0.0
 40
0.0115
 41
0.0115
  0
VERTEX
  8
0
 10
2.54465
 20
9.6014
 30
0.0
 40
0.0115
 41
0.0115
  0
VERTEX
  8
0
 10
2.54807
 20
9.58436
 30
0.0
 40
0.0115
 41
0.0115
  0
VERTEX
  8
0
 10
2.55746
 20
9.57047
 30
0.0
 40
0.0115
 41
0.0115
  0
VERTEX
  8
0
 10
2.57135
 20
9.56108
 30
0.0
 40
0.0115
 41
0.0115
  0
VERTEX
  8
0
 10
2.58838
 20
9.55761
 30
0.0
 40
0.0115
 41
0.0115
  0
VERTEX
  8
0
 10
2.60536
 20
9.56108
 30
0.0
 40
0.0115
 41
0.0115
  0
VERTEX
  8
0
 10
2.61925
 20
9.57047
 30
0.0
 40
0.0115
 41
0.0115
  0
VERTEX
  8
0
 10
2.62864
 20
9.58436
 30
0.0
 40
0.0115
 41
0.0115
  0
VERTEX
  8
0
 10
2.63211
 20
9.6014
 30
0.0
 40
0.0115
 41
0.0115
  0
VERTEX
  8
0
 10
2.62864
 20
9.61843
 30
0.0
 40
0.0115
 41
0.0115
  0
VERTEX
  8
0
 10
2.61925
 20
9.63232
 30
0.0
 40
0.0115
 41
0.0115
  0
VERTEX
  8
0
 10
2.60536
 20
9.64171
 30
0.0
 40
0.0115
 41
0.0115
  0
VERTEX
  8
0
 10
2.58838
 20
9.64512
 30
0.0
 40
0.0115
 41
0.0115
  0
SEQEND
 8
0
  0
POLYLINE
  8
0
 62
     0
 66
     1
 10
0
 20
0
 30
0.0
 70
     1
 40
0.828
 41
0.828
  0
VERTEX
  8
0
 10
7.24886
 20
9.64942
 30
0.0
 40
0.0115
 41
0.0115
  0
VERTEX
  8
0
 10
7.23182
 20
9.646
 30
0.0
 40
0.0115
 41
0.0115
  0
VERTEX
  8
0
 10
7.21793
 20
9.63661
 30
0.0
 40
0.0115
 41
0.0115
  0
VERTEX
  8
0
 10
7.20856
 20
9.62272
 30
0.0
 40
0.0115
 41
0.0115
  0
VERTEX
  8
0
 10
7.20514
 20
9.60568
 30
0.0
 40
0.0115
 41
0.0115
  0
VERTEX
  8
0
 10
7.20856
 20
9.58865
 30
0.0
 40
0.0115
 41
0.0115
  0
VERTEX
  8
0
 10
7.21793
 20
9.57476
 30
0.0
 40
0.0115
 41
0.0115
  0
VERTEX
  8
0
 10
7.23182
 20
9.56537
 30
0.0
 40
0.0115
 41
0.0115
  0
VERTEX
  8
0
 10
7.24886
 20
9.5619
 30
0.0
 40
0.0115
 41
0.0115
  0
VERTEX
  8
0
 10
7.2659
 20
9.56537
 30
0.0
 40
0.0115
 41
0.0115
  0
VERTEX
  8
0
 10
7.27979
 20
9.57476
 30
0.0
 40
0.0115
 41
0.0115
  0
VERTEX
  8
0
 10
7.28917
 20
9.58865
 30
0.0
 40
0.0115
 41
0.0115
  0
VERTEX
  8
0
 10
7.29264
 20
9.60568
 30
0.0
 40
0.0115
 41
0.0115
  0
VERTEX
  8
0
 10
7.28917
 20
9.62272
 30
0.0
 40
0.0115
 41
0.0115
  0
VERTEX
  8
0
 10
7.27979
 20
9.63661
 30
0.0
 40
0.0115
 41
0.0115
  0
VERTEX
  8
0
 10
7.2659
 20
9.646
 30
0.0
 40
0.0115
 41
0.0115
  0
VERTEX
  8
0
 10
7.24886
 20
9.64942
 30
0.0
 40
0.0115
 41
0.0115
  0
SEQEND
 8
0
  0
POLYLINE
  8
0
 62
     0
 66
     1
 10
0
 20
0
 30
0.0
 70
     1
 40
0.828
 41
0.828
  0
VERTEX
  8
0
 10
11.3409
 20
14.7632
 30
0.0
 40
0.0115
 41
0.0115
  0
VERTEX
  8
0
 10
11.3375
 20
14.7803
 30
0.0
 40
0.0115
 41
0.0115
  0
VERTEX
  8
0
 10
11.3281
 20
14.7942
 30
0.0
 40
0.0115
 41
0.0115
  0
VERTEX
  8
0
 10
11.3142
 20
14.8036
 30
0.0
 40
0.0115
 41
0.0115
  0
VERTEX
  8
0
 10
11.2972
 20
14.8069
 30
0.0
 40
0.0115
 41
0.0115
  0
VERTEX
  8
0
 10
11.2801
 20
14.8036
 30
0.0
 40
0.0115
 41
0.0115
  0
VERTEX
  8
0
 10
11.2662
 20
14.7942
 30
0.0
 40
0.0115
 41
0.0115
  0
VERTEX
  8
0
 10
11.2568
 20
14.7803
 30
0.0
 40
0.0115
 41
0.0115
  0
VERTEX
  8
0
 10
11.2534
 20
14.7632
 30
0.0
 40
0.0115
 41
0.0115
  0
VERTEX
  8
0
 10
11.2568
 20
14.7462
 30
0.0
 40
0.0115
 41
0.0115
  0
VERTEX
  8
0
 10
11.2662
 20
14.7324
 30
0.0
 40
0.0115
 41
0.0115
  0
VERTEX
  8
0
 10
11.2801
 20
14.7229
 30
0.0
 40
0.0115
 41
0.0115
  0
VERTEX
  8
0
 10
11.2972
 20
14.7194
 30
0.0
 40
0.0115
 41
0.0115
  0
VERTEX
  8
0
 10
11.3142
 20
14.7229
 30
0.0
 40
0.0115
 41
0.0115
  0
VERTEX
  8
0
 10
11.3281
 20
14.7324
 30
0.0
 40
0.0115
 41
0.0115
  0
VERTEX
  8
0
 10
11.3375
 20
14.7462
 30
0.0
 40
0.0115
 41
0.0115
  0
VERTEX
  8
0
 10
11.3409
 20
14.7632
 30
0.0
 40
0.0115
 41
0.0115
  0
VERTEX
  8
0
 10
11.3409
 20
14.7632
 30
0.0
 40
0.0115
 41
0.0115
  0
SEQEND
 8
0
  0
POLYLINE
  8
0
 62
     0
 66
     1
 10
0
 20
0
 30
0.0
 70
     1
 40
0.828
 41
0.828
  0
VERTEX
  8
0
 10
0.48546
 20
9.59999
 30
0.0
 40
0.0115
 41
0.0115
  0
VERTEX
  8
0
 10
0.465224
 20
9.59169
 30
0.0
 40
0.0115
 41
0.0115
  0
VERTEX
  8
0
 10
0.456922
 20
9.57146
 30
0.0
 40
0.0115
 41
0.0115
  0
VERTEX
  8
0
 10
0.465224
 20
9.55132
 30
0.0
 40
0.0115
 41
0.0115
  0
VERTEX
  8
0
 10
0.48546
 20
9.54297
 30
0.0
 40
0.0115
 41
0.0115
  0
VERTEX
  8
0
 10
0.505588
 20
9.55132
 30
0.0
 40
0.0115
 41
0.0115
  0
VERTEX
  8
0
 10
0.513943
 20
9.57146
 30
0.0
 40
0.0115
 41
0.0115
  0
VERTEX
  8
0
 10
0.505588
 20
9.59169
 30
0.0
 40
0.0115
 41
0.0115
  0
VERTEX
  8
0
 10
0.48546
 20
9.59999
 30
0.0
 40
0.0115
 41
0.0115
  0
SEQEND
 8
0
  0
POLYLINE
  8
0
 62
     0
 66
     1
 10
0
 20
0
 30
0.0
 70
     1
 40
0.828
 41
0.828
  0
VERTEX
  8
0
 10
5.14594
 20
9.60428
 30
0.0
 40
0.0115
 41
0.0115
  0
VERTEX
  8
0
 10
5.12576
 20
9.59597
 30
0.0
 40
0.0115
 41
0.0115
  0
VERTEX
  8
0
 10
5.1174
 20
9.57579
 30
0.0
 40
0.0115
 41
0.0115
  0
VERTEX
  8
0
 10
5.12576
 20
9.55567
 30
0.0
 40
0.0115
 41
0.0115
  0
VERTEX
  8
0
 10
5.14594
 20
9.54725
 30
0.0
 40
0.0115
 41
0.0115
  0
VERTEX
  8
0
 10
5.16607
 20
9.55567
 30
0.0
 40
0.0115
 41
0.0115
  0
VERTEX
  8
0
 10
5.17443
 20
9.57579
 30
0.0
 40
0.0115
 41
0.0115
  0
VERTEX
  8
0
 10
5.16607
 20
9.59597
 30
0.0
 40
0.0115
 41
0.0115
  0
VERTEX
  8
0
 10
5.14594
 20
9.60428
 30
0.0
 40
0.0115
 41
0.0115
  0
SEQEND
 8
0
  0
POLYLINE
  8
0
 62
     0
 66
     1
 10
0
 20
0
 30
0.0
 70
     1
 40
0.828
 41
0.828
  0
VERTEX
  8
0
 10
9.80642
 20
9.60856
 30
0.0
 40
0.0115
 41
0.0115
  0
VERTEX
  8
0
 10
9.78624
 20
9.60026
 30
0.0
 40
0.0115
 41
0.0115
  0
VERTEX
  8
0
 10
9.77794
 20
9.58008
 30
0.0
 40
0.0115
 41
0.0115
  0
VERTEX
  8
0
 10
9.78624
 20
9.55994
 30
0.0
 40
0.0115
 41
0.0115
  0
VERTEX
  8
0
 10
9.80642
 20
9.5516
 30
0.0
 40
0.0115
 41
0.0115
  0
VERTEX
  8
0
 10
9.82656
 20
9.55994
 30
0.0
 40
0.0115
 41
0.0115
  0
VERTEX
  8
0
 10
9.8349
 20
9.58008
 30
0.0
 40
0.0115
 41
0.0115
  0
VERTEX
  8
0
 10
9.82656
 20
9.60026
 30
0.0
 40
0.0115
 41
0.0115
  0
VERTEX
  8
0
 10
9.80642
 20
9.60856
 30
0.0
 40
0.0115
 41
0.0115
  0
SEQEND
 8
0
  0
POLYLINE
  8
0
 62
     0
 66
     1
 10
0
 20
0
 30
0.0
 70
     1
 40
0.828
 41
0.828
  0
VERTEX
  8
0
 10
11.3001
 20
12.2057
 30
0.0
 40
0.0115
 41
0.0115
  0
VERTEX
  8
0
 10
11.2918
 20
12.2259
 30
0.0
 40
0.0115
 41
0.0115
  0
VERTEX
  8
0
 10
11.2717
 20
12.2342
 30
0.0
 40
0.0115
 41
0.0115
  0
VERTEX
  8
0
 10
11.2514
 20
12.2259
 30
0.0
 40
0.0115
 41
0.0115
  0
VERTEX
  8
0
 10
11.2431
 20
12.2057
 30
0.0
 40
0.0115
 41
0.0115
  0
VERTEX
  8
0
 10
11.2514
 20
12.1855
 30
0.0
 40
0.0115
 41
0.0115
  0
VERTEX
  8
0
 10
11.2717
 20
12.1771
 30
0.0
 40
0.0115
 41
0.0115
  0
VERTEX
  8
0
 10
11.2918
 20
12.1855
 30
0.0
 40
0.0115
 41
0.0115
  0
VERTEX
  8
0
 10
11.3001
 20
12.2057
 30
0.0
 40
0.0115
 41
0.0115
  0
SEQEND
 8
0
  0
POLYLINE
  8
0
 62
     0
 66
     1
 10
0
 20
0
 30
0.0
 70
     1
 40
0.828
 41
0.828
  0
VERTEX
  8
0
 10
2.8246
 20
9.60058
 30
0.0
 40
0.0115
 41
0.0115
  0
VERTEX
  8
0
 10
2.80442
 20
9.59229
 30
0.0
 40
0.0115
 41
0.0115
  0
VERTEX
  8
0
 10
2.79611
 20
9.5721
 30
0.0
 40
0.0115
 41
0.0115
  0
VERTEX
  8
0
 10
2.80442
 20
9.55192
 30
0.0
 40
0.0115
 41
0.0115
  0
VERTEX
  8
0
 10
2.8246
 20
9.54357
 30
0.0
 40
0.0115
 41
0.0115
  0
VERTEX
  8
0
 10
2.84472
 20
9.55192
 30
0.0
 40
0.0115
 41
0.0115
  0
VERTEX
  8
0
 10
2.85308
 20
9.5721
 30
0.0
 40
0.0115
 41
0.0115
  0
VERTEX
  8
0
 10
2.84472
 20
9.59229
 30
0.0
 40
0.0115
 41
0.0115
  0
VERTEX
  8
0
 10
2.8246
 20
9.60058
 30
0.0
 40
0.0115
 41
0.0115
  0
SEQEND
 8
0
  0
POLYLINE
  8
0
 62
     0
 66
     1
 10
0
 20
0
 30
0.0
 70
     1
 40
0.828
 41
0.828
  0
VERTEX
  8
0
 10
7.48514
 20
9.60488
 30
0.0
 40
0.0115
 41
0.0115
  0
VERTEX
  8
0
 10
7.46496
 20
9.59657
 30
0.0
 40
0.0115
 41
0.0115
  0
VERTEX
  8
0
 10
7.4566
 20
9.57639
 30
0.0
 40
0.0115
 41
0.0115
  0
VERTEX
  8
0
 10
7.46496
 20
9.55626
 30
0.0
 40
0.0115
 41
0.0115
  0
VERTEX
  8
0
 10
7.48514
 20
9.54785
 30
0.0
 40
0.0115
 41
0.0115
  0
VERTEX
  8
0
 10
7.50526
 20
9.55626
 30
0.0
 40
0.0115
 41
0.0115
  0
VERTEX
  8
0
 10
7.51361
 20
9.57639
 30
0.0
 40
0.0115
 41
0.0115
  0
VERTEX
  8
0
 10
7.50526
 20
9.59657
 30
0.0
 40
0.0115
 41
0.0115
  0
VERTEX
  8
0
 10
7.48514
 20
9.60488
 30
0.0
 40
0.0115
 41
0.0115
  0
SEQEND
 8
0
  0
POLYLINE
  8
0
 62
     0
 66
     1
 10
0
 20
0
 30
0.0
 70
     1
 40
0.828
 41
0.828
  0
VERTEX
  8
0
 10
11.2964
 20
14.5271
 30
0.0
 40
0.0115
 41
0.0115
  0
VERTEX
  8
0
 10
11.288
 20
14.5472
 30
0.0
 40
0.0115
 41
0.0115
  0
VERTEX
  8
0
 10
11.2678
 20
14.5556
 30
0.0
 40
0.0115
 41
0.0115
  0
VERTEX
  8
0
 10
11.2477
 20
14.5472
 30
0.0
 40
0.0115
 41
0.0115
  0
VERTEX
  8
0
 10
11.2394
 20
14.5271
 30
0.0
 40
0.0115
 41
0.0115
  0
VERTEX
  8
0
 10
11.2477
 20
14.5068
 30
0.0
 40
0.0115
 41
0.0115
  0
VERTEX
  8
0
 10
11.2678
 20
14.4985
 30
0.0
 40
0.0115
 41
0.0115
  0
VERTEX
  8
0
 10
11.288
 20
14.5068
 30
0.0
 40
0.0115
 41
0.0115
  0
VERTEX
  8
0
 10
11.2964
 20
14.5271
 30
0.0
 40
0.0115
 41
0.0115
  0
SEQEND
 8
0
  0
POLYLINE
  8
0
 62
     0
 66
     1
 10
0
 20
0
 30
0.0
 70
     1
 40
0.828
 41
0.828
  0
VERTEX
  8
0
 10
0.488064
 20
10.0326
 30
0.0
 40
0.0115
 41
0.0115
  0
VERTEX
  8
0
 10
0.467882
 20
10.0242
 30
0.0
 40
0.0115
 41
0.0115
  0
VERTEX
  8
0
 10
0.459526
 20
10.004
 30
0.0
 40
0.0115
 41
0.0115
  0
VERTEX
  8
0
 10
0.467882
 20
9.98389
 30
0.0
 40
0.0115
 41
0.0115
  0
VERTEX
  8
0
 10
0.488064
 20
9.97553
 30
0.0
 40
0.0115
 41
0.0115
  0
VERTEX
  8
0
 10
0.508192
 20
9.98389
 30
0.0
 40
0.0115
 41
0.0115
  0
VERTEX
  8
0
 10
0.516547
 20
10.004
 30
0.0
 40
0.0115
 41
0.0115
  0
VERTEX
  8
0
 10
0.508192
 20
10.0242
 30
0.0
 40
0.0115
 41
0.0115
  0
VERTEX
  8
0
 10
0.488064
 20
10.0326
 30
0.0
 40
0.0115
 41
0.0115
  0
VERTEX
  8
0
 10
0.488064
 20
10.0326
 30
0.0
 40
0.0115
 41
0.0115
  0
SEQEND
 8
0
  0
POLYLINE
  8
0
 62
     0
 66
     1
 10
0
 20
0
 30
0.0
 70
     1
 40
0.828
 41
0.828
  0
VERTEX
  8
0
 10
5.14854
 20
10.0368
 30
0.0
 40
0.0115
 41
0.0115
  0
VERTEX
  8
0
 10
5.12836
 20
10.0285
 30
0.0
 40
0.0115
 41
0.0115
  0
VERTEX
  8
0
 10
5.12007
 20
10.0084
 30
0.0
 40
0.0115
 41
0.0115
  0
VERTEX
  8
0
 10
5.12836
 20
9.98822
 30
0.0
 40
0.0115
 41
0.0115
  0
VERTEX
  8
0
 10
5.14854
 20
9.97982
 30
0.0
 40
0.0115
 41
0.0115
  0
VERTEX
  8
0
 10
5.16872
 20
9.98822
 30
0.0
 40
0.0115
 41
0.0115
  0
VERTEX
  8
0
 10
5.17708
 20
10.0084
 30
0.0
 40
0.0115
 41
0.0115
  0
VERTEX
  8
0
 10
5.16872
 20
10.0285
 30
0.0
 40
0.0115
 41
0.0115
  0
VERTEX
  8
0
 10
5.14854
 20
10.0368
 30
0.0
 40
0.0115
 41
0.0115
  0
SEQEND
 8
0
  0
POLYLINE
  8
0
 62
     0
 66
     1
 10
0
 20
0
 30
0.0
 70
     1
 40
0.828
 41
0.828
  0
VERTEX
  8
0
 10
9.80908
 20
10.0412
 30
0.0
 40
0.0115
 41
0.0115
  0
VERTEX
  8
0
 10
9.7889
 20
10.0328
 30
0.0
 40
0.0115
 41
0.0115
  0
VERTEX
  8
0
 10
9.7806
 20
10.0126
 30
0.0
 40
0.0115
 41
0.0115
  0
VERTEX
  8
0
 10
9.7889
 20
9.99251
 30
0.0
 40
0.0115
 41
0.0115
  0
VERTEX
  8
0
 10
9.80908
 20
9.98415
 30
0.0
 40
0.0115
 41
0.0115
  0
VERTEX
  8
0
 10
9.82921
 20
9.99251
 30
0.0
 40
0.0115
 41
0.0115
  0
VERTEX
  8
0
 10
9.83757
 20
10.0126
 30
0.0
 40
0.0115
 41
0.0115
  0
VERTEX
  8
0
 10
9.82921
 20
10.0328
 30
0.0
 40
0.0115
 41
0.0115
  0
VERTEX
  8
0
 10
9.80908
 20
10.0412
 30
0.0
 40
0.0115
 41
0.0115
  0
SEQEND
 8
0
  0
POLYLINE
  8
0
 62
     0
 66
     1
 10
0
 20
0
 30
0.0
 70
     1
 40
0.828
 41
0.828
  0
VERTEX
  8
0
 10
11.7327
 20
12.2031
 30
0.0
 40
0.0115
 41
0.0115
  0
VERTEX
  8
0
 10
11.7243
 20
12.2232
 30
0.0
 40
0.0115
 41
0.0115
  0
VERTEX
  8
0
 10
11.7042
 20
12.2316
 30
0.0
 40
0.0115
 41
0.0115
  0
VERTEX
  8
0
 10
11.684
 20
12.2232
 30
0.0
 40
0.0115
 41
0.0115
  0
VERTEX
  8
0
 10
11.6757
 20
12.2031
 30
0.0
 40
0.0115
 41
0.0115
  0
VERTEX
  8
0
 10
11.684
 20
12.1829
 30
0.0
 40
0.0115
 41
0.0115
  0
VERTEX
  8
0
 10
11.7042
 20
12.1745
 30
0.0
 40
0.0115
 41
0.0115
  0
VERTEX
  8
0
 10
11.7243
 20
12.1829
 30
0.0
 40
0.0115
 41
0.0115
  0
VERTEX
  8
0
 10
11.7327
 20
12.2031
 30
0.0
 40
0.0115
 41
0.0115
  0
SEQEND
 8
0
  0
POLYLINE
  8
0
 62
     0
 66
     1
 10
0
 20
0
 30
0.0
 70
     1
 40
0.828
 41
0.828
  0
VERTEX
  8
0
 10
2.82721
 20
10.0331
 30
0.0
 40
0.0115
 41
0.0115
  0
VERTEX
  8
0
 10
2.80701
 20
10.0248
 30
0.0
 40
0.0115
 41
0.0115
  0
VERTEX
  8
0
 10
2.79872
 20
10.0046
 30
0.0
 40
0.0115
 41
0.0115
  0
VERTEX
  8
0
 10
2.80701
 20
9.98449
 30
0.0
 40
0.0115
 41
0.0115
  0
VERTEX
  8
0
 10
2.82721
 20
9.97613
 30
0.0
 40
0.0115
 41
0.0115
  0
VERTEX
  8
0
 10
2.84733
 20
9.98449
 30
0.0
 40
0.0115
 41
0.0115
  0
VERTEX
  8
0
 10
2.85574
 20
10.0046
 30
0.0
 40
0.0115
 41
0.0115
  0
VERTEX
  8
0
 10
2.84733
 20
10.0248
 30
0.0
 40
0.0115
 41
0.0115
  0
VERTEX
  8
0
 10
2.82721
 20
10.0331
 30
0.0
 40
0.0115
 41
0.0115
  0
SEQEND
 8
0
  0
POLYLINE
  8
0
 62
     0
 66
     1
 10
0
 20
0
 30
0.0
 70
     1
 40
0.828
 41
0.828
  0
VERTEX
  8
0
 10
7.48774
 20
10.0374
 30
0.0
 40
0.0115
 41
0.0115
  0
VERTEX
  8
0
 10
7.46756
 20
10.0291
 30
0.0
 40
0.0115
 41
0.0115
  0
VERTEX
  8
0
 10
7.45919
 20
10.009
 30
0.0
 40
0.0115
 41
0.0115
  0
VERTEX
  8
0
 10
7.46756
 20
9.98882
 30
0.0
 40
0.0115
 41
0.0115
  0
VERTEX
  8
0
 10
7.48774
 20
9.98042
 30
0.0
 40
0.0115
 41
0.0115
  0
VERTEX
  8
0
 10
7.50786
 20
9.98882
 30
0.0
 40
0.0115
 41
0.0115
  0
VERTEX
  8
0
 10
7.51622
 20
10.009
 30
0.0
 40
0.0115
 41
0.0115
  0
VERTEX
  8
0
 10
7.50786
 20
10.0291
 30
0.0
 40
0.0115
 41
0.0115
  0
VERTEX
  8
0
 10
7.48774
 20
10.0374
 30
0.0
 40
0.0115
 41
0.0115
  0
SEQEND
 8
0
  0
POLYLINE
  8
0
 62
     0
 66
     1
 10
0
 20
0
 30
0.0
 70
     1
 40
0.828
 41
0.828
  0
VERTEX
  8
0
 10
11.7289
 20
14.5243
 30
0.0
 40
0.0115
 41
0.0115
  0
VERTEX
  8
0
 10
11.7205
 20
14.5446
 30
0.0
 40
0.0115
 41
0.0115
  0
VERTEX
  8
0
 10
11.7004
 20
14.5529
 30
0.0
 40
0.0115
 41
0.0115
  0
VERTEX
  8
0
 10
11.6802
 20
14.5446
 30
0.0
 40
0.0115
 41
0.0115
  0
VERTEX
  8
0
 10
11.6719
 20
14.5243
 30
0.0
 40
0.0115
 41
0.0115
  0
VERTEX
  8
0
 10
11.6802
 20
14.5042
 30
0.0
 40
0.0115
 41
0.0115
  0
VERTEX
  8
0
 10
11.7004
 20
14.4958
 30
0.0
 40
0.0115
 41
0.0115
  0
VERTEX
  8
0
 10
11.7205
 20
14.5042
 30
0.0
 40
0.0115
 41
0.0115
  0
VERTEX
  8
0
 10
11.7289
 20
14.5243
 30
0.0
 40
0.0115
 41
0.0115
  0
SEQEND
 8
0
  0
POLYLINE
  8
0
 62
     0
 66
     1
 10
0
 20
0
 30
0.0
 70
     1
 40
0.828
 41
0.828
  0
VERTEX
  8
0
 10
1.59233
 20
9.29536
 30
0.0
 40
0.0115
 41
0.0115
  0
VERTEX
  8
0
 10
1.59233
 20
9.42671
 30
0.0
 40
0.0115
 41
0.0115
  0
VERTEX
  8
0
 10
1.47483
 20
9.42671
 30
0.0
 40
0.0115
 41
0.0115
  0
VERTEX
  8
0
 10
1.47483
 20
9.558
 30
0.0
 40
0.0115
 41
0.0115
  0
VERTEX
  8
0
 10
1.59233
 20
9.558
 30
0.0
 40
0.0115
 41
0.0115
  0
VERTEX
  8
0
 10
1.59233
 20
9.68929
 30
0.0
 40
0.0115
 41
0.0115
  0
VERTEX
  8
0
 10
1.03711
 20
9.68929
 30
0.0
 40
0.0115
 41
0.0115
  0
VERTEX
  8
0
 10
1.03711
 20
9.29536
 30
0.0
 40
0.0115
 41
0.0115
  0
VERTEX
  8
0
 10
1.59233
 20
9.29536
 30
0.0
 40
0.0115
 41
0.0115
  0
SEQEND
 8
0
  0
POLYLINE
  8
0
 62
     0
 66
     1
 10
0
 20
0
 30
0.0
 70
     1
 40
0.828
 41
0.828
  0
VERTEX
  8
0
 10
6.25282
 20
9.29969
 30
0.0
 40
0.0115
 41
0.0115
  0
VERTEX
  8
0
 10
6.25282
 20
9.43099
 30
0.0
 40
0.0115
 41
0.0115
  0
VERTEX
  8
0
 10
6.13531
 20
9.43099
 30
0.0
 40
0.0115
 41
0.0115
  0
VERTEX
  8
0
 10
6.13531
 20
9.56228
 30
0.0
 40
0.0115
 41
0.0115
  0
VERTEX
  8
0
 10
6.25282
 20
9.56228
 30
0.0
 40
0.0115
 41
0.0115
  0
VERTEX
  8
0
 10
6.25282
 20
9.69358
 30
0.0
 40
0.0115
 41
0.0115
  0
VERTEX
  8
0
 10
5.6976
 20
9.69358
 30
0.0
 40
0.0115
 41
0.0115
  0
VERTEX
  8
0
 10
5.6976
 20
9.29969
 30
0.0
 40
0.0115
 41
0.0115
  0
VERTEX
  8
0
 10
6.25282
 20
9.29969
 30
0.0
 40
0.0115
 41
0.0115
  0
SEQEND
 8
0
  0
POLYLINE
  8
0
 62
     0
 66
     1
 10
0
 20
0
 30
0.0
 70
     1
 40
0.828
 41
0.828
  0
VERTEX
  8
0
 10
10.9133
 20
9.30399
 30
0.0
 40
0.0115
 41
0.0115
  0
VERTEX
  8
0
 10
10.9133
 20
9.43528
 30
0.0
 40
0.0115
 41
0.0115
  0
VERTEX
  8
0
 10
10.7958
 20
9.43528
 30
0.0
 40
0.0115
 41
0.0115
  0
VERTEX
  8
0
 10
10.7958
 20
9.56657
 30
0.0
 40
0.0115
 41
0.0115
  0
VERTEX
  8
0
 10
10.9133
 20
9.56657
 30
0.0
 40
0.0115
 41
0.0115
  0
VERTEX
  8
0
 10
10.9133
 20
9.69786
 30
0.0
 40
0.0115
 41
0.0115
  0
VERTEX
  8
0
 10
10.3581
 20
9.69786
 30
0.0
 40
0.0115
 41
0.0115
  0
VERTEX
  8
0
 10
10.3581
 20
9.30399
 30
0.0
 40
0.0115
 41
0.0115
  0
VERTEX
  8
0
 10
10.9133
 20
9.30399
 30
0.0
 40
0.0115
 41
0.0115
  0
SEQEND
 8
0
  0
POLYLINE
  8
0
 62
     0
 66
     1
 10
0
 20
0
 30
0.0
 70
     1
 40
0.828
 41
0.828
  0
VERTEX
  8
0
 10
10.9955
 20
11.0987
 30
0.0
 40
0.0115
 41
0.0115
  0
VERTEX
  8
0
 10
11.1268
 20
11.0987
 30
0.0
 40
0.0115
 41
0.0115
  0
VERTEX
  8
0
 10
11.1268
 20
11.2163
 30
0.0
 40
0.0115
 41
0.0115
  0
VERTEX
  8
0
 10
11.2581
 20
11.2163
 30
0.0
 40
0.0115
 41
0.0115
  0
VERTEX
  8
0
 10
11.2581
 20
11.0987
 30
0.0
 40
0.0115
 41
0.0115
  0
VERTEX
  8
0
 10
11.3894
 20
11.0987
 30
0.0
 40
0.0115
 41
0.0115
  0
VERTEX
  8
0
 10
11.3894
 20
11.654
 30
0.0
 40
0.0115
 41
0.0115
  0
VERTEX
  8
0
 10
10.9955
 20
11.654
 30
0.0
 40
0.0115
 41
0.0115
  0
VERTEX
  8
0
 10
10.9955
 20
11.0987
 30
0.0
 40
0.0115
 41
0.0115
  0
SEQEND
 8
0
  0
POLYLINE
  8
0
 62
     0
 66
     1
 10
0
 20
0
 30
0.0
 70
     1
 40
0.828
 41
0.828
  0
VERTEX
  8
0
 10
3.93147
 20
9.29596
 30
0.0
 40
0.0115
 41
0.0115
  0
VERTEX
  8
0
 10
3.93147
 20
9.42725
 30
0.0
 40
0.0115
 41
0.0115
  0
VERTEX
  8
0
 10
3.81401
 20
9.42725
 30
0.0
 40
0.0115
 41
0.0115
  0
VERTEX
  8
0
 10
3.81401
 20
9.55854
 30
0.0
 40
0.0115
 41
0.0115
  0
VERTEX
  8
0
 10
3.93147
 20
9.55854
 30
0.0
 40
0.0115
 41
0.0115
  0
VERTEX
  8
0
 10
3.93147
 20
9.68983
 30
0.0
 40
0.0115
 41
0.0115
  0
VERTEX
  8
0
 10
3.37625
 20
9.68983
 30
0.0
 40
0.0115
 41
0.0115
  0
VERTEX
  8
0
 10
3.37625
 20
9.29596
 30
0.0
 40
0.0115
 41
0.0115
  0
VERTEX
  8
0
 10
3.93147
 20
9.29596
 30
0.0
 40
0.0115
 41
0.0115
  0
SEQEND
 8
0
  0
POLYLINE
  8
0
 62
     0
 66
     1
 10
0
 20
0
 30
0.0
 70
     1
 40
0.828
 41
0.828
  0
VERTEX
  8
0
 10
8.59201
 20
9.30029
 30
0.0
 40
0.0115
 41
0.0115
  0
VERTEX
  8
0
 10
8.59201
 20
9.43158
 30
0.0
 40
0.0115
 41
0.0115
  0
VERTEX
  8
0
 10
8.4745
 20
9.43158
 30
0.0
 40
0.0115
 41
0.0115
  0
VERTEX
  8
0
 10
8.4745
 20
9.56287
 30
0.0
 40
0.0115
 41
0.0115
  0
VERTEX
  8
0
 10
8.59201
 20
9.56287
 30
0.0
 40
0.0115
 41
0.0115
  0
VERTEX
  8
0
 10
8.59201
 20
9.69417
 30
0.0
 40
0.0115
 41
0.0115
  0
VERTEX
  8
0
 10
8.03678
 20
9.69417
 30
0.0
 40
0.0115
 41
0.0115
  0
VERTEX
  8
0
 10
8.03678
 20
9.30029
 30
0.0
 40
0.0115
 41
0.0115
  0
VERTEX
  8
0
 10
8.59201
 20
9.30029
 30
0.0
 40
0.0115
 41
0.0115
  0
SEQEND
 8
0
  0
POLYLINE
  8
0
 62
     0
 66
     1
 10
0
 20
0
 30
0.0
 70
     1
 40
0.828
 41
0.828
  0
VERTEX
  8
0
 10
10.9918
 20
13.4201
 30
0.0
 40
0.0115
 41
0.0115
  0
VERTEX
  8
0
 10
11.123
 20
13.4201
 30
0.0
 40
0.0115
 41
0.0115
  0
VERTEX
  8
0
 10
11.123
 20
13.5376
 30
0.0
 40
0.0115
 41
0.0115
  0
VERTEX
  8
0
 10
11.2544
 20
13.5376
 30
0.0
 40
0.0115
 41
0.0115
  0
VERTEX
  8
0
 10
11.2544
 20
13.4201
 30
0.0
 40
0.0115
 41
0.0115
  0
VERTEX
  8
0
 10
11.3857
 20
13.4201
 30
0.0
 40
0.0115
 41
0.0115
  0
VERTEX
  8
0
 10
11.3857
 20
13.9754
 30
0.0
 40
0.0115
 41
0.0115
  0
VERTEX
  8
0
 10
10.9918
 20
13.9754
 30
0.0
 40
0.0115
 41
0.0115
  0
VERTEX
  8
0
 10
10.9918
 20
13.4201
 30
0.0
 40
0.0115
 41
0.0115
  0
SEQEND
 8
0
  0
POLYLINE
  8
0
 62
     0
 66
     1
 10
0
 20
0
 30
0.0
 70
     1
 40
0.828
 41
0.828
  0
VERTEX
  8
0
 10
1.08431
 20
9.59776
 30
0.0
 40
0.0115
 41
0.0115
  0
VERTEX
  8
0
 10
1.06413
 20
9.58946
 30
0.0
 40
0.0115
 41
0.0115
  0
VERTEX
  8
0
 10
1.05583
 20
9.56928
 30
0.0
 40
0.0115
 41
0.0115
  0
VERTEX
  8
0
 10
1.06413
 20
9.54915
 30
0.0
 40
0.0115
 41
0.0115
  0
VERTEX
  8
0
 10
1.08431
 20
9.54081
 30
0.0
 40
0.0115
 41
0.0115
  0
VERTEX
  8
0
 10
1.10444
 20
9.54915
 30
0.0
 40
0.0115
 41
0.0115
  0
VERTEX
  8
0
 10
1.11285
 20
9.56928
 30
0.0
 40
0.0115
 41
0.0115
  0
VERTEX
  8
0
 10
1.10444
 20
9.58946
 30
0.0
 40
0.0115
 41
0.0115
  0
VERTEX
  8
0
 10
1.08431
 20
9.59776
 30
0.0
 40
0.0115
 41
0.0115
  0
SEQEND
 8
0
  0
POLYLINE
  8
0
 62
     0
 66
     1
 10
0
 20
0
 30
0.0
 70
     1
 40
0.828
 41
0.828
  0
VERTEX
  8
0
 10
5.74485
 20
9.60206
 30
0.0
 40
0.0115
 41
0.0115
  0
VERTEX
  8
0
 10
5.72461
 20
9.59375
 30
0.0
 40
0.0115
 41
0.0115
  0
VERTEX
  8
0
 10
5.71631
 20
9.57357
 30
0.0
 40
0.0115
 41
0.0115
  0
VERTEX
  8
0
 10
5.72461
 20
9.55344
 30
0.0
 40
0.0115
 41
0.0115
  0
VERTEX
  8
0
 10
5.74485
 20
9.54508
 30
0.0
 40
0.0115
 41
0.0115
  0
VERTEX
  8
0
 10
5.76497
 20
9.55344
 30
0.0
 40
0.0115
 41
0.0115
  0
VERTEX
  8
0
 10
5.77333
 20
9.57357
 30
0.0
 40
0.0115
 41
0.0115
  0
VERTEX
  8
0
 10
5.76497
 20
9.59375
 30
0.0
 40
0.0115
 41
0.0115
  0
VERTEX
  8
0
 10
5.74485
 20
9.60206
 30
0.0
 40
0.0115
 41
0.0115
  0
SEQEND
 8
0
  0
POLYLINE
  8
0
 62
     0
 66
     1
 10
0
 20
0
 30
0.0
 70
     1
 40
0.828
 41
0.828
  0
VERTEX
  8
0
 10
10.4053
 20
9.60639
 30
0.0
 40
0.0115
 41
0.0115
  0
VERTEX
  8
0
 10
10.3851
 20
9.59808
 30
0.0
 40
0.0115
 41
0.0115
  0
VERTEX
  8
0
 10
10.3768
 20
9.57785
 30
0.0
 40
0.0115
 41
0.0115
  0
VERTEX
  8
0
 10
10.3851
 20
9.55772
 30
0.0
 40
0.0115
 41
0.0115
  0
VERTEX
  8
0
 10
10.4053
 20
9.54937
 30
0.0
 40
0.0115
 41
0.0115
  0
VERTEX
  8
0
 10
10.4255
 20
9.55772
 30
0.0
 40
0.0115
 41
0.0115
  0
VERTEX
  8
0
 10
10.4338
 20
9.57785
 30
0.0
 40
0.0115
 41
0.0115
  0
VERTEX
  8
0
 10
10.4255
 20
9.59808
 30
0.0
 40
0.0115
 41
0.0115
  0
VERTEX
  8
0
 10
10.4053
 20
9.60639
 30
0.0
 40
0.0115
 41
0.0115
  0
SEQEND
 8
0
  0
POLYLINE
  8
0
 62
     0
 66
     1
 10
0
 20
0
 30
0.0
 70
     1
 40
0.828
 41
0.828
  0
VERTEX
  8
0
 10
11.2978
 20
11.6068
 30
0.0
 40
0.0115
 41
0.0115
  0
VERTEX
  8
0
 10
11.2895
 20
11.627
 30
0.0
 40
0.0115
 41
0.0115
  0
VERTEX
  8
0
 10
11.2694
 20
11.6352
 30
0.0
 40
0.0115
 41
0.0115
  0
VERTEX
  8
0
 10
11.2492
 20
11.627
 30
0.0
 40
0.0115
 41
0.0115
  0
VERTEX
  8
0
 10
11.2409
 20
11.6068
 30
0.0
 40
0.0115
 41
0.0115
  0
VERTEX
  8
0
 10
11.2492
 20
11.5866
 30
0.0
 40
0.0115
 41
0.0115
  0
VERTEX
  8
0
 10
11.2694
 20
11.5783
 30
0.0
 40
0.0115
 41
0.0115
  0
VERTEX
  8
0
 10
11.2895
 20
11.5866
 30
0.0
 40
0.0115
 41
0.0115
  0
VERTEX
  8
0
 10
11.2978
 20
11.6068
 30
0.0
 40
0.0115
 41
0.0115
  0
SEQEND
 8
0
  0
POLYLINE
  8
0
 62
     0
 66
     1
 10
0
 20
0
 30
0.0
 70
     1
 40
0.828
 41
0.828
  0
VERTEX
  8
0
 10
3.4235
 20
9.59831
 30
0.0
 40
0.0115
 41
0.0115
  0
VERTEX
  8
0
 10
3.40332
 20
9.59
 30
0.0
 40
0.0115
 41
0.0115
  0
VERTEX
  8
0
 10
3.39501
 20
9.56982
 30
0.0
 40
0.0115
 41
0.0115
  0
VERTEX
  8
0
 10
3.40332
 20
9.54969
 30
0.0
 40
0.0115
 41
0.0115
  0
VERTEX
  8
0
 10
3.4235
 20
9.54135
 30
0.0
 40
0.0115
 41
0.0115
  0
VERTEX
  8
0
 10
3.44362
 20
9.54969
 30
0.0
 40
0.0115
 41
0.0115
  0
VERTEX
  8
0
 10
3.45199
 20
9.56982
 30
0.0
 40
0.0115
 41
0.0115
  0
VERTEX
  8
0
 10
3.44362
 20
9.59
 30
0.0
 40
0.0115
 41
0.0115
  0
VERTEX
  8
0
 10
3.4235
 20
9.59831
 30
0.0
 40
0.0115
 41
0.0115
  0
SEQEND
 8
0
  0
POLYLINE
  8
0
 62
     0
 66
     1
 10
0
 20
0
 30
0.0
 70
     1
 40
0.828
 41
0.828
  0
VERTEX
  8
0
 10
8.08404
 20
9.60271
 30
0.0
 40
0.0115
 41
0.0115
  0
VERTEX
  8
0
 10
8.06386
 20
9.59435
 30
0.0
 40
0.0115
 41
0.0115
  0
VERTEX
  8
0
 10
8.0555
 20
9.57417
 30
0.0
 40
0.0115
 41
0.0115
  0
VERTEX
  8
0
 10
8.06386
 20
9.55404
 30
0.0
 40
0.0115
 41
0.0115
  0
VERTEX
  8
0
 10
8.08404
 20
9.54568
 30
0.0
 40
0.0115
 41
0.0115
  0
VERTEX
  8
0
 10
8.10417
 20
9.55404
 30
0.0
 40
0.0115
 41
0.0115
  0
VERTEX
  8
0
 10
8.11253
 20
9.57417
 30
0.0
 40
0.0115
 41
0.0115
  0
VERTEX
  8
0
 10
8.10417
 20
9.59435
 30
0.0
 40
0.0115
 41
0.0115
  0
VERTEX
  8
0
 10
8.08404
 20
9.60271
 30
0.0
 40
0.0115
 41
0.0115
  0
SEQEND
 8
0
  0
POLYLINE
  8
0
 62
     0
 66
     1
 10
0
 20
0
 30
0.0
 70
     1
 40
0.828
 41
0.828
  0
VERTEX
  8
0
 10
11.2942
 20
13.9281
 30
0.0
 40
0.0115
 41
0.0115
  0
VERTEX
  8
0
 10
11.2858
 20
13.9483
 30
0.0
 40
0.0115
 41
0.0115
  0
VERTEX
  8
0
 10
11.2657
 20
13.9567
 30
0.0
 40
0.0115
 41
0.0115
  0
VERTEX
  8
0
 10
11.2455
 20
13.9483
 30
0.0
 40
0.0115
 41
0.0115
  0
VERTEX
  8
0
 10
11.2372
 20
13.9281
 30
0.0
 40
0.0115
 41
0.0115
  0
VERTEX
  8
0
 10
11.2455
 20
13.9081
 30
0.0
 40
0.0115
 41
0.0115
  0
VERTEX
  8
0
 10
11.2657
 20
13.8996
 30
0.0
 40
0.0115
 41
0.0115
  0
VERTEX
  8
0
 10
11.2858
 20
13.9081
 30
0.0
 40
0.0115
 41
0.0115
  0
VERTEX
  8
0
 10
11.2942
 20
13.9281
 30
0.0
 40
0.0115
 41
0.0115
  0
SEQEND
 8
0
  0
POLYLINE
  8
0
 62
     0
 66
     1
 10
0
 20
0
 30
0.0
 70
     1
 40
0.828
 41
0.828
  0
VERTEX
  8
0
 10
5.49669
 20
12.8714
 30
0.0
 40
0.0115
 41
0.0115
  0
VERTEX
  8
0
 10
5.49669
 20
10.2464
 30
0.0
 40
0.0115
 41
0.0115
  0
VERTEX
  8
0
 10
2.87169
 20
10.2464
 30
0.0
 40
0.0115
 41
0.0115
  0
VERTEX
  8
0
 10
2.87169
 20
12.8714
 30
0.0
 40
0.0115
 41
0.0115
  0
VERTEX
  8
0
 10
4.03418
 20
12.8714
 30
0.0
 40
0.0115
 41
0.0115
  0
VERTEX
  8
0
 10
4.03418
 20
12.2464
 30
0.0
 40
0.0115
 41
0.0115
  0
VERTEX
  8
0
 10
4.18419
 20
12.2464
 30
0.0
 40
0.0115
 41
0.0115
  0
VERTEX
  8
0
 10
4.33419
 20
12.2464
 30
0.0
 40
0.0115
 41
0.0115
  0
VERTEX
  8
0
 10
4.33419
 20
12.8714
 30
0.0
 40
0.0115
 41
0.0115
  0
VERTEX
  8
0
 10
5.49669
 20
12.8714
 30
0.0
 40
0.0115
 41
0.0115
  0
SEQEND
 8
0
  0
POLYLINE
  8
0
 62
     0
 66
     1
 10
0
 20
0
 30
0.0
 70
     1
 40
0.828
 41
0.828
  0
VERTEX
  8
0
 10
3.33419
 20
10.5463
 30
0.0
 40
0.0115
 41
0.0115
  0
VERTEX
  8
0
 10
3.43419
 20
10.5463
 30
0.0
 40
0.0115
 41
0.0115
  0
VERTEX
  8
0
 10
3.43419
 20
10.4463
 30
0.0
 40
0.0115
 41
0.0115
  0
VERTEX
  8
0
 10
4.93419
 20
10.4463
 30
0.0
 40
0.0115
 41
0.0115
  0
VERTEX
  8
0
 10
4.93419
 20
10.5463
 30
0.0
 40
0.0115
 41
0.0115
  0
VERTEX
  8
0
 10
5.03418
 20
10.5463
 30
0.0
 40
0.0115
 41
0.0115
  0
VERTEX
  8
0
 10
5.03418
 20
11.9463
 30
0.0
 40
0.0115
 41
0.0115
  0
VERTEX
  8
0
 10
4.93419
 20
11.9463
 30
0.0
 40
0.0115
 41
0.0115
  0
VERTEX
  8
0
 10
4.93419
 20
12.0463
 30
0.0
 40
0.0115
 41
0.0115
  0
VERTEX
  8
0
 10
3.43419
 20
12.0463
 30
0.0
 40
0.0115
 41
0.0115
  0
VERTEX
  8
0
 10
3.43419
 20
11.9463
 30
0.0
 40
0.0115
 41
0.0115
  0
VERTEX
  8
0
 10
3.33419
 20
11.9463
 30
0.0
 40
0.0115
 41
0.0115
  0
VERTEX
  8
0
 10
3.33419
 20
10.5463
 30
0.0
 40
0.0115
 41
0.0115
  0
SEQEND
 8
0
  0
POLYLINE
  8
0
 62
     0
 66
     1
 10
0
 20
0
 30
0.0
 70
     1
 40
0.828
 41
0.828
  0
VERTEX
  8
0
 10
5.12978
 20
12.1336
 30
0.0
 40
0.0115
 41
0.0115
  0
VERTEX
  8
0
 10
5.12978
 20
12.2649
 30
0.0
 40
0.0115
 41
0.0115
  0
VERTEX
  8
0
 10
5.01475
 20
12.2649
 30
0.0
 40
0.0115
 41
0.0115
  0
VERTEX
  8
0
 10
5.01475
 20
12.1336
 30
0.0
 40
0.0115
 41
0.0115
  0
VERTEX
  8
0
 10
5.12978
 20
12.1336
 30
0.0
 40
0.0115
 41
0.0115
  0
SEQEND
 8
0
  0
POLYLINE
  8
0
 62
     0
 66
     1
 10
0
 20
0
 30
0.0
 70
     1
 40
0.828
 41
0.828
  0
VERTEX
  8
0
 10
5.12978
 20
12.3962
 30
0.0
 40
0.0115
 41
0.0115
  0
VERTEX
  8
0
 10
5.12978
 20
12.5275
 30
0.0
 40
0.0115
 41
0.0115
  0
VERTEX
  8
0
 10
5.01475
 20
12.5275
 30
0.0
 40
0.0115
 41
0.0115
  0
VERTEX
  8
0
 10
5.01475
 20
12.3962
 30
0.0
 40
0.0115
 41
0.0115
  0
VERTEX
  8
0
 10
5.12978
 20
12.3962
 30
0.0
 40
0.0115
 41
0.0115
  0
SEQEND
 8
0
  0
POLYLINE
  8
0
 62
     0
 66
     1
 10
0
 20
0
 30
0.0
 70
     1
 40
0.828
 41
0.828
  0
VERTEX
  8
0
 10
3.35363
 20
12.1336
 30
0.0
 40
0.0115
 41
0.0115
  0
VERTEX
  8
0
 10
3.35363
 20
12.2649
 30
0.0
 40
0.0115
 41
0.0115
  0
VERTEX
  8
0
 10
3.23861
 20
12.2649
 30
0.0
 40
0.0115
 41
0.0115
  0
VERTEX
  8
0
 10
3.23861
 20
12.1336
 30
0.0
 40
0.0115
 41
0.0115
  0
VERTEX
  8
0
 10
3.35363
 20
12.1336
 30
0.0
 40
0.0115
 41
0.0115
  0
SEQEND
 8
0
  0
POLYLINE
  8
0
 62
     0
 66
     1
 10
0
 20
0
 30
0.0
 70
     1
 40
0.828
 41
0.828
  0
VERTEX
  8
0
 10
3.35363
 20
12.3962
 30
0.0
 40
0.0115
 41
0.0115
  0
VERTEX
  8
0
 10
3.35363
 20
12.5275
 30
0.0
 40
0.0115
 41
0.0115
  0
VERTEX
  8
0
 10
3.23861
 20
12.5275
 30
0.0
 40
0.0115
 41
0.0115
  0
VERTEX
  8
0
 10
3.23861
 20
12.3962
 30
0.0
 40
0.0115
 41
0.0115
  0
VERTEX
  8
0
 10
3.35363
 20
12.3962
 30
0.0
 40
0.0115
 41
0.0115
  0
SEQEND
 8
0
  0
POLYLINE
  8
0
 62
     0
 66
     1
 10
0
 20
0
 30
0.0
 70
     1
 40
0.828
 41
0.828
  0
VERTEX
  8
0
 10
5.27735
 20
10.3645
 30
0.0
 40
0.0115
 41
0.0115
  0
VERTEX
  8
0
 10
5.2839
 20
10.3486
 30
0.0
 40
0.0115
 41
0.0115
  0
VERTEX
  8
0
 10
5.29981
 20
10.342
 30
0.0
 40
0.0115
 41
0.0115
  0
VERTEX
  8
0
 10
5.31569
 20
10.3486
 30
0.0
 40
0.0115
 41
0.0115
  0
VERTEX
  8
0
 10
5.32232
 20
10.3645
 30
0.0
 40
0.0115
 41
0.0115
  0
VERTEX
  8
0
 10
5.31569
 20
10.3804
 30
0.0
 40
0.0115
 41
0.0115
  0
VERTEX
  8
0
 10
5.29981
 20
10.3869
 30
0.0
 40
0.0115
 41
0.0115
  0
VERTEX
  8
0
 10
5.2839
 20
10.3804
 30
0.0
 40
0.0115
 41
0.0115
  0
VERTEX
  8
0
 10
5.27735
 20
10.3645
 30
0.0
 40
0.0115
 41
0.0115
  0
SEQEND
 8
0
  0
POLYLINE
  8
0
 62
     0
 66
     1
 10
0
 20
0
 30
0.0
 70
     1
 40
0.828
 41
0.828
  0
VERTEX
  8
0
 10
3.04606
 20
10.3645
 30
0.0
 40
0.0115
 41
0.0115
  0
VERTEX
  8
0
 10
3.05263
 20
10.3486
 30
0.0
 40
0.0115
 41
0.0115
  0
VERTEX
  8
0
 10
3.06853
 20
10.342
 30
0.0
 40
0.0115
 41
0.0115
  0
VERTEX
  8
0
 10
3.08442
 20
10.3486
 30
0.0
 40
0.0115
 41
0.0115
  0
VERTEX
  8
0
 10
3.09104
 20
10.3645
 30
0.0
 40
0.0115
 41
0.0115
  0
VERTEX
  8
0
 10
3.08442
 20
10.3804
 30
0.0
 40
0.0115
 41
0.0115
  0
VERTEX
  8
0
 10
3.06853
 20
10.3869
 30
0.0
 40
0.0115
 41
0.0115
  0
VERTEX
  8
0
 10
3.05263
 20
10.3804
 30
0.0
 40
0.0115
 41
0.0115
  0
VERTEX
  8
0
 10
3.04606
 20
10.3645
 30
0.0
 40
0.0115
 41
0.0115
  0
SEQEND
 8
0
  0
POLYLINE
  8
0
 62
     0
 66
     1
 10
0
 20
0
 30
0.0
 70
     1
 40
0.828
 41
0.828
  0
VERTEX
  8
0
 10
5.25493
 20
11.8871
 30
0.0
 40
0.0115
 41
0.0115
  0
VERTEX
  8
0
 10
5.26004
 20
11.8618
 30
0.0
 40
0.0115
 41
0.0115
  0
VERTEX
  8
0
 10
5.27393
 20
11.8411
 30
0.0
 40
0.0115
 41
0.0115
  0
VERTEX
  8
0
 10
5.2946
 20
11.8273
 30
0.0
 40
0.0115
 41
0.0115
  0
VERTEX
  8
0
 10
5.31993
 20
11.8221
 30
0.0
 40
0.0115
 41
0.0115
  0
VERTEX
  8
0
 10
5.34521
 20
11.8273
 30
0.0
 40
0.0115
 41
0.0115
  0
VERTEX
  8
0
 10
5.36583
 20
11.8411
 30
0.0
 40
0.0115
 41
0.0115
  0
VERTEX
  8
0
 10
5.37978
 20
11.8618
 30
0.0
 40
0.0115
 41
0.0115
  0
VERTEX
  8
0
 10
5.38493
 20
11.8871
 30
0.0
 40
0.0115
 41
0.0115
  0
VERTEX
  8
0
 10
5.37978
 20
11.9124
 30
0.0
 40
0.0115
 41
0.0115
  0
VERTEX
  8
0
 10
5.36583
 20
11.9331
 30
0.0
 40
0.0115
 41
0.0115
  0
VERTEX
  8
0
 10
5.34521
 20
11.947
 30
0.0
 40
0.0115
 41
0.0115
  0
VERTEX
  8
0
 10
5.31993
 20
11.9521
 30
0.0
 40
0.0115
 41
0.0115
  0
VERTEX
  8
0
 10
5.2946
 20
11.947
 30
0.0
 40
0.0115
 41
0.0115
  0
VERTEX
  8
0
 10
5.27393
 20
11.9331
 30
0.0
 40
0.0115
 41
0.0115
  0
VERTEX
  8
0
 10
5.26004
 20
11.9124
 30
0.0
 40
0.0115
 41
0.0115
  0
VERTEX
  8
0
 10
5.25493
 20
11.8871
 30
0.0
 40
0.0115
 41
0.0115
  0
SEQEND
 8
0
  0
POLYLINE
  8
0
 62
     0
 66
     1
 10
0
 20
0
 30
0.0
 70
     1
 40
0.828
 41
0.828
  0
VERTEX
  8
0
 10
5.25493
 20
11.0997
 30
0.0
 40
0.0115
 41
0.0115
  0
VERTEX
  8
0
 10
5.26004
 20
11.0744
 30
0.0
 40
0.0115
 41
0.0115
  0
VERTEX
  8
0
 10
5.27393
 20
11.0538
 30
0.0
 40
0.0115
 41
0.0115
  0
VERTEX
  8
0
 10
5.2946
 20
11.0399
 30
0.0
 40
0.0115
 41
0.0115
  0
VERTEX
  8
0
 10
5.31993
 20
11.0347
 30
0.0
 40
0.0115
 41
0.0115
  0
VERTEX
  8
0
 10
5.34521
 20
11.0398
 30
0.0
 40
0.0115
 41
0.0115
  0
VERTEX
  8
0
 10
5.36583
 20
11.0538
 30
0.0
 40
0.0115
 41
0.0115
  0
VERTEX
  8
0
 10
5.37978
 20
11.0744
 30
0.0
 40
0.0115
 41
0.0115
  0
VERTEX
  8
0
 10
5.38493
 20
11.0997
 30
0.0
 40
0.0115
 41
0.0115
  0
VERTEX
  8
0
 10
5.37978
 20
11.1251
 30
0.0
 40
0.0115
 41
0.0115
  0
VERTEX
  8
0
 10
5.36583
 20
11.1457
 30
0.0
 40
0.0115
 41
0.0115
  0
VERTEX
  8
0
 10
5.34521
 20
11.1596
 30
0.0
 40
0.0115
 41
0.0115
  0
VERTEX
  8
0
 10
5.31993
 20
11.1647
 30
0.0
 40
0.0115
 41
0.0115
  0
VERTEX
  8
0
 10
5.2946
 20
11.1596
 30
0.0
 40
0.0115
 41
0.0115
  0
VERTEX
  8
0
 10
5.27393
 20
11.1457
 30
0.0
 40
0.0115
 41
0.0115
  0
VERTEX
  8
0
 10
5.26004
 20
11.1251
 30
0.0
 40
0.0115
 41
0.0115
  0
VERTEX
  8
0
 10
5.25493
 20
11.0997
 30
0.0
 40
0.0115
 41
0.0115
  0
SEQEND
 8
0
  0
POLYLINE
  8
0
 62
     0
 66
     1
 10
0
 20
0
 30
0.0
 70
     1
 40
0.828
 41
0.828
  0
VERTEX
  8
0
 10
2.98346
 20
11.0997
 30
0.0
 40
0.0115
 41
0.0115
  0
VERTEX
  8
0
 10
2.98856
 20
11.0744
 30
0.0
 40
0.0115
 41
0.0115
  0
VERTEX
  8
0
 10
3.00244
 20
11.0538
 30
0.0
 40
0.0115
 41
0.0115
  0
VERTEX
  8
0
 10
3.02311
 20
11.0399
 30
0.0
 40
0.0115
 41
0.0115
  0
VERTEX
  8
0
 10
3.04844
 20
11.0347
 30
0.0
 40
0.0115
 41
0.0115
  0
VERTEX
  8
0
 10
3.07374
 20
11.0398
 30
0.0
 40
0.0115
 41
0.0115
  0
VERTEX
  8
0
 10
3.0944
 20
11.0538
 30
0.0
 40
0.0115
 41
0.0115
  0
VERTEX
  8
0
 10
3.10829
 20
11.0744
 30
0.0
 40
0.0115
 41
0.0115
  0
VERTEX
  8
0
 10
3.11344
 20
11.0997
 30
0.0
 40
0.0115
 41
0.0115
  0
VERTEX
  8
0
 10
3.10829
 20
11.1251
 30
0.0
 40
0.0115
 41
0.0115
  0
VERTEX
  8
0
 10
3.0944
 20
11.1457
 30
0.0
 40
0.0115
 41
0.0115
  0
VERTEX
  8
0
 10
3.07374
 20
11.1596
 30
0.0
 40
0.0115
 41
0.0115
  0
VERTEX
  8
0
 10
3.04844
 20
11.1647
 30
0.0
 40
0.0115
 41
0.0115
  0
VERTEX
  8
0
 10
3.02311
 20
11.1596
 30
0.0
 40
0.0115
 41
0.0115
  0
VERTEX
  8
0
 10
3.00244
 20
11.1457
 30
0.0
 40
0.0115
 41
0.0115
  0
VERTEX
  8
0
 10
2.98856
 20
11.1251
 30
0.0
 40
0.0115
 41
0.0115
  0
VERTEX
  8
0
 10
2.98346
 20
11.0997
 30
0.0
 40
0.0115
 41
0.0115
  0
SEQEND
 8
0
  0
POLYLINE
  8
0
 62
     0
 66
     1
 10
0
 20
0
 30
0.0
 70
     1
 40
0.828
 41
0.828
  0
VERTEX
  8
0
 10
2.98346
 20
11.8871
 30
0.0
 40
0.0115
 41
0.0115
  0
VERTEX
  8
0
 10
2.98856
 20
11.8618
 30
0.0
 40
0.0115
 41
0.0115
  0
VERTEX
  8
0
 10
3.00244
 20
11.8411
 30
0.0
 40
0.0115
 41
0.0115
  0
VERTEX
  8
0
 10
3.02311
 20
11.8273
 30
0.0
 40
0.0115
 41
0.0115
  0
VERTEX
  8
0
 10
3.04844
 20
11.8221
 30
0.0
 40
0.0115
 41
0.0115
  0
VERTEX
  8
0
 10
3.07374
 20
11.8273
 30
0.0
 40
0.0115
 41
0.0115
  0
VERTEX
  8
0
 10
3.0944
 20
11.8411
 30
0.0
 40
0.0115
 41
0.0115
  0
VERTEX
  8
0
 10
3.10829
 20
11.8618
 30
0.0
 40
0.0115
 41
0.0115
  0
VERTEX
  8
0
 10
3.11344
 20
11.8871
 30
0.0
 40
0.0115
 41
0.0115
  0
VERTEX
  8
0
 10
3.10829
 20
11.9124
 30
0.0
 40
0.0115
 41
0.0115
  0
VERTEX
  8
0
 10
3.0944
 20
11.9331
 30
0.0
 40
0.0115
 41
0.0115
  0
VERTEX
  8
0
 10
3.07374
 20
11.947
 30
0.0
 40
0.0115
 41
0.0115
  0
VERTEX
  8
0
 10
3.04844
 20
11.9521
 30
0.0
 40
0.0115
 41
0.0115
  0
VERTEX
  8
0
 10
3.02311
 20
11.947
 30
0.0
 40
0.0115
 41
0.0115
  0
VERTEX
  8
0
 10
3.00244
 20
11.9331
 30
0.0
 40
0.0115
 41
0.0115
  0
VERTEX
  8
0
 10
2.98856
 20
11.9124
 30
0.0
 40
0.0115
 41
0.0115
  0
VERTEX
  8
0
 10
2.98346
 20
11.8871
 30
0.0
 40
0.0115
 41
0.0115
  0
SEQEND
 8
0
  0
POLYLINE
  8
0
 62
     0
 66
     1
 10
0
 20
0
 30
0.0
 70
     1
 40
0.828
 41
0.828
  0
VERTEX
  8
0
 10
4.96169
 20
11.9964
 30
0.0
 40
0.0115
 41
0.0115
  0
VERTEX
  8
0
 10
4.96826
 20
11.9805
 30
0.0
 40
0.0115
 41
0.0115
  0
VERTEX
  8
0
 10
4.98421
 20
11.9738
 30
0.0
 40
0.0115
 41
0.0115
  0
VERTEX
  8
0
 10
5.00006
 20
11.9805
 30
0.0
 40
0.0115
 41
0.0115
  0
VERTEX
  8
0
 10
5.00667
 20
11.9964
 30
0.0
 40
0.0115
 41
0.0115
  0
VERTEX
  8
0
 10
5.00006
 20
12.0123
 30
0.0
 40
0.0115
 41
0.0115
  0
VERTEX
  8
0
 10
4.98421
 20
12.0188
 30
0.0
 40
0.0115
 41
0.0115
  0
VERTEX
  8
0
 10
4.96826
 20
12.0123
 30
0.0
 40
0.0115
 41
0.0115
  0
VERTEX
  8
0
 10
4.96169
 20
11.9964
 30
0.0
 40
0.0115
 41
0.0115
  0
SEQEND
 8
0
  0
POLYLINE
  8
0
 62
     0
 66
     1
 10
0
 20
0
 30
0.0
 70
     1
 40
0.828
 41
0.828
  0
VERTEX
  8
0
 10
4.96169
 20
10.4964
 30
0.0
 40
0.0115
 41
0.0115
  0
VERTEX
  8
0
 10
4.96826
 20
10.4805
 30
0.0
 40
0.0115
 41
0.0115
  0
VERTEX
  8
0
 10
4.98421
 20
10.4738
 30
0.0
 40
0.0115
 41
0.0115
  0
VERTEX
  8
0
 10
5.00006
 20
10.4805
 30
0.0
 40
0.0115
 41
0.0115
  0
VERTEX
  8
0
 10
5.00667
 20
10.4964
 30
0.0
 40
0.0115
 41
0.0115
  0
VERTEX
  8
0
 10
5.00006
 20
10.5123
 30
0.0
 40
0.0115
 41
0.0115
  0
VERTEX
  8
0
 10
4.98421
 20
10.5188
 30
0.0
 40
0.0115
 41
0.0115
  0
VERTEX
  8
0
 10
4.96826
 20
10.5123
 30
0.0
 40
0.0115
 41
0.0115
  0
VERTEX
  8
0
 10
4.96169
 20
10.4964
 30
0.0
 40
0.0115
 41
0.0115
  0
SEQEND
 8
0
  0
POLYLINE
  8
0
 62
     0
 66
     1
 10
0
 20
0
 30
0.0
 70
     1
 40
0.828
 41
0.828
  0
VERTEX
  8
0
 10
3.36171
 20
11.9964
 30
0.0
 40
0.0115
 41
0.0115
  0
VERTEX
  8
0
 10
3.36828
 20
11.9805
 30
0.0
 40
0.0115
 41
0.0115
  0
VERTEX
  8
0
 10
3.38417
 20
11.9738
 30
0.0
 40
0.0115
 41
0.0115
  0
VERTEX
  8
0
 10
3.40007
 20
11.9805
 30
0.0
 40
0.0115
 41
0.0115
  0
VERTEX
  8
0
 10
3.40668
 20
11.9964
 30
0.0
 40
0.0115
 41
0.0115
  0
VERTEX
  8
0
 10
3.40007
 20
12.0123
 30
0.0
 40
0.0115
 41
0.0115
  0
VERTEX
  8
0
 10
3.38417
 20
12.0188
 30
0.0
 40
0.0115
 41
0.0115
  0
VERTEX
  8
0
 10
3.36828
 20
12.0123
 30
0.0
 40
0.0115
 41
0.0115
  0
VERTEX
  8
0
 10
3.36171
 20
11.9964
 30
0.0
 40
0.0115
 41
0.0115
  0
SEQEND
 8
0
  0
POLYLINE
  8
0
 62
     0
 66
     1
 10
0
 20
0
 30
0.0
 70
     1
 40
0.828
 41
0.828
  0
VERTEX
  8
0
 10
3.36171
 20
10.4964
 30
0.0
 40
0.0115
 41
0.0115
  0
VERTEX
  8
0
 10
3.36828
 20
10.4805
 30
0.0
 40
0.0115
 41
0.0115
  0
VERTEX
  8
0
 10
3.38417
 20
10.4738
 30
0.0
 40
0.0115
 41
0.0115
  0
VERTEX
  8
0
 10
3.40007
 20
10.4805
 30
0.0
 40
0.0115
 41
0.0115
  0
VERTEX
  8
0
 10
3.40668
 20
10.4964
 30
0.0
 40
0.0115
 41
0.0115
  0
VERTEX
  8
0
 10
3.40007
 20
10.5123
 30
0.0
 40
0.0115
 41
0.0115
  0
VERTEX
  8
0
 10
3.38417
 20
10.5188
 30
0.0
 40
0.0115
 41
0.0115
  0
VERTEX
  8
0
 10
3.36828
 20
10.5123
 30
0.0
 40
0.0115
 41
0.0115
  0
VERTEX
  8
0
 10
3.36171
 20
10.4964
 30
0.0
 40
0.0115
 41
0.0115
  0
SEQEND
 8
0
  0
POLYLINE
  8
0
 62
     0
 66
     1
 10
0
 20
0
 30
0.0
 70
     1
 40
0.828
 41
0.828
  0
VERTEX
  8
0
 10
1.64725
 20
10.126
 30
0.0
 40
0.0115
 41
0.0115
  0
VERTEX
  8
0
 10
1.64725
 20
9.99474
 30
0.0
 40
0.0115
 41
0.0115
  0
VERTEX
  8
0
 10
1.76475
 20
9.99474
 30
0.0
 40
0.0115
 41
0.0115
  0
VERTEX
  8
0
 10
1.76475
 20
9.86344
 30
0.0
 40
0.0115
 41
0.0115
  0
VERTEX
  8
0
 10
1.64725
 20
9.86344
 30
0.0
 40
0.0115
 41
0.0115
  0
VERTEX
  8
0
 10
1.64725
 20
9.73215
 30
0.0
 40
0.0115
 41
0.0115
  0
VERTEX
  8
0
 10
2.20253
 20
9.73215
 30
0.0
 40
0.0115
 41
0.0115
  0
VERTEX
  8
0
 10
2.47021
 20
9.73215
 30
0.0
 40
0.0115
 41
0.0115
  0
VERTEX
  8
0
 10
2.47021
 20
9.90446
 30
0.0
 40
0.0115
 41
0.0115
  0
VERTEX
  8
0
 10
2.40132
 20
9.90446
 30
0.0
 40
0.0115
 41
0.0115
  0
VERTEX
  8
0
 10
2.40132
 20
9.95367
 30
0.0
 40
0.0115
 41
0.0115
  0
VERTEX
  8
0
 10
2.47021
 20
9.95367
 30
0.0
 40
0.0115
 41
0.0115
  0
VERTEX
  8
0
 10
2.47021
 20
10.126
 30
0.0
 40
0.0115
 41
0.0115
  0
VERTEX
  8
0
 10
2.20253
 20
10.126
 30
0.0
 40
0.0115
 41
0.0115
  0
VERTEX
  8
0
 10
1.64725
 20
10.126
 30
0.0
 40
0.0115
 41
0.0115
  0
SEQEND
 8
0
  0
POLYLINE
  8
0
 62
     0
 66
     1
 10
0
 20
0
 30
0.0
 70
     1
 40
0.828
 41
0.828
  0
VERTEX
  8
0
 10
6.30778
 20
10.1303
 30
0.0
 40
0.0115
 41
0.0115
  0
VERTEX
  8
0
 10
6.30778
 20
9.99903
 30
0.0
 40
0.0115
 41
0.0115
  0
VERTEX
  8
0
 10
6.42529
 20
9.99903
 30
0.0
 40
0.0115
 41
0.0115
  0
VERTEX
  8
0
 10
6.42529
 20
9.86774
 30
0.0
 40
0.0115
 41
0.0115
  0
VERTEX
  8
0
 10
6.30778
 20
9.86774
 30
0.0
 40
0.0115
 41
0.0115
  0
VERTEX
  8
0
 10
6.30778
 20
9.73643
 30
0.0
 40
0.0115
 41
0.0115
  0
VERTEX
  8
0
 10
6.86301
 20
9.73643
 30
0.0
 40
0.0115
 41
0.0115
  0
VERTEX
  8
0
 10
7.13069
 20
9.73643
 30
0.0
 40
0.0115
 41
0.0115
  0
VERTEX
  8
0
 10
7.13069
 20
9.90881
 30
0.0
 40
0.0115
 41
0.0115
  0
VERTEX
  8
0
 10
7.06185
 20
9.90881
 30
0.0
 40
0.0115
 41
0.0115
  0
VERTEX
  8
0
 10
7.06185
 20
9.95796
 30
0.0
 40
0.0115
 41
0.0115
  0
VERTEX
  8
0
 10
7.13069
 20
9.95796
 30
0.0
 40
0.0115
 41
0.0115
  0
VERTEX
  8
0
 10
7.13069
 20
10.1303
 30
0.0
 40
0.0115
 41
0.0115
  0
VERTEX
  8
0
 10
6.86301
 20
10.1303
 30
0.0
 40
0.0115
 41
0.0115
  0
VERTEX
  8
0
 10
6.30778
 20
10.1303
 30
0.0
 40
0.0115
 41
0.0115
  0
SEQEND
 8
0
  0
POLYLINE
  8
0
 62
     0
 66
     1
 10
0
 20
0
 30
0.0
 70
     1
 40
0.828
 41
0.828
  0
VERTEX
  8
0
 10
10.9683
 20
10.1347
 30
0.0
 40
0.0115
 41
0.0115
  0
VERTEX
  8
0
 10
10.9683
 20
10.0034
 30
0.0
 40
0.0115
 41
0.0115
  0
VERTEX
  8
0
 10
11.0858
 20
10.0034
 30
0.0
 40
0.0115
 41
0.0115
  0
VERTEX
  8
0
 10
11.0858
 20
9.87207
 30
0.0
 40
0.0115
 41
0.0115
  0
VERTEX
  8
0
 10
10.9683
 20
9.87207
 30
0.0
 40
0.0115
 41
0.0115
  0
VERTEX
  8
0
 10
10.9683
 20
9.74078
 30
0.0
 40
0.0115
 41
0.0115
  0
VERTEX
  8
0
 10
11.5235
 20
9.74078
 30
0.0
 40
0.0115
 41
0.0115
  0
VERTEX
  8
0
 10
11.7912
 20
9.74078
 30
0.0
 40
0.0115
 41
0.0115
  0
VERTEX
  8
0
 10
11.7912
 20
9.91308
 30
0.0
 40
0.0115
 41
0.0115
  0
VERTEX
  8
0
 10
11.7223
 20
9.91308
 30
0.0
 40
0.0115
 41
0.0115
  0
VERTEX
  8
0
 10
11.7223
 20
9.96235
 30
0.0
 40
0.0115
 41
0.0115
  0
VERTEX
  8
0
 10
11.7912
 20
9.96235
 30
0.0
 40
0.0115
 41
0.0115
  0
VERTEX
  8
0
 10
11.7912
 20
10.1347
 30
0.0
 40
0.0115
 41
0.0115
  0
VERTEX
  8
0
 10
11.5235
 20
10.1347
 30
0.0
 40
0.0115
 41
0.0115
  0
VERTEX
  8
0
 10
10.9683
 20
10.1347
 30
0.0
 40
0.0115
 41
0.0115
  0
SEQEND
 8
0
  0
POLYLINE
  8
0
 62
     0
 66
     1
 10
0
 20
0
 30
0.0
 70
     1
 40
0.828
 41
0.828
  0
VERTEX
  8
0
 10
11.8262
 20
11.0438
 30
0.0
 40
0.0115
 41
0.0115
  0
VERTEX
  8
0
 10
11.6949
 20
11.0438
 30
0.0
 40
0.0115
 41
0.0115
  0
VERTEX
  8
0
 10
11.6949
 20
10.9263
 30
0.0
 40
0.0115
 41
0.0115
  0
VERTEX
  8
0
 10
11.5636
 20
10.9263
 30
0.0
 40
0.0115
 41
0.0115
  0
VERTEX
  8
0
 10
11.5636
 20
11.0438
 30
0.0
 40
0.0115
 41
0.0115
  0
VERTEX
  8
0
 10
11.4323
 20
11.0438
 30
0.0
 40
0.0115
 41
0.0115
  0
VERTEX
  8
0
 10
11.4323
 20
10.4886
 30
0.0
 40
0.0115
 41
0.0115
  0
VERTEX
  8
0
 10
11.4323
 20
10.2209
 30
0.0
 40
0.0115
 41
0.0115
  0
VERTEX
  8
0
 10
11.6046
 20
10.2209
 30
0.0
 40
0.0115
 41
0.0115
  0
VERTEX
  8
0
 10
11.6046
 20
10.2898
 30
0.0
 40
0.0115
 41
0.0115
  0
VERTEX
  8
0
 10
11.6538
 20
10.2898
 30
0.0
 40
0.0115
 41
0.0115
  0
VERTEX
  8
0
 10
11.6538
 20
10.2209
 30
0.0
 40
0.0115
 41
0.0115
  0
VERTEX
  8
0
 10
11.8262
 20
10.2209
 30
0.0
 40
0.0115
 41
0.0115
  0
VERTEX
  8
0
 10
11.8262
 20
10.4886
 30
0.0
 40
0.0115
 41
0.0115
  0
VERTEX
  8
0
 10
11.8262
 20
11.0438
 30
0.0
 40
0.0115
 41
0.0115
  0
SEQEND
 8
0
  0
POLYLINE
  8
0
 62
     0
 66
     1
 10
0
 20
0
 30
0.0
 70
     1
 40
0.828
 41
0.828
  0
VERTEX
  8
0
 10
1.64464
 20
9.69347
 30
0.0
 40
0.0115
 41
0.0115
  0
VERTEX
  8
0
 10
1.64464
 20
9.56218
 30
0.0
 40
0.0115
 41
0.0115
  0
VERTEX
  8
0
 10
1.76215
 20
9.56218
 30
0.0
 40
0.0115
 41
0.0115
  0
VERTEX
  8
0
 10
1.76215
 20
9.43088
 30
0.0
 40
0.0115
 41
0.0115
  0
VERTEX
  8
0
 10
1.64464
 20
9.43088
 30
0.0
 40
0.0115
 41
0.0115
  0
VERTEX
  8
0
 10
1.64464
 20
9.29958
 30
0.0
 40
0.0115
 41
0.0115
  0
VERTEX
  8
0
 10
2.19993
 20
9.29958
 30
0.0
 40
0.0115
 41
0.0115
  0
VERTEX
  8
0
 10
2.46761
 20
9.29958
 30
0.0
 40
0.0115
 41
0.0115
  0
VERTEX
  8
0
 10
2.46761
 20
9.47194
 30
0.0
 40
0.0115
 41
0.0115
  0
VERTEX
  8
0
 10
2.39871
 20
9.47194
 30
0.0
 40
0.0115
 41
0.0115
  0
VERTEX
  8
0
 10
2.39871
 20
9.52111
 30
0.0
 40
0.0115
 41
0.0115
  0
VERTEX
  8
0
 10
2.46761
 20
9.52111
 30
0.0
 40
0.0115
 41
0.0115
  0
VERTEX
  8
0
 10
2.46761
 20
9.69347
 30
0.0
 40
0.0115
 41
0.0115
  0
VERTEX
  8
0
 10
2.19993
 20
9.69347
 30
0.0
 40
0.0115
 41
0.0115
  0
VERTEX
  8
0
 10
1.64464
 20
9.69347
 30
0.0
 40
0.0115
 41
0.0115
  0
SEQEND
 8
0
  0
POLYLINE
  8
0
 62
     0
 66
     1
 10
0
 20
0
 30
0.0
 70
     1
 40
0.828
 41
0.828
  0
VERTEX
  8
0
 10
6.30518
 20
9.69775
 30
0.0
 40
0.0115
 41
0.0115
  0
VERTEX
  8
0
 10
6.30518
 20
9.56646
 30
0.0
 40
0.0115
 41
0.0115
  0
VERTEX
  8
0
 10
6.42269
 20
9.56646
 30
0.0
 40
0.0115
 41
0.0115
  0
VERTEX
  8
0
 10
6.42269
 20
9.43517
 30
0.0
 40
0.0115
 41
0.0115
  0
VERTEX
  8
0
 10
6.30518
 20
9.43517
 30
0.0
 40
0.0115
 41
0.0115
  0
VERTEX
  8
0
 10
6.30518
 20
9.30388
 30
0.0
 40
0.0115
 41
0.0115
  0
VERTEX
  8
0
 10
6.8604
 20
9.30388
 30
0.0
 40
0.0115
 41
0.0115
  0
VERTEX
  8
0
 10
7.12815
 20
9.30388
 30
0.0
 40
0.0115
 41
0.0115
  0
VERTEX
  8
0
 10
7.12815
 20
9.47624
 30
0.0
 40
0.0115
 41
0.0115
  0
VERTEX
  8
0
 10
7.05925
 20
9.47624
 30
0.0
 40
0.0115
 41
0.0115
  0
VERTEX
  8
0
 10
7.05925
 20
9.52544
 30
0.0
 40
0.0115
 41
0.0115
  0
VERTEX
  8
0
 10
7.12815
 20
9.52544
 30
0.0
 40
0.0115
 41
0.0115
  0
VERTEX
  8
0
 10
7.12815
 20
9.69775
 30
0.0
 40
0.0115
 41
0.0115
  0
VERTEX
  8
0
 10
6.8604
 20
9.69775
 30
0.0
 40
0.0115
 41
0.0115
  0
VERTEX
  8
0
 10
6.30518
 20
9.69775
 30
0.0
 40
0.0115
 41
0.0115
  0
SEQEND
 8
0
  0
POLYLINE
  8
0
 62
     0
 66
     1
 10
0
 20
0
 30
0.0
 70
     1
 40
0.828
 41
0.828
  0
VERTEX
  8
0
 10
10.9657
 20
9.7021
 30
0.0
 40
0.0115
 41
0.0115
  0
VERTEX
  8
0
 10
10.9657
 20
9.57081
 30
0.0
 40
0.0115
 41
0.0115
  0
VERTEX
  8
0
 10
11.0832
 20
9.57081
 30
0.0
 40
0.0115
 41
0.0115
  0
VERTEX
  8
0
 10
11.0832
 20
9.43946
 30
0.0
 40
0.0115
 41
0.0115
  0
VERTEX
  8
0
 10
10.9657
 20
9.43946
 30
0.0
 40
0.0115
 41
0.0115
  0
VERTEX
  8
0
 10
10.9657
 20
9.30817
 30
0.0
 40
0.0115
 41
0.0115
  0
VERTEX
  8
0
 10
11.5209
 20
9.30817
 30
0.0
 40
0.0115
 41
0.0115
  0
VERTEX
  8
0
 10
11.7886
 20
9.30817
 30
0.0
 40
0.0115
 41
0.0115
  0
VERTEX
  8
0
 10
11.7886
 20
9.48053
 30
0.0
 40
0.0115
 41
0.0115
  0
VERTEX
  8
0
 10
11.7197
 20
9.48053
 30
0.0
 40
0.0115
 41
0.0115
  0
VERTEX
  8
0
 10
11.7197
 20
9.52979
 30
0.0
 40
0.0115
 41
0.0115
  0
VERTEX
  8
0
 10
11.7886
 20
9.52979
 30
0.0
 40
0.0115
 41
0.0115
  0
VERTEX
  8
0
 10
11.7886
 20
9.7021
 30
0.0
 40
0.0115
 41
0.0115
  0
VERTEX
  8
0
 10
11.5209
 20
9.7021
 30
0.0
 40
0.0115
 41
0.0115
  0
VERTEX
  8
0
 10
10.9657
 20
9.7021
 30
0.0
 40
0.0115
 41
0.0115
  0
SEQEND
 8
0
  0
POLYLINE
  8
0
 62
     0
 66
     1
 10
0
 20
0
 30
0.0
 70
     1
 40
0.828
 41
0.828
  0
VERTEX
  8
0
 10
11.3936
 20
11.0464
 30
0.0
 40
0.0115
 41
0.0115
  0
VERTEX
  8
0
 10
11.2623
 20
11.0464
 30
0.0
 40
0.0115
 41
0.0115
  0
VERTEX
  8
0
 10
11.2623
 20
10.9289
 30
0.0
 40
0.0115
 41
0.0115
  0
VERTEX
  8
0
 10
11.131
 20
10.9289
 30
0.0
 40
0.0115
 41
0.0115
  0
VERTEX
  8
0
 10
11.131
 20
11.0464
 30
0.0
 40
0.0115
 41
0.0115
  0
VERTEX
  8
0
 10
10.9997
 20
11.0464
 30
0.0
 40
0.0115
 41
0.0115
  0
VERTEX
  8
0
 10
10.9997
 20
10.4912
 30
0.0
 40
0.0115
 41
0.0115
  0
VERTEX
  8
0
 10
10.9997
 20
10.2235
 30
0.0
 40
0.0115
 41
0.0115
  0
VERTEX
  8
0
 10
11.1721
 20
10.2235
 30
0.0
 40
0.0115
 41
0.0115
  0
VERTEX
  8
0
 10
11.1721
 20
10.2924
 30
0.0
 40
0.0115
 41
0.0115
  0
VERTEX
  8
0
 10
11.2213
 20
10.2924
 30
0.0
 40
0.0115
 41
0.0115
  0
VERTEX
  8
0
 10
11.2213
 20
10.2235
 30
0.0
 40
0.0115
 41
0.0115
  0
VERTEX
  8
0
 10
11.3936
 20
10.2235
 30
0.0
 40
0.0115
 41
0.0115
  0
VERTEX
  8
0
 10
11.3936
 20
10.4912
 30
0.0
 40
0.0115
 41
0.0115
  0
VERTEX
  8
0
 10
11.3936
 20
11.0464
 30
0.0
 40
0.0115
 41
0.0115
  0
SEQEND
 8
0
  0
POLYLINE
  8
0
 62
     0
 66
     1
 10
0
 20
0
 30
0.0
 70
     1
 40
0.828
 41
0.828
  0
VERTEX
  8
0
 10
2.3915
 20
9.9916
 30
0.0
 40
0.0115
 41
0.0115
  0
VERTEX
  8
0
 10
2.40847
 20
9.99507
 30
0.0
 40
0.0115
 41
0.0115
  0
VERTEX
  8
0
 10
2.42236
 20
10.0044
 30
0.0
 40
0.0115
 41
0.0115
  0
VERTEX
  8
0
 10
2.43175
 20
10.0183
 30
0.0
 40
0.0115
 41
0.0115
  0
VERTEX
  8
0
 10
2.43522
 20
10.0353
 30
0.0
 40
0.0115
 41
0.0115
  0
VERTEX
  8
0
 10
2.43175
 20
10.0524
 30
0.0
 40
0.0115
 41
0.0115
  0
VERTEX
  8
0
 10
2.42236
 20
10.0663
 30
0.0
 40
0.0115
 41
0.0115
  0
VERTEX
  8
0
 10
2.40847
 20
10.0757
 30
0.0
 40
0.0115
 41
0.0115
  0
VERTEX
  8
0
 10
2.3915
 20
10.0791
 30
0.0
 40
0.0115
 41
0.0115
  0
VERTEX
  8
0
 10
2.3744
 20
10.0757
 30
0.0
 40
0.0115
 41
0.0115
  0
VERTEX
  8
0
 10
2.36051
 20
10.0663
 30
0.0
 40
0.0115
 41
0.0115
  0
VERTEX
  8
0
 10
2.35113
 20
10.0524
 30
0.0
 40
0.0115
 41
0.0115
  0
VERTEX
  8
0
 10
2.34771
 20
10.0353
 30
0.0
 40
0.0115
 41
0.0115
  0
VERTEX
  8
0
 10
2.35113
 20
10.0183
 30
0.0
 40
0.0115
 41
0.0115
  0
VERTEX
  8
0
 10
2.36051
 20
10.0044
 30
0.0
 40
0.0115
 41
0.0115
  0
VERTEX
  8
0
 10
2.3744
 20
9.99507
 30
0.0
 40
0.0115
 41
0.0115
  0
VERTEX
  8
0
 10
2.3915
 20
9.9916
 30
0.0
 40
0.0115
 41
0.0115
  0
SEQEND
 8
0
  0
POLYLINE
  8
0
 62
     0
 66
     1
 10
0
 20
0
 30
0.0
 70
     1
 40
0.828
 41
0.828
  0
VERTEX
  8
0
 10
7.05197
 20
9.99593
 30
0.0
 40
0.0115
 41
0.0115
  0
VERTEX
  8
0
 10
7.06896
 20
9.9994
 30
0.0
 40
0.0115
 41
0.0115
  0
VERTEX
  8
0
 10
7.08285
 20
10.0088
 30
0.0
 40
0.0115
 41
0.0115
  0
VERTEX
  8
0
 10
7.09224
 20
10.0227
 30
0.0
 40
0.0115
 41
0.0115
  0
VERTEX
  8
0
 10
7.09571
 20
10.0397
 30
0.0
 40
0.0115
 41
0.0115
  0
VERTEX
  8
0
 10
7.09224
 20
10.0568
 30
0.0
 40
0.0115
 41
0.0115
  0
VERTEX
  8
0
 10
7.08285
 20
10.0706
 30
0.0
 40
0.0115
 41
0.0115
  0
VERTEX
  8
0
 10
7.06896
 20
10.08
 30
0.0
 40
0.0115
 41
0.0115
  0
VERTEX
  8
0
 10
7.05197
 20
10.0834
 30
0.0
 40
0.0115
 41
0.0115
  0
VERTEX
  8
0
 10
7.03494
 20
10.08
 30
0.0
 40
0.0115
 41
0.0115
  0
VERTEX
  8
0
 10
7.02106
 20
10.0706
 30
0.0
 40
0.0115
 41
0.0115
  0
VERTEX
  8
0
 10
7.01167
 20
10.0568
 30
0.0
 40
0.0115
 41
0.0115
  0
VERTEX
  8
0
 10
7.00825
 20
10.0397
 30
0.0
 40
0.0115
 41
0.0115
  0
VERTEX
  8
0
 10
7.01167
 20
10.0227
 30
0.0
 40
0.0115
 41
0.0115
  0
VERTEX
  8
0
 10
7.02106
 20
10.0088
 30
0.0
 40
0.0115
 41
0.0115
  0
VERTEX
  8
0
 10
7.03494
 20
9.9994
 30
0.0
 40
0.0115
 41
0.0115
  0
VERTEX
  8
0
 10
7.05197
 20
9.99593
 30
0.0
 40
0.0115
 41
0.0115
  0
SEQEND
 8
0
  0
POLYLINE
  8
0
 62
     0
 66
     1
 10
0
 20
0
 30
0.0
 70
     1
 40
0.828
 41
0.828
  0
VERTEX
  8
0
 10
11.7125
 20
10.0002
 30
0.0
 40
0.0115
 41
0.0115
  0
VERTEX
  8
0
 10
11.7295
 20
10.0037
 30
0.0
 40
0.0115
 41
0.0115
  0
VERTEX
  8
0
 10
11.7434
 20
10.0131
 30
0.0
 40
0.0115
 41
0.0115
  0
VERTEX
  8
0
 10
11.7528
 20
10.027
 30
0.0
 40
0.0115
 41
0.0115
  0
VERTEX
  8
0
 10
11.7562
 20
10.0439
 30
0.0
 40
0.0115
 41
0.0115
  0
VERTEX
  8
0
 10
11.7528
 20
10.061
 30
0.0
 40
0.0115
 41
0.0115
  0
VERTEX
  8
0
 10
11.7434
 20
10.0749
 30
0.0
 40
0.0115
 41
0.0115
  0
VERTEX
  8
0
 10
11.7295
 20
10.0843
 30
0.0
 40
0.0115
 41
0.0115
  0
VERTEX
  8
0
 10
11.7125
 20
10.0877
 30
0.0
 40
0.0115
 41
0.0115
  0
VERTEX
  8
0
 10
11.6954
 20
10.0843
 30
0.0
 40
0.0115
 41
0.0115
  0
VERTEX
  8
0
 10
11.6815
 20
10.0749
 30
0.0
 40
0.0115
 41
0.0115
  0
VERTEX
  8
0
 10
11.6722
 20
10.061
 30
0.0
 40
0.0115
 41
0.0115
  0
VERTEX
  8
0
 10
11.6687
 20
10.0439
 30
0.0
 40
0.0115
 41
0.0115
  0
VERTEX
  8
0
 10
11.6722
 20
10.027
 30
0.0
 40
0.0115
 41
0.0115
  0
VERTEX
  8
0
 10
11.6815
 20
10.0131
 30
0.0
 40
0.0115
 41
0.0115
  0
VERTEX
  8
0
 10
11.6954
 20
10.0037
 30
0.0
 40
0.0115
 41
0.0115
  0
VERTEX
  8
0
 10
11.7125
 20
10.0002
 30
0.0
 40
0.0115
 41
0.0115
  0
SEQEND
 8
0
  0
POLYLINE
  8
0
 62
     0
 66
     1
 10
0
 20
0
 30
0.0
 70
     1
 40
0.828
 41
0.828
  0
VERTEX
  8
0
 10
11.6917
 20
10.2996
 30
0.0
 40
0.0115
 41
0.0115
  0
VERTEX
  8
0
 10
11.6952
 20
10.2826
 30
0.0
 40
0.0115
 41
0.0115
  0
VERTEX
  8
0
 10
11.7045
 20
10.2687
 30
0.0
 40
0.0115
 41
0.0115
  0
VERTEX
  8
0
 10
11.7184
 20
10.2593
 30
0.0
 40
0.0115
 41
0.0115
  0
VERTEX
  8
0
 10
11.7355
 20
10.2559
 30
0.0
 40
0.0115
 41
0.0115
  0
VERTEX
  8
0
 10
11.7525
 20
10.2593
 30
0.0
 40
0.0115
 41
0.0115
  0
VERTEX
  8
0
 10
11.7664
 20
10.2687
 30
0.0
 40
0.0115
 41
0.0115
  0
VERTEX
  8
0
 10
11.7758
 20
10.2826
 30
0.0
 40
0.0115
 41
0.0115
  0
VERTEX
  8
0
 10
11.7792
 20
10.2996
 30
0.0
 40
0.0115
 41
0.0115
  0
VERTEX
  8
0
 10
11.7758
 20
10.3167
 30
0.0
 40
0.0115
 41
0.0115
  0
VERTEX
  8
0
 10
11.7664
 20
10.3306
 30
0.0
 40
0.0115
 41
0.0115
  0
VERTEX
  8
0
 10
11.7525
 20
10.34
 30
0.0
 40
0.0115
 41
0.0115
  0
VERTEX
  8
0
 10
11.7355
 20
10.3434
 30
0.0
 40
0.0115
 41
0.0115
  0
VERTEX
  8
0
 10
11.7184
 20
10.34
 30
0.0
 40
0.0115
 41
0.0115
  0
VERTEX
  8
0
 10
11.7045
 20
10.3306
 30
0.0
 40
0.0115
 41
0.0115
  0
VERTEX
  8
0
 10
11.6952
 20
10.3167
 30
0.0
 40
0.0115
 41
0.0115
  0
VERTEX
  8
0
 10
11.6917
 20
10.2996
 30
0.0
 40
0.0115
 41
0.0115
  0
SEQEND
 8
0
  0
POLYLINE
  8
0
 62
     0
 66
     1
 10
0
 20
0
 30
0.0
 70
     1
 40
0.828
 41
0.828
  0
VERTEX
  8
0
 10
2.3915
 20
9.77908
 30
0.0
 40
0.0115
 41
0.0115
  0
VERTEX
  8
0
 10
2.40847
 20
9.78256
 30
0.0
 40
0.0115
 41
0.0115
  0
VERTEX
  8
0
 10
2.42236
 20
9.79194
 30
0.0
 40
0.0115
 41
0.0115
  0
VERTEX
  8
0
 10
2.43175
 20
9.80583
 30
0.0
 40
0.0115
 41
0.0115
  0
VERTEX
  8
0
 10
2.43522
 20
9.82281
 30
0.0
 40
0.0115
 41
0.0115
  0
VERTEX
  8
0
 10
2.43175
 20
9.8399
 30
0.0
 40
0.0115
 41
0.0115
  0
VERTEX
  8
0
 10
2.42236
 20
9.85379
 30
0.0
 40
0.0115
 41
0.0115
  0
VERTEX
  8
0
 10
2.40847
 20
9.86317
 30
0.0
 40
0.0115
 41
0.0115
  0
VERTEX
  8
0
 10
2.3915
 20
9.8666
 30
0.0
 40
0.0115
 41
0.0115
  0
VERTEX
  8
0
 10
2.3744
 20
9.86317
 30
0.0
 40
0.0115
 41
0.0115
  0
VERTEX
  8
0
 10
2.36051
 20
9.85379
 30
0.0
 40
0.0115
 41
0.0115
  0
VERTEX
  8
0
 10
2.35113
 20
9.8399
 30
0.0
 40
0.0115
 41
0.0115
  0
VERTEX
  8
0
 10
2.34771
 20
9.82281
 30
0.0
 40
0.0115
 41
0.0115
  0
VERTEX
  8
0
 10
2.35113
 20
9.80583
 30
0.0
 40
0.0115
 41
0.0115
  0
VERTEX
  8
0
 10
2.36051
 20
9.79194
 30
0.0
 40
0.0115
 41
0.0115
  0
VERTEX
  8
0
 10
2.3744
 20
9.78256
 30
0.0
 40
0.0115
 41
0.0115
  0
VERTEX
  8
0
 10
2.3915
 20
9.77908
 30
0.0
 40
0.0115
 41
0.0115
  0
SEQEND
 8
0
  0
POLYLINE
  8
0
 62
     0
 66
     1
 10
0
 20
0
 30
0.0
 70
     1
 40
0.828
 41
0.828
  0
VERTEX
  8
0
 10
7.05197
 20
9.78336
 30
0.0
 40
0.0115
 41
0.0115
  0
VERTEX
  8
0
 10
7.06896
 20
9.78683
 30
0.0
 40
0.0115
 41
0.0115
  0
VERTEX
  8
0
 10
7.08285
 20
9.79622
 30
0.0
 40
0.0115
 41
0.0115
  0
VERTEX
  8
0
 10
7.09224
 20
9.81011
 30
0.0
 40
0.0115
 41
0.0115
  0
VERTEX
  8
0
 10
7.09571
 20
9.82715
 30
0.0
 40
0.0115
 41
0.0115
  0
VERTEX
  8
0
 10
7.09224
 20
9.84418
 30
0.0
 40
0.0115
 41
0.0115
  0
VERTEX
  8
0
 10
7.08285
 20
9.85807
 30
0.0
 40
0.0115
 41
0.0115
  0
VERTEX
  8
0
 10
7.06896
 20
9.86746
 30
0.0
 40
0.0115
 41
0.0115
  0
VERTEX
  8
0
 10
7.05197
 20
9.87088
 30
0.0
 40
0.0115
 41
0.0115
  0
VERTEX
  8
0
 10
7.03494
 20
9.86746
 30
0.0
 40
0.0115
 41
0.0115
  0
VERTEX
  8
0
 10
7.02106
 20
9.85807
 30
0.0
 40
0.0115
 41
0.0115
  0
VERTEX
  8
0
 10
7.01167
 20
9.84418
 30
0.0
 40
0.0115
 41
0.0115
  0
VERTEX
  8
0
 10
7.00825
 20
9.82715
 30
0.0
 40
0.0115
 41
0.0115
  0
VERTEX
  8
0
 10
7.01167
 20
9.81011
 30
0.0
 40
0.0115
 41
0.0115
  0
VERTEX
  8
0
 10
7.02106
 20
9.79622
 30
0.0
 40
0.0115
 41
0.0115
  0
VERTEX
  8
0
 10
7.03494
 20
9.78683
 30
0.0
 40
0.0115
 41
0.0115
  0
VERTEX
  8
0
 10
7.05197
 20
9.78336
 30
0.0
 40
0.0115
 41
0.0115
  0
SEQEND
 8
0
  0
POLYLINE
  8
0
 62
     0
 66
     1
 10
0
 20
0
 30
0.0
 70
     1
 40
0.828
 41
0.828
  0
VERTEX
  8
0
 10
11.7125
 20
9.78765
 30
0.0
 40
0.0115
 41
0.0115
  0
VERTEX
  8
0
 10
11.7295
 20
9.79113
 30
0.0
 40
0.0115
 41
0.0115
  0
VERTEX
  8
0
 10
11.7434
 20
9.80051
 30
0.0
 40
0.0115
 41
0.0115
  0
VERTEX
  8
0
 10
11.7528
 20
9.8144
 30
0.0
 40
0.0115
 41
0.0115
  0
VERTEX
  8
0
 10
11.7562
 20
9.83143
 30
0.0
 40
0.0115
 41
0.0115
  0
VERTEX
  8
0
 10
11.7528
 20
9.84847
 30
0.0
 40
0.0115
 41
0.0115
  0
VERTEX
  8
0
 10
11.7434
 20
9.86236
 30
0.0
 40
0.0115
 41
0.0115
  0
VERTEX
  8
0
 10
11.7295
 20
9.87175
 30
0.0
 40
0.0115
 41
0.0115
  0
VERTEX
  8
0
 10
11.7125
 20
9.87517
 30
0.0
 40
0.0115
 41
0.0115
  0
VERTEX
  8
0
 10
11.6954
 20
9.87175
 30
0.0
 40
0.0115
 41
0.0115
  0
VERTEX
  8
0
 10
11.6815
 20
9.86236
 30
0.0
 40
0.0115
 41
0.0115
  0
VERTEX
  8
0
 10
11.6722
 20
9.84847
 30
0.0
 40
0.0115
 41
0.0115
  0
VERTEX
  8
0
 10
11.6687
 20
9.83143
 30
0.0
 40
0.0115
 41
0.0115
  0
VERTEX
  8
0
 10
11.6722
 20
9.8144
 30
0.0
 40
0.0115
 41
0.0115
  0
VERTEX
  8
0
 10
11.6815
 20
9.80051
 30
0.0
 40
0.0115
 41
0.0115
  0
VERTEX
  8
0
 10
11.6954
 20
9.79113
 30
0.0
 40
0.0115
 41
0.0115
  0
VERTEX
  8
0
 10
11.7125
 20
9.78765
 30
0.0
 40
0.0115
 41
0.0115
  0
SEQEND
 8
0
  0
POLYLINE
  8
0
 62
     0
 66
     1
 10
0
 20
0
 30
0.0
 70
     1
 40
0.828
 41
0.828
  0
VERTEX
  8
0
 10
11.4792
 20
10.2996
 30
0.0
 40
0.0115
 41
0.0115
  0
VERTEX
  8
0
 10
11.4826
 20
10.2826
 30
0.0
 40
0.0115
 41
0.0115
  0
VERTEX
  8
0
 10
11.492
 20
10.2687
 30
0.0
 40
0.0115
 41
0.0115
  0
VERTEX
  8
0
 10
11.5059
 20
10.2593
 30
0.0
 40
0.0115
 41
0.0115
  0
VERTEX
  8
0
 10
11.5229
 20
10.2559
 30
0.0
 40
0.0115
 41
0.0115
  0
VERTEX
  8
0
 10
11.54
 20
10.2593
 30
0.0
 40
0.0115
 41
0.0115
  0
VERTEX
  8
0
 10
11.5539
 20
10.2687
 30
0.0
 40
0.0115
 41
0.0115
  0
VERTEX
  8
0
 10
11.5633
 20
10.2826
 30
0.0
 40
0.0115
 41
0.0115
  0
VERTEX
  8
0
 10
11.5667
 20
10.2996
 30
0.0
 40
0.0115
 41
0.0115
  0
VERTEX
  8
0
 10
11.5633
 20
10.3167
 30
0.0
 40
0.0115
 41
0.0115
  0
VERTEX
  8
0
 10
11.5539
 20
10.3306
 30
0.0
 40
0.0115
 41
0.0115
  0
VERTEX
  8
0
 10
11.54
 20
10.34
 30
0.0
 40
0.0115
 41
0.0115
  0
VERTEX
  8
0
 10
11.5229
 20
10.3434
 30
0.0
 40
0.0115
 41
0.0115
  0
VERTEX
  8
0
 10
11.5059
 20
10.34
 30
0.0
 40
0.0115
 41
0.0115
  0
VERTEX
  8
0
 10
11.492
 20
10.3306
 30
0.0
 40
0.0115
 41
0.0115
  0
VERTEX
  8
0
 10
11.4826
 20
10.3167
 30
0.0
 40
0.0115
 41
0.0115
  0
VERTEX
  8
0
 10
11.4792
 20
10.2996
 30
0.0
 40
0.0115
 41
0.0115
  0
SEQEND
 8
0
  0
POLYLINE
  8
0
 62
     0
 66
     1
 10
0
 20
0
 30
0.0
 70
     1
 40
0.828
 41
0.828
  0
VERTEX
  8
0
 10
2.15528
 20
9.82363
 30
0.0
 40
0.0115
 41
0.0115
  0
VERTEX
  8
0
 10
2.1754
 20
9.83197
 30
0.0
 40
0.0115
 41
0.0115
  0
VERTEX
  8
0
 10
2.18375
 20
9.85211
 30
0.0
 40
0.0115
 41
0.0115
  0
VERTEX
  8
0
 10
2.1754
 20
9.87235
 30
0.0
 40
0.0115
 41
0.0115
  0
VERTEX
  8
0
 10
2.15528
 20
9.88064
 30
0.0
 40
0.0115
 41
0.0115
  0
VERTEX
  8
0
 10
2.1351
 20
9.87235
 30
0.0
 40
0.0115
 41
0.0115
  0
VERTEX
  8
0
 10
2.12674
 20
9.85211
 30
0.0
 40
0.0115
 41
0.0115
  0
VERTEX
  8
0
 10
2.1351
 20
9.83197
 30
0.0
 40
0.0115
 41
0.0115
  0
VERTEX
  8
0
 10
2.15528
 20
9.82363
 30
0.0
 40
0.0115
 41
0.0115
  0
SEQEND
 8
0
  0
POLYLINE
  8
0
 62
     0
 66
     1
 10
0
 20
0
 30
0.0
 70
     1
 40
0.828
 41
0.828
  0
VERTEX
  8
0
 10
6.81575
 20
9.8279
 30
0.0
 40
0.0115
 41
0.0115
  0
VERTEX
  8
0
 10
6.83589
 20
9.83632
 30
0.0
 40
0.0115
 41
0.0115
  0
VERTEX
  8
0
 10
6.84429
 20
9.85644
 30
0.0
 40
0.0115
 41
0.0115
  0
VERTEX
  8
0
 10
6.83589
 20
9.87663
 30
0.0
 40
0.0115
 41
0.0115
  0
VERTEX
  8
0
 10
6.81575
 20
9.88493
 30
0.0
 40
0.0115
 41
0.0115
  0
VERTEX
  8
0
 10
6.79557
 20
9.87663
 30
0.0
 40
0.0115
 41
0.0115
  0
VERTEX
  8
0
 10
6.78728
 20
9.85644
 30
0.0
 40
0.0115
 41
0.0115
  0
VERTEX
  8
0
 10
6.79557
 20
9.83632
 30
0.0
 40
0.0115
 41
0.0115
  0
VERTEX
  8
0
 10
6.81575
 20
9.8279
 30
0.0
 40
0.0115
 41
0.0115
  0
SEQEND
 8
0
  0
POLYLINE
  8
0
 62
     0
 66
     1
 10
0
 20
0
 30
0.0
 70
     1
 40
0.828
 41
0.828
  0
VERTEX
  8
0
 10
11.4763
 20
9.83231
 30
0.0
 40
0.0115
 41
0.0115
  0
VERTEX
  8
0
 10
11.4964
 20
9.84065
 30
0.0
 40
0.0115
 41
0.0115
  0
VERTEX
  8
0
 10
11.5048
 20
9.86079
 30
0.0
 40
0.0115
 41
0.0115
  0
VERTEX
  8
0
 10
11.4964
 20
9.88097
 30
0.0
 40
0.0115
 41
0.0115
  0
VERTEX
  8
0
 10
11.4763
 20
9.88926
 30
0.0
 40
0.0115
 41
0.0115
  0
VERTEX
  8
0
 10
11.4561
 20
9.88097
 30
0.0
 40
0.0115
 41
0.0115
  0
VERTEX
  8
0
 10
11.4477
 20
9.86079
 30
0.0
 40
0.0115
 41
0.0115
  0
VERTEX
  8
0
 10
11.4561
 20
9.84065
 30
0.0
 40
0.0115
 41
0.0115
  0
VERTEX
  8
0
 10
11.4763
 20
9.83231
 30
0.0
 40
0.0115
 41
0.0115
  0
SEQEND
 8
0
  0
POLYLINE
  8
0
 62
     0
 66
     1
 10
0
 20
0
 30
0.0
 70
     1
 40
0.828
 41
0.828
  0
VERTEX
  8
0
 10
11.5238
 20
10.5358
 30
0.0
 40
0.0115
 41
0.0115
  0
VERTEX
  8
0
 10
11.5321
 20
10.5157
 30
0.0
 40
0.0115
 41
0.0115
  0
VERTEX
  8
0
 10
11.5523
 20
10.5073
 30
0.0
 40
0.0115
 41
0.0115
  0
VERTEX
  8
0
 10
11.5724
 20
10.5157
 30
0.0
 40
0.0115
 41
0.0115
  0
VERTEX
  8
0
 10
11.5808
 20
10.5358
 30
0.0
 40
0.0115
 41
0.0115
  0
VERTEX
  8
0
 10
11.5724
 20
10.556
 30
0.0
 40
0.0115
 41
0.0115
  0
VERTEX
  8
0
 10
11.5523
 20
10.5643
 30
0.0
 40
0.0115
 41
0.0115
  0
VERTEX
  8
0
 10
11.5321
 20
10.556
 30
0.0
 40
0.0115
 41
0.0115
  0
VERTEX
  8
0
 10
11.5238
 20
10.5358
 30
0.0
 40
0.0115
 41
0.0115
  0
SEQEND
 8
0
  0
POLYLINE
  8
0
 62
     0
 66
     1
 10
0
 20
0
 30
0.0
 70
     1
 40
0.828
 41
0.828
  0
VERTEX
  8
0
 10
2.15267
 20
9.39106
 30
0.0
 40
0.0115
 41
0.0115
  0
VERTEX
  8
0
 10
2.17279
 20
9.39947
 30
0.0
 40
0.0115
 41
0.0115
  0
VERTEX
  8
0
 10
2.18115
 20
9.4196
 30
0.0
 40
0.0115
 41
0.0115
  0
VERTEX
  8
0
 10
2.17279
 20
9.43978
 30
0.0
 40
0.0115
 41
0.0115
  0
VERTEX
  8
0
 10
2.15267
 20
9.44808
 30
0.0
 40
0.0115
 41
0.0115
  0
VERTEX
  8
0
 10
2.13249
 20
9.43978
 30
0.0
 40
0.0115
 41
0.0115
  0
VERTEX
  8
0
 10
2.12414
 20
9.4196
 30
0.0
 40
0.0115
 41
0.0115
  0
VERTEX
  8
0
 10
2.13249
 20
9.39947
 30
0.0
 40
0.0115
 41
0.0115
  0
VERTEX
  8
0
 10
2.15267
 20
9.39106
 30
0.0
 40
0.0115
 41
0.0115
  0
SEQEND
 8
0
  0
POLYLINE
  8
0
 62
     0
 66
     1
 10
0
 20
0
 30
0.0
 70
     1
 40
0.828
 41
0.828
  0
VERTEX
  8
0
 10
6.81315
 20
9.3954
 30
0.0
 40
0.0115
 41
0.0115
  0
VERTEX
  8
0
 10
6.83333
 20
9.40375
 30
0.0
 40
0.0115
 41
0.0115
  0
VERTEX
  8
0
 10
6.84169
 20
9.42389
 30
0.0
 40
0.0115
 41
0.0115
  0
VERTEX
  8
0
 10
6.83333
 20
9.44407
 30
0.0
 40
0.0115
 41
0.0115
  0
VERTEX
  8
0
 10
6.81315
 20
9.45236
 30
0.0
 40
0.0115
 41
0.0115
  0
VERTEX
  8
0
 10
6.79297
 20
9.44407
 30
0.0
 40
0.0115
 41
0.0115
  0
VERTEX
  8
0
 10
6.78467
 20
9.42389
 30
0.0
 40
0.0115
 41
0.0115
  0
VERTEX
  8
0
 10
6.79297
 20
9.40375
 30
0.0
 40
0.0115
 41
0.0115
  0
VERTEX
  8
0
 10
6.81315
 20
9.3954
 30
0.0
 40
0.0115
 41
0.0115
  0
SEQEND
 8
0
  0
POLYLINE
  8
0
 62
     0
 66
     1
 10
0
 20
0
 30
0.0
 70
     1
 40
0.828
 41
0.828
  0
VERTEX
  8
0
 10
11.4737
 20
9.39968
 30
0.0
 40
0.0115
 41
0.0115
  0
VERTEX
  8
0
 10
11.4938
 20
9.40804
 30
0.0
 40
0.0115
 41
0.0115
  0
VERTEX
  8
0
 10
11.5022
 20
9.42817
 30
0.0
 40
0.0115
 41
0.0115
  0
VERTEX
  8
0
 10
11.4938
 20
9.44835
 30
0.0
 40
0.0115
 41
0.0115
  0
VERTEX
  8
0
 10
11.4737
 20
9.45665
 30
0.0
 40
0.0115
 41
0.0115
  0
VERTEX
  8
0
 10
11.4535
 20
9.44835
 30
0.0
 40
0.0115
 41
0.0115
  0
VERTEX
  8
0
 10
11.4452
 20
9.42817
 30
0.0
 40
0.0115
 41
0.0115
  0
VERTEX
  8
0
 10
11.4535
 20
9.40804
 30
0.0
 40
0.0115
 41
0.0115
  0
VERTEX
  8
0
 10
11.4737
 20
9.39968
 30
0.0
 40
0.0115
 41
0.0115
  0
SEQEND
 8
0
  0
POLYLINE
  8
0
 62
     0
 66
     1
 10
0
 20
0
 30
0.0
 70
     1
 40
0.828
 41
0.828
  0
VERTEX
  8
0
 10
11.0912
 20
10.5385
 30
0.0
 40
0.0115
 41
0.0115
  0
VERTEX
  8
0
 10
11.0996
 20
10.5183
 30
0.0
 40
0.0115
 41
0.0115
  0
VERTEX
  8
0
 10
11.1197
 20
10.5099
 30
0.0
 40
0.0115
 41
0.0115
  0
VERTEX
  8
0
 10
11.1399
 20
10.5183
 30
0.0
 40
0.0115
 41
0.0115
  0
VERTEX
  8
0
 10
11.1482
 20
10.5385
 30
0.0
 40
0.0115
 41
0.0115
  0
VERTEX
  8
0
 10
11.1399
 20
10.5587
 30
0.0
 40
0.0115
 41
0.0115
  0
VERTEX
  8
0
 10
11.1197
 20
10.5669
 30
0.0
 40
0.0115
 41
0.0115
  0
VERTEX
  8
0
 10
11.0996
 20
10.5587
 30
0.0
 40
0.0115
 41
0.0115
  0
VERTEX
  8
0
 10
11.0912
 20
10.5385
 30
0.0
 40
0.0115
 41
0.0115
  0
SEQEND
 8
0
  0
POLYLINE
  8
0
 62
     0
 66
     1
 10
0
 20
0
 30
0.0
 70
     1
 40
0.828
 41
0.828
  0
VERTEX
  8
0
 10
1.04839
 20
10.1283
 30
0.0
 40
0.0115
 41
0.0115
  0
VERTEX
  8
0
 10
1.04839
 20
9.9969
 30
0.0
 40
0.0115
 41
0.0115
  0
VERTEX
  8
0
 10
1.16585
 20
9.9969
 30
0.0
 40
0.0115
 41
0.0115
  0
VERTEX
  8
0
 10
1.16585
 20
9.86561
 30
0.0
 40
0.0115
 41
0.0115
  0
VERTEX
  8
0
 10
1.04839
 20
9.86561
 30
0.0
 40
0.0115
 41
0.0115
  0
VERTEX
  8
0
 10
1.04839
 20
9.73432
 30
0.0
 40
0.0115
 41
0.0115
  0
VERTEX
  8
0
 10
1.60362
 20
9.73432
 30
0.0
 40
0.0115
 41
0.0115
  0
VERTEX
  8
0
 10
1.60362
 20
10.1283
 30
0.0
 40
0.0115
 41
0.0115
  0
VERTEX
  8
0
 10
1.04839
 20
10.1283
 30
0.0
 40
0.0115
 41
0.0115
  0
SEQEND
 8
0
  0
POLYLINE
  8
0
 62
     0
 66
     1
 10
0
 20
0
 30
0.0
 70
     1
 40
0.828
 41
0.828
  0
VERTEX
  8
0
 10
5.70888
 20
10.1325
 30
0.0
 40
0.0115
 41
0.0115
  0
VERTEX
  8
0
 10
5.70888
 20
10.0013
 30
0.0
 40
0.0115
 41
0.0115
  0
VERTEX
  8
0
 10
5.82639
 20
10.0013
 30
0.0
 40
0.0115
 41
0.0115
  0
VERTEX
  8
0
 10
5.82639
 20
9.86996
 30
0.0
 40
0.0115
 41
0.0115
  0
VERTEX
  8
0
 10
5.70888
 20
9.86996
 30
0.0
 40
0.0115
 41
0.0115
  0
VERTEX
  8
0
 10
5.70888
 20
9.73867
 30
0.0
 40
0.0115
 41
0.0115
  0
VERTEX
  8
0
 10
6.26411
 20
9.73867
 30
0.0
 40
0.0115
 41
0.0115
  0
VERTEX
  8
0
 10
6.26411
 20
10.1325
 30
0.0
 40
0.0115
 41
0.0115
  0
VERTEX
  8
0
 10
5.70888
 20
10.1325
 30
0.0
 40
0.0115
 41
0.0115
  0
SEQEND
 8
0
  0
POLYLINE
  8
0
 62
     0
 66
     1
 10
0
 20
0
 30
0.0
 70
     1
 40
0.828
 41
0.828
  0
VERTEX
  8
0
 10
10.3694
 20
10.1369
 30
0.0
 40
0.0115
 41
0.0115
  0
VERTEX
  8
0
 10
10.3694
 20
10.0056
 30
0.0
 40
0.0115
 41
0.0115
  0
VERTEX
  8
0
 10
10.4869
 20
10.0056
 30
0.0
 40
0.0115
 41
0.0115
  0
VERTEX
  8
0
 10
10.4869
 20
9.87429
 30
0.0
 40
0.0115
 41
0.0115
  0
VERTEX
  8
0
 10
10.3694
 20
9.87429
 30
0.0
 40
0.0115
 41
0.0115
  0
VERTEX
  8
0
 10
10.3694
 20
9.743
 30
0.0
 40
0.0115
 41
0.0115
  0
VERTEX
  8
0
 10
10.9246
 20
9.743
 30
0.0
 40
0.0115
 41
0.0115
  0
VERTEX
  8
0
 10
10.9246
 20
10.1369
 30
0.0
 40
0.0115
 41
0.0115
  0
VERTEX
  8
0
 10
10.3694
 20
10.1369
 30
0.0
 40
0.0115
 41
0.0115
  0
SEQEND
 8
0
  0
POLYLINE
  8
0
 62
     0
 66
     1
 10
0
 20
0
 30
0.0
 70
     1
 40
0.828
 41
0.828
  0
VERTEX
  8
0
 10
11.8284
 20
11.6427
 30
0.0
 40
0.0115
 41
0.0115
  0
VERTEX
  8
0
 10
11.6971
 20
11.6427
 30
0.0
 40
0.0115
 41
0.0115
  0
VERTEX
  8
0
 10
11.6971
 20
11.5252
 30
0.0
 40
0.0115
 41
0.0115
  0
VERTEX
  8
0
 10
11.5658
 20
11.5252
 30
0.0
 40
0.0115
 41
0.0115
  0
VERTEX
  8
0
 10
11.5658
 20
11.6427
 30
0.0
 40
0.0115
 41
0.0115
  0
VERTEX
  8
0
 10
11.4345
 20
11.6427
 30
0.0
 40
0.0115
 41
0.0115
  0
VERTEX
  8
0
 10
11.4345
 20
11.0875
 30
0.0
 40
0.0115
 41
0.0115
  0
VERTEX
  8
0
 10
11.8284
 20
11.0875
 30
0.0
 40
0.0115
 41
0.0115
  0
VERTEX
  8
0
 10
11.8284
 20
11.6427
 30
0.0
 40
0.0115
 41
0.0115
  0
SEQEND
 8
0
  0
POLYLINE
  8
0
 62
     0
 66
     1
 10
0
 20
0
 30
0.0
 70
     1
 40
0.828
 41
0.828
  0
VERTEX
  8
0
 10
1.55637
 20
9.82585
 30
0.0
 40
0.0115
 41
0.0115
  0
VERTEX
  8
0
 10
1.5765
 20
9.83419
 30
0.0
 40
0.0115
 41
0.0115
  0
VERTEX
  8
0
 10
1.58485
 20
9.85433
 30
0.0
 40
0.0115
 41
0.0115
  0
VERTEX
  8
0
 10
1.5765
 20
9.87451
 30
0.0
 40
0.0115
 41
0.0115
  0
VERTEX
  8
0
 10
1.55637
 20
9.88281
 30
0.0
 40
0.0115
 41
0.0115
  0
VERTEX
  8
0
 10
1.53618
 20
9.87451
 30
0.0
 40
0.0115
 41
0.0115
  0
VERTEX
  8
0
 10
1.52789
 20
9.85433
 30
0.0
 40
0.0115
 41
0.0115
  0
VERTEX
  8
0
 10
1.53618
 20
9.83419
 30
0.0
 40
0.0115
 41
0.0115
  0
VERTEX
  8
0
 10
1.55637
 20
9.82585
 30
0.0
 40
0.0115
 41
0.0115
  0
SEQEND
 8
0
  0
POLYLINE
  8
0
 62
     0
 66
     1
 10
0
 20
0
 30
0.0
 70
     1
 40
0.828
 41
0.828
  0
VERTEX
  8
0
 10
6.21685
 20
9.83018
 30
0.0
 40
0.0115
 41
0.0115
  0
VERTEX
  8
0
 10
6.23703
 20
9.83854
 30
0.0
 40
0.0115
 41
0.0115
  0
VERTEX
  8
0
 10
6.24539
 20
9.85867
 30
0.0
 40
0.0115
 41
0.0115
  0
VERTEX
  8
0
 10
6.23703
 20
9.87885
 30
0.0
 40
0.0115
 41
0.0115
  0
VERTEX
  8
0
 10
6.21685
 20
9.88715
 30
0.0
 40
0.0115
 41
0.0115
  0
VERTEX
  8
0
 10
6.19667
 20
9.87885
 30
0.0
 40
0.0115
 41
0.0115
  0
VERTEX
  8
0
 10
6.18836
 20
9.85867
 30
0.0
 40
0.0115
 41
0.0115
  0
VERTEX
  8
0
 10
6.19667
 20
9.83854
 30
0.0
 40
0.0115
 41
0.0115
  0
VERTEX
  8
0
 10
6.21685
 20
9.83018
 30
0.0
 40
0.0115
 41
0.0115
  0
SEQEND
 8
0
  0
POLYLINE
  8
0
 62
     0
 66
     1
 10
0
 20
0
 30
0.0
 70
     1
 40
0.828
 41
0.828
  0
VERTEX
  8
0
 10
10.8774
 20
9.83447
 30
0.0
 40
0.0115
 41
0.0115
  0
VERTEX
  8
0
 10
10.8975
 20
9.84283
 30
0.0
 40
0.0115
 41
0.0115
  0
VERTEX
  8
0
 10
10.9059
 20
9.86296
 30
0.0
 40
0.0115
 41
0.0115
  0
VERTEX
  8
0
 10
10.8975
 20
9.88314
 30
0.0
 40
0.0115
 41
0.0115
  0
VERTEX
  8
0
 10
10.8774
 20
9.8915
 30
0.0
 40
0.0115
 41
0.0115
  0
VERTEX
  8
0
 10
10.8572
 20
9.88314
 30
0.0
 40
0.0115
 41
0.0115
  0
VERTEX
  8
0
 10
10.8488
 20
9.86296
 30
0.0
 40
0.0115
 41
0.0115
  0
VERTEX
  8
0
 10
10.8572
 20
9.84283
 30
0.0
 40
0.0115
 41
0.0115
  0
VERTEX
  8
0
 10
10.8774
 20
9.83447
 30
0.0
 40
0.0115
 41
0.0115
  0
SEQEND
 8
0
  0
POLYLINE
  8
0
 62
     0
 66
     1
 10
0
 20
0
 30
0.0
 70
     1
 40
0.828
 41
0.828
  0
VERTEX
  8
0
 10
11.526
 20
11.1347
 30
0.0
 40
0.0115
 41
0.0115
  0
VERTEX
  8
0
 10
11.5343
 20
11.1146
 30
0.0
 40
0.0115
 41
0.0115
  0
VERTEX
  8
0
 10
11.5545
 20
11.1062
 30
0.0
 40
0.0115
 41
0.0115
  0
VERTEX
  8
0
 10
11.5746
 20
11.1146
 30
0.0
 40
0.0115
 41
0.0115
  0
VERTEX
  8
0
 10
11.583
 20
11.1347
 30
0.0
 40
0.0115
 41
0.0115
  0
VERTEX
  8
0
 10
11.5746
 20
11.1549
 30
0.0
 40
0.0115
 41
0.0115
  0
VERTEX
  8
0
 10
11.5545
 20
11.1633
 30
0.0
 40
0.0115
 41
0.0115
  0
VERTEX
  8
0
 10
11.5343
 20
11.1549
 30
0.0
 40
0.0115
 41
0.0115
  0
VERTEX
  8
0
 10
11.526
 20
11.1347
 30
0.0
 40
0.0115
 41
0.0115
  0
SEQEND
 8
0
  0
POLYLINE
  8
0
 62
     0
 66
     1
 10
0
 20
0
 30
0.0
 70
     1
 40
0.828
 41
0.828
  0
VERTEX
  8
0
 10
5.47472
 20
14.8811
 30
0.0
 40
0.0115
 41
0.0115
  0
VERTEX
  8
0
 10
5.47472
 20
12.9127
 30
0.0
 40
0.0115
 41
0.0115
  0
VERTEX
  8
0
 10
2.84978
 20
12.9127
 30
0.0
 40
0.0115
 41
0.0115
  0
VERTEX
  8
0
 10
2.84978
 20
14.8811
 30
0.0
 40
0.0115
 41
0.0115
  0
VERTEX
  8
0
 10
4.01226
 20
14.8811
 30
0.0
 40
0.0115
 41
0.0115
  0
VERTEX
  8
0
 10
4.01226
 20
14.0938
 30
0.0
 40
0.0115
 41
0.0115
  0
VERTEX
  8
0
 10
4.16228
 20
14.0938
 30
0.0
 40
0.0115
 41
0.0115
  0
VERTEX
  8
0
 10
4.31222
 20
14.0938
 30
0.0
 40
0.0115
 41
0.0115
  0
VERTEX
  8
0
 10
4.31222
 20
14.8811
 30
0.0
 40
0.0115
 41
0.0115
  0
VERTEX
  8
0
 10
5.47472
 20
14.8811
 30
0.0
 40
0.0115
 41
0.0115
  0
SEQEND
 8
0
  0
POLYLINE
  8
0
 62
     0
 66
     1
 10
0
 20
0
 30
0.0
 70
     1
 40
0.828
 41
0.828
  0
VERTEX
  8
0
 10
3.90728
 20
14.2906
 30
0.0
 40
0.0115
 41
0.0115
  0
VERTEX
  8
0
 10
3.79226
 20
14.2906
 30
0.0
 40
0.0115
 41
0.0115
  0
VERTEX
  8
0
 10
3.79226
 20
14.1593
 30
0.0
 40
0.0115
 41
0.0115
  0
VERTEX
  8
0
 10
3.90728
 20
14.1593
 30
0.0
 40
0.0115
 41
0.0115
  0
VERTEX
  8
0
 10
3.90728
 20
14.2906
 30
0.0
 40
0.0115
 41
0.0115
  0
SEQEND
 8
0
  0
POLYLINE
  8
0
 62
     0
 66
     1
 10
0
 20
0
 30
0.0
 70
     1
 40
0.828
 41
0.828
  0
VERTEX
  8
0
 10
3.90728
 20
14.0281
 30
0.0
 40
0.0115
 41
0.0115
  0
VERTEX
  8
0
 10
3.79226
 20
14.0281
 30
0.0
 40
0.0115
 41
0.0115
  0
VERTEX
  8
0
 10
3.79226
 20
13.8967
 30
0.0
 40
0.0115
 41
0.0115
  0
VERTEX
  8
0
 10
3.90728
 20
13.8967
 30
0.0
 40
0.0115
 41
0.0115
  0
VERTEX
  8
0
 10
3.90728
 20
14.0281
 30
0.0
 40
0.0115
 41
0.0115
  0
SEQEND
 8
0
  0
POLYLINE
  8
0
 62
     0
 66
     1
 10
0
 20
0
 30
0.0
 70
     1
 40
0.828
 41
0.828
  0
VERTEX
  8
0
 10
3.74224
 20
14.0281
 30
0.0
 40
0.0115
 41
0.0115
  0
VERTEX
  8
0
 10
3.74224
 20
13.8967
 30
0.0
 40
0.0115
 41
0.0115
  0
VERTEX
  8
0
 10
3.62728
 20
13.8967
 30
0.0
 40
0.0115
 41
0.0115
  0
VERTEX
  8
0
 10
3.62728
 20
14.0281
 30
0.0
 40
0.0115
 41
0.0115
  0
VERTEX
  8
0
 10
3.74224
 20
14.0281
 30
0.0
 40
0.0115
 41
0.0115
  0
SEQEND
 8
0
  0
POLYLINE
  8
0
 62
     0
 66
     1
 10
0
 20
0
 30
0.0
 70
     1
 40
0.828
 41
0.828
  0
VERTEX
  8
0
 10
3.73953
 20
14.1593
 30
0.0
 40
0.0115
 41
0.0115
  0
VERTEX
  8
0
 10
3.73953
 20
14.2906
 30
0.0
 40
0.0115
 41
0.0115
  0
VERTEX
  8
0
 10
3.62451
 20
14.2906
 30
0.0
 40
0.0115
 41
0.0115
  0
VERTEX
  8
0
 10
3.62451
 20
14.1593
 30
0.0
 40
0.0115
 41
0.0115
  0
VERTEX
  8
0
 10
3.73953
 20
14.1593
 30
0.0
 40
0.0115
 41
0.0115
  0
SEQEND
 8
0
  0
POLYLINE
  8
0
 62
     0
 66
     1
 10
0
 20
0
 30
0.0
 70
     1
 40
0.828
 41
0.828
  0
VERTEX
  8
0
 10
5.21289
 20
14.389
 30
0.0
 40
0.0115
 41
0.0115
  0
VERTEX
  8
0
 10
5.21799
 20
14.3637
 30
0.0
 40
0.0115
 41
0.0115
  0
VERTEX
  8
0
 10
5.23188
 20
14.3431
 30
0.0
 40
0.0115
 41
0.0115
  0
VERTEX
  8
0
 10
5.25256
 20
14.3292
 30
0.0
 40
0.0115
 41
0.0115
  0
VERTEX
  8
0
 10
5.27789
 20
14.324
 30
0.0
 40
0.0115
 41
0.0115
  0
VERTEX
  8
0
 10
5.30317
 20
14.3292
 30
0.0
 40
0.0115
 41
0.0115
  0
VERTEX
  8
0
 10
5.32378
 20
14.3431
 30
0.0
 40
0.0115
 41
0.0115
  0
VERTEX
  8
0
 10
5.33772
 20
14.3637
 30
0.0
 40
0.0115
 41
0.0115
  0
VERTEX
  8
0
 10
5.34289
 20
14.389
 30
0.0
 40
0.0115
 41
0.0115
  0
VERTEX
  8
0
 10
5.33772
 20
14.4143
 30
0.0
 40
0.0115
 41
0.0115
  0
VERTEX
  8
0
 10
5.32378
 20
14.435
 30
0.0
 40
0.0115
 41
0.0115
  0
VERTEX
  8
0
 10
5.30317
 20
14.4489
 30
0.0
 40
0.0115
 41
0.0115
  0
VERTEX
  8
0
 10
5.27789
 20
14.454
 30
0.0
 40
0.0115
 41
0.0115
  0
VERTEX
  8
0
 10
5.25256
 20
14.4489
 30
0.0
 40
0.0115
 41
0.0115
  0
VERTEX
  8
0
 10
5.23188
 20
14.435
 30
0.0
 40
0.0115
 41
0.0115
  0
VERTEX
  8
0
 10
5.21799
 20
14.4143
 30
0.0
 40
0.0115
 41
0.0115
  0
VERTEX
  8
0
 10
5.21289
 20
14.389
 30
0.0
 40
0.0115
 41
0.0115
  0
VERTEX
  8
0
 10
5.21289
 20
14.389
 30
0.0
 40
0.0115
 41
0.0115
  0
SEQEND
 8
0
  0
POLYLINE
  8
0
 62
     0
 66
     1
 10
0
 20
0
 30
0.0
 70
     1
 40
0.828
 41
0.828
  0
VERTEX
  8
0
 10
5.21289
 20
13.6016
 30
0.0
 40
0.0115
 41
0.0115
  0
VERTEX
  8
0
 10
5.21799
 20
13.5763
 30
0.0
 40
0.0115
 41
0.0115
  0
VERTEX
  8
0
 10
5.23188
 20
13.5557
 30
0.0
 40
0.0115
 41
0.0115
  0
VERTEX
  8
0
 10
5.25256
 20
13.5418
 30
0.0
 40
0.0115
 41
0.0115
  0
VERTEX
  8
0
 10
5.27789
 20
13.5366
 30
0.0
 40
0.0115
 41
0.0115
  0
VERTEX
  8
0
 10
5.30317
 20
13.5418
 30
0.0
 40
0.0115
 41
0.0115
  0
VERTEX
  8
0
 10
5.32378
 20
13.5557
 30
0.0
 40
0.0115
 41
0.0115
  0
VERTEX
  8
0
 10
5.33772
 20
13.5763
 30
0.0
 40
0.0115
 41
0.0115
  0
VERTEX
  8
0
 10
5.34289
 20
13.6016
 30
0.0
 40
0.0115
 41
0.0115
  0
VERTEX
  8
0
 10
5.33772
 20
13.627
 30
0.0
 40
0.0115
 41
0.0115
  0
VERTEX
  8
0
 10
5.32378
 20
13.6476
 30
0.0
 40
0.0115
 41
0.0115
  0
VERTEX
  8
0
 10
5.30317
 20
13.6615
 30
0.0
 40
0.0115
 41
0.0115
  0
VERTEX
  8
0
 10
5.27789
 20
13.6666
 30
0.0
 40
0.0115
 41
0.0115
  0
VERTEX
  8
0
 10
5.25256
 20
13.6615
 30
0.0
 40
0.0115
 41
0.0115
  0
VERTEX
  8
0
 10
5.23188
 20
13.6476
 30
0.0
 40
0.0115
 41
0.0115
  0
VERTEX
  8
0
 10
5.21799
 20
13.627
 30
0.0
 40
0.0115
 41
0.0115
  0
VERTEX
  8
0
 10
5.21289
 20
13.6016
 30
0.0
 40
0.0115
 41
0.0115
  0
VERTEX
  8
0
 10
5.21289
 20
13.6016
 30
0.0
 40
0.0115
 41
0.0115
  0
SEQEND
 8
0
  0
POLYLINE
  8
0
 62
     0
 66
     1
 10
0
 20
0
 30
0.0
 70
     1
 40
0.828
 41
0.828
  0
VERTEX
  8
0
 10
2.98161
 20
13.6016
 30
0.0
 40
0.0115
 41
0.0115
  0
VERTEX
  8
0
 10
2.98671
 20
13.5763
 30
0.0
 40
0.0115
 41
0.0115
  0
VERTEX
  8
0
 10
3.0006
 20
13.5557
 30
0.0
 40
0.0115
 41
0.0115
  0
VERTEX
  8
0
 10
3.02126
 20
13.5418
 30
0.0
 40
0.0115
 41
0.0115
  0
VERTEX
  8
0
 10
3.0466
 20
13.5366
 30
0.0
 40
0.0115
 41
0.0115
  0
VERTEX
  8
0
 10
3.07189
 20
13.5418
 30
0.0
 40
0.0115
 41
0.0115
  0
VERTEX
  8
0
 10
3.09256
 20
13.5557
 30
0.0
 40
0.0115
 41
0.0115
  0
VERTEX
  8
0
 10
3.10644
 20
13.5763
 30
0.0
 40
0.0115
 41
0.0115
  0
VERTEX
  8
0
 10
3.1116
 20
13.6016
 30
0.0
 40
0.0115
 41
0.0115
  0
VERTEX
  8
0
 10
3.10644
 20
13.627
 30
0.0
 40
0.0115
 41
0.0115
  0
VERTEX
  8
0
 10
3.09256
 20
13.6476
 30
0.0
 40
0.0115
 41
0.0115
  0
VERTEX
  8
0
 10
3.07189
 20
13.6615
 30
0.0
 40
0.0115
 41
0.0115
  0
VERTEX
  8
0
 10
3.0466
 20
13.6666
 30
0.0
 40
0.0115
 41
0.0115
  0
VERTEX
  8
0
 10
3.02126
 20
13.6615
 30
0.0
 40
0.0115
 41
0.0115
  0
VERTEX
  8
0
 10
3.0006
 20
13.6476
 30
0.0
 40
0.0115
 41
0.0115
  0
VERTEX
  8
0
 10
2.98671
 20
13.627
 30
0.0
 40
0.0115
 41
0.0115
  0
VERTEX
  8
0
 10
2.98161
 20
13.6016
 30
0.0
 40
0.0115
 41
0.0115
  0
SEQEND
 8
0
  0
POLYLINE
  8
0
 62
     0
 66
     1
 10
0
 20
0
 30
0.0
 70
     1
 40
0.828
 41
0.828
  0
VERTEX
  8
0
 10
2.98161
 20
14.389
 30
0.0
 40
0.0115
 41
0.0115
  0
VERTEX
  8
0
 10
2.98671
 20
14.3637
 30
0.0
 40
0.0115
 41
0.0115
  0
VERTEX
  8
0
 10
3.0006
 20
14.3431
 30
0.0
 40
0.0115
 41
0.0115
  0
VERTEX
  8
0
 10
3.02126
 20
14.3292
 30
0.0
 40
0.0115
 41
0.0115
  0
VERTEX
  8
0
 10
3.0466
 20
14.324
 30
0.0
 40
0.0115
 41
0.0115
  0
VERTEX
  8
0
 10
3.07189
 20
14.3292
 30
0.0
 40
0.0115
 41
0.0115
  0
VERTEX
  8
0
 10
3.09256
 20
14.3431
 30
0.0
 40
0.0115
 41
0.0115
  0
VERTEX
  8
0
 10
3.10644
 20
14.3637
 30
0.0
 40
0.0115
 41
0.0115
  0
VERTEX
  8
0
 10
3.1116
 20
14.389
 30
0.0
 40
0.0115
 41
0.0115
  0
VERTEX
  8
0
 10
3.10644
 20
14.4143
 30
0.0
 40
0.0115
 41
0.0115
  0
VERTEX
  8
0
 10
3.09256
 20
14.435
 30
0.0
 40
0.0115
 41
0.0115
  0
VERTEX
  8
0
 10
3.07189
 20
14.4489
 30
0.0
 40
0.0115
 41
0.0115
  0
VERTEX
  8
0
 10
3.0466
 20
14.454
 30
0.0
 40
0.0115
 41
0.0115
  0
VERTEX
  8
0
 10
3.02126
 20
14.4489
 30
0.0
 40
0.0115
 41
0.0115
  0
VERTEX
  8
0
 10
3.0006
 20
14.435
 30
0.0
 40
0.0115
 41
0.0115
  0
VERTEX
  8
0
 10
2.98671
 20
14.4143
 30
0.0
 40
0.0115
 41
0.0115
  0
VERTEX
  8
0
 10
2.98161
 20
14.389
 30
0.0
 40
0.0115
 41
0.0115
  0
SEQEND
 8
0
  0
POLYLINE
  8
0
 62
     0
 66
     1
 10
0
 20
0
 30
0.0
 70
     1
 40
0.828
 41
0.828
  0
VERTEX
  8
0
 10
10.935
 20
12.8664
 30
0.0
 40
0.0115
 41
0.0115
  0
VERTEX
  8
0
 10
10.935
 20
10.2414
 30
0.0
 40
0.0115
 41
0.0115
  0
VERTEX
  8
0
 10
8.31
 20
10.2414
 30
0.0
 40
0.0115
 41
0.0115
  0
VERTEX
  8
0
 10
8.31
 20
12.8664
 30
0.0
 40
0.0115
 41
0.0115
  0
VERTEX
  8
0
 10
9.47254
 20
12.8664
 30
0.0
 40
0.0115
 41
0.0115
  0
VERTEX
  8
0
 10
9.47254
 20
12.2414
 30
0.0
 40
0.0115
 41
0.0115
  0
VERTEX
  8
0
 10
9.6225
 20
12.2414
 30
0.0
 40
0.0115
 41
0.0115
  0
VERTEX
  8
0
 10
9.77251
 20
12.2414
 30
0.0
 40
0.0115
 41
0.0115
  0
VERTEX
  8
0
 10
9.77251
 20
12.8664
 30
0.0
 40
0.0115
 41
0.0115
  0
VERTEX
  8
0
 10
10.935
 20
12.8664
 30
0.0
 40
0.0115
 41
0.0115
  0
SEQEND
 8
0
  0
POLYLINE
  8
0
 62
     0
 66
     1
 10
0
 20
0
 30
0.0
 70
     1
 40
0.828
 41
0.828
  0
VERTEX
  8
0
 10
8.77251
 20
10.5413
 30
0.0
 40
0.0115
 41
0.0115
  0
VERTEX
  8
0
 10
8.8725
 20
10.5413
 30
0.0
 40
0.0115
 41
0.0115
  0
VERTEX
  8
0
 10
8.8725
 20
10.4413
 30
0.0
 40
0.0115
 41
0.0115
  0
VERTEX
  8
0
 10
10.3725
 20
10.4413
 30
0.0
 40
0.0115
 41
0.0115
  0
VERTEX
  8
0
 10
10.3725
 20
10.5413
 30
0.0
 40
0.0115
 41
0.0115
  0
VERTEX
  8
0
 10
10.4725
 20
10.5413
 30
0.0
 40
0.0115
 41
0.0115
  0
VERTEX
  8
0
 10
10.4725
 20
11.9413
 30
0.0
 40
0.0115
 41
0.0115
  0
VERTEX
  8
0
 10
10.3725
 20
11.9413
 30
0.0
 40
0.0115
 41
0.0115
  0
VERTEX
  8
0
 10
10.3725
 20
12.0413
 30
0.0
 40
0.0115
 41
0.0115
  0
VERTEX
  8
0
 10
8.8725
 20
12.0413
 30
0.0
 40
0.0115
 41
0.0115
  0
VERTEX
  8
0
 10
8.8725
 20
11.9413
 30
0.0
 40
0.0115
 41
0.0115
  0
VERTEX
  8
0
 10
8.77251
 20
11.9413
 30
0.0
 40
0.0115
 41
0.0115
  0
VERTEX
  8
0
 10
8.77251
 20
10.5413
 30
0.0
 40
0.0115
 41
0.0115
  0
SEQEND
 8
0
  0
POLYLINE
  8
0
 62
     0
 66
     1
 10
0
 20
0
 30
0.0
 70
     1
 40
0.828
 41
0.828
  0
VERTEX
  8
0
 10
10.5681
 20
12.1285
 30
0.0
 40
0.0115
 41
0.0115
  0
VERTEX
  8
0
 10
10.5681
 20
12.2599
 30
0.0
 40
0.0115
 41
0.0115
  0
VERTEX
  8
0
 10
10.4531
 20
12.2599
 30
0.0
 40
0.0115
 41
0.0115
  0
VERTEX
  8
0
 10
10.4531
 20
12.1285
 30
0.0
 40
0.0115
 41
0.0115
  0
VERTEX
  8
0
 10
10.5681
 20
12.1285
 30
0.0
 40
0.0115
 41
0.0115
  0
SEQEND
 8
0
  0
POLYLINE
  8
0
 62
     0
 66
     1
 10
0
 20
0
 30
0.0
 70
     1
 40
0.828
 41
0.828
  0
VERTEX
  8
0
 10
10.5681
 20
12.3912
 30
0.0
 40
0.0115
 41
0.0115
  0
VERTEX
  8
0
 10
10.5681
 20
12.5225
 30
0.0
 40
0.0115
 41
0.0115
  0
VERTEX
  8
0
 10
10.4531
 20
12.5225
 30
0.0
 40
0.0115
 41
0.0115
  0
VERTEX
  8
0
 10
10.4531
 20
12.3912
 30
0.0
 40
0.0115
 41
0.0115
  0
VERTEX
  8
0
 10
10.5681
 20
12.3912
 30
0.0
 40
0.0115
 41
0.0115
  0
SEQEND
 8
0
  0
POLYLINE
  8
0
 62
     0
 66
     1
 10
0
 20
0
 30
0.0
 70
     1
 40
0.828
 41
0.828
  0
VERTEX
  8
0
 10
8.79199
 20
12.1285
 30
0.0
 40
0.0115
 41
0.0115
  0
VERTEX
  8
0
 10
8.79199
 20
12.2599
 30
0.0
 40
0.0115
 41
0.0115
  0
VERTEX
  8
0
 10
8.67697
 20
12.2599
 30
0.0
 40
0.0115
 41
0.0115
  0
VERTEX
  8
0
 10
8.67697
 20
12.1285
 30
0.0
 40
0.0115
 41
0.0115
  0
VERTEX
  8
0
 10
8.79199
 20
12.1285
 30
0.0
 40
0.0115
 41
0.0115
  0
SEQEND
 8
0
  0
POLYLINE
  8
0
 62
     0
 66
     1
 10
0
 20
0
 30
0.0
 70
     1
 40
0.828
 41
0.828
  0
VERTEX
  8
0
 10
8.79199
 20
12.3912
 30
0.0
 40
0.0115
 41
0.0115
  0
VERTEX
  8
0
 10
8.79199
 20
12.5225
 30
0.0
 40
0.0115
 41
0.0115
  0
VERTEX
  8
0
 10
8.67697
 20
12.5225
 30
0.0
 40
0.0115
 41
0.0115
  0
VERTEX
  8
0
 10
8.67697
 20
12.3912
 30
0.0
 40
0.0115
 41
0.0115
  0
VERTEX
  8
0
 10
8.79199
 20
12.3912
 30
0.0
 40
0.0115
 41
0.0115
  0
SEQEND
 8
0
  0
POLYLINE
  8
0
 62
     0
 66
     1
 10
0
 20
0
 30
0.0
 70
     1
 40
0.828
 41
0.828
  0
VERTEX
  8
0
 10
10.7157
 20
10.3595
 30
0.0
 40
0.0115
 41
0.0115
  0
VERTEX
  8
0
 10
10.7222
 20
10.3436
 30
0.0
 40
0.0115
 41
0.0115
  0
VERTEX
  8
0
 10
10.7382
 20
10.337
 30
0.0
 40
0.0115
 41
0.0115
  0
VERTEX
  8
0
 10
10.7541
 20
10.3436
 30
0.0
 40
0.0115
 41
0.0115
  0
VERTEX
  8
0
 10
10.7607
 20
10.3595
 30
0.0
 40
0.0115
 41
0.0115
  0
VERTEX
  8
0
 10
10.7541
 20
10.3754
 30
0.0
 40
0.0115
 41
0.0115
  0
VERTEX
  8
0
 10
10.7382
 20
10.3819
 30
0.0
 40
0.0115
 41
0.0115
  0
VERTEX
  8
0
 10
10.7222
 20
10.3754
 30
0.0
 40
0.0115
 41
0.0115
  0
VERTEX
  8
0
 10
10.7157
 20
10.3595
 30
0.0
 40
0.0115
 41
0.0115
  0
SEQEND
 8
0
  0
POLYLINE
  8
0
 62
     0
 66
     1
 10
0
 20
0
 30
0.0
 70
     1
 40
0.828
 41
0.828
  0
VERTEX
  8
0
 10
8.48438
 20
10.3595
 30
0.0
 40
0.0115
 41
0.0115
  0
VERTEX
  8
0
 10
8.49094
 20
10.3436
 30
0.0
 40
0.0115
 41
0.0115
  0
VERTEX
  8
0
 10
8.50689
 20
10.337
 30
0.0
 40
0.0115
 41
0.0115
  0
VERTEX
  8
0
 10
8.52274
 20
10.3436
 30
0.0
 40
0.0115
 41
0.0115
  0
VERTEX
  8
0
 10
8.52935
 20
10.3595
 30
0.0
 40
0.0115
 41
0.0115
  0
VERTEX
  8
0
 10
8.52274
 20
10.3754
 30
0.0
 40
0.0115
 41
0.0115
  0
VERTEX
  8
0
 10
8.50689
 20
10.3819
 30
0.0
 40
0.0115
 41
0.0115
  0
VERTEX
  8
0
 10
8.49094
 20
10.3754
 30
0.0
 40
0.0115
 41
0.0115
  0
VERTEX
  8
0
 10
8.48438
 20
10.3595
 30
0.0
 40
0.0115
 41
0.0115
  0
SEQEND
 8
0
  0
POLYLINE
  8
0
 62
     0
 66
     1
 10
0
 20
0
 30
0.0
 70
     1
 40
0.828
 41
0.828
  0
VERTEX
  8
0
 10
10.6933
 20
11.8821
 30
0.0
 40
0.0115
 41
0.0115
  0
VERTEX
  8
0
 10
10.6983
 20
11.8568
 30
0.0
 40
0.0115
 41
0.0115
  0
VERTEX
  8
0
 10
10.7123
 20
11.8362
 30
0.0
 40
0.0115
 41
0.0115
  0
VERTEX
  8
0
 10
10.7329
 20
11.8223
 30
0.0
 40
0.0115
 41
0.0115
  0
VERTEX
  8
0
 10
10.7582
 20
11.8171
 30
0.0
 40
0.0115
 41
0.0115
  0
VERTEX
  8
0
 10
10.7835
 20
11.8223
 30
0.0
 40
0.0115
 41
0.0115
  0
VERTEX
  8
0
 10
10.8042
 20
11.8362
 30
0.0
 40
0.0115
 41
0.0115
  0
VERTEX
  8
0
 10
10.8181
 20
11.8568
 30
0.0
 40
0.0115
 41
0.0115
  0
VERTEX
  8
0
 10
10.8233
 20
11.8821
 30
0.0
 40
0.0115
 41
0.0115
  0
VERTEX
  8
0
 10
10.8181
 20
11.9074
 30
0.0
 40
0.0115
 41
0.0115
  0
VERTEX
  8
0
 10
10.8042
 20
11.9281
 30
0.0
 40
0.0115
 41
0.0115
  0
VERTEX
  8
0
 10
10.7835
 20
11.942
 30
0.0
 40
0.0115
 41
0.0115
  0
VERTEX
  8
0
 10
10.7582
 20
11.9471
 30
0.0
 40
0.0115
 41
0.0115
  0
VERTEX
  8
0
 10
10.7329
 20
11.942
 30
0.0
 40
0.0115
 41
0.0115
  0
VERTEX
  8
0
 10
10.7123
 20
11.9281
 30
0.0
 40
0.0115
 41
0.0115
  0
VERTEX
  8
0
 10
10.6983
 20
11.9074
 30
0.0
 40
0.0115
 41
0.0115
  0
VERTEX
  8
0
 10
10.6933
 20
11.8821
 30
0.0
 40
0.0115
 41
0.0115
  0
SEQEND
 8
0
  0
POLYLINE
  8
0
 62
     0
 66
     1
 10
0
 20
0
 30
0.0
 70
     1
 40
0.828
 41
0.828
  0
VERTEX
  8
0
 10
10.6933
 20
11.0947
 30
0.0
 40
0.0115
 41
0.0115
  0
VERTEX
  8
0
 10
10.6983
 20
11.0694
 30
0.0
 40
0.0115
 41
0.0115
  0
VERTEX
  8
0
 10
10.7123
 20
11.0488
 30
0.0
 40
0.0115
 41
0.0115
  0
VERTEX
  8
0
 10
10.7329
 20
11.0348
 30
0.0
 40
0.0115
 41
0.0115
  0
VERTEX
  8
0
 10
10.7582
 20
11.0297
 30
0.0
 40
0.0115
 41
0.0115
  0
VERTEX
  8
0
 10
10.7835
 20
11.0348
 30
0.0
 40
0.0115
 41
0.0115
  0
VERTEX
  8
0
 10
10.8042
 20
11.0488
 30
0.0
 40
0.0115
 41
0.0115
  0
VERTEX
  8
0
 10
10.8181
 20
11.0694
 30
0.0
 40
0.0115
 41
0.0115
  0
VERTEX
  8
0
 10
10.8233
 20
11.0947
 30
0.0
 40
0.0115
 41
0.0115
  0
VERTEX
  8
0
 10
10.8181
 20
11.12
 30
0.0
 40
0.0115
 41
0.0115
  0
VERTEX
  8
0
 10
10.8042
 20
11.1407
 30
0.0
 40
0.0115
 41
0.0115
  0
VERTEX
  8
0
 10
10.7835
 20
11.1546
 30
0.0
 40
0.0115
 41
0.0115
  0
VERTEX
  8
0
 10
10.7582
 20
11.1597
 30
0.0
 40
0.0115
 41
0.0115
  0
VERTEX
  8
0
 10
10.7329
 20
11.1546
 30
0.0
 40
0.0115
 41
0.0115
  0
VERTEX
  8
0
 10
10.7123
 20
11.1407
 30
0.0
 40
0.0115
 41
0.0115
  0
VERTEX
  8
0
 10
10.6983
 20
11.12
 30
0.0
 40
0.0115
 41
0.0115
  0
VERTEX
  8
0
 10
10.6933
 20
11.0947
 30
0.0
 40
0.0115
 41
0.0115
  0
VERTEX
  8
0
 10
10.6933
 20
11.0947
 30
0.0
 40
0.0115
 41
0.0115
  0
SEQEND
 8
0
  0
POLYLINE
  8
0
 62
     0
 66
     1
 10
0
 20
0
 30
0.0
 70
     1
 40
0.828
 41
0.828
  0
VERTEX
  8
0
 10
8.42176
 20
11.0947
 30
0.0
 40
0.0115
 41
0.0115
  0
VERTEX
  8
0
 10
8.42686
 20
11.0694
 30
0.0
 40
0.0115
 41
0.0115
  0
VERTEX
  8
0
 10
8.44081
 20
11.0488
 30
0.0
 40
0.0115
 41
0.0115
  0
VERTEX
  8
0
 10
8.46143
 20
11.0348
 30
0.0
 40
0.0115
 41
0.0115
  0
VERTEX
  8
0
 10
8.48676
 20
11.0297
 30
0.0
 40
0.0115
 41
0.0115
  0
VERTEX
  8
0
 10
8.51204
 20
11.0348
 30
0.0
 40
0.0115
 41
0.0115
  0
VERTEX
  8
0
 10
8.53271
 20
11.0488
 30
0.0
 40
0.0115
 41
0.0115
  0
VERTEX
  8
0
 10
8.5466
 20
11.0694
 30
0.0
 40
0.0115
 41
0.0115
  0
VERTEX
  8
0
 10
8.55176
 20
11.0947
 30
0.0
 40
0.0115
 41
0.0115
  0
VERTEX
  8
0
 10
8.5466
 20
11.12
 30
0.0
 40
0.0115
 41
0.0115
  0
VERTEX
  8
0
 10
8.53271
 20
11.1407
 30
0.0
 40
0.0115
 41
0.0115
  0
VERTEX
  8
0
 10
8.51204
 20
11.1546
 30
0.0
 40
0.0115
 41
0.0115
  0
VERTEX
  8
0
 10
8.48676
 20
11.1597
 30
0.0
 40
0.0115
 41
0.0115
  0
VERTEX
  8
0
 10
8.46143
 20
11.1546
 30
0.0
 40
0.0115
 41
0.0115
  0
VERTEX
  8
0
 10
8.44081
 20
11.1407
 30
0.0
 40
0.0115
 41
0.0115
  0
VERTEX
  8
0
 10
8.42686
 20
11.12
 30
0.0
 40
0.0115
 41
0.0115
  0
VERTEX
  8
0
 10
8.42176
 20
11.0947
 30
0.0
 40
0.0115
 41
0.0115
  0
VERTEX
  8
0
 10
8.42176
 20
11.0947
 30
0.0
 40
0.0115
 41
0.0115
  0
SEQEND
 8
0
  0
POLYLINE
  8
0
 62
     0
 66
     1
 10
0
 20
0
 30
0.0
 70
     1
 40
0.828
 41
0.828
  0
VERTEX
  8
0
 10
8.42176
 20
11.8821
 30
0.0
 40
0.0115
 41
0.0115
  0
VERTEX
  8
0
 10
8.42686
 20
11.8568
 30
0.0
 40
0.0115
 41
0.0115
  0
VERTEX
  8
0
 10
8.44081
 20
11.8362
 30
0.0
 40
0.0115
 41
0.0115
  0
VERTEX
  8
0
 10
8.46143
 20
11.8223
 30
0.0
 40
0.0115
 41
0.0115
  0
VERTEX
  8
0
 10
8.48676
 20
11.8171
 30
0.0
 40
0.0115
 41
0.0115
  0
VERTEX
  8
0
 10
8.51204
 20
11.8223
 30
0.0
 40
0.0115
 41
0.0115
  0
VERTEX
  8
0
 10
8.53271
 20
11.8362
 30
0.0
 40
0.0115
 41
0.0115
  0
VERTEX
  8
0
 10
8.5466
 20
11.8568
 30
0.0
 40
0.0115
 41
0.0115
  0
VERTEX
  8
0
 10
8.55176
 20
11.8821
 30
0.0
 40
0.0115
 41
0.0115
  0
VERTEX
  8
0
 10
8.5466
 20
11.9074
 30
0.0
 40
0.0115
 41
0.0115
  0
VERTEX
  8
0
 10
8.53271
 20
11.9281
 30
0.0
 40
0.0115
 41
0.0115
  0
VERTEX
  8
0
 10
8.51204
 20
11.942
 30
0.0
 40
0.0115
 41
0.0115
  0
VERTEX
  8
0
 10
8.48676
 20
11.9471
 30
0.0
 40
0.0115
 41
0.0115
  0
VERTEX
  8
0
 10
8.46143
 20
11.942
 30
0.0
 40
0.0115
 41
0.0115
  0
VERTEX
  8
0
 10
8.44081
 20
11.9281
 30
0.0
 40
0.0115
 41
0.0115
  0
VERTEX
  8
0
 10
8.42686
 20
11.9074
 30
0.0
 40
0.0115
 41
0.0115
  0
VERTEX
  8
0
 10
8.42176
 20
11.8821
 30
0.0
 40
0.0115
 41
0.0115
  0
SEQEND
 8
0
  0
POLYLINE
  8
0
 62
     0
 66
     1
 10
0
 20
0
 30
0.0
 70
     1
 40
0.828
 41
0.828
  0
VERTEX
  8
0
 10
10.4
 20
11.9914
 30
0.0
 40
0.0115
 41
0.0115
  0
VERTEX
  8
0
 10
10.4066
 20
11.9755
 30
0.0
 40
0.0115
 41
0.0115
  0
VERTEX
  8
0
 10
10.4225
 20
11.9689
 30
0.0
 40
0.0115
 41
0.0115
  0
VERTEX
  8
0
 10
10.4384
 20
11.9755
 30
0.0
 40
0.0115
 41
0.0115
  0
VERTEX
  8
0
 10
10.445
 20
11.9913
 30
0.0
 40
0.0115
 41
0.0115
  0
VERTEX
  8
0
 10
10.4384
 20
12.0073
 30
0.0
 40
0.0115
 41
0.0115
  0
VERTEX
  8
0
 10
10.4225
 20
12.0138
 30
0.0
 40
0.0115
 41
0.0115
  0
VERTEX
  8
0
 10
10.4066
 20
12.0073
 30
0.0
 40
0.0115
 41
0.0115
  0
VERTEX
  8
0
 10
10.4
 20
11.9914
 30
0.0
 40
0.0115
 41
0.0115
  0
SEQEND
 8
0
  0
POLYLINE
  8
0
 62
     0
 66
     1
 10
0
 20
0
 30
0.0
 70
     1
 40
0.828
 41
0.828
  0
VERTEX
  8
0
 10
10.4
 20
10.4914
 30
0.0
 40
0.0115
 41
0.0115
  0
VERTEX
  8
0
 10
10.4066
 20
10.4755
 30
0.0
 40
0.0115
 41
0.0115
  0
VERTEX
  8
0
 10
10.4225
 20
10.4689
 30
0.0
 40
0.0115
 41
0.0115
  0
VERTEX
  8
0
 10
10.4384
 20
10.4755
 30
0.0
 40
0.0115
 41
0.0115
  0
VERTEX
  8
0
 10
10.445
 20
10.4914
 30
0.0
 40
0.0115
 41
0.0115
  0
VERTEX
  8
0
 10
10.4384
 20
10.5073
 30
0.0
 40
0.0115
 41
0.0115
  0
VERTEX
  8
0
 10
10.4225
 20
10.5138
 30
0.0
 40
0.0115
 41
0.0115
  0
VERTEX
  8
0
 10
10.4066
 20
10.5073
 30
0.0
 40
0.0115
 41
0.0115
  0
VERTEX
  8
0
 10
10.4
 20
10.4914
 30
0.0
 40
0.0115
 41
0.0115
  0
SEQEND
 8
0
  0
POLYLINE
  8
0
 62
     0
 66
     1
 10
0
 20
0
 30
0.0
 70
     1
 40
0.828
 41
0.828
  0
VERTEX
  8
0
 10
8.80003
 20
11.9914
 30
0.0
 40
0.0115
 41
0.0115
  0
VERTEX
  8
0
 10
8.80658
 20
11.9755
 30
0.0
 40
0.0115
 41
0.0115
  0
VERTEX
  8
0
 10
8.82254
 20
11.9689
 30
0.0
 40
0.0115
 41
0.0115
  0
VERTEX
  8
0
 10
8.83837
 20
11.9755
 30
0.0
 40
0.0115
 41
0.0115
  0
VERTEX
  8
0
 10
8.845
 20
11.9913
 30
0.0
 40
0.0115
 41
0.0115
  0
VERTEX
  8
0
 10
8.83837
 20
12.0073
 30
0.0
 40
0.0115
 41
0.0115
  0
VERTEX
  8
0
 10
8.82254
 20
12.0138
 30
0.0
 40
0.0115
 41
0.0115
  0
VERTEX
  8
0
 10
8.80658
 20
12.0073
 30
0.0
 40
0.0115
 41
0.0115
  0
VERTEX
  8
0
 10
8.80003
 20
11.9914
 30
0.0
 40
0.0115
 41
0.0115
  0
SEQEND
 8
0
  0
POLYLINE
  8
0
 62
     0
 66
     1
 10
0
 20
0
 30
0.0
 70
     1
 40
0.828
 41
0.828
  0
VERTEX
  8
0
 10
8.80003
 20
10.4914
 30
0.0
 40
0.0115
 41
0.0115
  0
VERTEX
  8
0
 10
8.80658
 20
10.4755
 30
0.0
 40
0.0115
 41
0.0115
  0
VERTEX
  8
0
 10
8.82254
 20
10.4689
 30
0.0
 40
0.0115
 41
0.0115
  0
VERTEX
  8
0
 10
8.83837
 20
10.4755
 30
0.0
 40
0.0115
 41
0.0115
  0
VERTEX
  8
0
 10
8.845
 20
10.4914
 30
0.0
 40
0.0115
 41
0.0115
  0
VERTEX
  8
0
 10
8.83837
 20
10.5073
 30
0.0
 40
0.0115
 41
0.0115
  0
VERTEX
  8
0
 10
8.82254
 20
10.5138
 30
0.0
 40
0.0115
 41
0.0115
  0
VERTEX
  8
0
 10
8.80658
 20
10.5073
 30
0.0
 40
0.0115
 41
0.0115
  0
VERTEX
  8
0
 10
8.80003
 20
10.4914
 30
0.0
 40
0.0115
 41
0.0115
  0
SEQEND
 8
0
  0
POLYLINE
  8
0
 62
     0
 66
     1
 10
0
 20
0
 30
0.0
 70
     1
 40
0.828
 41
0.828
  0
VERTEX
  8
0
 10
3.97781
 20
10.1311
 30
0.0
 40
0.0115
 41
0.0115
  0
VERTEX
  8
0
 10
3.97781
 20
9.99989
 30
0.0
 40
0.0115
 41
0.0115
  0
VERTEX
  8
0
 10
4.09532
 20
9.99989
 30
0.0
 40
0.0115
 41
0.0115
  0
VERTEX
  8
0
 10
4.09532
 20
9.8686
 30
0.0
 40
0.0115
 41
0.0115
  0
VERTEX
  8
0
 10
3.97781
 20
9.8686
 30
0.0
 40
0.0115
 41
0.0115
  0
VERTEX
  8
0
 10
3.97781
 20
9.73725
 30
0.0
 40
0.0115
 41
0.0115
  0
VERTEX
  8
0
 10
4.5331
 20
9.73725
 30
0.0
 40
0.0115
 41
0.0115
  0
VERTEX
  8
0
 10
4.80078
 20
9.73725
 30
0.0
 40
0.0115
 41
0.0115
  0
VERTEX
  8
0
 10
4.80078
 20
9.90956
 30
0.0
 40
0.0115
 41
0.0115
  0
VERTEX
  8
0
 10
4.73188
 20
9.90956
 30
0.0
 40
0.0115
 41
0.0115
  0
VERTEX
  8
0
 10
4.73188
 20
9.95882
 30
0.0
 40
0.0115
 41
0.0115
  0
VERTEX
  8
0
 10
4.80078
 20
9.95882
 30
0.0
 40
0.0115
 41
0.0115
  0
VERTEX
  8
0
 10
4.80078
 20
10.1311
 30
0.0
 40
0.0115
 41
0.0115
  0
VERTEX
  8
0
 10
4.5331
 20
10.1311
 30
0.0
 40
0.0115
 41
0.0115
  0
VERTEX
  8
0
 10
3.97781
 20
10.1311
 30
0.0
 40
0.0115
 41
0.0115
  0
SEQEND
 8
0
  0
POLYLINE
  8
0
 62
     0
 66
     1
 10
0
 20
0
 30
0.0
 70
     1
 40
0.828
 41
0.828
  0
VERTEX
  8
0
 10
8.63835
 20
10.1355
 30
0.0
 40
0.0115
 41
0.0115
  0
VERTEX
  8
0
 10
8.63835
 20
10.0042
 30
0.0
 40
0.0115
 41
0.0115
  0
VERTEX
  8
0
 10
8.75581
 20
10.0042
 30
0.0
 40
0.0115
 41
0.0115
  0
VERTEX
  8
0
 10
8.75581
 20
9.87289
 30
0.0
 40
0.0115
 41
0.0115
  0
VERTEX
  8
0
 10
8.63835
 20
9.87289
 30
0.0
 40
0.0115
 41
0.0115
  0
VERTEX
  8
0
 10
8.63835
 20
9.7416
 30
0.0
 40
0.0115
 41
0.0115
  0
VERTEX
  8
0
 10
9.19358
 20
9.7416
 30
0.0
 40
0.0115
 41
0.0115
  0
VERTEX
  8
0
 10
9.46126
 20
9.7416
 30
0.0
 40
0.0115
 41
0.0115
  0
VERTEX
  8
0
 10
9.46126
 20
9.91396
 30
0.0
 40
0.0115
 41
0.0115
  0
VERTEX
  8
0
 10
9.39242
 20
9.91396
 30
0.0
 40
0.0115
 41
0.0115
  0
VERTEX
  8
0
 10
9.39242
 20
9.96311
 30
0.0
 40
0.0115
 41
0.0115
  0
VERTEX
  8
0
 10
9.46126
 20
9.96311
 30
0.0
 40
0.0115
 41
0.0115
  0
VERTEX
  8
0
 10
9.46126
 20
10.1355
 30
0.0
 40
0.0115
 41
0.0115
  0
VERTEX
  8
0
 10
9.19358
 20
10.1355
 30
0.0
 40
0.0115
 41
0.0115
  0
VERTEX
  8
0
 10
8.63835
 20
10.1355
 30
0.0
 40
0.0115
 41
0.0115
  0
SEQEND
 8
0
  0
POLYLINE
  8
0
 62
     0
 66
     1
 10
0
 20
0
 30
0.0
 70
     1
 40
0.828
 41
0.828
  0
VERTEX
  8
0
 10
11.827
 20
13.3737
 30
0.0
 40
0.0115
 41
0.0115
  0
VERTEX
  8
0
 10
11.6957
 20
13.3737
 30
0.0
 40
0.0115
 41
0.0115
  0
VERTEX
  8
0
 10
11.6957
 20
13.2562
 30
0.0
 40
0.0115
 41
0.0115
  0
VERTEX
  8
0
 10
11.5644
 20
13.2562
 30
0.0
 40
0.0115
 41
0.0115
  0
VERTEX
  8
0
 10
11.5644
 20
13.3737
 30
0.0
 40
0.0115
 41
0.0115
  0
VERTEX
  8
0
 10
11.4331
 20
13.3737
 30
0.0
 40
0.0115
 41
0.0115
  0
VERTEX
  8
0
 10
11.4331
 20
12.8185
 30
0.0
 40
0.0115
 41
0.0115
  0
VERTEX
  8
0
 10
11.4331
 20
12.5508
 30
0.0
 40
0.0115
 41
0.0115
  0
VERTEX
  8
0
 10
11.6054
 20
12.5508
 30
0.0
 40
0.0115
 41
0.0115
  0
VERTEX
  8
0
 10
11.6054
 20
12.6197
 30
0.0
 40
0.0115
 41
0.0115
  0
VERTEX
  8
0
 10
11.6546
 20
12.6197
 30
0.0
 40
0.0115
 41
0.0115
  0
VERTEX
  8
0
 10
11.6546
 20
12.5508
 30
0.0
 40
0.0115
 41
0.0115
  0
VERTEX
  8
0
 10
11.827
 20
12.5508
 30
0.0
 40
0.0115
 41
0.0115
  0
VERTEX
  8
0
 10
11.827
 20
12.8185
 30
0.0
 40
0.0115
 41
0.0115
  0
VERTEX
  8
0
 10
11.827
 20
13.3737
 30
0.0
 40
0.0115
 41
0.0115
  0
SEQEND
 8
0
  0
POLYLINE
  8
0
 62
     0
 66
     1
 10
0
 20
0
 30
0.0
 70
     1
 40
0.828
 41
0.828
  0
VERTEX
  8
0
 10
3.97521
 20
9.69857
 30
0.0
 40
0.0115
 41
0.0115
  0
VERTEX
  8
0
 10
3.97521
 20
9.56728
 30
0.0
 40
0.0115
 41
0.0115
  0
VERTEX
  8
0
 10
4.09272
 20
9.56728
 30
0.0
 40
0.0115
 41
0.0115
  0
VERTEX
  8
0
 10
4.09272
 20
9.43599
 30
0.0
 40
0.0115
 41
0.0115
  0
VERTEX
  8
0
 10
3.97521
 20
9.43599
 30
0.0
 40
0.0115
 41
0.0115
  0
VERTEX
  8
0
 10
3.97521
 20
9.30469
 30
0.0
 40
0.0115
 41
0.0115
  0
VERTEX
  8
0
 10
4.53049
 20
9.30469
 30
0.0
 40
0.0115
 41
0.0115
  0
VERTEX
  8
0
 10
4.79818
 20
9.30469
 30
0.0
 40
0.0115
 41
0.0115
  0
VERTEX
  8
0
 10
4.79818
 20
9.47706
 30
0.0
 40
0.0115
 41
0.0115
  0
VERTEX
  8
0
 10
4.72928
 20
9.47706
 30
0.0
 40
0.0115
 41
0.0115
  0
VERTEX
  8
0
 10
4.72928
 20
9.52626
 30
0.0
 40
0.0115
 41
0.0115
  0
VERTEX
  8
0
 10
4.79818
 20
9.52626
 30
0.0
 40
0.0115
 41
0.0115
  0
VERTEX
  8
0
 10
4.79818
 20
9.69857
 30
0.0
 40
0.0115
 41
0.0115
  0
VERTEX
  8
0
 10
4.53049
 20
9.69857
 30
0.0
 40
0.0115
 41
0.0115
  0
VERTEX
  8
0
 10
3.97521
 20
9.69857
 30
0.0
 40
0.0115
 41
0.0115
  0
SEQEND
 8
0
  0
POLYLINE
  8
0
 62
     0
 66
     1
 10
0
 20
0
 30
0.0
 70
     1
 40
0.828
 41
0.828
  0
VERTEX
  8
0
 10
8.63574
 20
9.7029
 30
0.0
 40
0.0115
 41
0.0115
  0
VERTEX
  8
0
 10
8.63574
 20
9.57161
 30
0.0
 40
0.0115
 41
0.0115
  0
VERTEX
  8
0
 10
8.75319
 20
9.57161
 30
0.0
 40
0.0115
 41
0.0115
  0
VERTEX
  8
0
 10
8.75319
 20
9.44032
 30
0.0
 40
0.0115
 41
0.0115
  0
VERTEX
  8
0
 10
8.63574
 20
9.44032
 30
0.0
 40
0.0115
 41
0.0115
  0
VERTEX
  8
0
 10
8.63574
 20
9.30903
 30
0.0
 40
0.0115
 41
0.0115
  0
VERTEX
  8
0
 10
9.19097
 20
9.30903
 30
0.0
 40
0.0115
 41
0.0115
  0
VERTEX
  8
0
 10
9.45865
 20
9.30903
 30
0.0
 40
0.0115
 41
0.0115
  0
VERTEX
  8
0
 10
9.45865
 20
9.48139
 30
0.0
 40
0.0115
 41
0.0115
  0
VERTEX
  8
0
 10
9.38975
 20
9.48139
 30
0.0
 40
0.0115
 41
0.0115
  0
VERTEX
  8
0
 10
9.38975
 20
9.5306
 30
0.0
 40
0.0115
 41
0.0115
  0
VERTEX
  8
0
 10
9.45865
 20
9.5306
 30
0.0
 40
0.0115
 41
0.0115
  0
VERTEX
  8
0
 10
9.45865
 20
9.7029
 30
0.0
 40
0.0115
 41
0.0115
  0
VERTEX
  8
0
 10
9.19097
 20
9.7029
 30
0.0
 40
0.0115
 41
0.0115
  0
VERTEX
  8
0
 10
8.63574
 20
9.7029
 30
0.0
 40
0.0115
 41
0.0115
  0
SEQEND
 8
0
  0
POLYLINE
  8
0
 62
     0
 66
     1
 10
0
 20
0
 30
0.0
 70
     1
 40
0.828
 41
0.828
  0
VERTEX
  8
0
 10
11.3944
 20
13.3764
 30
0.0
 40
0.0115
 41
0.0115
  0
VERTEX
  8
0
 10
11.2631
 20
13.3764
 30
0.0
 40
0.0115
 41
0.0115
  0
VERTEX
  8
0
 10
11.2631
 20
13.2589
 30
0.0
 40
0.0115
 41
0.0115
  0
VERTEX
  8
0
 10
11.1318
 20
13.2589
 30
0.0
 40
0.0115
 41
0.0115
  0
VERTEX
  8
0
 10
11.1318
 20
13.3764
 30
0.0
 40
0.0115
 41
0.0115
  0
VERTEX
  8
0
 10
11.0005
 20
13.3764
 30
0.0
 40
0.0115
 41
0.0115
  0
VERTEX
  8
0
 10
11.0005
 20
12.8211
 30
0.0
 40
0.0115
 41
0.0115
  0
VERTEX
  8
0
 10
11.0005
 20
12.5534
 30
0.0
 40
0.0115
 41
0.0115
  0
VERTEX
  8
0
 10
11.1728
 20
12.5534
 30
0.0
 40
0.0115
 41
0.0115
  0
VERTEX
  8
0
 10
11.1728
 20
12.6223
 30
0.0
 40
0.0115
 41
0.0115
  0
VERTEX
  8
0
 10
11.2221
 20
12.6223
 30
0.0
 40
0.0115
 41
0.0115
  0
VERTEX
  8
0
 10
11.2221
 20
12.5534
 30
0.0
 40
0.0115
 41
0.0115
  0
VERTEX
  8
0
 10
11.3944
 20
12.5534
 30
0.0
 40
0.0115
 41
0.0115
  0
VERTEX
  8
0
 10
11.3944
 20
12.8211
 30
0.0
 40
0.0115
 41
0.0115
  0
VERTEX
  8
0
 10
11.3944
 20
13.3764
 30
0.0
 40
0.0115
 41
0.0115
  0
SEQEND
 8
0
  0
POLYLINE
  8
0
 62
     0
 66
     1
 10
0
 20
0
 30
0.0
 70
     1
 40
0.828
 41
0.828
  0
VERTEX
  8
0
 10
4.72206
 20
9.99675
 30
0.0
 40
0.0115
 41
0.0115
  0
VERTEX
  8
0
 10
4.73904
 20
10.0002
 30
0.0
 40
0.0115
 41
0.0115
  0
VERTEX
  8
0
 10
4.75293
 20
10.0096
 30
0.0
 40
0.0115
 41
0.0115
  0
VERTEX
  8
0
 10
4.76232
 20
10.0235
 30
0.0
 40
0.0115
 41
0.0115
  0
VERTEX
  8
0
 10
4.76579
 20
10.0405
 30
0.0
 40
0.0115
 41
0.0115
  0
VERTEX
  8
0
 10
4.76232
 20
10.0575
 30
0.0
 40
0.0115
 41
0.0115
  0
VERTEX
  8
0
 10
4.75293
 20
10.0714
 30
0.0
 40
0.0115
 41
0.0115
  0
VERTEX
  8
0
 10
4.73904
 20
10.0808
 30
0.0
 40
0.0115
 41
0.0115
  0
VERTEX
  8
0
 10
4.72206
 20
10.0842
 30
0.0
 40
0.0115
 41
0.0115
  0
VERTEX
  8
0
 10
4.70503
 20
10.0808
 30
0.0
 40
0.0115
 41
0.0115
  0
VERTEX
  8
0
 10
4.69108
 20
10.0714
 30
0.0
 40
0.0115
 41
0.0115
  0
VERTEX
  8
0
 10
4.68169
 20
10.0575
 30
0.0
 40
0.0115
 41
0.0115
  0
VERTEX
  8
0
 10
4.67828
 20
10.0405
 30
0.0
 40
0.0115
 41
0.0115
  0
VERTEX
  8
0
 10
4.68169
 20
10.0235
 30
0.0
 40
0.0115
 41
0.0115
  0
VERTEX
  8
0
 10
4.69108
 20
10.0096
 30
0.0
 40
0.0115
 41
0.0115
  0
VERTEX
  8
0
 10
4.70503
 20
10.0002
 30
0.0
 40
0.0115
 41
0.0115
  0
VERTEX
  8
0
 10
4.72206
 20
9.99675
 30
0.0
 40
0.0115
 41
0.0115
  0
SEQEND
 8
0
  0
POLYLINE
  8
0
 62
     0
 66
     1
 10
0
 20
0
 30
0.0
 70
     1
 40
0.828
 41
0.828
  0
VERTEX
  8
0
 10
9.3826
 20
10.001
 30
0.0
 40
0.0115
 41
0.0115
  0
VERTEX
  8
0
 10
9.39958
 20
10.0045
 30
0.0
 40
0.0115
 41
0.0115
  0
VERTEX
  8
0
 10
9.41347
 20
10.0139
 30
0.0
 40
0.0115
 41
0.0115
  0
VERTEX
  8
0
 10
9.42285
 20
10.0278
 30
0.0
 40
0.0115
 41
0.0115
  0
VERTEX
  8
0
 10
9.42632
 20
10.0448
 30
0.0
 40
0.0115
 41
0.0115
  0
VERTEX
  8
0
 10
9.42285
 20
10.0618
 30
0.0
 40
0.0115
 41
0.0115
  0
VERTEX
  8
0
 10
9.41347
 20
10.0757
 30
0.0
 40
0.0115
 41
0.0115
  0
VERTEX
  8
0
 10
9.39958
 20
10.0851
 30
0.0
 40
0.0115
 41
0.0115
  0
VERTEX
  8
0
 10
9.3826
 20
10.0885
 30
0.0
 40
0.0115
 41
0.0115
  0
VERTEX
  8
0
 10
9.3655
 20
10.0851
 30
0.0
 40
0.0115
 41
0.0115
  0
VERTEX
  8
0
 10
9.35161
 20
10.0757
 30
0.0
 40
0.0115
 41
0.0115
  0
VERTEX
  8
0
 10
9.34224
 20
10.0618
 30
0.0
 40
0.0115
 41
0.0115
  0
VERTEX
  8
0
 10
9.33882
 20
10.0448
 30
0.0
 40
0.0115
 41
0.0115
  0
VERTEX
  8
0
 10
9.34224
 20
10.0278
 30
0.0
 40
0.0115
 41
0.0115
  0
VERTEX
  8
0
 10
9.35161
 20
10.0139
 30
0.0
 40
0.0115
 41
0.0115
  0
VERTEX
  8
0
 10
9.3655
 20
10.0045
 30
0.0
 40
0.0115
 41
0.0115
  0
VERTEX
  8
0
 10
9.3826
 20
10.001
 30
0.0
 40
0.0115
 41
0.0115
  0
SEQEND
 8
0
  0
POLYLINE
  8
0
 62
     0
 66
     1
 10
0
 20
0
 30
0.0
 70
     1
 40
0.828
 41
0.828
  0
VERTEX
  8
0
 10
11.6925
 20
12.6296
 30
0.0
 40
0.0115
 41
0.0115
  0
VERTEX
  8
0
 10
11.696
 20
12.6125
 30
0.0
 40
0.0115
 41
0.0115
  0
VERTEX
  8
0
 10
11.7053
 20
12.5986
 30
0.0
 40
0.0115
 41
0.0115
  0
VERTEX
  8
0
 10
11.7192
 20
12.5893
 30
0.0
 40
0.0115
 41
0.0115
  0
VERTEX
  8
0
 10
11.7363
 20
12.5858
 30
0.0
 40
0.0115
 41
0.0115
  0
VERTEX
  8
0
 10
11.7533
 20
12.5893
 30
0.0
 40
0.0115
 41
0.0115
  0
VERTEX
  8
0
 10
11.7671
 20
12.5986
 30
0.0
 40
0.0115
 41
0.0115
  0
VERTEX
  8
0
 10
11.7765
 20
12.6125
 30
0.0
 40
0.0115
 41
0.0115
  0
VERTEX
  8
0
 10
11.78
 20
12.6296
 30
0.0
 40
0.0115
 41
0.0115
  0
VERTEX
  8
0
 10
11.7765
 20
12.6466
 30
0.0
 40
0.0115
 41
0.0115
  0
VERTEX
  8
0
 10
11.7671
 20
12.6605
 30
0.0
 40
0.0115
 41
0.0115
  0
VERTEX
  8
0
 10
11.7533
 20
12.6699
 30
0.0
 40
0.0115
 41
0.0115
  0
VERTEX
  8
0
 10
11.7363
 20
12.6733
 30
0.0
 40
0.0115
 41
0.0115
  0
VERTEX
  8
0
 10
11.7192
 20
12.6699
 30
0.0
 40
0.0115
 41
0.0115
  0
VERTEX
  8
0
 10
11.7053
 20
12.6605
 30
0.0
 40
0.0115
 41
0.0115
  0
VERTEX
  8
0
 10
11.696
 20
12.6466
 30
0.0
 40
0.0115
 41
0.0115
  0
VERTEX
  8
0
 10
11.6925
 20
12.6296
 30
0.0
 40
0.0115
 41
0.0115
  0
SEQEND
 8
0
  0
POLYLINE
  8
0
 62
     0
 66
     1
 10
0
 20
0
 30
0.0
 70
     1
 40
0.828
 41
0.828
  0
VERTEX
  8
0
 10
4.72206
 20
9.78418
 30
0.0
 40
0.0115
 41
0.0115
  0
VERTEX
  8
0
 10
4.73904
 20
9.78765
 30
0.0
 40
0.0115
 41
0.0115
  0
VERTEX
  8
0
 10
4.75293
 20
9.79704
 30
0.0
 40
0.0115
 41
0.0115
  0
VERTEX
  8
0
 10
4.76232
 20
9.81093
 30
0.0
 40
0.0115
 41
0.0115
  0
VERTEX
  8
0
 10
4.76579
 20
9.8279
 30
0.0
 40
0.0115
 41
0.0115
  0
VERTEX
  8
0
 10
4.76232
 20
9.845
 30
0.0
 40
0.0115
 41
0.0115
  0
VERTEX
  8
0
 10
4.75293
 20
9.85889
 30
0.0
 40
0.0115
 41
0.0115
  0
VERTEX
  8
0
 10
4.73904
 20
9.86828
 30
0.0
 40
0.0115
 41
0.0115
  0
VERTEX
  8
0
 10
4.72206
 20
9.87169
 30
0.0
 40
0.0115
 41
0.0115
  0
VERTEX
  8
0
 10
4.70503
 20
9.86828
 30
0.0
 40
0.0115
 41
0.0115
  0
VERTEX
  8
0
 10
4.69108
 20
9.85889
 30
0.0
 40
0.0115
 41
0.0115
  0
VERTEX
  8
0
 10
4.68169
 20
9.845
 30
0.0
 40
0.0115
 41
0.0115
  0
VERTEX
  8
0
 10
4.67828
 20
9.8279
 30
0.0
 40
0.0115
 41
0.0115
  0
VERTEX
  8
0
 10
4.68169
 20
9.81093
 30
0.0
 40
0.0115
 41
0.0115
  0
VERTEX
  8
0
 10
4.69108
 20
9.79704
 30
0.0
 40
0.0115
 41
0.0115
  0
VERTEX
  8
0
 10
4.70503
 20
9.78765
 30
0.0
 40
0.0115
 41
0.0115
  0
VERTEX
  8
0
 10
4.72206
 20
9.78418
 30
0.0
 40
0.0115
 41
0.0115
  0
SEQEND
 8
0
  0
POLYLINE
  8
0
 62
     0
 66
     1
 10
0
 20
0
 30
0.0
 70
     1
 40
0.828
 41
0.828
  0
VERTEX
  8
0
 10
9.3826
 20
9.78851
 30
0.0
 40
0.0115
 41
0.0115
  0
VERTEX
  8
0
 10
9.39958
 20
9.79199
 30
0.0
 40
0.0115
 41
0.0115
  0
VERTEX
  8
0
 10
9.41347
 20
9.80137
 30
0.0
 40
0.0115
 41
0.0115
  0
VERTEX
  8
0
 10
9.42285
 20
9.81526
 30
0.0
 40
0.0115
 41
0.0115
  0
VERTEX
  8
0
 10
9.42632
 20
9.83231
 30
0.0
 40
0.0115
 41
0.0115
  0
VERTEX
  8
0
 10
9.42285
 20
9.84933
 30
0.0
 40
0.0115
 41
0.0115
  0
VERTEX
  8
0
 10
9.41347
 20
9.86322
 30
0.0
 40
0.0115
 41
0.0115
  0
VERTEX
  8
0
 10
9.39958
 20
9.87261
 30
0.0
 40
0.0115
 41
0.0115
  0
VERTEX
  8
0
 10
9.3826
 20
9.87603
 30
0.0
 40
0.0115
 41
0.0115
  0
VERTEX
  8
0
 10
9.3655
 20
9.87261
 30
0.0
 40
0.0115
 41
0.0115
  0
VERTEX
  8
0
 10
9.35161
 20
9.86322
 30
0.0
 40
0.0115
 41
0.0115
  0
VERTEX
  8
0
 10
9.34224
 20
9.84933
 30
0.0
 40
0.0115
 41
0.0115
  0
VERTEX
  8
0
 10
9.33882
 20
9.83231
 30
0.0
 40
0.0115
 41
0.0115
  0
VERTEX
  8
0
 10
9.34224
 20
9.81526
 30
0.0
 40
0.0115
 41
0.0115
  0
VERTEX
  8
0
 10
9.35161
 20
9.80137
 30
0.0
 40
0.0115
 41
0.0115
  0
VERTEX
  8
0
 10
9.3655
 20
9.79199
 30
0.0
 40
0.0115
 41
0.0115
  0
VERTEX
  8
0
 10
9.3826
 20
9.78851
 30
0.0
 40
0.0115
 41
0.0115
  0
SEQEND
 8
0
  0
POLYLINE
  8
0
 62
     0
 66
     1
 10
0
 20
0
 30
0.0
 70
     1
 40
0.828
 41
0.828
  0
VERTEX
  8
0
 10
11.48
 20
12.6296
 30
0.0
 40
0.0115
 41
0.0115
  0
VERTEX
  8
0
 10
11.4835
 20
12.6125
 30
0.0
 40
0.0115
 41
0.0115
  0
VERTEX
  8
0
 10
11.4928
 20
12.5986
 30
0.0
 40
0.0115
 41
0.0115
  0
VERTEX
  8
0
 10
11.5067
 20
12.5893
 30
0.0
 40
0.0115
 41
0.0115
  0
VERTEX
  8
0
 10
11.5238
 20
12.5858
 30
0.0
 40
0.0115
 41
0.0115
  0
VERTEX
  8
0
 10
11.5408
 20
12.5893
 30
0.0
 40
0.0115
 41
0.0115
  0
VERTEX
  8
0
 10
11.5547
 20
12.5986
 30
0.0
 40
0.0115
 41
0.0115
  0
VERTEX
  8
0
 10
11.5641
 20
12.6125
 30
0.0
 40
0.0115
 41
0.0115
  0
VERTEX
  8
0
 10
11.5675
 20
12.6296
 30
0.0
 40
0.0115
 41
0.0115
  0
VERTEX
  8
0
 10
11.5641
 20
12.6466
 30
0.0
 40
0.0115
 41
0.0115
  0
VERTEX
  8
0
 10
11.5547
 20
12.6605
 30
0.0
 40
0.0115
 41
0.0115
  0
VERTEX
  8
0
 10
11.5408
 20
12.6699
 30
0.0
 40
0.0115
 41
0.0115
  0
VERTEX
  8
0
 10
11.5238
 20
12.6733
 30
0.0
 40
0.0115
 41
0.0115
  0
VERTEX
  8
0
 10
11.5067
 20
12.6699
 30
0.0
 40
0.0115
 41
0.0115
  0
VERTEX
  8
0
 10
11.4928
 20
12.6605
 30
0.0
 40
0.0115
 41
0.0115
  0
VERTEX
  8
0
 10
11.4835
 20
12.6466
 30
0.0
 40
0.0115
 41
0.0115
  0
VERTEX
  8
0
 10
11.48
 20
12.6296
 30
0.0
 40
0.0115
 41
0.0115
  0
SEQEND
 8
0
  0
POLYLINE
  8
0
 62
     0
 66
     1
 10
0
 20
0
 30
0.0
 70
     1
 40
0.828
 41
0.828
  0
VERTEX
  8
0
 10
4.48583
 20
9.82878
 30
0.0
 40
0.0115
 41
0.0115
  0
VERTEX
  8
0
 10
4.50597
 20
9.83713
 30
0.0
 40
0.0115
 41
0.0115
  0
VERTEX
  8
0
 10
4.51432
 20
9.85726
 30
0.0
 40
0.0115
 41
0.0115
  0
VERTEX
  8
0
 10
4.50597
 20
9.87744
 30
0.0
 40
0.0115
 41
0.0115
  0
VERTEX
  8
0
 10
4.48583
 20
9.88579
 30
0.0
 40
0.0115
 41
0.0115
  0
VERTEX
  8
0
 10
4.46565
 20
9.87744
 30
0.0
 40
0.0115
 41
0.0115
  0
VERTEX
  8
0
 10
4.45736
 20
9.85726
 30
0.0
 40
0.0115
 41
0.0115
  0
VERTEX
  8
0
 10
4.46565
 20
9.83713
 30
0.0
 40
0.0115
 41
0.0115
  0
VERTEX
  8
0
 10
4.48583
 20
9.82878
 30
0.0
 40
0.0115
 41
0.0115
  0
SEQEND
 8
0
  0
POLYLINE
  8
0
 62
     0
 66
     1
 10
0
 20
0
 30
0.0
 70
     1
 40
0.828
 41
0.828
  0
VERTEX
  8
0
 10
9.14632
 20
9.83306
 30
0.0
 40
0.0115
 41
0.0115
  0
VERTEX
  8
0
 10
9.16644
 20
9.84142
 30
0.0
 40
0.0115
 41
0.0115
  0
VERTEX
  8
0
 10
9.17481
 20
9.8616
 30
0.0
 40
0.0115
 41
0.0115
  0
VERTEX
  8
0
 10
9.16644
 20
9.88178
 30
0.0
 40
0.0115
 41
0.0115
  0
VERTEX
  8
0
 10
9.14632
 20
9.89008
 30
0.0
 40
0.0115
 41
0.0115
  0
VERTEX
  8
0
 10
9.12614
 20
9.88178
 30
0.0
 40
0.0115
 41
0.0115
  0
VERTEX
  8
0
 10
9.11783
 20
9.8616
 30
0.0
 40
0.0115
 41
0.0115
  0
VERTEX
  8
0
 10
9.12614
 20
9.84142
 30
0.0
 40
0.0115
 41
0.0115
  0
VERTEX
  8
0
 10
9.14632
 20
9.83306
 30
0.0
 40
0.0115
 41
0.0115
  0
SEQEND
 8
0
  0
POLYLINE
  8
0
 62
     0
 66
     1
 10
0
 20
0
 30
0.0
 70
     1
 40
0.828
 41
0.828
  0
VERTEX
  8
0
 10
11.5246
 20
12.8658
 30
0.0
 40
0.0115
 41
0.0115
  0
VERTEX
  8
0
 10
11.5329
 20
12.8457
 30
0.0
 40
0.0115
 41
0.0115
  0
VERTEX
  8
0
 10
11.5531
 20
12.8373
 30
0.0
 40
0.0115
 41
0.0115
  0
VERTEX
  8
0
 10
11.5732
 20
12.8457
 30
0.0
 40
0.0115
 41
0.0115
  0
VERTEX
  8
0
 10
11.5816
 20
12.8658
 30
0.0
 40
0.0115
 41
0.0115
  0
VERTEX
  8
0
 10
11.5732
 20
12.886
 30
0.0
 40
0.0115
 41
0.0115
  0
VERTEX
  8
0
 10
11.5531
 20
12.8943
 30
0.0
 40
0.0115
 41
0.0115
  0
VERTEX
  8
0
 10
11.5329
 20
12.886
 30
0.0
 40
0.0115
 41
0.0115
  0
VERTEX
  8
0
 10
11.5246
 20
12.8658
 30
0.0
 40
0.0115
 41
0.0115
  0
SEQEND
 8
0
  0
POLYLINE
  8
0
 62
     0
 66
     1
 10
0
 20
0
 30
0.0
 70
     1
 40
0.828
 41
0.828
  0
VERTEX
  8
0
 10
4.48324
 20
9.39615
 30
0.0
 40
0.0115
 41
0.0115
  0
VERTEX
  8
0
 10
4.50336
 20
9.40457
 30
0.0
 40
0.0115
 41
0.0115
  0
VERTEX
  8
0
 10
4.51172
 20
9.42469
 30
0.0
 40
0.0115
 41
0.0115
  0
VERTEX
  8
0
 10
4.50336
 20
9.44488
 30
0.0
 40
0.0115
 41
0.0115
  0
VERTEX
  8
0
 10
4.48324
 20
9.45318
 30
0.0
 40
0.0115
 41
0.0115
  0
VERTEX
  8
0
 10
4.46306
 20
9.44488
 30
0.0
 40
0.0115
 41
0.0115
  0
VERTEX
  8
0
 10
4.45469
 20
9.42469
 30
0.0
 40
0.0115
 41
0.0115
  0
VERTEX
  8
0
 10
4.46306
 20
9.40457
 30
0.0
 40
0.0115
 41
0.0115
  0
VERTEX
  8
0
 10
4.48324
 20
9.39615
 30
0.0
 40
0.0115
 41
0.0115
  0
SEQEND
 8
0
  0
POLYLINE
  8
0
 62
     0
 66
     1
 10
0
 20
0
 30
0.0
 70
     1
 40
0.828
 41
0.828
  0
VERTEX
  8
0
 10
9.14372
 20
9.40056
 30
0.0
 40
0.0115
 41
0.0115
  0
VERTEX
  8
0
 10
9.16385
 20
9.4089
 30
0.0
 40
0.0115
 41
0.0115
  0
VERTEX
  8
0
 10
9.17219
 20
9.42904
 30
0.0
 40
0.0115
 41
0.0115
  0
VERTEX
  8
0
 10
9.16385
 20
9.44922
 30
0.0
 40
0.0115
 41
0.0115
  0
VERTEX
  8
0
 10
9.14372
 20
9.45751
 30
0.0
 40
0.0115
 41
0.0115
  0
VERTEX
  8
0
 10
9.12354
 20
9.44922
 30
0.0
 40
0.0115
 41
0.0115
  0
VERTEX
  8
0
 10
9.11524
 20
9.42904
 30
0.0
 40
0.0115
 41
0.0115
  0
VERTEX
  8
0
 10
9.12354
 20
9.4089
 30
0.0
 40
0.0115
 41
0.0115
  0
VERTEX
  8
0
 10
9.14372
 20
9.40056
 30
0.0
 40
0.0115
 41
0.0115
  0
SEQEND
 8
0
  0
POLYLINE
  8
0
 62
     0
 66
     1
 10
0
 20
0
 30
0.0
 70
     1
 40
0.828
 41
0.828
  0
VERTEX
  8
0
 10
11.092
 20
12.8684
 30
0.0
 40
0.0115
 41
0.0115
  0
VERTEX
  8
0
 10
11.1003
 20
12.8482
 30
0.0
 40
0.0115
 41
0.0115
  0
VERTEX
  8
0
 10
11.1205
 20
12.8399
 30
0.0
 40
0.0115
 41
0.0115
  0
VERTEX
  8
0
 10
11.1407
 20
12.8482
 30
0.0
 40
0.0115
 41
0.0115
  0
VERTEX
  8
0
 10
11.149
 20
12.8684
 30
0.0
 40
0.0115
 41
0.0115
  0
VERTEX
  8
0
 10
11.1407
 20
12.8886
 30
0.0
 40
0.0115
 41
0.0115
  0
VERTEX
  8
0
 10
11.1205
 20
12.8969
 30
0.0
 40
0.0115
 41
0.0115
  0
VERTEX
  8
0
 10
11.1003
 20
12.8886
 30
0.0
 40
0.0115
 41
0.0115
  0
VERTEX
  8
0
 10
11.092
 20
12.8684
 30
0.0
 40
0.0115
 41
0.0115
  0
SEQEND
 8
0
  0
POLYLINE
  8
0
 62
     0
 66
     1
 10
0
 20
0
 30
0.0
 70
     1
 40
0.828
 41
0.828
  0
VERTEX
  8
0
 10
3.37896
 20
10.1334
 30
0.0
 40
0.0115
 41
0.0115
  0
VERTEX
  8
0
 10
3.37896
 20
10.0021
 30
0.0
 40
0.0115
 41
0.0115
  0
VERTEX
  8
0
 10
3.49642
 20
10.0021
 30
0.0
 40
0.0115
 41
0.0115
  0
VERTEX
  8
0
 10
3.49642
 20
9.87076
 30
0.0
 40
0.0115
 41
0.0115
  0
VERTEX
  8
0
 10
3.37896
 20
9.87076
 30
0.0
 40
0.0115
 41
0.0115
  0
VERTEX
  8
0
 10
3.37896
 20
9.73947
 30
0.0
 40
0.0115
 41
0.0115
  0
VERTEX
  8
0
 10
3.93419
 20
9.73947
 30
0.0
 40
0.0115
 41
0.0115
  0
VERTEX
  8
0
 10
3.93419
 20
10.1334
 30
0.0
 40
0.0115
 41
0.0115
  0
VERTEX
  8
0
 10
3.37896
 20
10.1334
 30
0.0
 40
0.0115
 41
0.0115
  0
SEQEND
 8
0
  0
POLYLINE
  8
0
 62
     0
 66
     1
 10
0
 20
0
 30
0.0
 70
     1
 40
0.828
 41
0.828
  0
VERTEX
  8
0
 10
8.03944
 20
10.1377
 30
0.0
 40
0.0115
 41
0.0115
  0
VERTEX
  8
0
 10
8.03944
 20
10.0064
 30
0.0
 40
0.0115
 41
0.0115
  0
VERTEX
  8
0
 10
8.1569
 20
10.0064
 30
0.0
 40
0.0115
 41
0.0115
  0
VERTEX
  8
0
 10
8.1569
 20
9.87506
 30
0.0
 40
0.0115
 41
0.0115
  0
VERTEX
  8
0
 10
8.03944
 20
9.87506
 30
0.0
 40
0.0115
 41
0.0115
  0
VERTEX
  8
0
 10
8.03944
 20
9.74376
 30
0.0
 40
0.0115
 41
0.0115
  0
VERTEX
  8
0
 10
8.59467
 20
9.74376
 30
0.0
 40
0.0115
 41
0.0115
  0
VERTEX
  8
0
 10
8.59467
 20
10.1377
 30
0.0
 40
0.0115
 41
0.0115
  0
VERTEX
  8
0
 10
8.03944
 20
10.1377
 30
0.0
 40
0.0115
 41
0.0115
  0
SEQEND
 8
0
  0
POLYLINE
  8
0
 62
     0
 66
     1
 10
0
 20
0
 30
0.0
 70
     1
 40
0.828
 41
0.828
  0
VERTEX
  8
0
 10
11.8292
 20
13.9726
 30
0.0
 40
0.0115
 41
0.0115
  0
VERTEX
  8
0
 10
11.6979
 20
13.9726
 30
0.0
 40
0.0115
 41
0.0115
  0
VERTEX
  8
0
 10
11.6979
 20
13.8551
 30
0.0
 40
0.0115
 41
0.0115
  0
VERTEX
  8
0
 10
11.5666
 20
13.8551
 30
0.0
 40
0.0115
 41
0.0115
  0
VERTEX
  8
0
 10
11.5666
 20
13.9726
 30
0.0
 40
0.0115
 41
0.0115
  0
VERTEX
  8
0
 10
11.4353
 20
13.9726
 30
0.0
 40
0.0115
 41
0.0115
  0
VERTEX
  8
0
 10
11.4353
 20
13.4174
 30
0.0
 40
0.0115
 41
0.0115
  0
VERTEX
  8
0
 10
11.8292
 20
13.4174
 30
0.0
 40
0.0115
 41
0.0115
  0
VERTEX
  8
0
 10
11.8292
 20
13.9726
 30
0.0
 40
0.0115
 41
0.0115
  0
SEQEND
 8
0
  0
POLYLINE
  8
0
 62
     0
 66
     1
 10
0
 20
0
 30
0.0
 70
     1
 40
0.828
 41
0.828
  0
VERTEX
  8
0
 10
3.88693
 20
9.831
 30
0.0
 40
0.0115
 41
0.0115
  0
VERTEX
  8
0
 10
3.90707
 20
9.83936
 30
0.0
 40
0.0115
 41
0.0115
  0
VERTEX
  8
0
 10
3.91542
 20
9.85949
 30
0.0
 40
0.0115
 41
0.0115
  0
VERTEX
  8
0
 10
3.90707
 20
9.87967
 30
0.0
 40
0.0115
 41
0.0115
  0
VERTEX
  8
0
 10
3.88693
 20
9.88797
 30
0.0
 40
0.0115
 41
0.0115
  0
VERTEX
  8
0
 10
3.86675
 20
9.87967
 30
0.0
 40
0.0115
 41
0.0115
  0
VERTEX
  8
0
 10
3.85846
 20
9.85949
 30
0.0
 40
0.0115
 41
0.0115
  0
VERTEX
  8
0
 10
3.86675
 20
9.83936
 30
0.0
 40
0.0115
 41
0.0115
  0
VERTEX
  8
0
 10
3.88693
 20
9.831
 30
0.0
 40
0.0115
 41
0.0115
  0
SEQEND
 8
0
  0
POLYLINE
  8
0
 62
     0
 66
     1
 10
0
 20
0
 30
0.0
 70
     1
 40
0.828
 41
0.828
  0
VERTEX
  8
0
 10
8.54742
 20
9.83529
 30
0.0
 40
0.0115
 41
0.0115
  0
VERTEX
  8
0
 10
8.56754
 20
9.84364
 30
0.0
 40
0.0115
 41
0.0115
  0
VERTEX
  8
0
 10
8.5759
 20
9.86376
 30
0.0
 40
0.0115
 41
0.0115
  0
VERTEX
  8
0
 10
8.56754
 20
9.88396
 30
0.0
 40
0.0115
 41
0.0115
  0
VERTEX
  8
0
 10
8.54742
 20
9.89225
 30
0.0
 40
0.0115
 41
0.0115
  0
VERTEX
  8
0
 10
8.52724
 20
9.88396
 30
0.0
 40
0.0115
 41
0.0115
  0
VERTEX
  8
0
 10
8.51893
 20
9.86376
 30
0.0
 40
0.0115
 41
0.0115
  0
VERTEX
  8
0
 10
8.52724
 20
9.84364
 30
0.0
 40
0.0115
 41
0.0115
  0
VERTEX
  8
0
 10
8.54742
 20
9.83529
 30
0.0
 40
0.0115
 41
0.0115
  0
SEQEND
 8
0
  0
POLYLINE
  8
0
 62
     0
 66
     1
 10
0
 20
0
 30
0.0
 70
     1
 40
0.828
 41
0.828
  0
VERTEX
  8
0
 10
11.5268
 20
13.4647
 30
0.0
 40
0.0115
 41
0.0115
  0
VERTEX
  8
0
 10
11.5351
 20
13.4445
 30
0.0
 40
0.0115
 41
0.0115
  0
VERTEX
  8
0
 10
11.5553
 20
13.4361
 30
0.0
 40
0.0115
 41
0.0115
  0
VERTEX
  8
0
 10
11.5754
 20
13.4445
 30
0.0
 40
0.0115
 41
0.0115
  0
VERTEX
  8
0
 10
11.5838
 20
13.4647
 30
0.0
 40
0.0115
 41
0.0115
  0
VERTEX
  8
0
 10
11.5754
 20
13.4849
 30
0.0
 40
0.0115
 41
0.0115
  0
VERTEX
  8
0
 10
11.5553
 20
13.4932
 30
0.0
 40
0.0115
 41
0.0115
  0
VERTEX
  8
0
 10
11.5351
 20
13.4849
 30
0.0
 40
0.0115
 41
0.0115
  0
VERTEX
  8
0
 10
11.5268
 20
13.4647
 30
0.0
 40
0.0115
 41
0.0115
  0
SEQEND
 8
0
  0
POLYLINE
  8
0
 62
     0
 66
     1
 10
0
 20
0
 30
0.0
 70
     1
 40
0.828
 41
0.828
  0
VERTEX
  8
0
 10
10.9131
 20
14.8761
 30
0.0
 40
0.0115
 41
0.0115
  0
VERTEX
  8
0
 10
10.9131
 20
12.9077
 30
0.0
 40
0.0115
 41
0.0115
  0
VERTEX
  8
0
 10
8.28808
 20
12.9077
 30
0.0
 40
0.0115
 41
0.0115
  0
VERTEX
  8
0
 10
8.28808
 20
14.8761
 30
0.0
 40
0.0115
 41
0.0115
  0
VERTEX
  8
0
 10
9.45057
 20
14.8761
 30
0.0
 40
0.0115
 41
0.0115
  0
VERTEX
  8
0
 10
9.45057
 20
14.0888
 30
0.0
 40
0.0115
 41
0.0115
  0
VERTEX
  8
0
 10
9.60058
 20
14.0888
 30
0.0
 40
0.0115
 41
0.0115
  0
VERTEX
  8
0
 10
9.7506
 20
14.0888
 30
0.0
 40
0.0115
 41
0.0115
  0
VERTEX
  8
0
 10
9.7506
 20
14.8761
 30
0.0
 40
0.0115
 41
0.0115
  0
VERTEX
  8
0
 10
10.9131
 20
14.8761
 30
0.0
 40
0.0115
 41
0.0115
  0
SEQEND
 8
0
  0
POLYLINE
  8
0
 62
     0
 66
     1
 10
0
 20
0
 30
0.0
 70
     1
 40
0.828
 41
0.828
  0
VERTEX
  8
0
 10
9.34565
 20
14.2856
 30
0.0
 40
0.0115
 41
0.0115
  0
VERTEX
  8
0
 10
9.23062
 20
14.2856
 30
0.0
 40
0.0115
 41
0.0115
  0
VERTEX
  8
0
 10
9.23062
 20
14.1543
 30
0.0
 40
0.0115
 41
0.0115
  0
VERTEX
  8
0
 10
9.34565
 20
14.1543
 30
0.0
 40
0.0115
 41
0.0115
  0
VERTEX
  8
0
 10
9.34565
 20
14.2856
 30
0.0
 40
0.0115
 41
0.0115
  0
SEQEND
 8
0
  0
POLYLINE
  8
0
 62
     0
 66
     1
 10
0
 20
0
 30
0.0
 70
     1
 40
0.828
 41
0.828
  0
VERTEX
  8
0
 10
9.34565
 20
14.0231
 30
0.0
 40
0.0115
 41
0.0115
  0
VERTEX
  8
0
 10
9.23062
 20
14.0231
 30
0.0
 40
0.0115
 41
0.0115
  0
VERTEX
  8
0
 10
9.23062
 20
13.8917
 30
0.0
 40
0.0115
 41
0.0115
  0
VERTEX
  8
0
 10
9.34565
 20
13.8917
 30
0.0
 40
0.0115
 41
0.0115
  0
VERTEX
  8
0
 10
9.34565
 20
14.0231
 30
0.0
 40
0.0115
 41
0.0115
  0
SEQEND
 8
0
  0
POLYLINE
  8
0
 62
     0
 66
     1
 10
0
 20
0
 30
0.0
 70
     1
 40
0.828
 41
0.828
  0
VERTEX
  8
0
 10
9.18061
 20
14.0231
 30
0.0
 40
0.0115
 41
0.0115
  0
VERTEX
  8
0
 10
9.18061
 20
13.8917
 30
0.0
 40
0.0115
 41
0.0115
  0
VERTEX
  8
0
 10
9.06565
 20
13.8917
 30
0.0
 40
0.0115
 41
0.0115
  0
VERTEX
  8
0
 10
9.06565
 20
14.0231
 30
0.0
 40
0.0115
 41
0.0115
  0
VERTEX
  8
0
 10
9.18061
 20
14.0231
 30
0.0
 40
0.0115
 41
0.0115
  0
SEQEND
 8
0
  0
POLYLINE
  8
0
 62
     0
 66
     1
 10
0
 20
0
 30
0.0
 70
     1
 40
0.828
 41
0.828
  0
VERTEX
  8
0
 10
9.17785
 20
14.1543
 30
0.0
 40
0.0115
 41
0.0115
  0
VERTEX
  8
0
 10
9.17785
 20
14.2856
 30
0.0
 40
0.0115
 41
0.0115
  0
VERTEX
  8
0
 10
9.06282
 20
14.2856
 30
0.0
 40
0.0115
 41
0.0115
  0
VERTEX
  8
0
 10
9.06282
 20
14.1543
 30
0.0
 40
0.0115
 41
0.0115
  0
VERTEX
  8
0
 10
9.17785
 20
14.1543
 30
0.0
 40
0.0115
 41
0.0115
  0
SEQEND
 8
0
  0
POLYLINE
  8
0
 62
     0
 66
     1
 10
0
 20
0
 30
0.0
 70
     1
 40
0.828
 41
0.828
  0
VERTEX
  8
0
 10
10.6512
 20
14.384
 30
0.0
 40
0.0115
 41
0.0115
  0
VERTEX
  8
0
 10
10.6563
 20
14.3587
 30
0.0
 40
0.0115
 41
0.0115
  0
VERTEX
  8
0
 10
10.6703
 20
14.3381
 30
0.0
 40
0.0115
 41
0.0115
  0
VERTEX
  8
0
 10
10.6909
 20
14.3242
 30
0.0
 40
0.0115
 41
0.0115
  0
VERTEX
  8
0
 10
10.7162
 20
14.319
 30
0.0
 40
0.0115
 41
0.0115
  0
VERTEX
  8
0
 10
10.7415
 20
14.3242
 30
0.0
 40
0.0115
 41
0.0115
  0
VERTEX
  8
0
 10
10.7622
 20
14.3381
 30
0.0
 40
0.0115
 41
0.0115
  0
VERTEX
  8
0
 10
10.7761
 20
14.3587
 30
0.0
 40
0.0115
 41
0.0115
  0
VERTEX
  8
0
 10
10.7813
 20
14.384
 30
0.0
 40
0.0115
 41
0.0115
  0
VERTEX
  8
0
 10
10.7761
 20
14.4093
 30
0.0
 40
0.0115
 41
0.0115
  0
VERTEX
  8
0
 10
10.7622
 20
14.43
 30
0.0
 40
0.0115
 41
0.0115
  0
VERTEX
  8
0
 10
10.7415
 20
14.4439
 30
0.0
 40
0.0115
 41
0.0115
  0
VERTEX
  8
0
 10
10.7162
 20
14.449
 30
0.0
 40
0.0115
 41
0.0115
  0
VERTEX
  8
0
 10
10.6909
 20
14.4439
 30
0.0
 40
0.0115
 41
0.0115
  0
VERTEX
  8
0
 10
10.6703
 20
14.43
 30
0.0
 40
0.0115
 41
0.0115
  0
VERTEX
  8
0
 10
10.6563
 20
14.4093
 30
0.0
 40
0.0115
 41
0.0115
  0
VERTEX
  8
0
 10
10.6512
 20
14.384
 30
0.0
 40
0.0115
 41
0.0115
  0
VERTEX
  8
0
 10
10.6512
 20
14.384
 30
0.0
 40
0.0115
 41
0.0115
  0
SEQEND
 8
0
  0
POLYLINE
  8
0
 62
     0
 66
     1
 10
0
 20
0
 30
0.0
 70
     1
 40
0.828
 41
0.828
  0
VERTEX
  8
0
 10
10.6512
 20
13.5966
 30
0.0
 40
0.0115
 41
0.0115
  0
VERTEX
  8
0
 10
10.6563
 20
13.5713
 30
0.0
 40
0.0115
 41
0.0115
  0
VERTEX
  8
0
 10
10.6703
 20
13.5507
 30
0.0
 40
0.0115
 41
0.0115
  0
VERTEX
  8
0
 10
10.6909
 20
13.5368
 30
0.0
 40
0.0115
 41
0.0115
  0
VERTEX
  8
0
 10
10.7162
 20
13.5316
 30
0.0
 40
0.0115
 41
0.0115
  0
VERTEX
  8
0
 10
10.7415
 20
13.5368
 30
0.0
 40
0.0115
 41
0.0115
  0
VERTEX
  8
0
 10
10.7622
 20
13.5507
 30
0.0
 40
0.0115
 41
0.0115
  0
VERTEX
  8
0
 10
10.7761
 20
13.5713
 30
0.0
 40
0.0115
 41
0.0115
  0
VERTEX
  8
0
 10
10.7813
 20
13.5966
 30
0.0
 40
0.0115
 41
0.0115
  0
VERTEX
  8
0
 10
10.7761
 20
13.622
 30
0.0
 40
0.0115
 41
0.0115
  0
VERTEX
  8
0
 10
10.7622
 20
13.6426
 30
0.0
 40
0.0115
 41
0.0115
  0
VERTEX
  8
0
 10
10.7415
 20
13.6565
 30
0.0
 40
0.0115
 41
0.0115
  0
VERTEX
  8
0
 10
10.7162
 20
13.6616
 30
0.0
 40
0.0115
 41
0.0115
  0
VERTEX
  8
0
 10
10.6909
 20
13.6565
 30
0.0
 40
0.0115
 41
0.0115
  0
VERTEX
  8
0
 10
10.6703
 20
13.6426
 30
0.0
 40
0.0115
 41
0.0115
  0
VERTEX
  8
0
 10
10.6563
 20
13.622
 30
0.0
 40
0.0115
 41
0.0115
  0
VERTEX
  8
0
 10
10.6512
 20
13.5966
 30
0.0
 40
0.0115
 41
0.0115
  0
VERTEX
  8
0
 10
10.6512
 20
13.5966
 30
0.0
 40
0.0115
 41
0.0115
  0
SEQEND
 8
0
  0
POLYLINE
  8
0
 62
     0
 66
     1
 10
0
 20
0
 30
0.0
 70
     1
 40
0.828
 41
0.828
  0
VERTEX
  8
0
 10
8.41992
 20
13.5966
 30
0.0
 40
0.0115
 41
0.0115
  0
VERTEX
  8
0
 10
8.42503
 20
13.5713
 30
0.0
 40
0.0115
 41
0.0115
  0
VERTEX
  8
0
 10
8.43892
 20
13.5507
 30
0.0
 40
0.0115
 41
0.0115
  0
VERTEX
  8
0
 10
8.45958
 20
13.5368
 30
0.0
 40
0.0115
 41
0.0115
  0
VERTEX
  8
0
 10
8.48492
 20
13.5316
 30
0.0
 40
0.0115
 41
0.0115
  0
VERTEX
  8
0
 10
8.51019
 20
13.5368
 30
0.0
 40
0.0115
 41
0.0115
  0
VERTEX
  8
0
 10
8.53088
 20
13.5507
 30
0.0
 40
0.0115
 41
0.0115
  0
VERTEX
  8
0
 10
8.54476
 20
13.5713
 30
0.0
 40
0.0115
 41
0.0115
  0
VERTEX
  8
0
 10
8.54992
 20
13.5966
 30
0.0
 40
0.0115
 41
0.0115
  0
VERTEX
  8
0
 10
8.54476
 20
13.622
 30
0.0
 40
0.0115
 41
0.0115
  0
VERTEX
  8
0
 10
8.53088
 20
13.6426
 30
0.0
 40
0.0115
 41
0.0115
  0
VERTEX
  8
0
 10
8.51019
 20
13.6565
 30
0.0
 40
0.0115
 41
0.0115
  0
VERTEX
  8
0
 10
8.48492
 20
13.6616
 30
0.0
 40
0.0115
 41
0.0115
  0
VERTEX
  8
0
 10
8.45958
 20
13.6565
 30
0.0
 40
0.0115
 41
0.0115
  0
VERTEX
  8
0
 10
8.43892
 20
13.6426
 30
0.0
 40
0.0115
 41
0.0115
  0
VERTEX
  8
0
 10
8.42503
 20
13.622
 30
0.0
 40
0.0115
 41
0.0115
  0
VERTEX
  8
0
 10
8.41992
 20
13.5966
 30
0.0
 40
0.0115
 41
0.0115
  0
VERTEX
  8
0
 10
8.41992
 20
13.5966
 30
0.0
 40
0.0115
 41
0.0115
  0
SEQEND
 8
0
  0
POLYLINE
  8
0
 62
     0
 66
     1
 10
0
 20
0
 30
0.0
 70
     1
 40
0.828
 41
0.828
  0
VERTEX
  8
0
 10
8.41992
 20
14.384
 30
0.0
 40
0.0115
 41
0.0115
  0
VERTEX
  8
0
 10
8.42503
 20
14.3587
 30
0.0
 40
0.0115
 41
0.0115
  0
VERTEX
  8
0
 10
8.43892
 20
14.3381
 30
0.0
 40
0.0115
 41
0.0115
  0
VERTEX
  8
0
 10
8.45958
 20
14.3242
 30
0.0
 40
0.0115
 41
0.0115
  0
VERTEX
  8
0
 10
8.48492
 20
14.319
 30
0.0
 40
0.0115
 41
0.0115
  0
VERTEX
  8
0
 10
8.51019
 20
14.3242
 30
0.0
 40
0.0115
 41
0.0115
  0
VERTEX
  8
0
 10
8.53088
 20
14.3381
 30
0.0
 40
0.0115
 41
0.0115
  0
VERTEX
  8
0
 10
8.54476
 20
14.3587
 30
0.0
 40
0.0115
 41
0.0115
  0
VERTEX
  8
0
 10
8.54992
 20
14.384
 30
0.0
 40
0.0115
 41
0.0115
  0
VERTEX
  8
0
 10
8.54476
 20
14.4093
 30
0.0
 40
0.0115
 41
0.0115
  0
VERTEX
  8
0
 10
8.53088
 20
14.43
 30
0.0
 40
0.0115
 41
0.0115
  0
VERTEX
  8
0
 10
8.51019
 20
14.4439
 30
0.0
 40
0.0115
 41
0.0115
  0
VERTEX
  8
0
 10
8.48492
 20
14.449
 30
0.0
 40
0.0115
 41
0.0115
  0
VERTEX
  8
0
 10
8.45958
 20
14.4439
 30
0.0
 40
0.0115
 41
0.0115
  0
VERTEX
  8
0
 10
8.43892
 20
14.43
 30
0.0
 40
0.0115
 41
0.0115
  0
VERTEX
  8
0
 10
8.42503
 20
14.4093
 30
0.0
 40
0.0115
 41
0.0115
  0
VERTEX
  8
0
 10
8.41992
 20
14.384
 30
0.0
 40
0.0115
 41
0.0115
  0
VERTEX
  8
0
 10
8.41992
 20
14.384
 30
0.0
 40
0.0115
 41
0.0115
  0
SEQEND
 8
0
  0
POLYLINE
  8
0
 62
     0
 66
     1
 10
0
 20
0
 30
0.0
 70
     1
 40
0.828
 41
0.828
  0
VERTEX
  8
0
 10
0.156683
 20
10.2568
 30
0.0
 40
0.0115
 41
0.0115
  0
VERTEX
  8
0
 10
0.156683
 20
12.2253
 30
0.0
 40
0.0115
 41
0.0115
  0
VERTEX
  8
0
 10
2.78168
 20
12.2253
 30
0.0
 40
0.0115
 41
0.0115
  0
VERTEX
  8
0
 10
2.78168
 20
10.2568
 30
0.0
 40
0.0115
 41
0.0115
  0
VERTEX
  8
0
 10
1.61919
 20
10.2568
 30
0.0
 40
0.0115
 41
0.0115
  0
VERTEX
  8
0
 10
1.61919
 20
11.0442
 30
0.0
 40
0.0115
 41
0.0115
  0
VERTEX
  8
0
 10
1.46918
 20
11.0442
 30
0.0
 40
0.0115
 41
0.0115
  0
VERTEX
  8
0
 10
1.31917
 20
11.0442
 30
0.0
 40
0.0115
 41
0.0115
  0
VERTEX
  8
0
 10
1.31917
 20
10.2568
 30
0.0
 40
0.0115
 41
0.0115
  0
VERTEX
  8
0
 10
0.156683
 20
10.2568
 30
0.0
 40
0.0115
 41
0.0115
  0
SEQEND
 8
0
  0
POLYLINE
  8
0
 62
     0
 66
     1
 10
0
 20
0
 30
0.0
 70
     1
 40
0.828
 41
0.828
  0
VERTEX
  8
0
 10
5.56506
 20
10.2517
 30
0.0
 40
0.0115
 41
0.0115
  0
VERTEX
  8
0
 10
5.56506
 20
12.2203
 30
0.0
 40
0.0115
 41
0.0115
  0
VERTEX
  8
0
 10
8.19006
 20
12.2203
 30
0.0
 40
0.0115
 41
0.0115
  0
VERTEX
  8
0
 10
8.19006
 20
10.2517
 30
0.0
 40
0.0115
 41
0.0115
  0
VERTEX
  8
0
 10
7.0275
 20
10.2517
 30
0.0
 40
0.0115
 41
0.0115
  0
VERTEX
  8
0
 10
7.0275
 20
11.0392
 30
0.0
 40
0.0115
 41
0.0115
  0
VERTEX
  8
0
 10
6.87756
 20
11.0392
 30
0.0
 40
0.0115
 41
0.0115
  0
VERTEX
  8
0
 10
6.72754
 20
11.0392
 30
0.0
 40
0.0115
 41
0.0115
  0
VERTEX
  8
0
 10
6.72754
 20
10.2517
 30
0.0
 40
0.0115
 41
0.0115
  0
VERTEX
  8
0
 10
5.56506
 20
10.2517
 30
0.0
 40
0.0115
 41
0.0115
  0
SEQEND
 8
0
  0
POLYLINE
  8
0
 62
     0
 66
     1
 10
0
 20
0
 30
0.0
 70
     1
 40
0.828
 41
0.828
  0
VERTEX
  8
0
 10
1.72413
 20
10.8473
 30
0.0
 40
0.0115
 41
0.0115
  0
VERTEX
  8
0
 10
1.83914
 20
10.8473
 30
0.0
 40
0.0115
 41
0.0115
  0
VERTEX
  8
0
 10
1.83914
 20
10.9786
 30
0.0
 40
0.0115
 41
0.0115
  0
VERTEX
  8
0
 10
1.72413
 20
10.9786
 30
0.0
 40
0.0115
 41
0.0115
  0
VERTEX
  8
0
 10
1.72413
 20
10.8473
 30
0.0
 40
0.0115
 41
0.0115
  0
SEQEND
 8
0
  0
POLYLINE
  8
0
 62
     0
 66
     1
 10
0
 20
0
 30
0.0
 70
     1
 40
0.828
 41
0.828
  0
VERTEX
  8
0
 10
7.13249
 20
10.8423
 30
0.0
 40
0.0115
 41
0.0115
  0
VERTEX
  8
0
 10
7.24744
 20
10.8423
 30
0.0
 40
0.0115
 41
0.0115
  0
VERTEX
  8
0
 10
7.24744
 20
10.9736
 30
0.0
 40
0.0115
 41
0.0115
  0
VERTEX
  8
0
 10
7.13249
 20
10.9736
 30
0.0
 40
0.0115
 41
0.0115
  0
VERTEX
  8
0
 10
7.13249
 20
10.8423
 30
0.0
 40
0.0115
 41
0.0115
  0
SEQEND
 8
0
  0
POLYLINE
  8
0
 62
     0
 66
     1
 10
0
 20
0
 30
0.0
 70
     1
 40
0.828
 41
0.828
  0
VERTEX
  8
0
 10
1.72413
 20
11.1099
 30
0.0
 40
0.0115
 41
0.0115
  0
VERTEX
  8
0
 10
1.83914
 20
11.1099
 30
0.0
 40
0.0115
 41
0.0115
  0
VERTEX
  8
0
 10
1.83914
 20
11.2412
 30
0.0
 40
0.0115
 41
0.0115
  0
VERTEX
  8
0
 10
1.72413
 20
11.2412
 30
0.0
 40
0.0115
 41
0.0115
  0
VERTEX
  8
0
 10
1.72413
 20
11.1099
 30
0.0
 40
0.0115
 41
0.0115
  0
SEQEND
 8
0
  0
POLYLINE
  8
0
 62
     0
 66
     1
 10
0
 20
0
 30
0.0
 70
     1
 40
0.828
 41
0.828
  0
VERTEX
  8
0
 10
7.13249
 20
11.1049
 30
0.0
 40
0.0115
 41
0.0115
  0
VERTEX
  8
0
 10
7.24744
 20
11.1049
 30
0.0
 40
0.0115
 41
0.0115
  0
VERTEX
  8
0
 10
7.24744
 20
11.2362
 30
0.0
 40
0.0115
 41
0.0115
  0
VERTEX
  8
0
 10
7.13249
 20
11.2362
 30
0.0
 40
0.0115
 41
0.0115
  0
VERTEX
  8
0
 10
7.13249
 20
11.1049
 30
0.0
 40
0.0115
 41
0.0115
  0
SEQEND
 8
0
  0
POLYLINE
  8
0
 62
     0
 66
     1
 10
0
 20
0
 30
0.0
 70
     1
 40
0.828
 41
0.828
  0
VERTEX
  8
0
 10
1.88917
 20
11.1099
 30
0.0
 40
0.0115
 41
0.0115
  0
VERTEX
  8
0
 10
1.88917
 20
11.2412
 30
0.0
 40
0.0115
 41
0.0115
  0
VERTEX
  8
0
 10
2.00412
 20
11.2412
 30
0.0
 40
0.0115
 41
0.0115
  0
VERTEX
  8
0
 10
2.00412
 20
11.1099
 30
0.0
 40
0.0115
 41
0.0115
  0
VERTEX
  8
0
 10
1.88917
 20
11.1099
 30
0.0
 40
0.0115
 41
0.0115
  0
SEQEND
 8
0
  0
POLYLINE
  8
0
 62
     0
 66
     1
 10
0
 20
0
 30
0.0
 70
     1
 40
0.828
 41
0.828
  0
VERTEX
  8
0
 10
7.29747
 20
11.1049
 30
0.0
 40
0.0115
 41
0.0115
  0
VERTEX
  8
0
 10
7.29747
 20
11.2362
 30
0.0
 40
0.0115
 41
0.0115
  0
VERTEX
  8
0
 10
7.41249
 20
11.2362
 30
0.0
 40
0.0115
 41
0.0115
  0
VERTEX
  8
0
 10
7.41249
 20
11.1049
 30
0.0
 40
0.0115
 41
0.0115
  0
VERTEX
  8
0
 10
7.29747
 20
11.1049
 30
0.0
 40
0.0115
 41
0.0115
  0
SEQEND
 8
0
  0
POLYLINE
  8
0
 62
     0
 66
     1
 10
0
 20
0
 30
0.0
 70
     1
 40
0.828
 41
0.828
  0
VERTEX
  8
0
 10
1.89193
 20
10.9786
 30
0.0
 40
0.0115
 41
0.0115
  0
VERTEX
  8
0
 10
1.89193
 20
10.8473
 30
0.0
 40
0.0115
 41
0.0115
  0
VERTEX
  8
0
 10
2.00689
 20
10.8473
 30
0.0
 40
0.0115
 41
0.0115
  0
VERTEX
  8
0
 10
2.00689
 20
10.9786
 30
0.0
 40
0.0115
 41
0.0115
  0
VERTEX
  8
0
 10
1.89193
 20
10.9786
 30
0.0
 40
0.0115
 41
0.0115
  0
SEQEND
 8
0
  0
POLYLINE
  8
0
 62
     0
 66
     1
 10
0
 20
0
 30
0.0
 70
     1
 40
0.828
 41
0.828
  0
VERTEX
  8
0
 10
7.30024
 20
10.9736
 30
0.0
 40
0.0115
 41
0.0115
  0
VERTEX
  8
0
 10
7.30024
 20
10.8423
 30
0.0
 40
0.0115
 41
0.0115
  0
VERTEX
  8
0
 10
7.41521
 20
10.8423
 30
0.0
 40
0.0115
 41
0.0115
  0
VERTEX
  8
0
 10
7.41521
 20
10.9736
 30
0.0
 40
0.0115
 41
0.0115
  0
VERTEX
  8
0
 10
7.30024
 20
10.9736
 30
0.0
 40
0.0115
 41
0.0115
  0
SEQEND
 8
0
  0
POLYLINE
  8
0
 62
     0
 66
     1
 10
0
 20
0
 30
0.0
 70
     1
 40
0.828
 41
0.828
  0
VERTEX
  8
0
 10
0.418511
 20
10.7489
 30
0.0
 40
0.0115
 41
0.0115
  0
VERTEX
  8
0
 10
0.413357
 20
10.7742
 30
0.0
 40
0.0115
 41
0.0115
  0
VERTEX
  8
0
 10
0.399468
 20
10.7949
 30
0.0
 40
0.0115
 41
0.0115
  0
VERTEX
  8
0
 10
0.378797
 20
10.8088
 30
0.0
 40
0.0115
 41
0.0115
  0
VERTEX
  8
0
 10
0.353515
 20
10.8139
 30
0.0
 40
0.0115
 41
0.0115
  0
VERTEX
  8
0
 10
0.328179
 20
10.8088
 30
0.0
 40
0.0115
 41
0.0115
  0
VERTEX
  8
0
 10
0.307508
 20
10.7949
 30
0.0
 40
0.0115
 41
0.0115
  0
VERTEX
  8
0
 10
0.293619
 20
10.7742
 30
0.0
 40
0.0115
 41
0.0115
  0
VERTEX
  8
0
 10
0.288519
 20
10.7489
 30
0.0
 40
0.0115
 41
0.0115
  0
VERTEX
  8
0
 10
0.293619
 20
10.7236
 30
0.0
 40
0.0115
 41
0.0115
  0
VERTEX
  8
0
 10
0.307508
 20
10.703
 30
0.0
 40
0.0115
 41
0.0115
  0
VERTEX
  8
0
 10
0.328179
 20
10.689
 30
0.0
 40
0.0115
 41
0.0115
  0
VERTEX
  8
0
 10
0.353515
 20
10.6839
 30
0.0
 40
0.0115
 41
0.0115
  0
VERTEX
  8
0
 10
0.378797
 20
10.689
 30
0.0
 40
0.0115
 41
0.0115
  0
VERTEX
  8
0
 10
0.399468
 20
10.703
 30
0.0
 40
0.0115
 41
0.0115
  0
VERTEX
  8
0
 10
0.413357
 20
10.7236
 30
0.0
 40
0.0115
 41
0.0115
  0
VERTEX
  8
0
 10
0.418511
 20
10.7489
 30
0.0
 40
0.0115
 41
0.0115
  0
VERTEX
  8
0
 10
0.418511
 20
10.7489
 30
0.0
 40
0.0115
 41
0.0115
  0
SEQEND
 8
0
  0
POLYLINE
  8
0
 62
     0
 66
     1
 10
0
 20
0
 30
0.0
 70
     1
 40
0.828
 41
0.828
  0
VERTEX
  8
0
 10
5.82688
 20
10.7439
 30
0.0
 40
0.0115
 41
0.0115
  0
VERTEX
  8
0
 10
5.82172
 20
10.7692
 30
0.0
 40
0.0115
 41
0.0115
  0
VERTEX
  8
0
 10
5.80783
 20
10.7899
 30
0.0
 40
0.0115
 41
0.0115
  0
VERTEX
  8
0
 10
5.78717
 20
10.8038
 30
0.0
 40
0.0115
 41
0.0115
  0
VERTEX
  8
0
 10
5.76188
 20
10.8089
 30
0.0
 40
0.0115
 41
0.0115
  0
VERTEX
  8
0
 10
5.73654
 20
10.8038
 30
0.0
 40
0.0115
 41
0.0115
  0
VERTEX
  8
0
 10
5.71588
 20
10.7899
 30
0.0
 40
0.0115
 41
0.0115
  0
VERTEX
  8
0
 10
5.70199
 20
10.7692
 30
0.0
 40
0.0115
 41
0.0115
  0
VERTEX
  8
0
 10
5.69689
 20
10.7439
 30
0.0
 40
0.0115
 41
0.0115
  0
VERTEX
  8
0
 10
5.70199
 20
10.7186
 30
0.0
 40
0.0115
 41
0.0115
  0
VERTEX
  8
0
 10
5.71588
 20
10.698
 30
0.0
 40
0.0115
 41
0.0115
  0
VERTEX
  8
0
 10
5.73654
 20
10.684
 30
0.0
 40
0.0115
 41
0.0115
  0
VERTEX
  8
0
 10
5.76188
 20
10.6789
 30
0.0
 40
0.0115
 41
0.0115
  0
VERTEX
  8
0
 10
5.78717
 20
10.684
 30
0.0
 40
0.0115
 41
0.0115
  0
VERTEX
  8
0
 10
5.80783
 20
10.698
 30
0.0
 40
0.0115
 41
0.0115
  0
VERTEX
  8
0
 10
5.82172
 20
10.7186
 30
0.0
 40
0.0115
 41
0.0115
  0
VERTEX
  8
0
 10
5.82688
 20
10.7439
 30
0.0
 40
0.0115
 41
0.0115
  0
VERTEX
  8
0
 10
5.82688
 20
10.7439
 30
0.0
 40
0.0115
 41
0.0115
  0
SEQEND
 8
0
  0
POLYLINE
  8
0
 62
     0
 66
     1
 10
0
 20
0
 30
0.0
 70
     1
 40
0.828
 41
0.828
  0
VERTEX
  8
0
 10
0.418511
 20
11.5363
 30
0.0
 40
0.0115
 41
0.0115
  0
VERTEX
  8
0
 10
0.413357
 20
11.5616
 30
0.0
 40
0.0115
 41
0.0115
  0
VERTEX
  8
0
 10
0.399468
 20
11.5823
 30
0.0
 40
0.0115
 41
0.0115
  0
VERTEX
  8
0
 10
0.378797
 20
11.5962
 30
0.0
 40
0.0115
 41
0.0115
  0
VERTEX
  8
0
 10
0.353515
 20
11.6013
 30
0.0
 40
0.0115
 41
0.0115
  0
VERTEX
  8
0
 10
0.328179
 20
11.5962
 30
0.0
 40
0.0115
 41
0.0115
  0
VERTEX
  8
0
 10
0.307508
 20
11.5823
 30
0.0
 40
0.0115
 41
0.0115
  0
VERTEX
  8
0
 10
0.293619
 20
11.5616
 30
0.0
 40
0.0115
 41
0.0115
  0
VERTEX
  8
0
 10
0.288519
 20
11.5363
 30
0.0
 40
0.0115
 41
0.0115
  0
VERTEX
  8
0
 10
0.293619
 20
11.511
 30
0.0
 40
0.0115
 41
0.0115
  0
VERTEX
  8
0
 10
0.307508
 20
11.4903
 30
0.0
 40
0.0115
 41
0.0115
  0
VERTEX
  8
0
 10
0.328179
 20
11.4765
 30
0.0
 40
0.0115
 41
0.0115
  0
VERTEX
  8
0
 10
0.353515
 20
11.4713
 30
0.0
 40
0.0115
 41
0.0115
  0
VERTEX
  8
0
 10
0.378797
 20
11.4765
 30
0.0
 40
0.0115
 41
0.0115
  0
VERTEX
  8
0
 10
0.399468
 20
11.4903
 30
0.0
 40
0.0115
 41
0.0115
  0
VERTEX
  8
0
 10
0.413357
 20
11.511
 30
0.0
 40
0.0115
 41
0.0115
  0
VERTEX
  8
0
 10
0.418511
 20
11.5363
 30
0.0
 40
0.0115
 41
0.0115
  0
SEQEND
 8
0
  0
POLYLINE
  8
0
 62
     0
 66
     1
 10
0
 20
0
 30
0.0
 70
     1
 40
0.828
 41
0.828
  0
VERTEX
  8
0
 10
5.82688
 20
11.5313
 30
0.0
 40
0.0115
 41
0.0115
  0
VERTEX
  8
0
 10
5.82172
 20
11.5566
 30
0.0
 40
0.0115
 41
0.0115
  0
VERTEX
  8
0
 10
5.80783
 20
11.5773
 30
0.0
 40
0.0115
 41
0.0115
  0
VERTEX
  8
0
 10
5.78717
 20
11.5912
 30
0.0
 40
0.0115
 41
0.0115
  0
VERTEX
  8
0
 10
5.76188
 20
11.5963
 30
0.0
 40
0.0115
 41
0.0115
  0
VERTEX
  8
0
 10
5.73654
 20
11.5912
 30
0.0
 40
0.0115
 41
0.0115
  0
VERTEX
  8
0
 10
5.71588
 20
11.5773
 30
0.0
 40
0.0115
 41
0.0115
  0
VERTEX
  8
0
 10
5.70199
 20
11.5566
 30
0.0
 40
0.0115
 41
0.0115
  0
VERTEX
  8
0
 10
5.69689
 20
11.5313
 30
0.0
 40
0.0115
 41
0.0115
  0
VERTEX
  8
0
 10
5.70199
 20
11.506
 30
0.0
 40
0.0115
 41
0.0115
  0
VERTEX
  8
0
 10
5.71588
 20
11.4853
 30
0.0
 40
0.0115
 41
0.0115
  0
VERTEX
  8
0
 10
5.73654
 20
11.4715
 30
0.0
 40
0.0115
 41
0.0115
  0
VERTEX
  8
0
 10
5.76188
 20
11.4663
 30
0.0
 40
0.0115
 41
0.0115
  0
VERTEX
  8
0
 10
5.78717
 20
11.4715
 30
0.0
 40
0.0115
 41
0.0115
  0
VERTEX
  8
0
 10
5.80783
 20
11.4853
 30
0.0
 40
0.0115
 41
0.0115
  0
VERTEX
  8
0
 10
5.82172
 20
11.506
 30
0.0
 40
0.0115
 41
0.0115
  0
VERTEX
  8
0
 10
5.82688
 20
11.5313
 30
0.0
 40
0.0115
 41
0.0115
  0
VERTEX
  8
0
 10
5.82688
 20
11.5313
 30
0.0
 40
0.0115
 41
0.0115
  0
SEQEND
 8
0
  0
POLYLINE
  8
0
 62
     0
 66
     1
 10
0
 20
0
 30
0.0
 70
     1
 40
0.828
 41
0.828
  0
VERTEX
  8
0
 10
2.64979
 20
11.5363
 30
0.0
 40
0.0115
 41
0.0115
  0
VERTEX
  8
0
 10
2.64464
 20
11.5616
 30
0.0
 40
0.0115
 41
0.0115
  0
VERTEX
  8
0
 10
2.63075
 20
11.5823
 30
0.0
 40
0.0115
 41
0.0115
  0
VERTEX
  8
0
 10
2.61008
 20
11.5962
 30
0.0
 40
0.0115
 41
0.0115
  0
VERTEX
  8
0
 10
2.58479
 20
11.6013
 30
0.0
 40
0.0115
 41
0.0115
  0
VERTEX
  8
0
 10
2.55946
 20
11.5962
 30
0.0
 40
0.0115
 41
0.0115
  0
VERTEX
  8
0
 10
2.53885
 20
11.5823
 30
0.0
 40
0.0115
 41
0.0115
  0
VERTEX
  8
0
 10
2.5249
 20
11.5616
 30
0.0
 40
0.0115
 41
0.0115
  0
VERTEX
  8
0
 10
2.51981
 20
11.5363
 30
0.0
 40
0.0115
 41
0.0115
  0
VERTEX
  8
0
 10
2.5249
 20
11.511
 30
0.0
 40
0.0115
 41
0.0115
  0
VERTEX
  8
0
 10
2.53885
 20
11.4903
 30
0.0
 40
0.0115
 41
0.0115
  0
VERTEX
  8
0
 10
2.55946
 20
11.4765
 30
0.0
 40
0.0115
 41
0.0115
  0
VERTEX
  8
0
 10
2.58479
 20
11.4713
 30
0.0
 40
0.0115
 41
0.0115
  0
VERTEX
  8
0
 10
2.61008
 20
11.4765
 30
0.0
 40
0.0115
 41
0.0115
  0
VERTEX
  8
0
 10
2.63075
 20
11.4903
 30
0.0
 40
0.0115
 41
0.0115
  0
VERTEX
  8
0
 10
2.64464
 20
11.511
 30
0.0
 40
0.0115
 41
0.0115
  0
VERTEX
  8
0
 10
2.64979
 20
11.5363
 30
0.0
 40
0.0115
 41
0.0115
  0
SEQEND
 8
0
  0
POLYLINE
  8
0
 62
     0
 66
     1
 10
0
 20
0
 30
0.0
 70
     1
 40
0.828
 41
0.828
  0
VERTEX
  8
0
 10
8.05817
 20
11.5313
 30
0.0
 40
0.0115
 41
0.0115
  0
VERTEX
  8
0
 10
8.053
 20
11.5566
 30
0.0
 40
0.0115
 41
0.0115
  0
VERTEX
  8
0
 10
8.03911
 20
11.5773
 30
0.0
 40
0.0115
 41
0.0115
  0
VERTEX
  8
0
 10
8.01844
 20
11.5912
 30
0.0
 40
0.0115
 41
0.0115
  0
VERTEX
  8
0
 10
7.99317
 20
11.5963
 30
0.0
 40
0.0115
 41
0.0115
  0
VERTEX
  8
0
 10
7.96783
 20
11.5912
 30
0.0
 40
0.0115
 41
0.0115
  0
VERTEX
  8
0
 10
7.94721
 20
11.5773
 30
0.0
 40
0.0115
 41
0.0115
  0
VERTEX
  8
0
 10
7.93326
 20
11.5566
 30
0.0
 40
0.0115
 41
0.0115
  0
VERTEX
  8
0
 10
7.92817
 20
11.5313
 30
0.0
 40
0.0115
 41
0.0115
  0
VERTEX
  8
0
 10
7.93326
 20
11.506
 30
0.0
 40
0.0115
 41
0.0115
  0
VERTEX
  8
0
 10
7.94721
 20
11.4853
 30
0.0
 40
0.0115
 41
0.0115
  0
VERTEX
  8
0
 10
7.96783
 20
11.4715
 30
0.0
 40
0.0115
 41
0.0115
  0
VERTEX
  8
0
 10
7.99317
 20
11.4663
 30
0.0
 40
0.0115
 41
0.0115
  0
VERTEX
  8
0
 10
8.01844
 20
11.4715
 30
0.0
 40
0.0115
 41
0.0115
  0
VERTEX
  8
0
 10
8.03911
 20
11.4853
 30
0.0
 40
0.0115
 41
0.0115
  0
VERTEX
  8
0
 10
8.053
 20
11.506
 30
0.0
 40
0.0115
 41
0.0115
  0
VERTEX
  8
0
 10
8.05817
 20
11.5313
 30
0.0
 40
0.0115
 41
0.0115
  0
SEQEND
 8
0
  0
POLYLINE
  8
0
 62
     0
 66
     1
 10
0
 20
0
 30
0.0
 70
     1
 40
0.828
 41
0.828
  0
VERTEX
  8
0
 10
2.64979
 20
10.7489
 30
0.0
 40
0.0115
 41
0.0115
  0
VERTEX
  8
0
 10
2.64464
 20
10.7742
 30
0.0
 40
0.0115
 41
0.0115
  0
VERTEX
  8
0
 10
2.63075
 20
10.7949
 30
0.0
 40
0.0115
 41
0.0115
  0
VERTEX
  8
0
 10
2.61008
 20
10.8088
 30
0.0
 40
0.0115
 41
0.0115
  0
VERTEX
  8
0
 10
2.58479
 20
10.8139
 30
0.0
 40
0.0115
 41
0.0115
  0
VERTEX
  8
0
 10
2.55946
 20
10.8088
 30
0.0
 40
0.0115
 41
0.0115
  0
VERTEX
  8
0
 10
2.53885
 20
10.7949
 30
0.0
 40
0.0115
 41
0.0115
  0
VERTEX
  8
0
 10
2.5249
 20
10.7742
 30
0.0
 40
0.0115
 41
0.0115
  0
VERTEX
  8
0
 10
2.51981
 20
10.7489
 30
0.0
 40
0.0115
 41
0.0115
  0
VERTEX
  8
0
 10
2.5249
 20
10.7236
 30
0.0
 40
0.0115
 41
0.0115
  0
VERTEX
  8
0
 10
2.53885
 20
10.703
 30
0.0
 40
0.0115
 41
0.0115
  0
VERTEX
  8
0
 10
2.55946
 20
10.689
 30
0.0
 40
0.0115
 41
0.0115
  0
VERTEX
  8
0
 10
2.58479
 20
10.6839
 30
0.0
 40
0.0115
 41
0.0115
  0
VERTEX
  8
0
 10
2.61008
 20
10.689
 30
0.0
 40
0.0115
 41
0.0115
  0
VERTEX
  8
0
 10
2.63075
 20
10.703
 30
0.0
 40
0.0115
 41
0.0115
  0
VERTEX
  8
0
 10
2.64464
 20
10.7236
 30
0.0
 40
0.0115
 41
0.0115
  0
VERTEX
  8
0
 10
2.64979
 20
10.7489
 30
0.0
 40
0.0115
 41
0.0115
  0
VERTEX
  8
0
 10
2.64979
 20
10.7489
 30
0.0
 40
0.0115
 41
0.0115
  0
SEQEND
 8
0
  0
POLYLINE
  8
0
 62
     0
 66
     1
 10
0
 20
0
 30
0.0
 70
     1
 40
0.828
 41
0.828
  0
VERTEX
  8
0
 10
8.05817
 20
10.7439
 30
0.0
 40
0.0115
 41
0.0115
  0
VERTEX
  8
0
 10
8.053
 20
10.7692
 30
0.0
 40
0.0115
 41
0.0115
  0
VERTEX
  8
0
 10
8.03911
 20
10.7899
 30
0.0
 40
0.0115
 41
0.0115
  0
VERTEX
  8
0
 10
8.01844
 20
10.8038
 30
0.0
 40
0.0115
 41
0.0115
  0
VERTEX
  8
0
 10
7.99317
 20
10.8089
 30
0.0
 40
0.0115
 41
0.0115
  0
VERTEX
  8
0
 10
7.96783
 20
10.8038
 30
0.0
 40
0.0115
 41
0.0115
  0
VERTEX
  8
0
 10
7.94721
 20
10.7899
 30
0.0
 40
0.0115
 41
0.0115
  0
VERTEX
  8
0
 10
7.93326
 20
10.7692
 30
0.0
 40
0.0115
 41
0.0115
  0
VERTEX
  8
0
 10
7.92817
 20
10.7439
 30
0.0
 40
0.0115
 41
0.0115
  0
VERTEX
  8
0
 10
7.93326
 20
10.7186
 30
0.0
 40
0.0115
 41
0.0115
  0
VERTEX
  8
0
 10
7.94721
 20
10.698
 30
0.0
 40
0.0115
 41
0.0115
  0
VERTEX
  8
0
 10
7.96783
 20
10.684
 30
0.0
 40
0.0115
 41
0.0115
  0
VERTEX
  8
0
 10
7.99317
 20
10.6789
 30
0.0
 40
0.0115
 41
0.0115
  0
VERTEX
  8
0
 10
8.01844
 20
10.684
 30
0.0
 40
0.0115
 41
0.0115
  0
VERTEX
  8
0
 10
8.03911
 20
10.698
 30
0.0
 40
0.0115
 41
0.0115
  0
VERTEX
  8
0
 10
8.053
 20
10.7186
 30
0.0
 40
0.0115
 41
0.0115
  0
VERTEX
  8
0
 10
8.05817
 20
10.7439
 30
0.0
 40
0.0115
 41
0.0115
  0
VERTEX
  8
0
 10
8.05817
 20
10.7439
 30
0.0
 40
0.0115
 41
0.0115
  0
SEQEND
 8
0
  0
ENDSEC
  0
EOF
